<?xml version="1.0" encoding="utf-8"?>
<!-- Generator: Adobe Illustrator 27.0.0, SVG Export Plug-In . SVG Version: 6.00 Build 0)  -->
<svg version="1.1" id="Vrstva_1" xmlns="http://www.w3.org/2000/svg" xmlns:xlink="http://www.w3.org/1999/xlink" x="0px" y="0px"
	 viewBox="0 0 350 250" style="enable-background:new 0 0 350 250;" xml:space="preserve">
<style type="text/css">
	.st0{fill:#FFFFFF;}
	.st1{fill:#333333;}
	.st2{fill:#FEC2B1;}
	.st3{fill:#FF9F9F;}
	.st4{fill:#465B88;}
	.st5{fill:#465B88;filter:url(#Adobe_OpacityMaskFilter);}
	.st6{mask:url(#mask0_346_506_00000067235526991665145250000010648850655053218748_);}
	.st7{fill:#AADDC6;}
	.st8{fill:#465B88;filter:url(#Adobe_OpacityMaskFilter_00000173850798214407057350000001950558960003447948_);}
	.st9{mask:url(#mask1_346_506_00000098206617675577796220000005479952528246418073_);}
	.st10{fill:#2F7555;}
	.st11{fill:#465B88;filter:url(#Adobe_OpacityMaskFilter_00000039829536478979090870000002216350642994131590_);}
	.st12{mask:url(#mask2_346_506_00000022548323285342165080000015111759672250097540_);}
	.st13{fill:#8DD1B3;}
	.st14{fill:#465B88;filter:url(#Adobe_OpacityMaskFilter_00000044867159697981315690000001197919290582544821_);}
	.st15{mask:url(#mask3_346_506_00000142142812604753767490000001554258177379036817_);}
	.st16{fill:#6AC49B;}
	.st17{fill:#465B88;filter:url(#Adobe_OpacityMaskFilter_00000130607096355984250130000011475588442687475602_);}
	.st18{mask:url(#mask4_346_506_00000062892252743185137590000007310783678978028686_);}
	.st19{fill:#465B88;filter:url(#Adobe_OpacityMaskFilter_00000160180783157882576870000012427724900086401953_);}
	.st20{mask:url(#mask5_346_506_00000049939506601129653150000016687619775925117095_);}
	.st21{fill:#465B88;filter:url(#Adobe_OpacityMaskFilter_00000098183624119409301080000003072074681325039248_);}
	.st22{mask:url(#mask6_346_506_00000100353842487625062280000005626530374015891848_);}
	.st23{fill:#465B88;filter:url(#Adobe_OpacityMaskFilter_00000128457469027540346270000013287334649322197433_);}
	.st24{mask:url(#mask7_346_506_00000092422087907970042610000002813036580183275197_);}
	.st25{fill:#D76868;}
</style>
<path class="st0" d="M243.3,145.1c-20,27.8-40.8,28.3-62.5,1.6c19.9-30.7,40.5-31.4,61.9-2.1L243.3,145.1z M165.9,144.9
	c-20.1,27.8-41.1,28.3-63,1.6c20.1-30.7,40.9-31.4,62.4-2.1L165.9,144.9z"/>
<path class="st1" d="M132.6,142.4c-1.2-1.2-1.8-2.7-1.8-4.4c0-1.7,0.6-3.2,1.8-4.4c1.2-1.2,2.6-1.8,4.3-1.8c1.7,0,3.1,0.6,4.3,1.8
	c1.2,1.2,1.8,2.7,1.8,4.4c0,1.7-0.6,3.2-1.8,4.4c-1.2,1.2-2.6,1.8-4.3,1.8C135.2,144.2,133.8,143.6,132.6,142.4z"/>
<path class="st1" d="M213.9,131.3c1.7,0,3.1,0.6,4.3,1.8c1.2,1.2,1.8,2.7,1.8,4.4c0,1.7-0.6,3.2-1.8,4.4c-1.2,1.2-2.6,1.8-4.3,1.8
	c-1.7,0-3.1-0.6-4.3-1.8c-1.2-1.2-1.8-2.7-1.8-4.4c0-1.7,0.6-3.2,1.8-4.4C210.8,131.9,212.2,131.3,213.9,131.3z"/>
<path class="st2" d="M256.5,85.2c2.4,23.2,2.3,40.9-0.3,53.4c-1.2,14-4.1,27.9-8.6,41.7c-4.5,13.8-12.3,28.1-23.5,42.8
	c-11.2,14.7-27.7,22.1-49.5,22.1c-21.8,0-39.9-10.6-54.1-31.7c-14.2-21.1-23.2-43.7-26.9-67.6c-3.7-23.9-4.6-44.2-2.5-60.6
	c1.1-11,5-22.8,11.7-35.6C118.3,19.8,141.4,4.8,172,4.4c30.9-0.4,54.8,14.2,71.7,43.8C250.5,60.1,254.7,72.4,256.5,85.2z
	 M234.5,143.8L234.5,143.8c-14.3-12.5-28.6-12.4-42,0.7C207.1,155.9,221.1,155.7,234.5,143.8z M155.9,143.8
	c-14.3-12.5-28.6-12.4-42,0.7C128.5,155.9,142.4,155.7,155.9,143.8L155.9,143.8z"/>
<path class="st1" d="M193,113.3c26.8-4.2,43.5,1.3,50.2,16.8l-8.2-4.7c-12.8-6.8-27.9-7-45-0.5L193,113.3z M112.2,126.6l-8.2,4.7
	c6.7-15.4,23.4-21,50.2-16.8l3.5,10.5C140.2,119.3,125.1,119.8,112.2,126.6z"/>
<path class="st2" d="M245,140c16.5-6.6,23.7-3.1,21.6,10.6c-1.3,8.3-5.9,18.3-13.7,30.2c-4,4.8-7.5,7.2-10.4,7.2
	c-2.3,0-4.3-1.5-5.9-4.6c0.5-7.8,1.5-16.6,3-26.5C241.1,147.1,242.9,141.4,245,140z"/>
<path class="st3" d="M258.9,139.4c8.6,1.4,7.7,9.9-2.8,25.6c-2.5,4.4-5.7,7.7-9.6,9.8c15-27.5,16.7-36.8,5.1-27.8
	C253.5,142.8,255.9,140.2,258.9,139.4z"/>
<path class="st2" d="M109.4,160.8c1.5,9.8,2.5,18.7,3,26.5c-1.6,3.1-3.5,4.6-5.9,4.6c-2.9,0-6.3-2.4-10.4-7.2
	c-7.9-11.9-12.5-22-13.7-30.2c-2.1-13.7,5.1-17.2,21.6-10.6C106.1,145.3,107.9,150.9,109.4,160.8z"/>
<path class="st3" d="M97.3,150.9c-11.6-9-9.9,0.3,5.1,27.8c-3.9-2.1-7.1-5.4-9.6-9.8c-10.5-15.7-11.4-24.2-2.8-25.6
	C93.1,144.1,95.5,146.6,97.3,150.9z"/>
<path class="st3" d="M162.6,177.6c11.1,15.3,21,14.1,29.7-3.7c-1.5,11-5.5,17.8-12.1,20.3c-11.5,0-17.6-6-18.3-18.1L162.6,177.6z"/>
<path class="st4" d="M194.7,22.4c18.5,6.8,30.4,16.6,35.6,29.4c5.5,10,7.5,18.4,5.9,25.4c-2.4,11.1-13.8,18.3-34.2,21.6
	c-11.7,0.9-21.7,1.4-30,1.3c-8.3-0.1-16-0.2-22.9-0.3c-23.7-1.6-35.8-8.9-36.4-22c-0.1-2.2,0.2-4.7,0.7-7.2
	c4-17.7,13.2-31.6,27.7-41.7C157.3,17.9,175.1,15.8,194.7,22.4z"/>
<defs>
	<filter id="Adobe_OpacityMaskFilter" filterUnits="userSpaceOnUse" x="144.8" y="53.1" width="60.8" height="15.5">
		<feColorMatrix  type="matrix" values="1 0 0 0 0  0 1 0 0 0  0 0 1 0 0  0 0 0 1 0"/>
	</filter>
</defs>
<mask maskUnits="userSpaceOnUse" x="144.8" y="53.1" width="60.8" height="15.5" id="mask0_346_506_00000067235526991665145250000010648850655053218748_">
	<path class="st5" d="M194.7,22.4c18.5,6.8,30.4,16.6,35.6,29.4c5.5,10,7.5,18.4,5.9,25.4c-2.4,11.1-13.8,18.3-34.2,21.6
		c-11.7,0.9-21.7,1.4-30,1.3c-8.3-0.1-16-0.2-22.9-0.3c-23.7-1.6-35.8-8.9-36.4-22c-0.1-2.2,0.2-4.7,0.7-7.2
		c4-17.7,13.2-31.6,27.7-41.7C157.3,17.9,175.1,15.8,194.7,22.4z"/>
</mask>
<g class="st6">
	<path class="st7" d="M199.2,65.3c-18.4,4.4-36.5,4.3-54.5-0.4l9.4-11.8c14.6,4.7,31.8,5.4,51.4,2.2l-0.1,0.1
		c-1.6,3.7-3,6.3-4.2,7.7C200.1,64.5,199.4,65.2,199.2,65.3C199.2,65.2,199.2,65.2,199.2,65.3L199.2,65.3L199.2,65.3
		C199.2,65.3,199.2,65.3,199.2,65.3z M197.5,64c2-1.9,3.8-4.3,5.3-7.2c-14.2,2.1-26.5,2.2-37,0.5l-6.3,8
		C173.9,67.3,186.5,66.9,197.5,64z M157.7,57c0.2-0.4,0.4-0.4,0.6-0.1c0,0.7-0.3,1.1-1,0.9l0-0.1C157.4,57.6,157.5,57.3,157.7,57z
		 M156.6,55.2c0-0.6-0.5-0.7-1.4-0.4c-1,0.3-1.5,0.6-1.5,1c0,0.1,0,0.2,0.1,0.3l0.1,0l1.3-0.6l-0.6,0.7c0,0.1-0.2,0.3-0.4,0.6
		c-0.3,0.3-0.4,0.6-0.4,0.9c0,0.2,0.3,0.3,0.9,0.3c0.2-0.3,0.6-0.7,1-1.3C156.3,55.9,156.6,55.4,156.6,55.2z M158.6,55.8
		C158.6,55.8,158.6,55.8,158.6,55.8c-0.2,0-0.4,0-0.5,0.1c-0.6,0.2-1.1,0.6-1.4,1.3c0,0,0,0.1,0,0.1c-0.1,0.2-0.1,0.3-0.2,0.5
		l-0.1,0.5c0,0.3,0.3,0.5,0.8,0.5c0.3,0,0.5-0.1,0.7-0.2c0.2-0.1,0.4-0.2,0.5-0.4c0.2-0.3,0.4-0.7,0.6-1.2c0-0.2,0.1-0.3,0.1-0.4
		c0-0.1,0-0.1,0-0.2C159.2,56,159,55.8,158.6,55.8z M160.3,59L160.3,59c-0.2-0.5-0.1-0.8,0.3-1.2c0.4-0.4,0.7-0.4,1-0.1
		c-0.1,0.2-0.2,0.5-0.4,0.7C160.8,58.7,160.6,58.9,160.3,59z M161.5,56.6C161.5,56.6,161.5,56.6,161.5,56.6c-0.2,0-0.3,0-0.4,0
		c-0.5,0.1-0.9,0.3-1.1,0.6c-0.3,0.3-0.5,0.7-0.6,1.2c0,0,0,0,0,0c0,0.1,0,0.4,0.2,0.7c0.1,0.1,0.1,0.2,0.2,0.3
		c0.2,0.2,0.4,0.4,0.7,0.4c0.1,0,0.1,0,0.2,0c0.2-0.1,0.5-0.4,0.9-0.8c0.2-0.3,0.4-0.6,0.5-0.8c0.1-0.2,0.2-0.4,0.2-0.6
		c0-0.1,0-0.2,0-0.2C162.3,56.8,162.1,56.6,161.5,56.6z"/>
</g>
<defs>
	
		<filter id="Adobe_OpacityMaskFilter_00000035532529677867662250000002198037801609388975_" filterUnits="userSpaceOnUse" x="144.7" y="55.4" width="61.5" height="22.3">
		<feColorMatrix  type="matrix" values="1 0 0 0 0  0 1 0 0 0  0 0 1 0 0  0 0 0 1 0"/>
	</filter>
</defs>
<mask maskUnits="userSpaceOnUse" x="144.7" y="55.4" width="61.5" height="22.3" id="mask1_346_506_00000098206617675577796220000005479952528246418073_">
	<path style="fill:#465B88;filter:url(#Adobe_OpacityMaskFilter_00000035532529677867662250000002198037801609388975_);" d="
		M194.7,22.4c18.5,6.8,30.4,16.6,35.6,29.4c5.5,10,7.5,18.4,5.9,25.4c-2.4,11.1-13.8,18.3-34.2,21.6c-11.7,0.9-21.7,1.4-30,1.3
		c-8.3-0.1-16-0.2-22.9-0.3c-23.7-1.6-35.8-8.9-36.4-22c-0.1-2.2,0.2-4.7,0.7-7.2c4-17.7,13.2-31.6,27.7-41.7
		C157.3,17.9,175.1,15.8,194.7,22.4z"/>
</mask>
<g class="st9">
	<path class="st10" d="M199.2,76.6v-0.2c0,0,0-0.1,0-0.1l0-1.8h0c-17.9,4.3-36,4.3-54.4,0v-0.7c19.4,4.5,37.5,4.5,54.4,0l0,0v-1.1
		c-0.3,0.1-0.7,0.2-1,0.2c-17.2,4-34.6,4-52.3,0c-0.4-0.1-0.7-0.2-1.1-0.2v-0.7c1.5,0.3,3,0.7,4.5,1c16.2,3.3,31.6,3.3,46.1,0
		c1.3-0.3,2.6-0.6,3.9-1v-1.4c-4.1,1-8.2,1.8-12.4,2.4c-9.7,1.3-19.5,1.3-29.4,0c-4.2-0.5-8.5-1.3-12.7-2.3v-0.7
		c6.4,1.5,12.7,2.5,18.8,3c6.4,0.5,12.7,0.5,18.8,0c5.7-0.5,11.3-1.5,16.8-2.9v-0.6l0,0v-0.7c-17.9,4.3-36,4.3-54.4-0.1v-0.7
		c19.4,4.6,37.5,4.6,54.4,0.1v-1.2c-17.8,4.3-36,4.2-54.4-0.1v-0.7c19.5,4.5,37.6,4.6,54.4,0.1c0-0.2,0-0.4,0-0.7c0,0,0,0,0,0h0l0,0
		c0-0.1,0-0.1,0,0c0.1,0,0.8-0.8,2-2.2c1.2-1.4,2.6-4,4.2-7.7l0.7,9.1C205.2,68.5,202.9,72.5,199.2,76.6z"/>
</g>
<defs>
	
		<filter id="Adobe_OpacityMaskFilter_00000056417988792291584480000008176807600911208851_" filterUnits="userSpaceOnUse" x="153.7" y="54.7" width="49" height="11.9">
		<feColorMatrix  type="matrix" values="1 0 0 0 0  0 1 0 0 0  0 0 1 0 0  0 0 0 1 0"/>
	</filter>
</defs>
<mask maskUnits="userSpaceOnUse" x="153.7" y="54.7" width="49" height="11.9" id="mask2_346_506_00000022548323285342165080000015111759672250097540_">
	<path style="fill:#465B88;filter:url(#Adobe_OpacityMaskFilter_00000056417988792291584480000008176807600911208851_);" d="
		M194.7,22.4c18.5,6.8,30.4,16.6,35.6,29.4c5.5,10,7.5,18.4,5.9,25.4c-2.4,11.1-13.8,18.3-34.2,21.6c-11.7,0.9-21.7,1.4-30,1.3
		c-8.3-0.1-16-0.2-22.9-0.3c-23.7-1.6-35.8-8.9-36.4-22c-0.1-2.2,0.2-4.7,0.7-7.2c4-17.7,13.2-31.6,27.7-41.7
		C157.3,17.9,175.1,15.8,194.7,22.4z"/>
</mask>
<g class="st12">
	<path class="st13" d="M197.5,64c-10.9,2.9-23.6,3.3-38,1.3l6.3-8c10.5,1.7,22.8,1.6,37-0.5C201.2,59.7,199.5,62.1,197.5,64z
		 M161.5,56.6c0.6,0,0.8,0.2,0.8,0.7c0,0.1,0,0.1,0,0.2c0,0.2-0.1,0.4-0.2,0.6c-0.1,0.2-0.3,0.5-0.5,0.8c-0.3,0.4-0.6,0.7-0.9,0.8
		c-0.1,0-0.1,0-0.2,0c-0.3,0-0.5-0.1-0.7-0.4c-0.1-0.1-0.1-0.2-0.2-0.3c-0.2-0.3-0.2-0.5-0.2-0.7c0,0,0,0,0,0
		c0.1-0.5,0.3-0.9,0.6-1.2c0.3-0.3,0.7-0.5,1.1-0.6C161.2,56.6,161.3,56.6,161.5,56.6C161.5,56.6,161.5,56.6,161.5,56.6z M160.3,59
		c0.3,0,0.6-0.2,0.8-0.5c0.2-0.2,0.3-0.5,0.4-0.7c-0.2-0.3-0.6-0.3-1,0.1C160.1,58.1,160,58.5,160.3,59L160.3,59z M158.6,55.8
		c0.3,0,0.5,0.2,0.5,0.6c0,0,0,0.1,0,0.2c0,0.1,0,0.2-0.1,0.4c-0.1,0.5-0.3,0.9-0.6,1.2c-0.1,0.2-0.3,0.3-0.5,0.4
		c-0.2,0.1-0.5,0.2-0.7,0.2c-0.5,0-0.8-0.2-0.8-0.5l0.1-0.5c0-0.2,0.1-0.4,0.2-0.5c0,0,0-0.1,0-0.1c0.3-0.7,0.8-1.1,1.4-1.3
		C158.3,55.8,158.4,55.8,158.6,55.8C158.6,55.8,158.6,55.8,158.6,55.8z M156.6,55.2c0,0.1-0.3,0.7-1,1.6c-0.4,0.6-0.8,1-1,1.3
		c-0.6,0-0.9,0-0.9-0.3c0-0.2,0.1-0.5,0.4-0.9c0.3-0.3,0.4-0.6,0.4-0.6l0.6-0.7l-1.3,0.6l-0.1,0c0,0-0.1-0.1-0.1-0.3
		c0-0.4,0.5-0.7,1.5-1C156.2,54.5,156.6,54.7,156.6,55.2z M157.7,57c-0.2,0.3-0.3,0.6-0.3,0.7l0,0.1c0.6,0.1,0.9-0.2,1-0.9
		C158.1,56.6,157.9,56.6,157.7,57z"/>
</g>
<defs>
	
		<filter id="Adobe_OpacityMaskFilter_00000071561349646889133810000009395876519709109420_" filterUnits="userSpaceOnUse" x="144.7" y="64.9" width="54.5" height="14.4">
		<feColorMatrix  type="matrix" values="1 0 0 0 0  0 1 0 0 0  0 0 1 0 0  0 0 0 1 0"/>
	</filter>
</defs>
<mask maskUnits="userSpaceOnUse" x="144.7" y="64.9" width="54.5" height="14.4" id="mask3_346_506_00000142142812604753767490000001554258177379036817_">
	<path style="fill:#465B88;filter:url(#Adobe_OpacityMaskFilter_00000071561349646889133810000009395876519709109420_);" d="
		M194.7,22.4c18.5,6.8,30.4,16.6,35.6,29.4c5.5,10,7.5,18.4,5.9,25.4c-2.4,11.1-13.8,18.3-34.2,21.6c-11.7,0.9-21.7,1.4-30,1.3
		c-8.3-0.1-16-0.2-22.9-0.3c-23.7-1.6-35.8-8.9-36.4-22c-0.1-2.2,0.2-4.7,0.7-7.2c4-17.7,13.2-31.6,27.7-41.7
		C157.3,17.9,175.1,15.8,194.7,22.4z"/>
</mask>
<g class="st15">
	<path class="st16" d="M144.7,71.9v-1.4c4.2,1,8.5,1.8,12.7,2.3c9.9,1.3,19.7,1.3,29.4,0c4.1-0.5,8.3-1.3,12.4-2.4v1.4
		c-1.3,0.3-2.6,0.7-3.9,1c-14.5,3.3-29.8,3.3-46.1,0C147.7,72.6,146.2,72.3,144.7,71.9z M144.7,72.6c0.4,0.1,0.7,0.2,1.1,0.2
		c17.7,4,35.1,4,52.3,0c0.3-0.1,0.7-0.2,1-0.2v1.1l0,0c-16.9,4.5-35,4.5-54.4,0V72.6z M144.7,74.5c18.4,4.3,36.5,4.3,54.4,0h0l0,1.8
		c0,0,0,0.1,0,0.1v0.2v0c0,0,0,0,0,0h0c-18.4,3.9-36.6,3.5-54.4-1.1L144.7,74.5z M144.7,65.9v-1h0c18,4.7,36.1,4.9,54.5,0.4
		c0,0.3,0,0.5,0,0.7C182.4,70.5,164.2,70.4,144.7,65.9z M144.7,66.6c18.5,4.3,36.6,4.4,54.4,0.1v1.2c-16.9,4.5-35.1,4.5-54.4-0.1
		V66.6z M144.7,68.5c18.4,4.4,36.6,4.4,54.4,0.1v0.7l0,0v0.6c-5.5,1.5-11.1,2.4-16.8,2.9c-6.1,0.5-12.4,0.5-18.8,0
		c-6.1-0.5-12.4-1.5-18.8-3V68.5z"/>
</g>
<defs>
	
		<filter id="Adobe_OpacityMaskFilter_00000108303060137371443620000017959596176243992459_" filterUnits="userSpaceOnUse" x="145.2" y="46.4" width="61.2" height="17.3">
		<feColorMatrix  type="matrix" values="1 0 0 0 0  0 1 0 0 0  0 0 1 0 0  0 0 0 1 0"/>
	</filter>
</defs>
<mask maskUnits="userSpaceOnUse" x="145.2" y="46.4" width="61.2" height="17.3" id="mask4_346_506_00000062892252743185137590000007310783678978028686_">
	<path style="fill:#465B88;filter:url(#Adobe_OpacityMaskFilter_00000108303060137371443620000017959596176243992459_);" d="
		M194.7,22.4c18.5,6.8,30.4,16.6,35.6,29.4c5.5,10,7.5,18.4,5.9,25.4c-2.4,11.1-13.8,18.3-34.2,21.6c-11.7,0.9-21.7,1.4-30,1.3
		c-8.3-0.1-16-0.2-22.9-0.3c-23.7-1.6-35.8-8.9-36.4-22c-0.1-2.2,0.2-4.7,0.7-7.2c4-17.7,13.2-31.6,27.7-41.7
		C157.3,17.9,175.1,15.8,194.7,22.4z"/>
</mask>
<g class="st18">
	<path class="st7" d="M206.4,52.3L206.4,52.3c-2,3.6-3.6,6.1-4.8,7.4c-0.8,0.8-1.4,1.4-1.8,1.7c-0.1,0.1-0.2,0.2-0.3,0.2l0,0
		c0,0-1.5,0.3-4.4,0.9c-0.6,0.1-1.3,0.3-2,0.4c-2.5,0.5-5.9,0.8-10.2,0.8c-2.8,0-6.1-0.2-9.7-0.5c-9-0.7-18.4-2.6-28.1-5.8
		l10.1-11.1c14.2,5.6,31.3,7.6,51,5.8L206.4,52.3z M197.7,60.3c2.2-1.7,4.1-4,5.8-6.8c-14.3,1.1-26.6,0.4-36.9-2.1l-6.8,7.6
		C173.9,62,186.6,62.5,197.7,60.3z M158.5,50.6c0.2-0.4,0.4-0.4,0.6-0.1c-0.1,0.7-0.4,1-1,0.9l0-0.1
		C158.2,51.1,158.3,50.9,158.5,50.6z M157.6,48.8c0-0.6-0.4-0.7-1.4-0.5c-1,0.2-1.5,0.5-1.5,0.9c0,0.1,0,0.2,0.1,0.3l0.1,0.1
		l1.3-0.5l-0.6,0.6c0,0.1-0.2,0.3-0.5,0.6c-0.3,0.3-0.5,0.6-0.5,0.8c0,0.2,0.3,0.3,0.9,0.3c0.3-0.3,0.6-0.7,1.1-1.2
		C157.2,49.4,157.6,48.9,157.6,48.8z M159.6,49.4C159.5,49.4,159.5,49.4,159.6,49.4c-0.2,0-0.4,0-0.5,0c-0.7,0.1-1.2,0.5-1.5,1.2
		c0,0-0.1,0.1-0.1,0.1c-0.1,0.2-0.2,0.3-0.2,0.5l-0.2,0.5c0,0.3,0.3,0.5,0.8,0.6c0.3,0,0.5,0,0.8-0.1c0.2-0.1,0.4-0.2,0.5-0.4
		c0.3-0.3,0.5-0.7,0.7-1.2c0-0.2,0.1-0.3,0.1-0.4c0-0.1,0-0.1,0-0.2C160.1,49.7,159.9,49.5,159.6,49.4z M161,52.7
		c-0.2-0.4-0.1-0.8,0.3-1.1c0.4-0.4,0.7-0.4,1,0c-0.1,0.2-0.3,0.5-0.5,0.7C161.5,52.6,161.2,52.7,161,52.7L161,52.7z M162.3,50.5
		C162.3,50.5,162.3,50.5,162.3,50.5c-0.2,0-0.3,0-0.4,0c-0.5,0.1-0.9,0.2-1.2,0.5c-0.3,0.3-0.6,0.7-0.7,1.1c0,0,0,0,0,0
		c0,0.1,0,0.4,0.1,0.7c0.1,0.1,0.1,0.3,0.2,0.4c0.2,0.3,0.4,0.4,0.7,0.4c0.1,0,0.1,0,0.2,0c0.3-0.1,0.6-0.4,0.9-0.8
		c0.2-0.3,0.4-0.6,0.6-0.8c0.1-0.2,0.2-0.4,0.3-0.6c0-0.1,0-0.2,0-0.2C163.2,50.7,162.9,50.5,162.3,50.5z"/>
</g>
<defs>
	
		<filter id="Adobe_OpacityMaskFilter_00000045595853800171461680000014328393350145150643_" filterUnits="userSpaceOnUse" x="154.5" y="48.1" width="49" height="13.5">
		<feColorMatrix  type="matrix" values="1 0 0 0 0  0 1 0 0 0  0 0 1 0 0  0 0 0 1 0"/>
	</filter>
</defs>
<mask maskUnits="userSpaceOnUse" x="154.5" y="48.1" width="49" height="13.5" id="mask5_346_506_00000049939506601129653150000016687619775925117095_">
	<path style="fill:#465B88;filter:url(#Adobe_OpacityMaskFilter_00000045595853800171461680000014328393350145150643_);" d="
		M194.7,22.4c18.5,6.8,30.4,16.6,35.6,29.4c5.5,10,7.5,18.4,5.9,25.4c-2.4,11.1-13.8,18.3-34.2,21.6c-11.7,0.9-21.7,1.4-30,1.3
		c-8.3-0.1-16-0.2-22.9-0.3c-23.7-1.6-35.8-8.9-36.4-22c-0.1-2.2,0.2-4.7,0.7-7.2c4-17.7,13.2-31.6,27.7-41.7
		C157.3,17.9,175.1,15.8,194.7,22.4z"/>
</mask>
<g class="st20">
	<path class="st13" d="M197.7,60.3c-11.1,2.2-23.8,1.7-38-1.4l6.8-7.6c10.3,2.5,22.7,3.2,36.9,2.1C201.8,56.3,199.9,58.6,197.7,60.3
		z M162.3,50.5c0.6,0,0.8,0.3,0.7,0.8c0,0.1,0,0.1,0,0.2c-0.1,0.2-0.1,0.3-0.3,0.6c-0.1,0.2-0.3,0.5-0.6,0.8
		c-0.4,0.4-0.7,0.7-0.9,0.8c-0.1,0-0.1,0-0.2,0c-0.3,0-0.5-0.2-0.7-0.4c-0.1-0.1-0.1-0.2-0.2-0.4c-0.1-0.3-0.2-0.6-0.1-0.7
		c0,0,0,0,0,0c0.1-0.5,0.4-0.9,0.7-1.1c0.3-0.3,0.7-0.4,1.2-0.5C162.1,50.5,162.2,50.5,162.3,50.5C162.3,50.5,162.3,50.5,162.3,50.5
		z M161,52.7L161,52.7c0.2,0,0.5-0.1,0.8-0.4c0.2-0.2,0.4-0.5,0.5-0.7c-0.2-0.3-0.5-0.3-1,0C160.9,51.9,160.8,52.3,161,52.7z
		 M159.6,49.5c0.3,0,0.5,0.2,0.5,0.6c0,0,0,0.1,0,0.2c0,0.1-0.1,0.2-0.1,0.4c-0.2,0.5-0.4,0.9-0.7,1.2c-0.1,0.2-0.3,0.3-0.5,0.4
		c-0.2,0.1-0.5,0.1-0.8,0.1c-0.5-0.1-0.8-0.3-0.8-0.6l0.2-0.5c0-0.2,0.1-0.4,0.2-0.5c0,0,0-0.1,0.1-0.1c0.3-0.6,0.8-1,1.5-1.2
		C159.2,49.4,159.3,49.4,159.6,49.5C159.5,49.4,159.5,49.4,159.6,49.5z M157.6,48.8c0,0.1-0.4,0.6-1.1,1.5c-0.5,0.5-0.8,0.9-1.1,1.2
		c-0.6,0-0.9-0.1-0.9-0.3c0-0.2,0.2-0.5,0.5-0.8c0.3-0.3,0.5-0.5,0.5-0.6l0.6-0.6l-1.3,0.5l-0.1-0.1c0-0.1-0.1-0.2-0.1-0.3
		c0-0.4,0.5-0.7,1.5-0.9C157.2,48,157.6,48.2,157.6,48.8z M158.5,50.6c-0.2,0.3-0.4,0.5-0.4,0.7l0,0.1c0.6,0.2,1-0.1,1-0.9
		C159,50.2,158.8,50.2,158.5,50.6z"/>
</g>
<defs>
	
		<filter id="Adobe_OpacityMaskFilter_00000085966282630405548670000016976928721165527197_" filterUnits="userSpaceOnUse" x="145.2" y="43.8" width="60.7" height="15.6">
		<feColorMatrix  type="matrix" values="1 0 0 0 0  0 1 0 0 0  0 0 1 0 0  0 0 0 1 0"/>
	</filter>
</defs>
<mask maskUnits="userSpaceOnUse" x="145.2" y="43.8" width="60.7" height="15.6" id="mask6_346_506_00000100353842487625062280000005626530374015891848_">
	<path style="fill:#465B88;filter:url(#Adobe_OpacityMaskFilter_00000085966282630405548670000016976928721165527197_);" d="
		M194.7,22.4c18.5,6.8,30.4,16.6,35.6,29.4c5.5,10,7.5,18.4,5.9,25.4c-2.4,11.1-13.8,18.3-34.2,21.6c-11.7,0.9-21.7,1.4-30,1.3
		c-8.3-0.1-16-0.2-22.9-0.3c-23.7-1.6-35.8-8.9-36.4-22c-0.1-2.2,0.2-4.7,0.7-7.2c4-17.7,13.2-31.6,27.7-41.7
		C157.3,17.9,175.1,15.8,194.7,22.4z"/>
</mask>
<g class="st22">
	<path class="st7" d="M205.9,46.1L205.9,46.1c-1.7,3.8-3.1,6.3-4.3,7.7c-0.8,0.9-1.3,1.5-1.6,1.9c-0.1,0.1-0.2,0.2-0.3,0.3l0,0
		c0,0-1.5,0.4-4.4,1.2c-0.6,0.2-1.2,0.3-1.9,0.5c-2.5,0.7-5.9,1.2-10.1,1.5c-2.8,0.2-6.1,0.2-9.7,0.2c-9,0-18.5-1.3-28.4-3.8
		l9.3-11.7c14.6,4.6,31.7,5.4,51.3,2.3H205.9z M197.8,54.8c2-1.9,3.8-4.3,5.3-7.2c-14.2,2.1-26.5,2.2-37,0.5l-6.3,8
		C174.2,58.1,186.8,57.7,197.8,54.8z M158,47.8c0.2-0.4,0.4-0.4,0.6-0.1c0,0.7-0.3,1.1-1,0.9l0-0.1C157.7,48.4,157.8,48.1,158,47.8z
		 M157,46c0-0.6-0.5-0.7-1.4-0.4c-1,0.3-1.5,0.6-1.5,1c0,0.1,0,0.2,0.1,0.3l0.1,0l1.3-0.6l-0.6,0.7c0,0.1-0.2,0.3-0.4,0.6
		c-0.3,0.3-0.4,0.6-0.4,0.9c0,0.2,0.3,0.3,0.9,0.3c0.2-0.3,0.6-0.7,1-1.3C156.6,46.7,157,46.2,157,46z M159,46.6
		C158.9,46.6,158.9,46.6,159,46.6c-0.2,0-0.4,0-0.5,0.1c-0.6,0.2-1.1,0.6-1.4,1.3c0,0,0,0.1,0,0.1c-0.1,0.2-0.1,0.3-0.2,0.5
		l-0.1,0.5c0,0.3,0.3,0.5,0.8,0.5c0.3,0,0.5-0.1,0.7-0.2c0.2-0.1,0.4-0.2,0.5-0.4c0.2-0.3,0.4-0.7,0.6-1.2c0-0.2,0.1-0.3,0.1-0.4
		c0-0.1,0-0.1,0-0.2C159.5,46.8,159.3,46.6,159,46.6z M160.6,49.7c-0.3-0.4-0.2-0.8,0.2-1.1c0.4-0.4,0.7-0.4,1-0.1
		c-0.1,0.2-0.2,0.5-0.4,0.7C161.1,49.5,160.9,49.7,160.6,49.7L160.6,49.7z M161.8,47.4C161.8,47.4,161.8,47.4,161.8,47.4
		c-0.2,0-0.3,0-0.4,0c-0.5,0.1-0.9,0.3-1.1,0.6c-0.3,0.3-0.5,0.7-0.6,1.2c0,0,0,0,0,0c0,0.1,0,0.4,0.2,0.7c0.1,0.1,0.1,0.2,0.2,0.3
		c0.2,0.2,0.4,0.4,0.7,0.4c0.1,0,0.1,0,0.2,0c0.2-0.1,0.5-0.4,0.9-0.8c0.2-0.3,0.4-0.6,0.5-0.8c0.1-0.2,0.2-0.4,0.2-0.6
		c0-0.1,0-0.2,0-0.2C162.6,47.6,162.4,47.4,161.8,47.4z"/>
</g>
<defs>
	
		<filter id="Adobe_OpacityMaskFilter_00000041261586300369057790000013994556283872480156_" filterUnits="userSpaceOnUse" x="154" y="45.5" width="49" height="11.9">
		<feColorMatrix  type="matrix" values="1 0 0 0 0  0 1 0 0 0  0 0 1 0 0  0 0 0 1 0"/>
	</filter>
</defs>
<mask maskUnits="userSpaceOnUse" x="154" y="45.5" width="49" height="11.9" id="mask7_346_506_00000092422087907970042610000002813036580183275197_">
	<path style="fill:#465B88;filter:url(#Adobe_OpacityMaskFilter_00000041261586300369057790000013994556283872480156_);" d="
		M194.7,22.4c18.5,6.8,30.4,16.6,35.6,29.4c5.5,10,7.5,18.4,5.9,25.4c-2.4,11.1-13.8,18.3-34.2,21.6c-11.7,0.9-21.7,1.4-30,1.3
		c-8.3-0.1-16-0.2-22.9-0.3c-23.7-1.6-35.8-8.9-36.4-22c-0.1-2.2,0.2-4.7,0.7-7.2c4-17.7,13.2-31.6,27.7-41.7
		C157.3,17.9,175.1,15.8,194.7,22.4z"/>
</mask>
<g class="st24">
	<path class="st13" d="M197.8,54.8c-10.9,2.9-23.6,3.3-38,1.3l6.3-8c10.5,1.7,22.8,1.6,37-0.5C201.6,50.5,199.8,52.9,197.8,54.8z
		 M161.8,47.4c0.6,0,0.8,0.2,0.8,0.7c0,0.1,0,0.1,0,0.2c0,0.2-0.1,0.4-0.2,0.6c-0.1,0.2-0.3,0.5-0.5,0.8c-0.3,0.4-0.6,0.7-0.9,0.8
		c-0.1,0-0.1,0-0.2,0c-0.3,0-0.5-0.1-0.7-0.4c-0.1-0.1-0.1-0.2-0.2-0.3c-0.2-0.3-0.2-0.5-0.2-0.7c0,0,0,0,0,0
		c0.1-0.5,0.3-0.9,0.6-1.2c0.3-0.3,0.7-0.5,1.1-0.6C161.5,47.4,161.6,47.4,161.8,47.4C161.8,47.4,161.8,47.4,161.8,47.4z
		 M160.6,49.7L160.6,49.7c0.2,0,0.5-0.2,0.8-0.5c0.2-0.2,0.3-0.5,0.4-0.7c-0.2-0.3-0.6-0.3-1,0.1C160.4,48.9,160.4,49.3,160.6,49.7z
		 M159,46.6c0.3,0,0.5,0.2,0.5,0.6c0,0,0,0.1,0,0.2c0,0.1,0,0.2-0.1,0.4c-0.1,0.5-0.3,0.9-0.6,1.2c-0.1,0.2-0.3,0.3-0.5,0.4
		c-0.2,0.1-0.5,0.2-0.7,0.2c-0.5,0-0.8-0.2-0.8-0.5l0.1-0.5c0-0.2,0.1-0.4,0.2-0.5c0,0,0-0.1,0-0.1c0.3-0.7,0.8-1.1,1.4-1.3
		C158.6,46.6,158.7,46.6,159,46.6C158.9,46.6,158.9,46.6,159,46.6z M157,46c0,0.1-0.3,0.7-1,1.6c-0.4,0.6-0.8,1-1,1.3
		c-0.6,0-0.9,0-0.9-0.3c0-0.2,0.1-0.5,0.4-0.9c0.3-0.3,0.4-0.6,0.4-0.6l0.6-0.7l-1.3,0.6l-0.1,0c0,0-0.1-0.1-0.1-0.3
		c0-0.4,0.5-0.7,1.5-1C156.5,45.3,157,45.4,157,46z M158,47.8c-0.2,0.3-0.3,0.6-0.3,0.7l0,0.1c0.6,0.1,0.9-0.2,1-0.9
		C158.4,47.3,158.2,47.4,158,47.8z"/>
</g>
<path class="st25" d="M160.6,204.5c4.3,1.2,8.8,2.1,13.6,2.8c4.7,0.7,9.5-0.1,14.3-2.3c4.8-2.2,7.2-2,7,0.5
	c-0.1,2.6-1.5,4.9-4.3,7.1c-2.7,2.1-6,3.4-9.8,3.7c-3.8,0.3-7.6,0.2-11.5-0.5c-3.9-0.7-7.5-3-10.8-7
	C155.8,204.7,156.3,203.3,160.6,204.5z"/>
</svg>
