<?xml version="1.0" encoding="utf-8"?>
<!-- Generator: Adobe Illustrator 27.0.0, SVG Export Plug-In . SVG Version: 6.00 Build 0)  -->
<svg version="1.1" id="Vrstva_1" xmlns="http://www.w3.org/2000/svg" xmlns:xlink="http://www.w3.org/1999/xlink" x="0px" y="0px"
	 viewBox="0 0 350 250" style="enable-background:new 0 0 350 250;" xml:space="preserve">
<style type="text/css">
	.st0{fill:#CC99CC;}
	.st1{fill:#FEC2B1;}
	.st2{fill:#0066CC;}
	.st3{fill:#333300;}
	.st4{fill:#422522;}
	.st5{fill:#F29E9C;}
</style>
<g>
	
		<g transform="matrix(0.6998276710510254,-0.015530728735029697,0.015530728735029697,0.6998276710510254,532.2691040039062,512.7481689453125)">
		<g transform="matrix(1,0,0,1,0,0)">
			<path class="st0" d="M-555.3-622.1l15.7-34.3c7.2-14.9,13.6-19.8,19.3-14.6c1.8,1.4,4.3,4.7,4.8,10.1c0.8,7.1-1.9,12.1-11.2,26.9
				c-8.7,13.4-15.2,20.6-19.4,21.6C-555.3-609.8-558.4-613-555.3-622.1z"/>
		</g>
	</g>
	
		<g transform="matrix(0.6999683380126953,0.00665647117421031,-0.00665647117421031,0.6999683380126953,392.70587158203125,382.18841552734375)">
		<g transform="matrix(1,0,0,1,0,0)">
			<path class="st1" d="M-371-428.6c7.9,11.6,7.5,18.2-1.2,19.6c-4-0.1-11.2-12.4-21.4-36.9c-5.1-14.6-2.3-15.8,8.4-3.7L-371-428.6z
				"/>
		</g>
		<g transform="matrix(1,0,0,1,0,0)">
			<path class="st1" d="M-395.9-409.2"/>
		</g>
	</g>
	
		<g transform="matrix(0.6998276710510254,-0.015530728735029697,0.015530728735029697,0.6998276710510254,353.8336181640625,335.4039611816406)">
		<g transform="matrix(1,0,0,1,0,0)">
			<path class="st1" d="M-319.3-393.9c-0.4,1-1.3,1.5-2.8,1.5c-0.8,0-1.7-0.4-2.9-1.3c-1.4-1-2.2-1.6-2.6-1.7h-5.7
				c-0.5,0.2-1.3,0.4-2.6,0.6c-1,0.2-1.6,0.3-1.8,0.3c-0.1,0-0.8-1-1.9-3c-1-1.8-1.9-3.4-2.6-4.8c-0.6-1.1-1.9-2.7-3.9-4.7
				c-1.9-1.8-2.9-2.7-2.9-2.7c0-0.2,0-0.3,0.1-0.3c0,0,0.1-0.1,0.3-0.1h1.3c1.9,0.5,3.4,1.1,4.6,1.8c0.7,0.4,1.8,1.3,3.3,2.6
				c-0.7-1.1-1.5-2.9-2.6-5.2s-1.6-3.6-1.6-3.9c0-0.1,0-0.2,0-0.2c0,0,0,0,0.1-0.1l0.1,0c0.1,0,0.2,0,0.4,0c0.5,0,1.7,1,3.7,3
				c1.7,1.8,3.2,3.4,4.3,4.8c-0.3-0.8-0.7-2-1.3-3.6c-0.7-2.1-1.1-3.4-1.1-3.8c0-0.9,1.5,0.5,4.6,4.2c1.5,1.9,3.1,3.8,4.7,5.8
				c0.1,0,0.3-0.1,0.6-0.3c0.6-0.2,1.4-0.3,2.6-0.3c2.8,0,4.6,1.5,5.4,4.6c0.4,1.5,0.6,3.2,0.5,4.8
				C-319.1-395-319.2-394.2-319.3-393.9z"/>
		</g>
	</g>
	
		<g transform="matrix(0.6998276710510254,0.015530728735029697,-0.015530728735029697,0.6998276710510254,523.667236328125,513.5901489257812)">
		<g transform="matrix(1,0,0,1,0,0)">
			<path class="st0" d="M-450.4-602c1.2,4.5,0.5,7.9-2,10.5c-2.6,2.3-5.9,2.3-10.1,0c-4.7-3.4-11.3-10.9-19.5-22.7
				c-10.1-14.9-16.3-24-10.6-24.8c-0.4-6.7,2-10.1,3.7-12.2c6.4-5.2,13.8-0.6,21.6,14.5L-450.4-602z"/>
		</g>
	</g>
	
		<g transform="matrix(0.6999683380126953,-0.00665647117421031,0.00665647117421031,0.6999683380126953,626.454345703125,382.2894287109375)">
		<g transform="matrix(1,0,0,1,0,0)">
			<path class="st1" d="M-562.7-455.1c-8.9,21.7-15.6,34.1-20.3,37c-9.1,0.1-9.5-6.5-1.1-19.8l13.5-20.9
				C-560.5-470.9-557.8-469.7-562.7-455.1z"/>
		</g>
	</g>
	
		<g transform="matrix(0.6998276710510254,0.015530728735029697,-0.015530728735029697,0.6998276710510254,666.725830078125,335.281494140625)">
		<g transform="matrix(1,0,0,1,0,0)">
			<path class="st1" d="M-608.8-388.6c0,0.1-0.9,1-2.8,2.7c-2,2-3.2,3.6-3.7,4.7c-0.7,1.4-1.5,3-2.4,4.8c-1.1,2-1.7,3-1.8,3
				c-0.1,0-0.7-0.1-1.7-0.3c-1.2-0.2-2-0.4-2.4-0.6h-5.4c-0.3,0.1-1.1,0.7-2.4,1.7c-1.1,0.9-2,1.3-2.8,1.3c-1.4,0-2.3-0.5-2.7-1.5
				c-0.1-0.3-0.2-1-0.2-2.1c-0.1-1.7,0-3.3,0.5-4.8c0.8-3.1,2.5-4.6,5.1-4.6c1.1,0,1.9,0.1,2.5,0.3c0.3,0.2,0.5,0.3,0.6,0.3
				c1.5-2,3-4,4.4-5.8c2.9-3.7,4.4-5.1,4.4-4.2c0,0.4-0.3,1.6-1,3.8c-0.5,1.6-0.9,2.8-1.2,3.6c1.1-1.4,2.4-3.1,4.1-4.8
				c1.9-2,3-3,3.5-3c0.1,0,0.3,0,0.3,0l0.1,0c0,0,0,0.1,0.1,0.1c0,0,0,0.1,0,0.2c0,0.3-0.5,1.6-1.5,3.9c-1,2.3-1.8,4-2.5,5.2
				c1.4-1.3,2.4-2.1,3.1-2.6c1.1-0.7,2.6-1.3,4.4-1.8h1.2c0.1,0,0.2,0.1,0.3,0.1C-608.8-388.9-608.8-388.8-608.8-388.6z"/>
		</g>
	</g>
	<g transform="matrix(0.699999988079071,0,0,0.699999988079071,178,165)">
		<g transform="matrix(1,0,0,1,0,0)">
			<g transform="matrix(1,0,0,1,409.8280029296875,771.8729858398438)">
				<path class="st1" d="M-437.5-672.2c-1,2.3-4.9,4.7-11.6,7.2c-6.7,2.5-7.9,1.3-3.4-3.5c1.3-1.6,3-3.6,4.9-5.8
					c0.1-0.1,0.1-0.1,0.2-0.2c-0.7-37.5,0.4-63.2,3.1-77c4.7-12.9,8.8-19.4,12.3-19.4c3.5,0,6.3,6.5,8.5,19.4
					c0.6,3.1,0.2,9.7-1.1,19.9c-1.3,10.2-3.8,22.6-7.5,37.4c-2.5,10.2-4.2,16.8-5,19.9C-437.4-672.9-437.6-672.2-437.5-672.2
					c0.3,0.1,0.4,0.2,0.4,0.2C-437.2-671.9-437.3-672-437.5-672.2z"/>
			</g>
			<g transform="matrix(1,0,0,1,378.7309875488281,909.9769897460938)">
				<path class="st2" d="M-421.4-806.6c-4.5,4.8-3.4,6,3.4,3.5c6.7-2.5,10.6-4.9,11.6-7.2c1.2,3.6,1.8,5.8,1.6,6.6
					c-0.1,0.8-0.3,1.3-0.5,1.5c-0.1,0-0.1,0.1-0.2,0.2c0,0.1-0.4,0.4-1,0.9c-0.6,0.5-1.6,1-3,1.7c-1.3,0.7-2.8,1.3-4.3,1.8
					c-0.2,0.1-0.4,0.1-0.6,0.2l0.1,0c0,0-0.1,0-0.1,0c0,0,0,0,0,0c0,0,0,0,0,0v0l0,0.1c-0.6,0.3-1.3,0.7-2.1,1.1l-0.8,0.4h0
					c-1.5,1-3.1,1.8-4.7,2.4c-1.6,0.6-3.3,1-5.3,1.2c-1.9,0.2-4.1,0.2-6.6,0c-2.5-0.2-2.9-1.3-1.3-3.2c1.6-1.9,3.8-3.9,6.5-5.9
					c1.7-1.3,3.2-2.5,4.6-3.5C-422.2-806.1-421.4-806.7-421.4-806.6z M-414.4-797.4L-414.4-797.4L-414.4-797.4
					C-414.4-797.5-414.4-797.5-414.4-797.4L-414.4-797.4L-414.4-797.4L-414.4-797.4z"/>
			</g>
			<g transform="matrix(1,0,0,1,405.5,915.6749877929688)">
				<path class="st3" d="M-441-801.4l-0.1-1.6l0-0.1v0c0,0,0,0,0,0c0,0,0,0,0,0c0,0,0.1,0,0.1,0l-0.1,0c0.2-0.1,0.4-0.1,0.6-0.2
					c1.5-0.5,2.9-1.1,4.3-1.8c1.3-0.7,2.3-1.2,3-1.7c0.6-0.5,1-0.8,1-0.9c0-0.1,0.1-0.2,0.2-0.2c-0.1,0.9-0.2,1.6-0.2,1.9
					C-433.2-804.7-436.2-803.2-441-801.4z M-441.2-803.2C-441.2-803.2-441.1-803.2-441.2-803.2L-441.2-803.2L-441.2-803.2
					L-441.2-803.2z"/>
			</g>
			<g transform="matrix(1,0,0,1,390.45001220703125,921.9500122070312)">
				<path d="M-426.1-809.2l0.1,1.6v0c-1.3-0.3-2.2-0.3-2.9-0.1h0l0.8-0.4C-427.4-808.6-426.7-808.9-426.1-809.2z"/>
			</g>
		</g>
	</g>
	<g transform="matrix(0.699999988079071,0,0,0.699999988079071,178,165.00003051757812)">
		<g transform="matrix(1,0,0,1,0,0)">
			<g transform="matrix(1,0,0,1,527.8040161132812,774.0449829101562)">
				<path class="st1" d="M-500.4-669.2c4.5,4.8,3.4,6-3.4,3.6c-6.7-2.5-10.6-4.9-11.6-7.2c0,0-0.1,0-0.1,0c0.1,0,0.1,0,0.2-0.1
					c-1.1-5.3-1.5-7.2-1.2-5.6c-0.7-4.6-2.4-14.2-5-28.8c-3.6-20.4-3.4-36.5,0.5-48.3c6-22.3,12.4-23,19.2-2.2
					c1.5,17.4-0.1,44.4-4.7,81.1c0.7,0.9,1.3,1.7,1.9,2.5C-502.9-672.3-501.5-670.7-500.4-669.2z"/>
			</g>
			<g transform="matrix(1,0,0,1,525.0499877929688,919.5)">
				<path class="st3" d="M-504.6-805.3l-0.1,1.6c-4.9-1.8-7.8-3.3-8.8-4.6c0-0.3-0.1-0.9-0.2-1.9c0.1,0,0.1,0.1,0.2,0.2
					c0.1,0.1,0.4,0.4,1,0.9c0.6,0.5,1.6,1,3,1.7c1.3,0.7,2.8,1.3,4.3,1.8C-505.1-805.5-504.9-805.5-504.6-805.3
					C-504.7-805.4-504.7-805.4-504.6-805.3C-504.7-805.4-504.7-805.4-504.6-805.3C-504.7-805.4-504.6-805.4-504.6-805.3
					L-504.6-805.3L-504.6-805.3z M-504.6-805.4L-504.6-805.4C-504.6-805.5-504.6-805.5-504.6-805.4L-504.6-805.4z"/>
			</g>
			<g transform="matrix(1,0,0,1,551.8150024414062,913.7760009765625)">
				<path class="st2" d="M-524.4-808.9c0-0.1,0.8,0.5,2.5,1.8c1.3,1,2.9,2.2,4.6,3.5c2.8,2,4.9,3.9,6.5,5.9c1.6,1.9,1.1,3-1.3,3.2
					c-2.5,0.2-4.7,0.2-6.6,0c-1.9-0.2-3.6-0.6-5.2-1.2c-1.6-0.6-3.2-1.4-4.7-2.4h0.1l-0.8-0.4c-0.8-0.4-1.4-0.8-2-1.1l0-0.1v0
					c0,0,0,0,0,0s0,0,0,0c0,0,0,0,0,0c-0.2-0.1-0.3-0.1-0.6-0.2c-1.5-0.5-2.9-1.1-4.3-1.8c-1.3-0.7-2.3-1.2-3-1.7
					c-0.6-0.5-1-0.8-1-0.9c-0.1-0.1-0.1-0.2-0.2-0.2c-0.2-0.2-0.3-0.7-0.5-1.5c-0.1-0.8,0.4-3,1.6-6.6c1,2.3,4.9,4.7,11.6,7.2
					C-521-802.9-519.9-804.1-524.4-808.9z M-531.4-799.8C-531.4-799.8-531.4-799.8-531.4-799.8L-531.4-799.8L-531.4-799.8
					L-531.4-799.8z"/>
			</g>
			<g transform="matrix(1,0,0,1,540.0999755859375,925.75)">
				<path d="M-516.9-810c-0.7-0.2-1.6-0.2-2.9,0.1v0l0.1-1.6c0.6,0.3,1.3,0.7,2,1.1L-516.9-810L-516.9-810z"/>
			</g>
		</g>
	</g>
	<g transform="matrix(0.699999988079071,0,0,0.699999988079071,178,165)">
		<g transform="matrix(1,0,0,1,474.3869934082031,206.15899658203125)">
			<path class="st1" d="M-487.4-399.6l1-0.2c-0.2-1.6-0.4-3.4-0.6-5.2h19.4c-0.4,4.7-0.5,8.6-0.3,11.8c0.4-0.8,0.9-2,1.6-3.6
				c-0.7,2.4-1.3,4.7-1.9,6.9l-1.8-0.3c0.6,3.9,0.6,3.8-0.1-0.2c-0.7,16.2,0.8,24.1,4.5,23.8c3.7-0.4,7.2-1.4,10.6-3.1
				c3.4-1.7,6.1-0.5,7.9,3.6c-0.5,0.4-1,0.8-1.5,1.2c-4.4,3.7-7.8,7.9-10.2,12.7c-13,14.3-26.5,13.1-40.5-3.6
				c-2-3.8-5.2-6.3-9.5-7.5c-0.3-0.1-0.5-0.1-0.8-0.2c0.5-4.7,1.9-6.7,4.3-5.7c2.4,0.9,4.6,1.8,6.8,2.5c2.1,0.8,3.8,0.8,4.9,0.2
				c3.2-1.2,4.9-4.8,5.1-10.8c0.7-5.8,1.5-11,2.2-15.6l-1.1-0.2C-487.4-395.2-487.4-397.4-487.4-399.6z"/>
		</g>
		<g transform="matrix(1,0,0,1,477.1499938964844,453.29998779296875)">
			<g transform="matrix(1,0,0,1,0,0)">
				<path class="st0" d="M-514.8-614.5L-514.8-614.5c0,0,0.1-0.1,0.1-0.1c2.1-3.2,4.9-3.6,8.5-1.1c17.1,22.9,33.7,22.2,49.8-2.2
					c4-1.6,6.6-0.7,8,2.7c0.5,5.7-0.8,17.8-3.9,36.3c-0.4,3.1-0.8,6.2-1.2,9.3c-1.6,14.3,0.3,26.3,5.8,36c9.6,24.1,19,57,28.2,98.6
					c-46.4,8.2-86.9,8.3-121.3,0.5c10.5-49.6,20.9-85.2,31.1-106.8c1.8-3.9,2.8-7.1,2.8-9.6c0.9-6.7,0.3-13.7-1.6-21
					c-2.3-8.4-3.9-16.7-5.1-25c-1.7-9.5-2.1-15.2-1.4-17.1c0,0,0,0,0,0C-514.9-614.4-514.9-614.4-514.8-614.5z"/>
			</g>
		</g>
	</g>
	
		<g transform="matrix(0.6999120712280273,0.011093824170529842,-0.011093824170529842,0.6999120712280273,179.840576171875,161.03652954101562)">
		<g transform="matrix(1,0,0,1,0,0)">
			<g transform="matrix(1,0,0,1,477.43499755859375,146.89599609375)">
				<path d="M-492.3-333c1.2-0.3,1.9-0.5,2.1-0.6c-0.9,1.6-1.8,2.5-2.5,2.7c-0.7,0.1-1.5,0-2.3-0.1c-0.8-0.2-1.5-0.6-2.2-1.3
					c-0.5-0.5-0.7-1.1-0.7-1.9c0.4,0.3,1.1,0.6,2.1,1.1C-494.7-332.7-493.5-332.7-492.3-333z M-480.6-330.3c-0.5-1-0.6-1.6-0.5-1.6
					c2.2,1.5,3.9,2.1,5,1.9c1.1-0.2,1.9-0.5,2.5-1c-0.3,1.1-0.9,1.8-1.7,2.3c-0.8,0.4-1.7,0.5-2.9,0.3
					C-479.3-328.7-480.1-329.3-480.6-330.3z"/>
			</g>
			<g transform="matrix(1,0,0,1,0,0)">
				<g transform="matrix(1,0,0,1,481.22100830078125,138.93499755859375)">
					<path class="st1" d="M-482.6-351.8c6.3,1.1,10.6,4.9,13,11.5c2.4,6.6,2.2,12.8-0.5,18.5c-2.7,5.8-5.9,10.9-9.7,15.4
						c-3.8,4.5-8,6.3-12.8,5.5c-4.8-0.8-8.5-4.1-11.3-10c-2.8-5.9-4.2-12.3-4.1-19.2c0-7,2.7-12.6,8-16.9
						C-494.7-351.3-488.9-352.9-482.6-351.8z"/>
				</g>
			</g>
			<g transform="matrix(1,0,0,1,485.48199462890625,108.8759994506836)">
				<g transform="matrix(1,0,0,1,0,0)">
					<path class="st4" d="M-497.1-330.2c0.4-2.2,1.7-3.9,3.8-5.1c2.2-1.2,4.6-1.6,7.3-1.1c2.7,0.5,4.9,1.6,6.6,3.5
						c1.6,1.9,2.2,3.9,1.9,6.1c-0.2,1.4-0.8,2.6-1.8,3.6c0.3,0.1,0.6,0.2,0.8,0.3c6,2.4,9.9,5.9,11.9,10.7c2,4.7,0.6,11.8-4,21.4
						c-2.4,5-6,8.7-10.9,11.2c1.8-5.4,2.7-10.3,2.8-14.4c0-1.3-0.1-2.6-0.5-3.7c-11.2-3.7-16.8-10-16.7-19c-4.9,5-8.1,9.3-9.5,12.9
						c-1.4,3.6-3.2,9.7-5.3,18.1c-0.9-1-1.7-2.6-2.6-4.7c-4.4-15-2.7-25.6,5.3-31.9c3.3-2.1,7.1-3.3,11.4-3.6
						C-497.1-327.3-497.3-328.7-497.1-330.2z"/>
				</g>
			</g>
		</g>
	</g>
	
		<g transform="matrix(0.9998733997344971,0.015848305076360703,-0.015848305076360703,0.9998733997344971,496.4237060546875,501.4091796875)">
		<g transform="matrix(1,0,0,1,0,0)">
			<path d="M-332.1-468c-0.8-0.2-1.4,0.9-1.5,1.5s0.3,1.8,0.8,1.9c0.4,0.1,1.2-0.4,1.5-1C-331.1-466.3-331.3-467.8-332.1-468z"/>
		</g>
	</g>
	
		<g transform="matrix(0.9998733997344971,0.015848305076360703,-0.015848305076360703,0.9998733997344971,520.4979248046875,504.79132080078125)">
		<g transform="matrix(1,0,0,1,0,0)">
			<path d="M-346.8-469.9c-0.8-0.2-1.4,0.9-1.5,1.5s0.3,1.8,0.8,1.9c0.4,0.1,1.2-0.4,1.5-1C-345.7-468.1-345.9-469.6-346.8-469.9z"
				/>
		</g>
	</g>
	
		<g transform="matrix(0.9998733997344971,0.015848305076360703,-0.015848305076360703,0.9998733997344971,496.490966796875,501.0973205566406)">
		<g transform="matrix(1,0,0,1,0,0)">
			<path d="M-332.2-472c-1.8-0.2-2.7,1.5-2.7,1.5s1.6-0.3,2.4-0.3c0.7,0,1.8,0.5,3,1.8C-329.7-469.9-330.3-471.8-332.2-472z"/>
		</g>
	</g>
	
		<g transform="matrix(0.9998733997344971,0.015848305076360703,-0.015848305076360703,0.9998733997344971,496.490966796875,501.0973205566406)">
		<g transform="matrix(1,0,0,1,0,0)">
			<path class="st5" d="M-327.7-457.8c-2.3,0-3.9,0.5-3.6,1.2s2.9,0.5,4.3,0.6c1.4,0.1,4.2,0.4,4.3-0.6
				C-322.7-457.4-325.4-457.8-327.7-457.8z"/>
		</g>
	</g>
</g>
</svg>
