<?xml version="1.0" encoding="utf-8"?>
<!-- Generator: Adobe Illustrator 27.0.0, SVG Export Plug-In . SVG Version: 6.00 Build 0)  -->
<svg version="1.1" id="Vrstva_1" xmlns="http://www.w3.org/2000/svg" xmlns:xlink="http://www.w3.org/1999/xlink" x="0px" y="0px"
	 viewBox="0 0 350 250" style="enable-background:new 0 0 350 250;" xml:space="preserve">
<style type="text/css">
	.st0{fill:#FFFFFF;}
	.st1{fill:#4FE1E1;}
	.st2{fill:#FEC2B1;}
	.st3{fill:#422522;}
	.st4{fill:#CC99CC;}
</style>
<g>
	
		<g transform="matrix(0.6999995708465576,-0.0007518898346461356,0.0007518898346461356,0.6999995708465576,145.64627075195312,420.81463623046875)">
		<g transform="matrix(1,0,0,1,0,0)">
			<path class="st0" d="M214.8-413.8c-5,7.6-7.6,16.5-5,20.1c4.7,1.7,11-12.9,16.9-22.8c4.7-6.1,20-13.6,25.9-10.1
				c5.2,3.4-2.3,16.9-11.2,25.5c-8.6,6.9-18.2,12.9-24.7,17.3l-4.9,5.5c1.1-0.6,4.9,3,7.2,1.4c2.5-1.8,6.3-6.4,8.3-4.3
				c2,2.4,0.2,14.3,19.4-12c0.8-0.7,4.4-5.1,11.9-12.6c7.4-7.6,10.5-9.8,15.7-9.6c5.2,0.2,2.8,10.2-2.4,17.2
				c-15.9,11.3-21.5,9.4-24.3,14.3c-5.1,8.9-5.9,15.3-3.8,14.5c7.3-4.5,10-9.4,16.1-14.9c6.2-5.6,16.7-11.9,23.2-6.3
				c6.4,5.5,3.5,22.5-34.3,35c-37.6,12.4-31.5,15.4-46.6,20.1c-59.1,18.3-85.9,25.6-80.6,21.9c-1.4,0.1-2.5,0-3.3-0.4
				c-0.6-0.3-1-0.7-1.3-1.2c-0.2,0.2-0.5,0.5-0.7,0.7c-7.3,7.5-11.9,9.9-14,7.2c-2.1-2.7-6.9-1.8-14.6,2.8c-7.6,4.6-4.2,1,10.3-10.6
				c6.1-4.9,13.8-9.8,23.1-14.7c9.3-4.9,19.3-11.3,25.9-20.3c6.6-9,12.4-17.6,17.9-29.8c6.5-21,8.1-36.9,15.5-42.4
				c7.4-5.5,9.8-0.1,6,14.9c-3.8,15,2.5,19.1,4,16.1c1.3-2.7,7.7-18.1,8.8-19.8c4.2-6.9,8.6-10.5,13.6-13
				C217.9-426.5,219.8-421.5,214.8-413.8z"/>
		</g>
	</g>
	<g transform="matrix(0.699999988079071,0,0,0.6774896383285522,494.5707092285156,678.017578125)">
		<g transform="matrix(1,0,0,1,0,0)">
			<path class="st1" d="M-702.3-642.4c-1.5-6.5,16.2-16.3,53.1-29.2c36.8-12.9,81.9-25.3,135.4-37.1c53.5-11.7,99.7-19.4,138.5-23.1
				c38.8-3.7,59-2.3,60.4,4.2c1.4,6.5-16.2,16.3-53,29.2c-36.8,12.9-81.9,25.3-135.4,37c-53.5,11.7-99.6,19.5-138.5,23.1
				C-680.7-634.4-700.9-635.8-702.3-642.4z"/>
		</g>
	</g>
	
		<g transform="matrix(0.6998698711395264,0.013495207764208317,-0.013495207764208317,0.6998698711395264,471.3571472167969,402.6044921875)">
		<g transform="matrix(1,0,0,1,0,0)">
			<path class="st2" d="M-526.1-499.6L-526.1-499.6L-526.1-499.6c3.1-0.3,5.7-0.9,7.9-1.7c1-0.5,1.8-1.2,2.5-2.2
				c3.3-4.1,4.5-12.5,3.5-25.3h17.3c-0.2,3.3-0.5,8.5-0.7,15.4c-0.2,6.9,0.9,10.9,3.6,11.9c2.6,0.9,4.1,1.3,4.5,1.2c0,0,0,0,0.1,0
				c2.1,6.1,2.6,10.2,1.8,12.5c-1.2,5.4-4.4,9.3-9.6,11.8c-5.3,2.5-11.6,0.3-18.8-6.7C-519-487.6-523-493.2-526.1-499.6z"/>
		</g>
	</g>
	
		<g transform="matrix(0.6998271942138672,0.01552213542163372,-0.01552213542163372,0.6998271942138672,478.3196716308594,364.9219970703125)">
		<g transform="matrix(1,0,0,1,0,0)">
			<path class="st2" d="M-496-499.9c0.6,1.4,1.2,3.6,1.8,6.5c0.6,2.9,0.7,5.7,0.6,8.4s0.1,5.1,0.8,7.3c0.7,2.1,1,3.7,0.8,4.7
				c-0.1,1-0.4,2.3-0.9,4c-0.5,1.6-1.1,3.3-2,5c-0.9,1.7-2.2,4.2-3.8,7.3c-1.6,3.1-5.8,3.4-12.4,0.8c-6.6-2.6-11.2-5.3-13.6-8.1
				c-2.5-2.8-3.9-7.6-4.3-14.2c0-0.6,0-1.3-0.1-2.1c-0.2-7.1,1.4-13.2,4.6-18.2l0,0c5.1-4.9,10.9-7.1,17.5-6.6
				C-502.5-504.8-498.8-503.1-496-499.9z"/>
		</g>
	</g>
	
		<g transform="matrix(0.6969174146652222,-0.06561390310525894,0.06561390310525894,0.6969174146652222,448.22125244140625,370.5104675292969)">
		<g transform="matrix(1,0,0,1,0,0)">
			<path class="st3" d="M-407.8-567c5.6,0,10.5,2.1,14.7,6.2c0.5,0.6,0.9,1.1,1.3,1.7c3.3,4.7,4.4,10.4,3.4,17.2
				c-14.4-6.2-24-11.3-28.7-15.4c2.6,6.6,2.7,11.5,0.3,14.7c-2.4,3.2-2.9,9.4-1.5,18.7c-0.7,9.3-6,15.3-21.9,15.8
				c-15.5,2-21.5-1.1-27.3-3c-5.3-1.9-8.9-2.7-8.9-2.7c9.7-1.4,18.2-1.5,25.3-11.4c-4.1-0.4-11.2,1.3-18.2-0.2
				c-6.3-1.4-11-3.9-13.1-5.5c19.1,2.2,22.9-7.6,36.7-7.5c5.2,0,8.4-1.5,10.3-7.5c1.8-6,4.1-10.4,6.8-13.1c2.7-2.8,5.4-4.8,8.2-6.1
				C-417.7-566.3-413.4-566.9-407.8-567z"/>
		</g>
	</g>
	
		<g transform="matrix(0.6998271942138672,0.01552213542163372,-0.01552213542163372,0.6998271942138672,487.6380615234375,382.4149475097656)">
		<g transform="matrix(1,0,0,1,0,0)">
			<path class="st0" d="M-512.6-489.3c-0.4,0.4-0.7,0.9-1.1,1.4c-0.4,0.6-1.2,0.8-2.5,0.8c-1.3,0-2.3-0.5-2.8-1.5
				c-0.6-1-1-1.8-1.4-2.2c-0.1-0.1-0.1-0.1-0.1-0.2c0-0.3,0.8-0.1,2.3,0.4c1.8,0.6,3.6,0.5,5.3-0.2c0.9-0.4,1.5-0.6,1.7-0.6
				c0.2,0,0.2,0.2-0.1,0.5C-511.8-490.3-512.3-489.7-512.6-489.3z"/>
		</g>
	</g>
	
		<g transform="matrix(0.6998271942138672,0.01552213542163372,-0.01552213542163372,0.6998271942138672,487.6117248535156,366.19537353515625)">
		<g transform="matrix(1,0,0,1,0,0)">
			<path d="M-522.9-479.3l-0.2-1c0-1.3,0.5-2,1.5-2.1c1-0.1,1.5,0.4,1.5,1.7c0,0.5-0.1,1-0.2,1.4c-0.2,0.7-0.7,1.1-1.3,1.1
				C-522.2-478.2-522.6-478.6-522.9-479.3z M-510.8-480.4c0-1.2,0.4-1.9,1.3-2c0.9-0.1,1.3,0.4,1.3,1.6c0,0.5-0.1,0.9-0.2,1.3
				c-0.2,0.7-0.6,1-1.2,1s-0.9-0.3-1.1-1L-510.8-480.4z"/>
		</g>
	</g>
	
		<g transform="matrix(0.6975733041763306,-0.05823661386966705,0.05823661386966705,0.6975733041763306,514.7644653320312,439.5946350097656)">
		<g transform="matrix(1,0,0,1,0,0)">
			<path class="st2" d="M-458.9-543c-3.2,0.8-5.4,0.7-6.4-0.3l-17.2-24.8c-4.7-10.2-7.6-18-8.6-23.4c-1.3-6.6-0.1-10.8,3.5-12.6
				c8.3-2.6,18.7,14.2,31.2,50.3C-454.9-547.4-455.7-543.8-458.9-543z"/>
		</g>
	</g>
	
		<g transform="matrix(0.6805334091186523,-0.16393376886844635,0.16393376886844635,0.6805334091186523,-271.2203369140625,253.27752685546875)">
		<g transform="matrix(1,0,0,1,1125.291015625,604.5919799804688)">
			<g transform="matrix(1,0,0,1,0,0)">
				<path class="st2" d="M-408.7-674.3c8.3,3,8.6,4.5,1,4.6c-7.7,0-12-0.1-12.9-0.6c3.8,3.3,6.2,5.4,7.1,6.2c0.9,0.8-1.3,0-6.6-2.5
					c-2.8-1.3-4.9-2.5-6.4-3.5c-7.5-5.2-8.6-7.7-3.3-7.7c3.2,0.2,6.4,0.3,9.6,0.2c3.3-0.1,5.2,0.1,5.8,0.6
					C-413.8-676.4-411.9-675.5-408.7-674.3z"/>
			</g>
		</g>
	</g>
	
		<g transform="matrix(0.6900874972343445,-0.11738516390323639,0.11738516390323639,0.6900874972343445,553.7994995117188,471.95782470703125)">
		<g transform="matrix(1,0,0,1,0,0)">
			<path class="st2" d="M-453.7-642.8c11,4.5,21.8,9.6,32.2,15.4c6.2,4.2,5,6-3.5,5.4c-20.6-1.8-33.7-6.3-39.1-13.5
				c-1.6-4.2-1-6.7,2-7.4C-459.2-643.6-456.4-643.6-453.7-642.8z"/>
		</g>
	</g>
	
		<g transform="matrix(0.6998698711395264,0.013495207764208317,-0.013495207764208317,0.6998698711395264,469.4296875,472.7889709472656)">
		<g transform="matrix(1,0,0,1,0,0)">
			<path class="st4" d="M-525.2-599.9c3,6.4,7,12,11.9,16.7c7.3,7,13.6,9.2,18.8,6.7c5.3-2.5,8.5-6.5,9.6-11.8
				c0.9-2.2,0.3-6.4-1.8-12.5c0,0,0,0-0.1,0h0.1l5.3,0.9c2.7,5.5,5,14.2,7,26.1c0.3,3.8-0.4,7.3-2,10.6c-1.6,3.2-3.9,6.7-7,10.5
				c-3.1,3.8-4.3,9.1-3.6,16c6.4,12.4,10.4,26.1,11.9,41.1c0.1,1,0.2,1.9,0.3,3c-19.1,16.7-39.3,16.5-60.9-0.7
				c-0.1-0.7-0.1-1.5-0.2-2.2c-0.5-13,2.9-25.3,10.3-37c3.4-2.6,2.8-9.5-1.7-20.8c-2.4-6-4.5-12-6.5-17.9c-3.5-13-3.9-21.3-1.1-24.9
				C-532.5-597.8-529.4-599-525.2-599.9z"/>
		</g>
	</g>
	
		<g transform="matrix(0.6994994878768921,0.026466205716133118,-0.026466205716133118,0.6994994878768921,461.788330078125,599.7341918945312)">
		<g transform="matrix(1,0,0,1,0,0)">
			<path class="st2" d="M-510.3-673c3.5,8.1,6.3,14.6,8.4,19.6c6.3,14.8,11.4,32.9,15.2,54.4c1.1,4.6-2.1,12.9-9.7,25
				c-7.6,12-17.1,24.8-28.5,38.3h0c0,0,0,0,0,0c-0.3,1.1,1.6,3,5.6,5.7c3.3,2.2,6.5,3.7,9.6,4.6c2.4,1.4,2.5,2.5,0.2,3.1
				c-2.3,0.6-7.5,1.1-15.7,1.5c-8.2,0.4-12.3,0.1-12.5-1c-0.3-0.5-0.5-0.9-0.6-1.5c-0.2-0.6-0.2-1.2-0.2-1.8c0-1.9,1-4.6,3-8
				c0.2-0.2,0.3-0.5,0.5-0.9c0,0,0-0.1,0.1-0.1l0,0c0.1-0.1,0.1-0.3,0.2-0.4h0c0.6-2.2,1.2-4.4,1.7-6.6c4.1-18.9,8.5-31.3,13.2-37.3
				c4.7-6,7.3-9.3,8-10l5-6.6l0.2,0l-0.1-0.2l0.2-0.2h-0.3l-5.7-11.4l-27.1-49.3c-2.2-4.9-1.7-9.9,1.4-15.1c1.2-1.9,2.3-3.6,3.4-5
				c0.6-0.7,2.1-1.8,4.5-3.4C-520.5-683.2-513.8-681.1-510.3-673z"/>
		</g>
	</g>
	
		<g transform="matrix(0.6994994878768921,-0.026466205716133118,0.026466205716133118,0.6994994878768921,510.2043762207031,590.8704833984375)">
		<g transform="matrix(1,0,0,1,0,0)">
			<path class="st2" d="M-484.2-632.7c0.1-1-1.5-3.7-5-8l-32.6-41.4c-0.3-5.8,2.3-11.8,7.8-17.8c5.5-6.1,10.2-8.5,14.4-7.3
				c12.9,17.7,23.7,37.6,32.6,59.9c2.4,6.6,2.4,12.3,0,17.2l-25.9,51.5c-0.8,1.7-1.2,3.1-1,4c0,0.1,0,0.2,0.1,0.3c0,0,0,0.1,0.1,0.1
				c0.2,0.4,0.6,0.7,1,0.9c1.2,0.9,5.6,3,13,6.6c7.4,3.5,8.5,5.3,3.3,5.6c-5.2,0.2-9.4,0.3-12.7,0.3c-3.3,0-7,0-11.2,0.1
				c-4.2,0.1-6.5-0.6-7-1.9c-0.7-2.4-0.4-4.6,0.9-6.8c1.3-2.1,2-3.4,2.1-3.7c0-0.3,0.1-0.6,0.1-0.8l0-0.3c0,0,0-0.1,0-0.1
				c1-13.4,2.2-22.9,3.5-28.4c1.4-5.5,3.1-10.4,5.2-14.7C-493.6-621.6-489.8-626.7-484.2-632.7z"/>
		</g>
	</g>
	
		<g transform="matrix(0.6907350420951843,0.11351264268159866,-0.11351264268159866,0.6907350420951843,424.3548583984375,444.11419677734375)">
		<g transform="matrix(1,0,0,1,0,0)">
			<path class="st2" d="M-538.8-485.5c3.8,1.1,5.4,4.9,4.7,11.2c-0.6,5.2-2.7,12.8-6.4,23l-12.3,25.6c-12,13.1-16.5,12-13.4-3.3
				l12.9-42.3C-549.7-481.4-544.9-486.1-538.8-485.5z"/>
		</g>
	</g>
	
		<g transform="matrix(0.6723200082778931,0.1948995739221573,-0.1948995739221573,0.6723200082778931,431.8006896972656,479.825927734375)">
		<g transform="matrix(1,0,0,1,0,0)">
			<path class="st2" d="M-586.9-408c0.6,0,1.4,0.4,2.6,1c0-0.2,0.5,0.3,1.4,1.3c1.7,2,0.6,3.6-3.1,4.9c-3.8,1.3-7.7,2.5-11.8,3.7
				c-4.1,1.2-10.3,2.5-18.5,3.9c-19,3.7-25.1,0.5-18.3-9.5c1.7-4.2,9.3-6.2,22.8-6.1C-598.3-408.5-590-408.3-586.9-408z"/>
		</g>
	</g>
	
		<g transform="matrix(0.650786280632019,0.2578316926956177,-0.2578316926956177,0.650786280632019,473.9663391113281,481.071044921875)">
		<g transform="matrix(1,0,0,1,0,0)">
			<path class="st2" d="M-660.2-337.5c-0.6,0.4-1,0.9-1.4,1.6c-0.4,0.7-0.7,1.4-1.1,2.2c-0.4,0.8-2,2.6-4.8,5.4
				c-2.8,2.8-5.4,4.2-7.8,4.3c-2.4,0.1-3.7,0-3.9-0.2c-3.4-0.1-3.1-2.5,0.9-7.2l7.9-9.7h10.9c0.7,0.1,2.6,0.2,5.5,0.4
				c1,0,1.7,0.1,2.2,0.4c0.5,0.3,0.6,0.5,0.3,0.7c-0.2,0.2-0.8,0.5-1.6,1c-0.9,0.5-1.8,0.7-2.7,0.9
				C-657.1-337.7-658.5-337.6-660.2-337.5z"/>
		</g>
	</g>
</g>
</svg>
