<?xml version="1.0" encoding="utf-8"?>
<!-- Generator: Adobe Illustrator 27.0.0, SVG Export Plug-In . SVG Version: 6.00 Build 0)  -->
<svg version="1.1" id="Vrstva_1" xmlns="http://www.w3.org/2000/svg" xmlns:xlink="http://www.w3.org/1999/xlink" x="0px" y="0px"
	 viewBox="0 0 350 250" style="enable-background:new 0 0 350 250;" xml:space="preserve">
<style type="text/css">
	.st0{fill:#CCB99D;}
	.st1{fill:#DBC895;}
	.st2{fill:#996633;}
	.st3{fill:#999999;}
	.st4{fill:#666666;}
	.st5{fill:#FFFFFF;}
	.st6{fill:#E6E6E6;}
	.st7{fill:#CCCCCC;}
</style>
<g>
	<g transform="matrix(0.5,0,0,0.5,589.1834716796875,630.9990234375)">
		<g transform="matrix(1,0,0,1,0,0)">
			<path class="st0" d="M-673.8-837.2l-90.1,72.2l-4.3-58.6l93.2-66.6L-673.8-837.2z"/>
		</g>
	</g>
	<g transform="matrix(0.5,0,0,0.5,244.5,273)">
		<g transform="matrix(1,0,0,1,514.6170043945312,669.447998046875)">
			<g transform="matrix(1,0,0,1,0,0)">
				<path class="st1" d="M-687.9-840.6l188.2-1.9l-88.9,65.4h-219.7L-687.9-840.6z"/>
			</g>
		</g>
	</g>
	<g transform="matrix(0.5,0,0,0.5,244.5,273)">
		<g transform="matrix(1,0,0,1,0,0)">
			<g transform="matrix(1,0,0,1,0,0)">
				<g transform="matrix(1,0,0,1,444.61700439453125,774.572998046875)">
					<path class="st1" d="M-735.4-868.4c-0.3,0-0.7-0.1-1-0.1c-1.2-0.1-1.7-0.3-1.7-0.5c1,0.1,1.9,0,2.8-0.1c1-0.1,2.1-0.3,3-0.7
						c2-0.7,3.2-1.1,3.8-1.1l19.9,0.2c5.8,0.3,8.8,0.6,9.1,0.8c2.8,0.1,6.4,0.4,10.9,1c3.9,0.5,9.2,0.8,15.9,0.8
						c0.2,0.1,1.1,0.3,2.7,0.5c1.6,0.2,2.5,0.4,2.7,0.5h14c12.1-0.9,32.1-2.4,59.9-4.5v-0.3h40.7c1.3,0.5,6.5,0.9,15.8,1
						c9.8,0.2,16.1,0.3,18.8,0.5c0.4,0,0.8,0,1,0.1l0.2-0.1c0.1,0.1,0.2,0.4,0.2,1c0,0.6-0.5,1.2-1.4,1.5c0,0,0,0-0.1,0
						c-2,0.8-5.9,1.2-11.7,1.2c-8.7,0.2-13.7,0.3-15.1,0.2c-0.9-0.1-3.6-0.8-8.1-2.3h-40.3c-6.3,0.5-16,1.2-29.1,2.1
						c-14.3,1-22.4,1.4-24.5,1.4c-1.7,0-5.5-0.1-11.2-0.2c-6.7-0.2-10.1-0.3-10.3-0.4c-0.8,0-1.5-0.1-2.3-0.2
						c-1.6-0.2-2.5-0.3-2.6-0.4c-6.1-0.2-11.6-0.6-16.3-1.3c-6.6-0.9-10.2-1.4-10.7-1.5l-8.3-0.3l-0.3-0.5l-19.9,0.2
						c-0.3,0.2-1,0.5-2,0.9c-1.2,0.4-2.1,0.6-2.8,0.6C-734.2-868.3-734.8-868.4-735.4-868.4z M-735.4-830.7c3.9-2,9.2-3.4,16-4.1
						c4-0.4,8.7-0.6,14.2-0.6c6.4,0,13.1,0.8,20.1,2.4c8.1,1.8,13.4,2.8,15.8,3c8.6-0.3,17.4-0.9,26.6-1.7
						c6.8-0.6,13.8-1.1,21.1-1.5c-1.8-0.2-2.8-0.3-2.9-0.5c-11.9-1.1-22-2.5-30.5-4.3c-11.5-2.4-20.9-4.1-28.1-5.2
						c-0.8,0-1.6-0.1-2.4-0.2c-1.6-0.2-2.5-0.3-2.6-0.4l-15.9,0.2c-1.4,0.1-11.3,1.9-29.6,5.3c-0.6,0-1.1,0-1.3-0.1
						c-0.2-0.1-0.4-0.2-0.6-0.2c-0.1,0-0.2-0.1-0.3-0.1c0.1,0,0.2,0,0.3-0.1c2.2-0.4,4.8-1.3,7.6-2.7c4.5-1.4,12.4-2.5,23.8-3.3
						v-0.3l16.3,0.2c9,1,19.5,2.7,31.7,5.2c11.8,2.4,24.1,4.2,36.7,5.5l21.4-0.2c9.2-0.9,18.6-2.3,28.3-4.2
						c9.3-1.8,19.4-3.2,30.3-4.2l18.6-0.2c0.9,0.1,1.8,0.2,2.5,0.3c0.8,0.1,1.5,0.3,2,0.5l0.3,1c-0.7,0.4-1.5,0.6-2.3,0.6
						c-0.2,0-0.4,0-0.6-0.1c-1-0.2-1.6-0.3-1.9-0.4l-18,0.2c-10.7,1-21,2.4-30.7,4.2c-7.5,1.4-14.7,2.5-21.5,3.4
						c9.7,0.1,14.6,0.2,14.8,0.3c13.4-0.3,21.3-0.7,23.8-1.3c2.9-0.7,7.4-1.1,13.6-1.4v-0.3l17,0.2c0.1,0.1,0.9,0.3,2.4,0.7
						c0.4,0.1,0.8,0.2,1,0.3c0.7,0.2,1.1,0.4,1.2,0.5l0.2,0.5c-0.2,0.2-0.6,0.3-1.4,0.2c0,0-0.1,0-0.1,0c-1.5-0.2-2.9-0.4-4.4-0.6
						l-15.3,0.2c-4.5,0.4-8.8,0.8-12.8,1.4c-4.1,0.6-7.5,1.1-10,1.4c-2.6,0-5.3-0.1-8-0.1c-5.3-0.1-8.1-0.2-8.2-0.3l-36.3,0.2
						c-2,1-8.3,1.8-18.9,2.5c-8.9,0.6-17,0.9-24.4,0.9c-1.7,0-4.3,0-7.6-0.1c-4.4-0.1-6.6-0.2-6.7-0.3c-3-0.2-8.2-1.1-15.6-2.7
						c-6.8-1.5-11.3-2.2-13.5-2.2c-2.4,0-8.4,0.6-18.1,1.9c-9.7,1.3-15.2,1.9-16.5,1.9c-0.4,0-0.7,0-0.9-0.1c-0.2,0-0.3-0.1-0.4-0.2
						l-0.2-0.2C-735.9-830.5-735.6-830.6-735.4-830.7z M-518.2-851.5c-0.2,0-0.4,0-0.6,0c-0.5,0-2.3-0.3-5.3-0.8
						c-3-0.5-4.8-0.8-5.3-0.8c-4.4,0-9.3,0.7-14.8,2.1c-6.7,1.9-12,3.4-16,4.5c-15.7,4.4-31.9,6.6-48.7,6.6
						c-6.9,0-18.9-1.5-35.9-4.4c-19.3-3.3-29.3-5-30-5.1h-32c-0.8,0.2-5.8,0.8-15.1,1.5h-13.6c-0.3-0.3-0.8-0.7-1.4-1.2
						c-0.2-0.2-0.3-0.4-0.3-0.5c0-0.2,0.6-0.8,1.7-1.7c8-0.2,14.1-0.6,18.3-0.9c2.4-0.2,5.7-0.5,10-0.9h32.7
						c4,0.4,13.8,2.2,29.5,5.5c16.6,3,30.6,4.6,42.1,4.6c14,0,28.4-1.8,43.3-5.3c4.1-1,8.9-2.3,14.3-3.8c4.4-1.3,7-2,7.9-2.1
						c3.1-0.2,7.5,0.2,13.2,1c2.1,0.3,4.1,0.6,6.1,1c0.7,0.1,1.4,0.3,2.1,0.4C-516.7-851.7-517.4-851.6-518.2-851.5z"/>
				</g>
				<g transform="matrix(1,0,0,1,445.0169982910156,768.6229858398438)">
					<path class="st2" d="M-518.6-834.8v5.8c-0.3-0.1-0.6-0.2-1-0.3c-1.5-0.4-2.2-0.6-2.4-0.7l-17-0.2v0.3
						c-6.1,0.2-10.7,0.7-13.6,1.4c-2.5,0.6-10.5,1-23.8,1.3c-0.2-0.1-5.1-0.2-14.8-0.3c6.8-0.9,14-2,21.5-3.4
						c9.7-1.8,19.9-3.2,30.7-4.2l18-0.2c0.3,0,0.9,0.1,1.9,0.4C-519-834.8-518.8-834.8-518.6-834.8z M-518.6-846.3
						c-2-0.4-4-0.7-6.1-1c-5.7-0.9-10.1-1.2-13.2-1c-0.8,0.1-3.5,0.8-7.9,2.1c-5.4,1.6-10.1,2.8-14.3,3.8
						c-14.9,3.5-29.3,5.3-43.3,5.3c-11.5,0-25.6-1.5-42.1-4.6c-15.7-3.2-25.5-5.1-29.5-5.5h-32.7c-4.3,0.4-7.7,0.7-10,0.9
						c-4.2,0.4-10.3,0.7-18.3,0.9v-17.1c0.6,0,1.2,0,1.8,0c0.7,0,1.6-0.2,2.8-0.6c1-0.4,1.6-0.7,2-0.9l19.9-0.2l0.3,0.5l8.3,0.3
						c0.5,0,4.1,0.5,10.7,1.5c4.8,0.7,10.2,1.1,16.3,1.3c0.1,0.1,1,0.3,2.6,0.4c0.8,0.1,1.6,0.1,2.3,0.2c0.1,0.1,3.5,0.3,10.3,0.4
						c5.7,0.1,9.4,0.2,11.2,0.2c2.1,0,10.2-0.5,24.5-1.4c13-0.9,22.7-1.6,29.1-2.1h40.3c4.5,1.5,7.2,2.3,8.1,2.3
						c1.4,0.1,6.5,0,15.1-0.2c5.8,0,9.7-0.4,11.7-1.2c0,0,0,0,0.1,0V-846.3z M-518.6-836.8c-0.7-0.1-1.6-0.2-2.5-0.3l-18.6,0.2
						c-10.9,1-21.1,2.4-30.3,4.2c-9.7,1.9-19.1,3.3-28.3,4.2l-21.4,0.2c-12.7-1.3-24.9-3.2-36.7-5.5c-12.2-2.5-22.7-4.2-31.7-5.2
						l-16.3-0.2v0.3c-11.3,0.8-19.3,1.9-23.8,3.3c-2.9,1.4-5.4,2.3-7.6,2.7v-9h13.6c9.3-0.8,14.3-1.3,15.1-1.5h32
						c0.7,0.1,10.7,1.8,30,5.1c17,2.9,29,4.4,35.9,4.4c16.8,0,33.1-2.2,48.7-6.6c3.9-1.1,9.2-2.6,16-4.5c5.5-1.4,10.4-2.1,14.8-2.1
						c0.5,0,2.3,0.3,5.3,0.8c3,0.5,4.8,0.8,5.3,0.8c0.2,0,0.4,0,0.6,0V-836.8z M-735.8-824c0.2,0,0.6,0.1,0.9,0.1
						c1.4,0,6.9-0.6,16.5-1.9c9.7-1.3,15.7-1.9,18.1-1.9c2.1,0,6.6,0.7,13.5,2.2c7.4,1.6,12.6,2.5,15.6,2.7c0.1,0.1,2.4,0.2,6.7,0.3
						c3.3,0.1,5.9,0.1,7.6,0.1c7.4,0,15.5-0.3,24.4-0.9c10.6-0.7,16.8-1.5,18.9-2.5l36.3-0.2c0.1,0.1,2.9,0.2,8.2,0.3
						c2.7,0.1,5.3,0.1,8,0.1c2.5-0.3,5.9-0.8,10-1.4c4-0.6,8.3-1,12.8-1.4l15.3-0.2c1.4,0.2,2.9,0.4,4.4,0.6c0,0,0.1,0,0.1,0v8.3
						h-217.3V-824z M-735.8-832.8c0.2,0.1,0.4,0.1,0.6,0.2c0.2,0.1,0.7,0.1,1.3,0.1c18.3-3.5,28.1-5.2,29.6-5.3l15.9-0.2
						c0.1,0.1,1,0.3,2.6,0.4c0.8,0.1,1.6,0.1,2.4,0.2c7.3,1,16.6,2.8,28.1,5.2c8.5,1.8,18.6,3.2,30.5,4.3c0.2,0.2,1.1,0.3,2.9,0.5
						c-7.3,0.4-14.4,0.9-21.1,1.5c-9.1,0.8-18,1.4-26.6,1.7c-2.4-0.2-7.7-1.2-15.8-3c-7-1.6-13.8-2.4-20.1-2.4
						c-5.5,0-10.2,0.2-14.2,0.6c-6.8,0.8-12.1,2.1-16,4.1V-832.8z M-518.6-864.5c-2.8-0.1-9-0.3-18.8-0.5c-9.3-0.2-14.5-0.5-15.8-1
						H-594v0.3c-27.8,2.1-47.7,3.6-59.9,4.5h-14c-0.1-0.1-1-0.3-2.7-0.5c-1.6-0.2-2.5-0.4-2.7-0.5c-6.7-0.1-12-0.3-15.9-0.8
						c-4.5-0.6-8.2-0.9-10.9-1c-0.3-0.2-3.3-0.5-9.1-0.8l-19.9-0.2c-0.5,0-1.8,0.4-3.8,1.1c-1,0.3-2,0.6-3,0.7v-13.2h217.3V-864.5z"
						/>
				</g>
			</g>
		</g>
	</g>
	<g transform="matrix(0.5,0,0,0.5,244.5,273)">
		<g transform="matrix(1,0,0,1,0,0)">
			<g transform="matrix(1,0,0,1,0,0)">
				<g transform="matrix(1,0,0,1,510.5920104980469,344.1029968261719)">
					<path class="st3" d="M-647.2-482.7c-5.2,0.1-8.7-0.8-10.4-2.6V-853l9.2-34.1L-647.2-482.7z"/>
				</g>
				<g transform="matrix(1,0,0,1,522.6420288085938,344.0979919433594)">
					<path class="st4" d="M-659.2-482.7l-1.2-404.4l6.8,34.1v367.6C-653.9-484.1-655.8-483.2-659.2-482.7z"/>
				</g>
			</g>
		</g>
	</g>
	<g transform="matrix(0.5,0,0,0.5,494.3085021972656,590.4614868164062)">
		<g transform="matrix(1,0,0,1,0,0)">
			<path class="st5" d="M-711.4-819.2c3.5,3.8,10.6,5.9,21.1,6.3c11.4,0.6,25.8,1.1,43.1,1.7c0.1,0,0.3-0.1,0.5-0.1v0.1
				c0.1,0,0.2,0,0.2,0c-0.1,0-0.2,0-0.2,0l0.2,12.4c0,1.5,1.3,2.7,4.1,3.6c2.8,0.9,5.5,0.7,8.3-0.4c2.7-1.1,4-2.1,3.7-2.9l0-13.5
				c4.5-0.4,8.9-0.7,13.2-1c14-1.7,25.4-2.9,34.3-3.5c13.5,0.1,25.7,3.3,36.7,9.6l-15.2,33c-0.1-2.4-5.4-4.7-15.9-6.7
				c-10.5-2.1-23.8-2.1-39.9,0.2c-13,0.6-28,1.8-45,3.4c-8.9,1.2-19.6,1.4-32.1,0.6c-27.4-2.7-45.9-8.1-55.5-16
				C-730.6-805-717.7-813.9-711.4-819.2z"/>
		</g>
	</g>
	<g transform="matrix(0.5,0,0,0.5,244.5,273)">
		<g transform="matrix(1,0,0,1,0,0)">
			<g transform="matrix(1,0,0,1,521.4229736328125,536.8060302734375)">
				<path class="st6" d="M-737-753.1h-0.3l1-0.6c0.8-0.7,1.5-1.3,2.2-1.9c2.6-2.3,5-4.7,7.1-7c0.9-1,1.8-2,2.7-3l0.6-0.6
					c6.8-4.9,11.8-7.4,14.9-7.5c0,0,0.1,0,0.1,0c0,0,0.1,0,0.1,0c9.7-2,22.7,0,38.9,6.2c0.8,5.8,2.4,9.2,4.9,10.1
					c1.2,0.4,2.9,0.5,5.3,0.3c4-0.6,6.1-3.7,6.3-9.2c5.2,1.3,21.2-0.6,47.8-5.5c13.4-3.8,22.2-5.1,26.4-3.8
					c3.4,2.6,4.1,6.1,2.2,10.5c-0.5,1.2-1.3,2.4-2.2,3.8c-0.5,0.5-0.9,1-1.4,1.5c0.7-1.3,0.7-3.1,0.1-5.5c-0.8-3.1-3.5-3.5-8.1-1.2
					c-9.2,6-19.1,10.7-29.9,14.1c-16.9,3.8-34.7,3.7-53.4-0.2c-5.9-1.2-11.3-2.1-16.5-2.7C-706.8-758.3-723-757.5-737-753.1z
					 M-596-752.3C-596-752.3-596-752.3-596-752.3C-596-752.3-596-752.3-596-752.3c0,0.1,0,0.1,0,0.1L-596-752.3l0,0.1
					c0.6,2.9,0.1,5.3-1.3,7.2c-0.6,0.9-1.1,1.6-1.5,2c-0.2,0.1-0.4,0.2-0.6,0.3c-2.6,1.4-4.8,1.2-6.7-0.5l10.1-9.1
					C-596-752.2-596-752.2-596-752.3C-596-752.2-596-752.3-596-752.3z M-596-752l-0.1,0.1c0,0.1,0,0.2,0.1,0.2
					C-596-751.7-596-751.8-596-752z M-598.3-743.1L-598.3-743.1C-598.3-743.1-598.3-743.1-598.3-743.1L-598.3-743.1z"/>
			</g>
			<g transform="matrix(1,0,0,1,502.2550048828125,545.8350219726562)">
				<path class="st5" d="M-579.6-751.9c0.4-0.4,0.9-1,1.5-2c1.4-2,1.9-4.4,1.3-7.2v-0.1l0,0c0,0,0,0,0-0.1c0,0,0-0.1,0-0.1
					c0,0,0,0,0,0.1c-1.2-3-9.4-0.5-24.3,7.7c-13,5.8-33.4,5.3-61.1-1.4c-0.5-0.1-0.9-0.2-1.3-0.3c-18.7-4.7-35.8-5.1-51.3-1.4
					c-8,1.9-15.6,4.9-22.7,9.1c7.5-4.9,14.1-9.7,19.8-14.5c14-4.4,30.2-5.1,48.8-2.3c5.1,0.6,10.6,1.5,16.5,2.7
					c18.7,3.9,36.5,4,53.4,0.2c10.7-3.3,20.7-8,29.9-14c4.6-2.3,7.3-1.8,8.1,1.2c0.6,2.4,0.6,4.2-0.1,5.5c0,0-0.1,0.1-0.1,0.1
					c-0.2,0.2-0.4,0.5-0.6,0.8c-1.9,2-4.6,4.7-8.1,7.9c-3.5,3.2-5.9,5.3-7.2,6.4C-578.6-752.7-579.4-752.1-579.6-751.9z"/>
			</g>
		</g>
	</g>
	<g transform="matrix(0.5,0,0,0.5,244.5,273)">
		<g transform="matrix(1,0,0,1,0,0)">
			<g transform="matrix(1,0,0,1,486.864013671875,470.0010070800781)">
				<path class="st6" d="M-535.8-722c-15.7-0.3-37.8,0.9-66.4,3.6c-9.2,0.4-13.5,0.7-12.8,0.9c-27.8,3.4-50.7,0.5-68.7-8.6
					c-21.6-8.6-38-11-49.1-7.3c8-3,14.6-6.2,19.7-9.6c0.8-0.3,3.6-2.2,8.1-5.7c5.6-3.3,15.2-1.5,28.7,5.4
					c13.4,6.8,27.3,11.2,41.7,13.4c-0.1,1.7-0.1,3.2,0.2,4.5c2.2,3.9,6.6,5,13.1,3.3c2-0.4,2.9-2.8,2.6-7.2
					c45.4,2.3,75.8,2.3,91.2,0.2C-528.5-726.2-531.2-723.9-535.8-722z M-753.4-725.8C-753.7-725.7-753.7-725.8-753.4-725.8
					C-753.3-725.8-753.4-725.8-753.4-725.8z M-733.4-726.9l-25.5,9.5c-0.1-3.9,2-6.7,6.2-8.6c0.1,0,0.1,0,0.2-0.1h0c0,0,0.1,0,0.1,0
					c5.6-1.5,11.7-1.8,18.1-1l1-0.1L-733.4-726.9z"/>
			</g>
			<g transform="matrix(1,0,0,1,484.6919860839844,497.10400390625)">
				<path class="st5" d="M-738.1-758.1c2.1-0.7,4.1-1.3,6-2c0.5-0.2,0.9-0.3,1.4-0.5c11.1-3.7,27.5-1.3,49.1,7.3
					c18.1,9.1,41,12,68.7,8.6c-0.7-0.1,3.6-0.4,12.8-0.9c28.6-2.7,50.8-3.9,66.4-3.6c-9.1,3.8-15.5,10.1-19.3,18.9
					c-74.1,9.3-122.2,6-144.2-9.6c-11.2-8.1-22.6-12.8-34.1-14.1l0.2-0.2l-1,0.1c-6.4-0.8-12.5-0.5-18.1,1c0,0-0.1,0-0.1,0h0
					c-0.1,0-0.1,0-0.2,0c-0.3,0.1-0.6,0.1-0.7,0.1c0,0,0,0,0.1-0.1c0,0,0.1,0,0.2-0.1l11.6-4.5h-0.1
					C-738.9-757.7-738.5-757.9-738.1-758.1z"/>
			</g>
			<g transform="matrix(1,0,0,1,328.0169982910156,474.1730041503906)">
				<path class="st7" d="M-581.4-735.1c-0.4,0.2-0.9,0.3-1.3,0.5l-0.5,0.1C-582.6-734.7-582-734.9-581.4-735.1z"/>
			</g>
		</g>
	</g>
	<g transform="matrix(0.5,0,0,0.5,244.5,273)">
		<g transform="matrix(1,0,0,1,0,0)">
			<g transform="matrix(1,0,0,1,513.7169799804688,409.45599365234375)">
				<path class="st6" d="M-552.9-687.9c-0.1,0-0.1,0-0.2,0c-7-5.1-29.3-5.5-67-1.1c-37.7,4.4-78.4-2.7-122.1-21.2
					c-8.5-2.6-16.2-2.8-23.3-0.6c5.7-4.8,10.1-8.8,13.3-12c3.2-3.2,6.4-5.5,9.5-7c8.8-4.1,20.1-3,34,3.4c13.9,6.4,29.6,10.7,47.1,13
					l0.1,15.7c0.7,2.1,2.7,3.3,6.2,3.5c3.4,0.3,5.7-0.2,7-1.4c1.3-1.2,2.1-2.3,2.5-3.2l0.3-13.4c8.9,2,25.4,1.7,49.4-0.8l33.4-7.4
					c10.3-1.3,17.3-0.7,21.1,1.6c-1.7,3.7-4,9.6-6.9,17.8C-549.9-697.1-551.3-692.7-552.9-687.9z"/>
			</g>
			<g transform="matrix(1,0,0,1,482.5419921875,443.9949951171875)">
				<path class="st5" d="M-521.7-722.5c-1.2,3.6-2.2,7.3-3,11.2c-0.8,3.6-1.3,7.5-1.5,11.6c-13.5-10.5-34.3-13.3-62.3-8.5
					c-53.7,7.3-94.9,3.3-123.7-11.8c-13.7-8.6-29.5-9.2-47.4-1.8l25.4-23.6c7.1-2.2,14.8-2,23.3,0.6c43.7,18.5,84.4,25.5,122.1,21.2
					c37.7-4.4,60-4,67,1.1C-521.9-722.5-521.8-722.5-521.7-722.5z M-761.5-722c0,0,0.1,0,0.1,0v0C-761.4-722-761.5-722-761.5-722z"
					/>
			</g>
		</g>
	</g>
	<g transform="matrix(0.5,0,0,0.5,494.40850830078125,453.3865051269531)">
		<g transform="matrix(1,0,0,1,0,0)">
			<path class="st5" d="M-588.9-679c-6.5-1.5-16-1.7-28.5-0.7c-13,0.6-28,1.8-45,3.4c-8.9,1.2-18.6,2.7-29.1,4.4
				c-29.8,0.8-49.4-5.8-58.6-19.8c19.4-12.5,32.3-21.4,38.6-26.7c3.5,3.8,8.6,6.6,15.2,8.4c8.8,2.8,20.1,3.3,33.9,1.4
				c5-0.5,10.2-1.1,15.7-1.9l0.2,12.5c0,1.5,1.3,2.7,4.1,3.6s5.5,0.7,8.3-0.4c2.7-1.1,4-2.1,3.7-2.9l0-13.5c4.5-0.4,8.9-0.7,13.2-1
				c27.2-3.4,44.8-4.6,52.9-3.8c7-0.3,13,3,18.1,9.9l-17.4,42C-566.9-671-575.2-676-588.9-679z"/>
		</g>
	</g>
</g>
</svg>
