<?xml version="1.0" encoding="utf-8"?>
<!-- Generator: Adobe Illustrator 27.0.0, SVG Export Plug-In . SVG Version: 6.00 Build 0)  -->
<svg version="1.1" id="Vrstva_1" xmlns="http://www.w3.org/2000/svg" xmlns:xlink="http://www.w3.org/1999/xlink" x="0px" y="0px"
	 viewBox="0 0 350 250" style="enable-background:new 0 0 350 250;" xml:space="preserve">
<style type="text/css">
	.st0{fill:#FFFFFF;}
	.st1{fill:#E0E0E0;}
	.st2{fill:#993300;}
	.st3{display:none;opacity:4.644615e-02;}
	.st4{display:inline;fill-opacity:0;stroke:#6B2705;stroke-width:2.3347;}
	.st5{display:inline;}
	.st6{opacity:0.9573;}
	.st7{fill-opacity:0;stroke:#6B2705;stroke-width:2.3347;}
	.st8{display:none;opacity:1.017308e-03;}
	.st9{display:none;}
	.st10{fill:#F4F4F4;}
	.st11{fill:#E19862;}
	.st12{fill:#E9B38B;}
	.st13{fill:#996666;}
	.st14{fill:#EFCFA0;}
	.st15{fill:#DDA44D;}
	.st16{fill:#785050;}
	.st17{fill:#865959;}
	.st18{fill:#FFCC99;}
</style>
<g>
	<g transform="matrix(1,0,0,1,0,0)">
		<g transform="matrix(1,0,0,1,648.9199829101562,376.3500061035156)">
			<path class="st0" d="M-314.8-292.6c-0.3,7.7-1.6,16.7-3.8,26.9c-1.9,7.8-5.8,13.9-11.6,18.4c-2.4,1.9-5.2,3.4-8.4,4.7
				c-4,2.4-8.3,4.3-12.8,5.6c-0.3,0.1-0.7,0.2-1.1,0.3v0.1c-0.4-0.2-0.8-0.5-1.3-0.7c-3.8-2.2-6.6-5.4-8.5-9.7
				c-1.9-4.2-3-8.8-3.5-13.8c-0.4-4.7-0.5-9.5-0.4-14.3c0.1-4.8,0.4-9.6,0.9-14.4c0.5-4.8,1.2-9.5,2-14.2c0.8-4.7,2.2-9.1,4.1-13.3
				c1.7-3.8,3.9-6.7,6.6-8.6v1.8c0.5-0.2,0.9-0.3,1.4-0.5c0.4-0.1,0.7-0.2,1.1-0.3c4.4-1.2,9.3-1.8,14.9-1.8c3.8,0,7.9,0.3,12.3,0.9
				c5.9,0.8,7,3.2,3.5,7.3C-315.8-312.3-314.4-303.8-314.8-292.6z M-418.3-346.4c3.4-0.2,6.9-0.3,10.6-0.3c0.5,0,1,0,1.4,0
				c1.2,0,2.3,0,3.4,0c12.5,0.2,23.3,1.4,32.3,3.5c2.2,0.5,4.1,1.1,5.8,1.6c6,2,9,4.3,9,6.9c0,2.6-3,4.9-9,7
				c-1.7,0.6-3.6,1.1-5.8,1.6c-9.1,2.2-19.8,3.3-32.3,3.5c-1.1,0-2.2,0-3.4,0c-0.5,0-0.9,0-1.4,0c-3,0-5.9-0.1-8.7-0.2
				c-0.6,0-1.3-0.1-1.9-0.1V-346.4z M-461.9-330.4l-0.1-0.1v-0.4L-461.9-330.4z M-344.7-301.2c-0.5,5.4-3.1,8.3-7.8,8.7v26
				c2.5-1.1,4.6,1.4,6.3,7.6l0.8,3.9c3.1,5.5,7.4,5,12.8-1.5c1.7-2.1,3.6-4.9,5.6-8.4c3.7-10.2,5.1-21.3,4.2-33.4
				c-0.9-12.1-4.8-18.2-11.8-18.4c-5.2,0.6-8.3,2.6-9.2,6.2L-344.7-301.2z"/>
		</g>
		<g transform="matrix(1,0,0,1,543.625,284.29998779296875)">
			<path class="st1" d="M-313-254.4v23.6c-8.9-0.5-16.8-1.6-23.7-3.2c-4.1-1-7.3-2-9.7-3.2c-3.4-1.6-5-3.4-5-5.4
				c0-1,0.4-1.9,1.3-2.8c0.8-0.9,2-1.7,3.7-2.5c2.4-1.2,5.6-2.2,9.7-3.2C-329.8-252.8-321.9-253.9-313-254.4z"/>
		</g>
	</g>
	<g transform="matrix(1,0,0,1,609.6380004882812,296.0899963378906)">
		<g transform="matrix(1,0,0,1,0,0)">
			<path class="st2" d="M-390.5-241.4c-4.8-0.9-9.7-2-14.6-3.4c-5-1.4-8.2-3-9.7-4.7c-1.5-1.8,2-3.6,10.6-5.5
				c8.6-1.9,19.3-2.9,32.2-2.8c12.9,0,23.5,0.6,31.9,1.6c8.4,1,13.9,1.9,16.5,2.5c2.6,0.6,3.9,1.7,3.9,3.3c0,1.6-2.4,3.2-7.1,4.9
				c-4.7,1.7-10,3.1-15.8,4.1c-5.8,1.1-14,1.5-24.7,1.4C-377.9-240-385.7-240.5-390.5-241.4z"/>
		</g>
	</g>
	<g transform="matrix(1,0,0,1,609.6380004882812,296.0899963378906)" class="st3">
		<path class="st4" d="M-386.1-242.8c-3.9-0.7-7.8-1.6-11.9-2.7c-4-1.1-6.6-2.4-7.8-3.8c-1.2-1.4,1.6-2.9,8.6-4.5
			c7-1.6,15.7-2.3,26.1-2.3c10.4,0,19,0.5,25.9,1.3c6.8,0.8,11.2,1.5,13.3,2c2.1,0.5,3.1,1.4,3.1,2.7c0,1.3-1.9,2.6-5.7,4
			c-3.8,1.4-8.1,2.5-12.8,3.3c-4.7,0.9-11.4,1.2-20,1.2C-376-241.7-382.2-242.1-386.1-242.8z"/>
		<g transform="matrix(0.8100624084472656,0,0,0.8100624084472656,0,0)" class="st5">
		</g>
	</g>
	<g transform="matrix(1,0,0,1,609.6380004882812,296.0899963378906)" class="st6">
		<path class="st7" d="M-381-244.5c-2.8-0.5-5.7-1.2-8.6-2c-2.9-0.8-4.8-1.8-5.7-2.8c-0.9-1.1,1.2-2.1,6.3-3.3
			c5.1-1.1,11.4-1.7,19-1.7c7.6,0,13.8,0.3,18.8,0.9c4.9,0.6,8.2,1.1,9.7,1.5c1.5,0.4,2.3,1,2.3,2c0,0.9-1.4,1.9-4.2,2.9
			c-2.8,1-5.9,1.8-9.3,2.4c-3.4,0.6-8.3,0.9-14.5,0.8C-373.6-243.7-378.2-244-381-244.5z"/>
		<g transform="matrix(0.5890355110168457,0,0,0.5890355110168457,0,0)">
		</g>
	</g>
	<g transform="matrix(1,0,0,1,609.6380004882812,296.0899963378906)" class="st8">
		<path class="st4" d="M-386.4-242.7c-3.9-0.7-7.9-1.6-12-2.8c-4.1-1.1-6.7-2.4-8-3.9c-1.2-1.5,1.7-3,8.7-4.5
			c7.1-1.6,15.9-2.3,26.4-2.3c10.6,0,19.3,0.5,26.2,1.3c6.9,0.8,11.4,1.5,13.5,2.1c2.1,0.5,3.2,1.4,3.2,2.7c0,1.3-2,2.7-5.8,4
			c-3.9,1.4-8.2,2.5-12.9,3.4c-4.8,0.9-11.5,1.3-20.3,1.2C-376.1-241.6-382.4-242-386.4-242.7z"/>
		<g transform="matrix(0.8210865259170532,0,0,0.8210865259170532,0,0)" class="st5">
		</g>
	</g>
	<g transform="matrix(1,0,0,1,609.6380004882812,296.0899963378906)" class="st9">
		<path class="st4" d="M-380.6-244.6c-2.7-0.5-5.5-1.1-8.3-1.9c-2.8-0.8-4.7-1.7-5.5-2.7c-0.9-1,1.2-2.1,6-3.2
			c4.9-1.1,11-1.6,18.3-1.6c7.3,0,13.4,0.3,18.2,0.9c4.8,0.6,7.9,1.1,9.4,1.4c1.5,0.4,2.2,1,2.2,1.9c0,0.9-1.4,1.8-4,2.8
			c-2.7,1-5.7,1.8-9,2.4c-3.3,0.6-8,0.9-14,0.8C-373.4-243.9-377.8-244.1-380.6-244.6z"/>
		<g transform="matrix(0.5689898729324341,0,0,0.5689898729324341,0,0)" class="st5">
		</g>
	</g>
	<g transform="matrix(1,0,0,1,0,0)">
		<g transform="matrix(1,0,0,1,0,0)">
			<g transform="matrix(1,0,0,1,610.4249877929688,392.2749938964844)">
				<path class="st0" d="M-312.3-346.7c-6.4,8.6-27,13.2-61.7,13.7c-12.3-0.3-23.1-1.5-32.6-3.8c-2-0.3-4-0.8-5.8-1.5
					c-0.5-0.2-1-0.3-1.5-0.5h0.5c-3.6-1.6-6.9-4.1-9.9-7.5v0c-0.2-2.8,0.1-5.1,0.8-7.1c1.3-3.7,4.1-6,8.5-7.1
					c0.3-0.1,0.6-0.2,0.8-0.2c4.8-1.4,9.5-2.6,14.1-3.4c9.5-1.6,19.5-2.4,29.9-2.4c1.6,0,3.2,0,4.8,0c7.7,0.2,15.7,0.8,23.9,1.8
					c10.6,1.9,17.4,3.5,20.2,4.8c4.4,2,7.1,6.1,8,12.2V-346.7z M-367.8-362.7c-0.5,0-1,0-1.4,0c-13.3,0.1-24.7,1.3-34.3,3.5
					c-4.1,1-7.4,2.1-9.7,3.2c-1.6,0.8-2.9,1.6-3.7,2.5c-0.9,0.9-1.3,1.8-1.3,2.8c0,2,1.7,3.8,5,5.4c2.4,1.1,5.7,2.2,9.7,3.2
					c7.4,1.8,15.9,2.9,25.6,3.3c2.8,0.1,5.7,0.2,8.7,0.2c0.5,0,1,0,1.4,0c1.1,0,2.3,0,3.4,0c12.5-0.2,23.3-1.4,32.3-3.5
					c2.2-0.5,4.1-1.1,5.8-1.6c6-2,9-4.3,9-7c0-2.6-3-4.9-9-6.9c-1.7-0.6-3.6-1.1-5.8-1.7c-9.1-2.2-19.8-3.3-32.3-3.5
					C-365.6-362.7-366.7-362.7-367.8-362.7z M-414-333.8c7.5,3.5,13.3,5,17.3,4.6l-0.3,95.4c-3.4-0.2-8.8-2.2-16.1-6L-414-333.8z"/>
			</g>
			<g transform="matrix(1,0,0,1,610.0250244140625,428.54998779296875)">
				<path class="st10" d="M-423-382.6L-423-382.6c3,3.4,6.2,5.9,9.9,7.5h-0.5c0.5,0.1,1,0.3,1.5,0.5c1.8,0.7,3.8,1.2,5.8,1.5
					c9.5,2.3,20.4,3.5,32.6,3.8c34.8-0.5,55.3-5.1,61.7-13.7v102.1c-0.3,3.3-1.2,6.1-2.7,8.2c-1.2,1.7-2.8,3-4.7,3.9
					c-15.2,7.7-30.1,11.9-44.7,12.7c-1.6,0.1-3.2,0.1-4.8,0.1c-2.9,0-5.8-0.1-8.7-0.4c-12-1.2-23.8-4.8-35.3-10.9
					c-0.9-0.5-1.8-1-2.7-1.5c-2-1.1-3.6-2.4-4.8-3.9c-1.9-2.3-2.8-5-3-8.2l0.1-85.3h0.1l0-16.6L-423-382.6z M-413.6-370l0.9,94
					c7.3,3.8,12.7,5.8,16.1,6l0.3-95.4C-400.3-365-406-366.5-413.6-370z"/>
			</g>
		</g>
	</g>
	<g transform="matrix(1,0,0,1,0,0)">
		<g transform="matrix(1,0,0,1,396.0249938964844,647.1439819335938)">
			<path class="st11" d="M-237-432.5c-0.1-0.1-0.1-0.4-0.1-0.8c0-0.5,0-0.7,0-0.7c0.1-0.1,0.2-0.2,0.2-0.4c0.2,0,0.8,0,1.8,0
				c0.1,0,0.2,0,0.2,0c0.7,0.1,1.2,0.4,1.5,1c-0.3,0.4-0.6,0.7-0.7,0.9c-0.4,0.3-0.9,0.5-1.5,0.5c-0.5,0-0.8,0-1.1-0.1l-0.2-0.1
				C-236.8-432.3-236.9-432.4-237-432.5C-237-432.5-237-432.5-237-432.5z M-273.7-436.9C-273.7-436.9-273.7-437-273.7-436.9
				l-0.2-0.7c1-0.9,2.1-1.4,3.2-1.3c0.1-0.1,0.2-0.1,0.3-0.2c0.6-0.4,1.3-0.6,2.1-0.7c0.4,0,0.8-0.1,1.1,0c1.3,0.1,1.9,0.6,1.9,1.7
				c0,0.6-0.3,1.2-0.9,1.8c-0.6,0.5-1.2,0.8-1.9,0.8c-1.4,0-2.4-0.3-2.9-0.8c-0.6,0.1-1,0.1-1.3,0.1c-0.5,0-0.9-0.1-1.1-0.2
				C-273.3-436.6-273.4-436.7-273.7-436.9z"/>
		</g>
		<g transform="matrix(1,0,0,1,392.95001220703125,641.7969970703125)">
			<path class="st12" d="M-231.7-429.1c-0.1,0-0.2,0-0.2,0c-0.9,0-1.5,0-1.8,0c0,0.1-0.1,0.3-0.2,0.4c0,0,0,0.2,0,0.7
				c0,0.4,0,0.7,0.1,0.8c-0.9-0.1-1.6-0.6-2.1-1.6c-0.3-1-0.5-1.4-0.5-1.2c0-1.3,0.6-1.9,1.7-1.6
				C-233.7-431.4-232.7-430.5-231.7-429.1z M-241-438.9c0,0.2,0.1,0.6,0.2,1.1l-0.2,1.1c-1.6,0.2-2.9,0.4-3.9,0.5
				c-0.6-0.4-0.9-0.7-1.1-0.9c-0.3-0.3-0.4-0.5-0.4-0.7c0-0.5,0-0.7,0-0.7c0.1-0.1,0.2-0.2,0.2-0.4c0.4-0.1,1-0.2,1.9-0.2
				C-243.3-439.1-242.2-439-241-438.9z M-264-434.6c-0.3,0-0.7,0-1.1,0c-0.8,0.1-1.5,0.4-2.1,0.7c-0.1,0.1-0.2,0.1-0.3,0.2
				c-1.1-0.1-2.2,0.4-3.2,1.3l0.1,0.7c0,0,0,0,0,0c-0.5-0.2-0.9-0.5-1.2-0.8c-0.2-0.3-0.4-0.7-0.4-1.2c0-0.9,0.4-1.6,1.3-2.1
				c0.7-0.5,1.7-0.7,2.8-0.8c1.1,0,2,0.2,2.8,0.6C-264.6-435.6-264.2-435.2-264-434.6z"/>
		</g>
	</g>
	<g transform="matrix(1,0,0,1,0,0)">
		<g transform="matrix(1,0,0,1,0,0)">
			<g transform="matrix(1,0,0,1,339.79998779296875,514.64501953125)">
				<path class="st11" d="M-253.3-344.3c-0.2,0-0.5,0-0.7,0c-3.1-0.1-6.3-0.1-9.5-0.2c-4-0.1-8.2-0.3-12.5-0.5
					c-3.3-0.1-6.5-0.3-9.5-0.6c-2.3-0.2-4.5-0.4-6.6-0.7l-4.5-0.5c-11.1-2.2-17.7-4-19.6-5.1c-1-0.4-2.8-1.2-5.4-2.5
					c-6.6-3.2-10.8-6.1-12.6-8.8c-0.1-0.3-0.2-0.6-0.4-1c-1.1-2.6-1.4-4.4-1-5.5c0.8-2,3.7-3.8,8.8-5.4c6.1-1.9,15.8-3.6,29.1-5.1
					l9.9-0.9c8.8-0.3,14.9-0.5,18.3-0.7c21-0.4,55.1-1.9,102.2-4.5l5-0.3c0,0.2,0,0.5,0,0.7c0.1,1.1,0.6,2.3,1.4,3.6
					c-0.5,0-1.1,0.1-1.6,0.1c-20.6,1.3-41.1,2.3-61.7,2.8c-18.1,0.5-36.1,1.2-54.1,2.1c-9.6,0.5-19.3,1.3-29,2.3
					c-3.1,0.3-5.8,0.8-8.1,1.5l-3.5,0.3l-3.5,1.3l-2.9,2.2c1.2,4.1,4,7.3,8.6,9.5c2.3,1.7,5,3.1,8.1,4.2c10.9,3.1,23,4.2,36.2,3.2
					c16-1.2,31.9-2.5,47.8-4.1c18.4-1.8,36.5-2.4,54.3-1.8c12.1,0.4,24.2,0.7,36.3,0.9c1.5,0.5,2.5,0.7,3.1,0.6c0.5,0,0.8-0.1,1-0.3
					l0.1-0.2c0,0,0,0,0,0c0.8,0,1.5,0,2.3,0c5.4,2.7,10.8,5,16.2,6.7c0,0,0,0,0,0c-0.3,0-0.7-0.1-1-0.1c-1.5,0.1-3.1,0.2-4.6,0.2
					c-1.2,0.1-2.4,0.1-3.5,0.2c-12.2-0.3-24.8-0.1-37.7,0.6c-12.3,0.6-24.9,1.5-37.8,2.7c-1.7,0.2-3.5,0.3-5.2,0.5l-18.5,1.1
					c-1.7,0-4.2,0.1-7.3,0.2c-0.7,0.1-1.5,0.2-2.2,0.3c0,0,0.1,0.1,0.3,0.1c-1.2,0-3.2,0.1-5.9,0.2c-0.2,0-0.3,0.1-0.5,0.1
					C-238.6-344.3-244.6-344.2-253.3-344.3z M-158.4-369.1c0,0.4-0.2,0.7-0.7,0.9c-0.6,0.3-1.7,0.5-3.2,0.6c-2.2,0.2-3.9,0-5-0.5
					c-0.8-0.3-1.2-0.6-1.3-1c-0.1-0.9,1.6-1.3,5-1.2C-160.2-370.3-158.5-369.9-158.4-369.1z M-161.7-362.4c0,0.2-0.1,0.4-0.4,0.6
					c-0.3,0.2-0.7,0.3-1.2,0.4c-0.6,0-1-0.1-1.2-0.4c-0.1-0.2-0.2-0.3-0.2-0.5c0-0.6,0.5-1,1.5-1
					C-162.3-363.3-161.8-363-161.7-362.4z M-197.5-378c1.3,0.2,1.9,0.6,2,1c0,0.5-0.3,1-0.9,1.4c-1,0.6-2.5,0.9-4.7,1.1
					c-2.2,0.1-3.9,0-5.2-0.4c-0.9-0.3-1.4-0.7-1.4-1.1c-0.1-1.3,1.9-2.1,6-2.2C-200.2-378.3-198.8-378.2-197.5-378z M-191.9-368.6
					c-0.2,0-0.5,0-0.6,0l-0.2,0c-0.1-0.1-0.1-0.3-0.2-0.7c0-0.5,0.2-0.8,0.7-0.8c0.4,0,1.6,0.2,3.7,0.6c-0.1,0.3-0.3,0.5-0.6,0.7
					C-190.6-368.7-191.5-368.6-191.9-368.6z M-178.9-374.6c-0.1,0-0.1-0.2-0.1-0.4c0-0.6,0.5-0.9,1.6-1c1.1-0.1,1.7,0.2,1.7,0.8
					c0,0.2,0,0.4-0.1,0.5c-0.2,0-0.3,0.1-0.4,0.1L-178.9-374.6L-178.9-374.6z M-178.5-364.4c0,0.2,0,0.4,0,0.4
					c-0.1,0.1-0.1,0.1-0.1,0.2l-0.6,0.2c-1.2,0.1-2,0.1-2.4,0c-0.3-0.1-0.4-0.3-0.5-0.7c0-0.5,0.5-0.9,1.7-1.1
					C-179.2-365.7-178.6-365.4-178.5-364.4z M-224.7-369.2c0.1-0.8,0.7-1.2,1.6-1.3c0.8,0,2.3,0.2,4.5,0.6c0,0.2-0.2,0.4-0.4,0.6
					c-0.3,0.3-0.6,0.5-1,0.5c-1.7,0.1-2.9,0.1-3.6-0.2C-224.2-369.1-224.6-369.2-224.7-369.2z M-238.5-373.1
					c-3.5,0.2-5.4-0.3-5.5-1.7c-0.1-1,1.6-1.6,5-1.7c3.4-0.1,5.1,0.3,5.2,1.3c0,0.5-0.4,1-1.4,1.4
					C-236.1-373.4-237.2-373.2-238.5-373.1z M-202.7-366.8c-0.1,0.4-0.1,0.6-0.2,0.7c-0.3,0.2-1.2,0.3-2.5,0.4
					c-0.7,0-1.2-0.1-1.4-0.4l-0.2-0.5c0-0.4,0.1-0.6,0.4-0.7c0.5-0.2,1.4-0.3,2.9-0.2C-203.2-367.1-202.8-366.9-202.7-366.8z
					 M-216.3-359.3l-1.6,0.1l-0.9,0c-0.1,0.2-0.1,0.1-0.1-0.3c0-0.2,0-0.4,0.1-0.6l0.2-0.4c0.1,0,0.3,0,0.6,0.2
					c0.5,0.1,1.1,0.2,2,0.2l0.1,0.4C-216-359.5-216.1-359.4-216.3-359.3z M-232.5-360.5c0,0.1-0.1,0.2-0.2,0.4
					c-0.2,0.3-0.4,0.5-0.7,0.7l-3,0.2c-1.6-0.1-2.6-0.3-3.1-0.5c-0.4-0.1-0.5-0.4-0.6-0.8c-0.1-0.8,1.2-1.2,3.7-1.2
					C-233.9-361.7-232.6-361.3-232.5-360.5z M-264.6-367.2c0-0.4,0-0.7,0.1-0.9c0.2-0.3,0.8-0.5,1.6-0.7l7.5-0.5
					c1.1,0.1,2.3,0.3,3.5,0.4c0.7,0.1,1,0.4,1.1,0.8c0,0.6-0.4,1-1.2,1.4c-1.1,0.5-3.1,0.8-6.1,1c-2.6,0.2-4.5,0.1-5.6-0.4
					C-264.3-366.4-264.6-366.8-264.6-367.2z M-272.9-362.6c0.1,0.4-0.1,0.7-0.6,0.9l-2.1,0.2c-0.3-0.1-0.8-0.2-1.5-0.4
					c-0.7-0.2-1.2-0.3-1.3-0.4c0-0.5,0.1-0.8,0.4-0.9c0.2,0,1.7-0.1,4.4-0.1C-273.2-363-272.9-362.8-272.9-362.6z M-277.3-370
					c-0.4,0.2-1.2,0.4-2.6,0.5c-2.8,0.2-4.3-0.2-4.3-1.2c0-0.9,1.1-1.3,3.5-1.4c2.4,0,3.7,0.4,3.8,1.2
					C-277-370.4-277.1-370.1-277.3-370z M-311-369c-0.3-0.1-0.5-0.3-0.6-0.5c0-0.1-0.1-0.2-0.1-0.3c-0.1-0.9,1.3-1.5,4.1-1.6
					c2.8-0.1,4.2,0.2,4.3,1c0,0.5-0.1,0.9-0.4,1.1c-0.5,0.3-1.4,0.5-2.7,0.6C-308.6-368.4-310.1-368.5-311-369z M-315.4-364.9
					c-0.1,0-0.6,0.1-1.4,0.1c-0.7,0-1.3,0-1.8,0c0,0,0-0.1-0.1-0.2c0-0.1-0.1-0.2-0.1-0.5c0-0.3,0.1-0.6,0.5-0.7
					c0.2-0.1,0.6-0.1,1.3-0.2c0.7,0,1.3,0,1.7,0c0,0,0,0.1,0.1,0.1c0.1,0.1,0.1,0.2,0.1,0.5C-314.9-365.3-315.1-365-315.4-364.9z
					 M-290.7-366.4c1.8,0.1,3.4,0.5,4.8,1.2l-0.3,0.6c-0.1,0.2-0.5,0.3-1.1,0.4c-0.9,0.1-2.1,0-3.8-0.2c-1.7-0.2-2.7-0.4-3.2-0.6
					C-293.9-366-292.7-366.5-290.7-366.4z M-296.3-357.5c-0.4,0.3-1.3,0.4-2.7,0.5c-1.8,0.1-3,0-3.7-0.4c-0.4-0.2-0.5-0.5-0.6-0.7
					c-0.1-0.9,1.1-1.4,3.5-1.4c2.4,0,3.7,0.4,3.7,1.2C-296-357.9-296.1-357.7-296.3-357.5z M-256.4-356.9c-0.2,0.1-0.8,0.2-1.8,0.2
					c-1.7,0.1-2.7,0.1-3.2-0.2c-0.2-0.1-0.3-0.3-0.4-0.7c0-0.6,0.9-0.9,2.8-1c1.9,0,2.9,0.3,2.9,1
					C-256.1-357.2-256.2-357-256.4-356.9z"/>
			</g>
			<g transform="matrix(1,0,0,1,365.1619873046875,570.1500244140625)">
				<path class="st13" d="M-314.7-400C-314.7-400-314.8-400-314.7-400C-314.8-399.8-314.7-399.8-314.7-400z M-311-401.2
					c-0.4,0.1-0.8,0.2-1.3,0.4c-0.8,0.2-1.4,0-1.8-0.6c-0.6,8-0.9,14.1-0.9,18.5c-0.4,0-0.7,0-1.1,0c-10.4-0.9-18.2-1.7-23.4-2.4
					c-5.2-0.7-10.3-3.4-15.4-8.1c-2-1.9-4.1-5.2-6.1-9.9c-0.1-0.8-0.3-1.9-0.6-3.1c0-0.1-0.1-0.3-0.1-0.4c-1.4-7.4-2-11.4-1.9-12
					c-0.1-0.6-0.2-1.4-0.3-2.4c-0.2-2.4-0.3-3.7-0.3-3.9c0.2-1.4,1.3-2.7,3.2-3.8c3.7-2.1,10.8-4.1,21.4-6l29.6-3.2
					c47.9-1.5,74.3-2.4,79.1-2.6c4.8-0.3,7.4-0.4,7.8-0.4l30-2.7c0.6,0,2,0,4.3-0.1c0.1,0.2,0.3,0.5,0.6,0.7
					c0.1,0.1,0.1,0.2,0.2,0.3c0,0.1,0.1,0.1,0.1,0.2c0,0,0,0.1,0,0.1c0,0.2-0.1,0.5-0.1,0.7l-5,0.3c-47.1,2.6-81.2,4.1-102.2,4.5
					c-3.4,0.1-9.5,0.4-18.3,0.7l-9.9,0.9c-13.3,1.5-23,3.2-29.1,5.1c-5,1.5-8,3.3-8.8,5.4c-0.4,1.1-0.1,3,1,5.5
					c0.1,0.3,0.2,0.6,0.4,1c1.8,2.7,6,5.6,12.6,8.8c2.6,1.3,4.4,2.1,5.4,2.5c1.9,1.2,8.5,2.9,19.6,5.1l4.5,0.5
					C-315.5-401.6-313.3-401.4-311-401.2z M-137.2-405.5c-0.7,0-1.4,0-2,0c-0.7,0-1.3-0.1-2-0.1c-1.6-0.1-3.2-0.1-4.8-0.2
					c1.2-0.1,2.4-0.1,3.5-0.2c1.5-0.1,3.1-0.1,4.6-0.2c0.4,0,0.7,0,1,0.1C-136.9-405.9-137-405.7-137.2-405.5z M-113.7-345.9
					c0-0.1,0-0.1,0-0.2c1.2-0.2,2.4-0.3,3.6-0.5C-111.5-346.3-112.7-346.1-113.7-345.9z M-259.4-399.7c0-0.1,1.1-0.3,3.3-0.5
					C-257.2-400-258.3-399.9-259.4-399.7L-259.4-399.7z M-278.7-399.8c-0.6,0.1-1.2,0.2-1.7,0.2c-3.9,0.1-6.7-0.1-8.6-0.5
					c3.3,0.1,6.4,0.2,9.5,0.2C-279.2-399.9-278.9-399.9-278.7-399.8z"/>
			</g>
			<g transform="matrix(1,0,0,1,333.625,510.760986328125)">
				<path class="st14" d="M-152-374.7c-0.1,0-0.1,0-0.2,0.1c0.5,0.4,1,0.9,1.6,1.4h0c0.7,0.7,1.6,1.5,2.5,2.4
					c0.2,0.2,0.5,0.4,0.7,0.6c2.5,1.5,5.5,3.4,9.1,5.7c9.6,6.2,14.5,9.5,14.7,9.9c0.7,0.4,1.4,0.7,2.1,1.1c-0.8,0-1.5,0-2.3,0
					c0,0,0,0,0,0l-0.1,0.2c-0.1,0.1-0.5,0.2-1,0.3c-0.6,0.1-1.6-0.1-3.1-0.6c-12-0.2-24.1-0.5-36.3-0.9c-17.8-0.6-35.9,0-54.3,1.8
					c-15.9,1.6-31.9,2.9-47.8,4.1c-13.2,1-25.3-0.1-36.2-3.2c-3.1-1.1-5.8-2.5-8.1-4.2c-4.6-2.3-7.4-5.4-8.6-9.5l2.9-2.2l3.5-1.3
					l3.5-0.3c2.3-0.7,5-1.2,8.1-1.5c9.8-1,19.5-1.8,29-2.3c18-0.9,36.1-1.6,54.1-2.1c20.5-0.5,41.1-1.5,61.7-2.8
					c0.5,0,1.1-0.1,1.6-0.1C-154.2-377.2-153.2-376-152-374.7z M-155.5-358.5c0-0.6-0.6-0.9-1.6-0.9c-1,0-1.5,0.4-1.5,1
					c0,0.2,0.1,0.4,0.2,0.5c0.2,0.3,0.7,0.4,1.2,0.4c0.5,0,0.9-0.2,1.2-0.4C-155.7-358.1-155.5-358.3-155.5-358.5z M-152.3-365.2
					c-0.1-0.8-1.8-1.2-5.2-1.3c-3.4-0.1-5.1,0.3-5,1.2c0,0.3,0.5,0.6,1.3,1c1.2,0.5,2.9,0.7,5,0.5c1.6-0.1,2.7-0.3,3.2-0.6
					C-152.5-364.6-152.2-364.9-152.3-365.2z M-226.4-356.6c-0.1-0.8-1.3-1.2-3.8-1.2c-2.5,0-3.8,0.4-3.7,1.2c0,0.4,0.2,0.7,0.6,0.8
					c0.5,0.2,1.5,0.3,3.1,0.5l3-0.2c0.3-0.2,0.5-0.5,0.7-0.7C-226.4-356.4-226.4-356.5-226.4-356.6z M-210.1-355.4
					c0.2-0.1,0.3-0.2,0.3-0.4l-0.1-0.4c-0.9,0-1.5-0.1-2-0.2c-0.3-0.1-0.5-0.2-0.6-0.2l-0.2,0.4c-0.1,0.1-0.1,0.3-0.1,0.6
					c0,0.4,0.1,0.5,0.1,0.3l0.9,0L-210.1-355.4z M-196.6-362.9c-0.1-0.1-0.4-0.4-1-0.7c-1.5-0.1-2.4,0-2.9,0.2
					c-0.3,0.1-0.4,0.4-0.4,0.7l0.2,0.5c0.2,0.3,0.7,0.5,1.4,0.4c1.4-0.1,2.2-0.2,2.5-0.4C-196.7-362.2-196.6-362.5-196.6-362.9z
					 M-232.4-369.2c1.3-0.1,2.4-0.3,3.3-0.7c1-0.4,1.4-0.9,1.4-1.4c-0.1-0.9-1.8-1.4-5.2-1.3c-3.4,0.1-5.1,0.7-5,1.7
					C-237.7-369.5-235.9-369-232.4-369.2z M-218.5-365.3c0.1,0,0.5,0.1,1.1,0.3c0.7,0.2,1.9,0.3,3.6,0.2c0.4,0,0.7-0.2,1-0.5
					c0.2-0.2,0.4-0.5,0.4-0.6c-2.2-0.4-3.7-0.6-4.5-0.6C-217.9-366.5-218.4-366.1-218.5-365.3z M-172.4-360.5
					c-0.1-1-0.7-1.4-1.9-1.1c-1.2,0.2-1.7,0.6-1.7,1.1c0,0.4,0.2,0.6,0.5,0.7c0.4,0.1,1.2,0.1,2.4,0l0.6-0.2c0,0,0.1-0.1,0.1-0.2
					C-172.4-360.1-172.3-360.3-172.4-360.5z M-172.7-370.8L-172.7-370.8l2.7,0c0.1,0,0.2-0.1,0.4-0.1c0.1-0.1,0.2-0.2,0.1-0.5
					c0-0.6-0.6-0.9-1.7-0.8c-1.1,0.1-1.7,0.4-1.6,1C-172.8-371-172.7-370.8-172.7-370.8z M-185.7-364.7c0.4,0,1.3-0.1,2.8-0.2
					c0.2-0.2,0.4-0.4,0.6-0.7c-2.1-0.4-3.3-0.6-3.7-0.6c-0.5,0-0.7,0.3-0.7,0.8c0,0.4,0.1,0.6,0.2,0.7l0.2,0
					C-186.2-364.7-186-364.7-185.7-364.7z M-191.4-374.1c-1.2-0.2-2.6-0.3-4.2-0.2c-4.1,0.2-6.1,0.9-6,2.2c0,0.4,0.5,0.8,1.4,1.1
					c1.2,0.4,2.9,0.5,5.2,0.4c2.1-0.2,3.7-0.5,4.7-1.1c0.7-0.4,1-0.9,0.9-1.4C-189.4-373.5-190.1-373.9-191.4-374.1z M-284.5-362.5
					c-2.1-0.1-3.2,0.4-3.5,1.4c0.4,0.2,1.5,0.4,3.2,0.6c1.7,0.2,3,0.3,3.8,0.2c0.6,0,0.9-0.2,1.1-0.4l0.3-0.6
					C-281.1-362-282.7-362.4-284.5-362.5z M-309.2-361.1c0.3-0.1,0.5-0.4,0.4-0.7c0-0.2-0.1-0.4-0.1-0.5c-0.1-0.1-0.1-0.1-0.1-0.1
					c-0.4,0-0.9,0-1.7,0c-0.7,0-1.1,0.1-1.3,0.2c-0.4,0.1-0.6,0.3-0.5,0.7c0,0.2,0,0.4,0.1,0.5c0.1,0.1,0.1,0.2,0.1,0.2
					c0.5,0,1.1,0,1.8,0C-309.8-361-309.3-361-309.2-361.1z M-304.9-365.1c0.9,0.5,2.4,0.6,4.6,0.4c1.4-0.1,2.3-0.3,2.7-0.6
					c0.3-0.2,0.5-0.6,0.4-1.1c-0.1-0.8-1.5-1.2-4.3-1c-2.8,0.1-4.2,0.6-4.1,1.6c0,0.1,0,0.2,0.1,0.3
					C-305.4-365.4-305.1-365.2-304.9-365.1z M-271.2-366.1c0.2-0.1,0.4-0.4,0.4-0.8c-0.1-0.8-1.3-1.2-3.8-1.2
					c-2.4,0-3.6,0.5-3.5,1.4c0.1,1,1.5,1.4,4.3,1.2C-272.4-365.7-271.5-365.9-271.2-366.1z M-266.8-358.7c0-0.2-0.2-0.4-0.7-0.8
					c-2.7,0-4.2,0-4.4,0.1c-0.2,0.1-0.4,0.4-0.4,0.9c0.1,0.1,0.6,0.2,1.3,0.4c0.7,0.2,1.2,0.3,1.5,0.4l2.1-0.2
					C-266.9-358-266.7-358.3-266.8-358.7z M-258.4-363.4c0,0.5,0.4,0.8,1,1.1c1.1,0.5,2.9,0.6,5.6,0.4c3-0.2,5-0.5,6.1-1
					c0.8-0.3,1.2-0.8,1.2-1.4c0-0.4-0.4-0.7-1.1-0.8c-1.2-0.1-2.4-0.2-3.5-0.4l-7.5,0.5c-0.9,0.2-1.4,0.4-1.6,0.7
					C-258.4-364.1-258.5-363.8-258.4-363.4z M-250.2-353c0.2-0.1,0.3-0.3,0.3-0.7c0-0.7-1-1-2.9-1c-1.9,0.1-2.8,0.4-2.8,1
					c0,0.4,0.1,0.6,0.4,0.7c0.5,0.2,1.6,0.3,3.2,0.2C-251.1-352.8-250.5-352.9-250.2-353z M-290.1-353.7c0.2-0.1,0.3-0.4,0.3-0.8
					c0-0.8-1.3-1.2-3.7-1.2c-2.4,0-3.6,0.5-3.5,1.4c0,0.3,0.2,0.5,0.6,0.7c0.7,0.4,1.9,0.5,3.7,0.4
					C-291.4-353.2-290.5-353.4-290.1-353.7z M-265.1-355.5c0.2,0,0.4,0,0.6,0c-0.3,0-0.5-0.1-0.8-0.1c0,0,0,0,0,0c0,0,0,0,0.1,0
					L-265.1-355.5z"/>
			</g>
			<g transform="matrix(1,0,0,1,360.17498779296875,506.95001220703125)">
				<path class="st15" d="M-177.1-369.4L-177.1-369.4c-0.6-0.5-1.1-1-1.6-1.4c0,0,0.1-0.1,0.2-0.1
					C-178.1-370.4-177.6-369.9-177.1-369.4z M-291.6-351.7l-0.2-0.1c0,0-0.1,0-0.1,0c0,0,0,0,0,0c0.3,0,0.6,0.1,0.8,0.1
					C-291.2-351.7-291.4-351.7-291.6-351.7z"/>
			</g>
			<g transform="matrix(1,0,0,1,449.875,573.1920166015625)">
				<path class="st16" d="M-342.3-384.3c0-6.1-0.6-12.3-1.8-18.5h0c1.1-0.2,2.2-0.3,3.3-0.5c0.5-0.1,1.2-0.1,1.8-0.2
					c-0.2,0-0.3,0-0.3-0.1c0.7-0.1,1.4-0.2,2.2-0.3c3.1-0.2,5.5-0.2,7.3-0.2l18.5-1.1c1.7-0.2,3.4-0.3,5.2-0.5
					c12.8-1.2,25.4-2.1,37.8-2.7c12.9-0.7,25.5-0.9,37.7-0.6c1.6,0,3.2,0.1,4.8,0.2c0.6,0,1.3,0,2,0.1c0.7,0,1.3,0,2,0
					c-0.9,1.5-1.3,3.6-1.3,6.3c0,0,0.5,2.8,1.5,8.3c0.4,1.7,0.8,3.2,1.2,4.3C-259.1-385.7-299.7-383.9-342.3-384.3z"/>
			</g>
			<g transform="matrix(1,0,0,1,263.5,577.9249877929688)">
				<path class="st17" d="M-209.3-409c3,0.2,6.2,0.4,9.5,0.6c4.3,0.2,8.4,0.4,12.5,0.5c1.8,0.4,4.7,0.5,8.6,0.5
					c0.6-0.1,1.1-0.2,1.7-0.2c8.7,0.2,14.7,0.1,18-0.2c0.2,0,0.3,0,0.5-0.1c2.8-0.1,4.7-0.2,5.9-0.2c-0.7,0-1.3,0.1-1.8,0.2
					c-2.2,0.2-3.3,0.4-3.3,0.5c1.2,6.2,1.8,12.4,1.8,18.5c-0.4,0-0.8,0-1.2,0c-1.6,0-3.2,0-4.8,0c-0.4,0-0.8-0.1-1.1,0
					c-10.5-0.2-21.1-0.4-31.8-0.8c-6.1-0.2-12.2-0.5-18.4-0.8c0-4.4,0.3-10.5,0.9-18.5c0.4,0.6,1,0.8,1.8,0.6
					C-210.1-408.7-209.7-408.8-209.3-409z M-213-407.8C-213.1-407.6-213.1-407.6-213-407.8C-213.1-407.8-213.1-407.8-213-407.8z"/>
			</g>
		</g>
	</g>
	<g transform="matrix(1,0,0,1,0,0)">
		<g transform="matrix(1,0,0,1,0,0)">
			<g transform="matrix(1,0,0,1,378.2510070800781,470.0459899902344)">
				<path class="st11" d="M-151.1-326.2c-0.4,0-0.7,0-1.1,0c-0.2,0-0.5,0-0.7,0c-0.2,0.1-0.4,0.1-0.7,0.2c-3.2,0.8-14,1.7-32.5,2.7
					h-1.6c-1.1,0.1-2.3,0.2-3.4,0.4c-5.7,0.6-11.5,1.1-17.2,1.5l-21.7,0c-0.6,0-1.1,0-1.6,0c-0.1,0-0.2,0-0.3,0
					c-1.6,0.1-2.4,0.1-2.5,0.1h-9.6h-5.4h-1.2c-2.8,0.3-7.7,0.3-14.8,0.1c-0.2,0-0.4,0-0.6,0c-2.6-0.1-5.2-0.2-8-0.3
					c-3.4-0.2-6.9-0.4-10.5-0.6c-1.3-0.1-2.7-0.2-3.9-0.3c0,0-0.1-0.1-0.2-0.1c0,0,0,0.1,0,0.1c-1.3-0.1-2.6-0.2-3.8-0.4
					c-0.1,0-0.2,0-0.3,0c0-0.2-0.1-0.2-0.1,0c-1.8-0.2-3.5-0.5-5.2-0.7c-2.4-0.3-4.3-0.7-5.8-1c-4.1-0.4-8-1.6-11.9-3.6
					c-0.9-0.1-2.8-1-5.8-2.7c-5.8-3.4-10.1-6.6-13.1-9.6c-0.4-0.2-1-1-1.9-2.3s-1-2.8-0.2-4.6c0.7-1.7,3.2-3.4,7.2-4.9
					c4.9-1.8,12.9-3.4,23.8-4.8l16.1-1.2c2.3-0.1,3.4-0.2,3.5-0.2c8.6-0.8,8.7-0.8,0.3,0c0,0-0.1,0-0.1,0c0.2,0,0.3,0,0.5,0h0.2
					c17.2-0.2,46.5-1.4,87.8-3.7l4.1-0.2c0,0.1,0,0.2,0,0.2c0.1,1.7,0.4,3.1,1.1,4.1c-0.3,0-0.5,0-0.8,0c-2.3,0.2-4.7,0.3-7,0.5
					c-1.4-0.2-3.1-0.2-5.2-0.1l-16.3,0c-2-0.1-4.9,0-8.5,0.3c-3.5,0.4-5.6,0.6-6.2,0.6l-31.1,0l-0.5,0.1l-10.5,0.1
					c-16.9,0.3-30.1,1.6-39.7,3.8c-3.6,0.9-6.5,1.8-8.4,2.8c-1.6,0.8-2.5,1.6-2.5,2.2c-0.8,0.8-1.2,1.7-1.2,2.8
					c0,1.6,2.2,3.9,6.6,6.9c3.1,2.1,6.4,4.1,9.9,5.9c3.5,1.8,8.6,3.2,15.2,4.1c1.7,0.2,9,1,21.8,2.2l6.5,0.1c1,0.1,3.2,0.2,6.5,0.2
					c0.6,0.1,1.3,0.2,2.1,0.3c1.8,0.2,7.7,0.2,17.7,0.1c10-0.1,21.2-0.4,33.7-0.7c3.8-0.4,8.6-0.9,14.3-1.5
					c1.9-0.2,8.7-0.6,20.5-1.4c8.5-0.7,13.7-1.5,15.5-2.4c0.8,0.5,1.6,1,2.5,1.5C-155-328.1-153-327.1-151.1-326.2z M-196.9-345.1
					c-0.1-0.9,1.2-1.3,4.1-1.2c2.8,0.1,4.3,0.6,4.4,1.3c0,0.4-0.1,0.7-0.5,0.9c-0.5,0.3-1.3,0.4-2.6,0.5c-1.8,0.1-3.2,0-4.3-0.6
					C-196.4-344.5-196.8-344.8-196.9-345.1z M-189.5-333.7c-0.7-0.2-1.1-0.5-1.1-0.9c0-0.5,0.9-0.8,2.8-1v-0.1h3.4
					c0.4,0,1.2,0,2.4,0c1,0,1.6,0.2,1.9,0.4c0.2,0.1,0.4,0.3,0.4,0.5c0,0.4-0.7,0.7-2.1,1.1c-1.4,0.3-2.8,0.5-4.3,0.5
					C-187.6-333.3-188.7-333.4-189.5-333.7z M-177.9-337.4c-0.5,0.2-1.1,0.4-1.8,0.4c-1.5,0-2.2-0.3-2.2-0.9c0-0.2,0.1-0.4,0.2-0.5
					c0.2-0.1,0.7-0.2,1.6-0.4c1-0.1,1.7-0.1,2.2,0.1c0.4,0.1,0.6,0.3,0.6,0.6C-177.4-337.8-177.6-337.6-177.9-337.4z M-211.5-353.1
					c-0.5,0-0.8-0.1-0.8-0.4c0-0.6,0.6-0.9,1.9-1c1.3-0.1,1.9,0.2,1.9,0.7c0,0.2-0.4,0.4-1.1,0.5
					C-210.1-353.2-210.8-353.1-211.5-353.1z M-221-351.7v0.2c-0.8,0.4-1.9,0.7-3.5,0.8c-1.8,0.1-3.3,0-4.4-0.4
					c-0.4-0.2-0.7-0.3-0.9-0.5c0-0.1,0-0.1,0-0.2l-0.1-0.3c0.8-0.4,1.7-0.7,2.5-0.8h4.1c0.4,0.1,0.9,0.2,1.6,0.4
					C-221.2-352.4-220.9-352.1-221-351.7z M-213-345.3c0,0.8-1.1,1.2-3.3,1.2c-1.2,0-2.1-0.1-2.7-0.4c-0.4-0.2-0.5-0.4-0.5-0.7
					c0-0.7,1.1-1.1,3.2-1.2C-214.1-346.6-213-346.2-213-345.3z M-236.9-346.5c0,0.5-0.2,0.8-0.6,1c-0.4,0.2-1,0.3-1.9,0.4
					c-0.1,0-0.2,0.1-0.3,0.1c-1.1,0.1-1.9,0.1-2.5,0c-1.5-0.1-2.5-0.3-3.2-0.7c-0.2-0.2-0.4-0.4-0.5-0.6l-0.1-0.2c0-0.2,0-0.4,0-0.4
					c0,0,0.1-0.1,0.1-0.2l4.2-0.4c2-0.1,3.3,0,4,0.2C-237.1-347.3-236.9-347-236.9-346.5z M-229.8-342.4c-0.3-0.2-0.5-0.4-0.5-0.8
					c2.4-0.2,4.3-0.3,5.5-0.1c0.2,0,0.4,0.1,0.6,0.1c0,0.1,0,0.1,0,0.2c0,0.4-0.4,0.7-1.1,1h-1.5c-0.2,0-0.4,0-0.6,0
					c-0.2,0-0.5,0-0.6,0h-0.3C-229-342.1-229.5-342.2-229.8-342.4z M-221.9-335.2c1.5-0.4,2.8-0.7,4.1-0.8c2.3-0.1,3.8,0.1,4.5,0.4
					c0.3,0.2,0.5,0.5,0.5,1c0,0.6-0.3,1.1-0.8,1.3c-1.2,0.5-3.8,0.8-7.9,0.8c-1.1,0-1.9-0.3-2.4-0.8c-0.2-0.3-0.4-0.6-0.4-0.9
					C-224.2-334.4-223.5-334.8-221.9-335.2z M-252.8-350.2c-0.7,0.4-1.6,0.6-2.7,0.7c-2.9,0.2-4.5-0.4-4.6-1.7c-0.2-1,1.2-1.6,4-1.6
					c2.8-0.1,4.3,0.4,4.4,1.3C-251.7-351.1-252-350.6-252.8-350.2z M-276.8-343.9c0-0.1,0-0.1,0-0.2c0.2-0.2,0.5-0.4,0.9-0.5
					c1.1-0.4,2.9-0.5,5.3-0.5h3c0.5,0.2,1.1,0.3,1.7,0.4c0.3,0.1,0.5,0.2,0.5,0.4c0,0.1,0,0.3-0.1,0.5c-0.2,0.2-0.4,0.4-0.7,0.5
					c-0.9,0.5-2.5,0.8-5,1c-2.2,0.2-3.8,0-4.7-0.4C-276.4-343.1-276.7-343.5-276.8-343.9z M-271.3-335.3c1.6,0,2.4,0.3,2.5,1
					c0,0.4,0,0.6-0.2,0.7c-0.2,0.1-0.6,0.2-1.5,0.2c-1.4,0.1-2.3,0-2.7-0.2c-0.2-0.1-0.3-0.3-0.4-0.7
					C-273.7-334.9-272.9-335.2-271.3-335.3z M-248.6-335.6c-0.9,0-1.5-0.1-1.8-0.3c-0.1-0.1-0.2-0.2-0.2-0.4c0-0.4,0.7-0.7,2.2-0.9
					c1.4-0.2,2.2,0,2.2,0.6c0,0.2-0.2,0.5-0.6,0.7C-247.2-335.7-247.8-335.6-248.6-335.6z M-255.4-339.7c0.5-0.2,1-0.3,1.6-0.3
					c1.6-0.2,2.7-0.1,3.4,0.2c0.4,0.2,0.5,0.4,0.5,0.7c0,0.2-0.3,0.5-0.8,0.7c-0.7,0.2-1.9,0.4-3.3,0.4c-1.1,0-1.8-0.1-2.1-0.4
					c-0.1-0.1-0.2-0.3-0.2-0.5C-256.3-339.3-256-339.5-255.4-339.7z M-293.5-347.5c-0.1-0.9,0.8-1.3,2.8-1.3c2,0,3.1,0.4,3.2,1.2
					c0.1,0.4,0,0.7-0.2,0.8c-0.3,0.2-1,0.3-2.1,0.4C-292.1-346.1-293.3-346.5-293.5-347.5z M-309.3-347.2c0.1,0.5,0,0.9-0.3,1.1
					c-0.3,0.3-1.1,0.5-2.2,0.5c-1.8,0.1-3.1,0-3.9-0.4c-0.2-0.1-0.4-0.3-0.6-0.5c0-0.1-0.1-0.2-0.1-0.2c-0.1-0.9,1-1.4,3.3-1.5
					C-310.6-348.4-309.4-348-309.3-347.2z M-301.2-342c0.1-0.6,0.5-1,1.1-1.2c0.3,0.1,0.7,0.1,1.3,0c1-0.2,1.7,0.1,2.1,0.8
					c0,0-0.4,0.2-1,0.5c-0.5,0.1-1.1,0.1-1.7,0.2c-0.3,0-0.5,0-0.7,0.1C-300.7-341.7-301-341.8-301.2-342z M-306.5-334.1
					c-0.4-0.2-0.8-0.3-1.2-0.4c-0.2-0.2-0.4-0.4-0.4-0.7c-0.1-0.9,0.8-1.4,2.8-1.4c2,0,3.1,0.4,3.2,1.2c0,0.4,0,0.7-0.2,0.8
					c-0.3,0.2-1,0.4-2.1,0.5C-305.3-334-306-334-306.5-334.1z M-293.3-331.8c-1.3,0-2.2-0.1-2.7-0.2c-0.3-0.1-0.5-0.3-0.5-0.5
					c0-0.5,1.2-0.8,3.5-1.1c2.3-0.3,3.5-0.1,3.5,0.6c0,0.3-0.3,0.5-1,0.8C-291.2-331.9-292.1-331.8-293.3-331.8z"/>
			</g>
			<g transform="matrix(1,0,0,1,376.43701171875,486.32501220703125)">
				<path class="st13" d="M-292.4-321c-0.3,0-0.6,0-0.9,0c-9.2-1.3-15-2.2-17.6-2.8c-2.6-0.6-5.9-1.6-9.9-3
					c-7.1-2.8-11.8-7.5-14.1-14.1c-0.1-0.2-0.2-0.3-0.3-0.3c-0.3-1.4-0.8-5.3-1.5-11.7c-0.2-2-0.4-3.8-0.5-5.3
					c-0.1-3.9,0.7-6.9,2.6-9.2c1.9-2.3,8.2-4.2,19.1-5.6c18.1-2,34.1-3.2,48-3.6c18.1-0.2,30.4-0.5,36.7-0.9
					c6.3-0.4,9.6-0.6,9.9-0.5c10.3-0.4,19.6-0.9,27.9-1.6c0.4,0,0.8,0.1,1.2,0.1c0,0,0.1,0.1,0.1,0.1c0,0,0,0.1,0,0.1
					c0,0.2,0,0.5,0,0.7l-4.1,0.2c-41.4,2.3-70.6,3.6-87.8,3.7h-0.2c-0.1,0-0.3,0-0.4,0c8.4-0.8,8.3-0.8-0.3,0
					c-0.1,0-1.2,0.1-3.5,0.2l-16.1,1.2c-10.9,1.4-18.8,3-23.8,4.8c-4.1,1.5-6.5,3.1-7.2,4.9c-0.7,1.7-0.7,3.3,0.2,4.6
					c0.9,1.3,1.5,2.1,1.9,2.3c3,3.1,7.3,6.3,13.1,9.6c3,1.7,4.9,2.6,5.8,2.7c3.8,2,7.8,3.3,11.9,3.6c1.5,0.4,3.5,0.7,5.8,1
					c1.7,0.2,3.4,0.5,5.2,0.7c0-0.2,0.1-0.2,0.1,0c0.1,0,0.2,0,0.3,0c-0.1,0-0.2,0.1-0.2,0.1c0.2,0.1,0.5,0.2,0.7,0.3l2.5,0.4
					c0.2,0,0.5,0.1,0.7,0.1c-0.8,1.4-1.2,2.8-1.2,4.2c-0.1,2.2-0.8,5-2,8.3c0.2,0,0.6,0.1,1,0.1c-0.4,0-0.7,0-1,0
					c-0.4,0-0.8,0.5-1.2,1.5v0c-0.1,0.6-0.3,1-0.4,1.4c0,0,0,0,0,0c0,0.1-0.1,0.2-0.1,0.3v0c0,0,0,0,0,0c0,0-0.1,0.1-0.1,0.1
					c-0.1,0.1-0.1,0.2-0.2,0.3C-292.4-321.5-292.4-321.2-292.4-321z M-292-322.8C-292-322.9-291.9-322.9-292-322.8
					C-292-322.9-292-322.9-292-322.8c0,0.1-0.1,0.3-0.1,0.5C-292.1-322.5-292-322.6-292-322.8C-292-322.8-292-322.8-292-322.8z
					 M-291.9-322.9c0.1-0.2,0.1-0.4,0.2-0.5C-291.8-323.3-291.9-323.1-291.9-322.9C-291.9-322.9-291.9-322.9-291.9-322.9z
					 M-263.5-337.4c-0.5,0.1-1,0.1-1.4,0.2c-3.2,0-5.6-0.2-7.2-0.6c2.7,0.1,5.4,0.2,8,0.3C-264-337.4-263.7-337.4-263.5-337.4z
					 M-242.1-337.5c-1.8,0.1-3.5,0.2-5.3,0.3h0c0-0.1-0.1-0.2-0.1-0.3H-242.1z M-149.2-342.1c0,0-0.1,0-0.1,0
					c-0.8,0-1.6-0.1-2.4-0.1c0.3-0.1,0.5-0.1,0.7-0.2c0.2,0,0.4,0,0.7,0c0.4,0,0.7,0,1.1,0c0,0,0,0,0.1,0
					C-149.2-342.3-149.2-342.2-149.2-342.1L-149.2-342.1z"/>
			</g>
			<g transform="matrix(1,0,0,1,479.29998779296875,528.9010009765625)">
				<path class="st16" d="M-347.2-361.4c1.6-10.5,0.5-16.6-3.1-18.4h0c1.8-0.1,3.5-0.2,5.3-0.3h9.6c0.1,0,1-0.1,2.5-0.1
					c0.1,0,0.2,0,0.3,0c0.5,0,1,0,1.6,0l21.7,0c5.8-0.4,11.5-0.9,17.2-1.5c1.1-0.1,2.2-0.2,3.4-0.4h1.6c18.4-1,29.3-2,32.5-2.7
					c0.8,0,1.6,0.1,2.4,0.1c0,0,0.1,0,0.1,0c0,1,0,2.9,0,5.7c0,2.8,0.4,4.5,1.5,5.1c1,0.6,1.9,1.6,2.7,3c0.8,1.4,1.2,2.4,1.4,3
					c0.2,0.7,0.5,1.4,1,2.2C-277.6-362.1-311.5-360.7-347.2-361.4z"/>
			</g>
			<g transform="matrix(1,0,0,1,376.54998779296875,470.5090026855469)">
				<path class="st14" d="M-190.4-358.4C-190.4-358.4-190.4-358.4-190.4-358.4c0.4,0.5,1.4,1.7,3.2,3.6c0,0-0.1,0-0.1,0.1
					c0.4,0.4,0.8,0.8,1.3,1.2c0.1,0.1,0.1,0.1,0.2,0.2c0.7,0.7,1.5,1.5,2.3,2.4c0.2,0.2,0.5,0.4,0.7,0.6c0.2,0.2,0.5,0.3,0.7,0.5
					c0.9,0.7,1.9,1.6,3,2.5c0.5,0.4,1.2,0.8,2.1,1.2c0.2,0.2,0.4,0.3,0.6,0.5c0.1,0.1,0.3,0.2,0.4,0.4c0.9,1,2.2,2.3,4.2,3.9
					c1.1,0.9,3,2.4,5.5,4.4c2,1.6,4.8,3.6,8.3,5.7c-1.9,0.9-7,1.6-15.5,2.4c-11.8,0.8-18.6,1.3-20.5,1.4c-5.8,0.6-10.5,1.1-14.3,1.5
					c-12.5,0.3-23.8,0.5-33.7,0.7c-10,0.1-15.9,0.1-17.7-0.1c-0.8-0.1-1.5-0.2-2.1-0.3c-3.3-0.1-5.5-0.1-6.5-0.2l-6.5-0.1
					c-12.8-1.2-20-2-21.8-2.2c-6.6-0.9-11.7-2.3-15.2-4.1c-3.6-1.8-6.9-3.8-9.9-5.9c-4.4-3-6.6-5.3-6.6-6.9c0-1.1,0.4-2,1.2-2.8
					c0.1-0.7,0.9-1.4,2.5-2.2c2-1,4.8-1.9,8.4-2.8c9.6-2.2,22.8-3.5,39.7-3.8l10.5-0.1l0.5-0.1l31.1,0c0.6,0,2.6-0.2,6.2-0.6
					c3.7-0.3,6.5-0.4,8.5-0.3l16.3,0c2.1-0.1,3.8-0.1,5.2,0.1c2.3-0.2,4.7-0.3,7-0.5C-191-358.3-190.7-358.4-190.4-358.4z
					 M-209.8-353.6c0.7,0,1.3-0.1,2-0.2c0.7-0.1,1.1-0.3,1.1-0.5c0-0.6-0.6-0.8-1.9-0.7c-1.3,0.1-1.9,0.4-1.9,1
					C-210.6-353.8-210.3-353.6-209.8-353.6z M-176.2-337.9c0.4-0.2,0.5-0.4,0.5-0.7c0-0.2-0.2-0.4-0.6-0.6c-0.5-0.2-1.2-0.2-2.2-0.1
					c-0.9,0.1-1.4,0.2-1.6,0.4c-0.1,0.1-0.2,0.2-0.2,0.5c0,0.6,0.7,0.9,2.2,0.9C-177.3-337.5-176.7-337.6-176.2-337.9z
					 M-187.8-334.2c0.8,0.3,1.9,0.4,3.3,0.4c1.5,0,3-0.2,4.3-0.5c1.4-0.3,2.1-0.7,2.1-1.1c0-0.2-0.1-0.3-0.4-0.5
					c-0.3-0.2-0.9-0.3-1.9-0.4c-1.2,0-1.9,0-2.4,0h-3.4v0.1c-1.8,0.2-2.8,0.5-2.8,1C-188.9-334.7-188.6-334.4-187.8-334.2z
					 M-195.2-345.6c0,0.3,0.4,0.6,1.1,1c1,0.5,2.5,0.7,4.3,0.6c1.3-0.1,2.2-0.3,2.6-0.5c0.4-0.2,0.5-0.5,0.5-0.9
					c-0.1-0.7-1.6-1.2-4.4-1.3C-193.9-346.9-195.3-346.5-195.2-345.6z M-219.3-352.2c0-0.4-0.2-0.6-0.7-0.8
					c-0.7-0.1-1.2-0.2-1.6-0.4h-4.1c-0.8,0.1-1.6,0.4-2.5,0.8l0.1,0.3c0,0.1,0,0.1,0,0.2c0.2,0.2,0.5,0.3,0.9,0.5
					c1.1,0.4,2.5,0.5,4.4,0.4c1.6-0.1,2.7-0.4,3.5-0.8V-352.2z M-251.1-350.7c0.8-0.4,1.1-0.8,1.1-1.4c-0.1-0.9-1.6-1.4-4.4-1.3
					c-2.8,0.1-4.2,0.6-4,1.6c0.2,1.4,1.7,1.9,4.6,1.7C-252.8-350.1-251.9-350.3-251.1-350.7z M-220.2-335.7c-1.6,0.4-2.4,0.8-2.4,1
					c0,0.3,0.1,0.6,0.4,0.9c0.5,0.5,1.2,0.8,2.4,0.8c4.1,0,6.7-0.3,7.9-0.8c0.5-0.2,0.8-0.7,0.8-1.3c0-0.5-0.2-0.8-0.5-1
					c-0.7-0.3-2.2-0.5-4.5-0.4C-217.3-336.3-218.7-336.1-220.2-335.7z M-228.1-342.8c0.3,0.2,0.8,0.3,1.6,0.4h0.3
					c0.2,0,0.4,0.1,0.6,0c0.2,0,0.4,0,0.6,0h1.5c0.7-0.3,1.1-0.7,1.1-1c0,0,0-0.1,0-0.2c-0.2,0-0.4-0.1-0.6-0.1
					c-1.2-0.2-3-0.1-5.5,0.1C-228.6-343.3-228.4-343-228.1-342.8z M-235.2-346.9c0-0.5-0.3-0.8-0.8-1c-0.6-0.2-2-0.2-4-0.2l-4.2,0.4
					c0,0.1,0,0.2-0.1,0.2c0,0,0,0.2,0,0.4l0.1,0.2c0.1,0.2,0.3,0.4,0.5,0.6c0.7,0.4,1.7,0.7,3.2,0.7c0.6,0.1,1.4,0.1,2.5,0
					c0.1,0,0.2,0,0.3-0.1c0.9-0.1,1.5-0.2,1.9-0.4C-235.3-346.1-235.2-346.4-235.2-346.9z M-211.3-345.8c0-0.9-1.1-1.3-3.2-1.1
					c-2.2,0.2-3.2,0.6-3.2,1.2c0,0.2,0.2,0.5,0.5,0.7c0.6,0.3,1.5,0.4,2.7,0.4C-212.4-344.5-211.3-344.9-211.3-345.8z M-275.1-344.4
					c0.1,0.5,0.4,0.8,0.9,1.1c0.9,0.5,2.5,0.6,4.7,0.4c2.5-0.2,4.1-0.5,5-1c0.3-0.2,0.5-0.3,0.7-0.5c0.1-0.2,0.1-0.4,0.1-0.5
					c0-0.2-0.2-0.3-0.5-0.4c-0.6-0.1-1.1-0.3-1.7-0.4h-3c-2.5,0-4.2,0.2-5.3,0.5c-0.5,0.2-0.8,0.3-0.9,0.5
					C-275.1-344.6-275.1-344.5-275.1-344.4z M-269.6-335.7c-1.6,0.1-2.3,0.4-2.2,1c0,0.4,0.2,0.6,0.4,0.7c0.4,0.2,1.3,0.3,2.7,0.2
					c0.8,0,1.3-0.1,1.5-0.2c0.2-0.1,0.3-0.3,0.2-0.7C-267.2-335.4-268.1-335.7-269.6-335.7z M-272.4-330.5c0.2,0,1.2-0.1,3.1-0.3
					C-270.3-330.7-271.4-330.6-272.4-330.5C-272.4-330.5-272.4-330.5-272.4-330.5z M-253.7-340.2c-0.6,0.2-0.9,0.5-0.9,0.7
					c0,0.2,0.1,0.4,0.2,0.5c0.3,0.2,1,0.4,2.1,0.4c1.5,0,2.6-0.1,3.3-0.4c0.6-0.2,0.8-0.4,0.8-0.7c0-0.3-0.2-0.5-0.5-0.7
					c-0.6-0.3-1.8-0.4-3.4-0.2C-252.7-340.5-253.3-340.4-253.7-340.2z M-246.8-336c0.7,0,1.3-0.1,1.8-0.3c0.4-0.2,0.6-0.4,0.6-0.7
					c0-0.6-0.7-0.8-2.2-0.6c-1.5,0.2-2.2,0.5-2.2,0.9c0,0.2,0.1,0.3,0.2,0.4C-248.3-336.1-247.7-336-246.8-336z M-304.8-334.6
					c0.5,0.1,1.2,0.1,2,0c1.2-0.1,1.9-0.3,2.1-0.5c0.2-0.1,0.2-0.4,0.2-0.8c-0.1-0.8-1.2-1.2-3.2-1.2c-2,0-3,0.5-2.8,1.4
					c0,0.2,0.2,0.5,0.4,0.7C-305.7-334.9-305.2-334.7-304.8-334.6z M-299.5-342.4c0.2,0.1,0.5,0.2,1,0.3c0.2,0,0.5-0.1,0.7-0.1
					c0.7-0.1,1.2-0.1,1.7-0.2c0.6-0.3,1-0.5,1-0.5c-0.4-0.7-1.1-1-2.1-0.8c-0.5,0.1-0.9,0.1-1.3,0
					C-299.1-343.4-299.4-343-299.5-342.4z M-307.6-347.7c-0.1-0.8-1.4-1.1-3.7-1.1c-2.3,0.1-3.4,0.6-3.3,1.5c0,0.1,0,0.2,0.1,0.2
					c0.1,0.2,0.3,0.4,0.6,0.5c0.8,0.4,2.1,0.6,3.9,0.4c1.1-0.1,1.9-0.3,2.2-0.5C-307.6-346.8-307.5-347.1-307.6-347.7z
					 M-291.8-347.9c0.1,0.9,1.4,1.3,3.7,1.2c1.1-0.1,1.8-0.2,2.1-0.4c0.2-0.1,0.3-0.4,0.2-0.8c-0.1-0.8-1.2-1.2-3.2-1.2
					C-290.9-349.2-291.9-348.8-291.8-347.9z M-280.1-336.8C-280.1-336.8-280.1-336.8-280.1-336.8l0.2,0.2c0.2,0,0.4,0,0.5,0
					C-279.6-336.7-279.8-336.8-280.1-336.8C-280.1-336.8-280.1-336.8-280.1-336.8z M-291.6-332.2c1.2,0,2.1-0.2,2.9-0.5
					c0.6-0.3,1-0.5,1-0.8c0-0.7-1.2-0.9-3.5-0.6c-2.4,0.3-3.5,0.7-3.5,1.1c0,0.2,0.2,0.4,0.5,0.5
					C-293.8-332.3-292.9-332.2-291.6-332.2z"/>
			</g>
			<g transform="matrix(1,0,0,1,398.17498779296875,462.2250061035156)">
				<path class="st15" d="M-208.9-346.5c0.4,0.4,0.7,0.9,1.1,1.3c-0.4-0.5-0.9-0.9-1.3-1.2C-209-346.5-208.9-346.5-208.9-346.5z
					 M-301.7-328.5C-301.7-328.5-301.7-328.5-301.7-328.5c0.3,0.1,0.5,0.1,0.7,0.2c-0.1,0-0.3,0-0.5,0L-301.7-328.5
					C-301.7-328.5-301.7-328.5-301.7-328.5z"/>
			</g>
			<g transform="matrix(1,0,0,1,317.32501220703125,494.5)">
				<path class="st18" d="M-213.2-354.5C-213.2-354.5-213.2-354.5-213.2-354.5c1-0.1,2-0.2,3.1-0.3
					C-211.9-354.6-213-354.5-213.2-354.5z"/>
			</g>
			<g transform="matrix(1,0,0,1,323.14898681640625,532.1749877929688)">
				<path class="st17" d="M-238.6-368.8C-238.6-368.8-238.6-368.8-238.6-368.8c0-0.2,0.1-0.4,0.2-0.5
					C-238.5-369.1-238.6-369-238.6-368.8z M-238.7-368.7C-238.7-368.7-238.7-368.6-238.7-368.7c-0.1,0.2-0.1,0.3-0.1,0.5
					C-238.8-368.4-238.7-368.6-238.7-368.7C-238.7-368.7-238.7-368.7-238.7-368.7C-238.7-368.7-238.7-368.7-238.7-368.7z
					 M-239.1-366.8c0-0.3,0-0.6,0-0.8c0.1-0.1,0.1-0.2,0.2-0.3c0,0,0-0.1,0.1-0.1c0,0,0,0,0,0v0c0-0.1,0.1-0.2,0.1-0.3c0,0,0,0,0,0
					c0.1-0.4,0.3-0.8,0.4-1.4v0c0.4-1.1,0.8-1.6,1.2-1.5c0.3,0,0.6,0,1,0c-0.4,0-0.7-0.1-1-0.1c1.2-3.3,1.9-6.1,2-8.3
					c0.1-1.4,0.5-2.8,1.2-4.2c-0.2,0-0.4,0-0.7-0.1l-2.5-0.4c-0.2-0.1-0.4-0.2-0.7-0.3c0.1,0,0.2-0.1,0.2-0.1
					c1.2,0.1,2.5,0.2,3.8,0.4c0,0,0-0.1,0-0.1c0.1,0,0.1,0.1,0.2,0.1c1.3,0.1,2.6,0.2,3.9,0.3c3.6,0.2,7.1,0.4,10.5,0.6
					c1.6,0.4,3.9,0.6,7.2,0.6c0.5-0.1,0.9-0.2,1.4-0.2c7.1,0.2,12,0.2,14.8-0.1h1.2c0,0.1,0.1,0.2,0.1,0.3c3.6,1.8,4.7,7.9,3.1,18.4
					c-0.3,0-0.7,0-1,0c-1.4,0-2.7-0.1-4-0.1c-0.3,0-0.6,0-0.9,0c-8.8-0.2-17.7-0.6-26.7-1.1C-228.8-366.1-233.9-366.5-239.1-366.8z"
					/>
			</g>
		</g>
	</g>
	<g transform="matrix(1,0,0,1,0,0)">
		<g transform="matrix(1,0,0,1,0,0)">
			<g transform="matrix(1,0,0,1,783.4749755859375,571.0999755859375)">
				<path class="st12" d="M-436.9-413.5c0.1-0.1,0.3-0.2,0.6-0.3c-0.1,0.1-0.3,0.3-0.5,0.4C-436.8-413.4-436.9-413.5-436.9-413.5z
					 M-483.6-377.2L-483.6-377.2c-0.2,0-0.4-0.1-0.4-0.2h0.4c0,0,0.1,0,0.1,0C-483.5-377.3-483.6-377.2-483.6-377.2z"/>
			</g>
			<g transform="matrix(1,0,0,1,665.9500122070312,585.448974609375)">
				<path class="st11" d="M-319.4-427.8c0,0,0,0.1,0.1,0.1c0.2-0.1,0.4-0.3,0.5-0.4C-319-428-319.2-427.9-319.4-427.8z
					 M-318.5-418.3c-0.9,0.7-2.2,1.7-3.9,2.9c-3.8,2.9-5.9,4.5-6.3,4.7c-1.9,1.2-4.1,2.7-6.7,4.5c-3.3,2.4-5.5,3.9-6.4,4.6
					c-2.2,1.5-5.6,4.4-10,8.5c-4.3,4.1-6.9,7-7.8,8.8c-0.8,1.2-1.5,2.2-2.1,3.3c-0.9,1.6-1.6,3.1-2.1,4.7c-0.3,0.4-0.5,0.8-0.8,1.2
					c0.1-2.5-0.4-4.6-1.4-6.2c-1-1.6-1-3.4,0-5.3c0.9-1.8,1.2-3.4,0.9-4.9c-0.2-0.1-0.3-0.2-0.5-0.2c-0.1,0-0.2,0-0.3,0.1
					c0,0,0.1-0.1,0.1-0.1c0,0-0.1,0-0.1,0h-0.4c0.1,0.1,0.2,0.2,0.4,0.2c-1.9,0.4-7,0.5-15.5,0.5c-0.3,0-0.6,0-0.9,0
					c0,0-0.1,0-0.1,0c-0.7,0-1.4,0-2.2,0c-12.2-0.2-21.1-0.8-26.6-1.8c-0.6,0-1.2-0.1-1.6-0.1l-0.2,0l-4.4-0.2
					c-2.8-0.3-5.4-0.7-7.9-1c0.4,0.1,0.8,0.1,1.1,0.2c-4.1-0.5-7.4-1-9.9-1.3c-0.5-0.1-0.9-0.1-1.4-0.2l2,0.3
					c-6.5-0.7-9.7-1.1-9.7-1.1c-6.1,0-11.6-1-16.6-2.8c-4.5-1.4-8.6-3.5-12.3-6.1c-1.2-0.8-2.4-1.7-3.5-2.6
					c-1.1-1.2-1.6-2.6-1.7-4.2c-0.1-0.3-0.1-0.6-0.1-1c0.1-1.3,0.1-1.9,0.1-1.9c0.1-0.5,0.4-0.9,0.8-1.5c1.1-1.2,3.2-2.7,6.4-4.6
					c4.3-2.6,7.5-4.2,9.6-4.8c0.7-0.2,2-0.6,3.8-1c1.4-0.4,2.7-0.7,3.9-1c0.3-0.1,0.6-0.1,0.8-0.2c2.5-0.5,5.5-0.9,9.1-1.4
					c3.4-0.4,9.3-0.9,17.7-1.3c7-0.4,12.8-0.6,17.4-0.5c1.5,0,2.7,0.1,3.8,0.1c0.7,0,1.5-0.1,2.5-0.1c2.9-0.1,6.1,0,9.7,0.2
					c0.2,0,2.1,0.1,5.6,0.3l56.9,1.8h10.4c0.2,0,0.3,0,0.4,0c0.1,0,0.3,0,0.4,0h0.8c0,0-0.1,0.1-0.1,0.1c0.1,0,0.2-0.1,0.3-0.2
					c-0.1,0.1-0.3,0.2-0.4,0.4c-1.2,1.3-1.7,3.3-1.5,6.2C-319-422-318.7-420.6-318.5-418.3z M-380.2-394.5L-380.2-394.5
					C-380.2-394.5-380.2-394.5-380.2-394.5L-380.2-394.5h0.7c0.2,0,0.7,0.1,1.4,0.2c1.5-0.1,3.7-0.3,6.6-0.4v-0.1h7.9
					c0.1,0,0.2,0.1,0.3,0.1c0.7-0.8,1.3-1.4,1.5-1.7c0,0,0-0.1,0-0.1c0.3-0.3,0.6-0.6,1-0.9c0.7-0.6,1.4-1.3,2.1-1.9h0
					c0.6-0.5,1.2-0.9,1.9-1.3c0.3-0.3,0.8-0.6,1.2-0.9c1.1-0.8,2.4-1.7,4.1-2.7c0.5-0.4,0.9-0.8,1.5-1.2c0.2-0.2,0.5-0.4,0.8-0.6v0
					c0.6-0.5,1.2-0.9,1.8-1.4c3.5-2.7,6.1-4.8,7.8-6.2c0,0,0,0,0,0c0.8-1,1.6-2,2.5-2.9c1.5-1.4,3.1-2.8,4.6-4.1
					c1.3-0.8,2.6-1.6,3.9-2.4c0.8-0.5,1.5-0.9,2.3-1.3h0.1c0.3,0,1.5-0.6,3.7-1.8c0.6-0.3,1.2-0.7,1.7-0.9c-0.7,0-1.4-0.2-2.1-0.4
					c-0.4,0.1-0.7,0.2-1.1,0.3c-1,0.2-2.7,0.3-5.2,0.2l-4.3,0.1c-1.4-0.2-3-0.5-4.8-0.7c-4.5-0.7-9.2-1-13.9-1c-1.8,0-3.6,0-5.4,0.1
					c-16.7,0.1-38.4,0-65.1-0.3c-22.5,0.9-37,4.9-43.6,12.1c-0.5,0.7-0.9,1.3-1.3,2c-0.3,0.5-0.5,0.9-0.6,1.4
					c-0.4,1.3,0.4,2.8,2.3,4.4l1.1,1.1c0.4,0.4,2.2,1.2,5.3,2.3c2.2,0.8,5.1,1.9,8.7,3.1c3.6,1.2,7.7,2.2,12.3,3
					c6.4,1.3,13.9,2.1,22.3,2.4c2,0.1,3.9,0.1,5.8,0.2c0.1,0,0.2,0,0.4,0.1c1.5,0.3,3.1,0.5,4.8,0.6c0.2,0,0.4,0.1,0.6,0.1
					c1.7,0.4,3.7,0.6,6,0.6l2.9,0c2.3,0.2,4.6,0.3,6.8,0.4c2.2,0.1,4.2,0.2,6.1,0.3L-380.2-394.5z M-389.4-419.2
					c1.8-0.4,4-0.6,6.4-0.7c2.6-0.1,4.7-0.1,6.4,0.1c1.9,0.3,2.9,0.7,2.9,1.4c0,0.7-1,1.2-3,1.6c-0.5,0.1-1,0.2-1.5,0.3
					c-2.4,0.5-5.5,0.6-9.4,0.4c-1.7-0.1-2.9-0.2-3.6-0.4c-0.2,0-0.3-0.1-0.4-0.1c-0.6-0.2-0.8-0.7-0.8-1.3
					C-392.4-418.4-391.4-418.8-389.4-419.2z M-396.8-424.4c-0.1,0.2-0.5,0.3-1.2,0.5c-0.9,0.2-1.8,0.2-2.6,0.1
					c-0.7-0.1-1.2-0.3-1.3-0.4l0-0.3c0.1-0.2,0.4-0.4,1-0.4c0.7,0,1.9,0,3.8,0.2C-396.9-424.6-396.8-424.5-396.8-424.4z
					 M-410.4-413.1c-0.3,0.3-0.9,0.6-2.1,0.8c-1.4,0.2-3.1,0.3-5.1,0.3c-1.2-0.1-2-0.5-2.5-1.2c0.1-1.6,1.6-2.2,4.5-2
					c1.1,0.1,2.2,0.3,3.2,0.7c1.1,0.4,1.7,0.7,2,0.9L-410.4-413.1z M-401.6-404.5c-0.3,0.2-0.9,0.3-1.9,0.5h-5.7
					c-0.5-0.1-1.1-0.2-1.7-0.5c-0.7-0.3-1-0.6-1-0.8c0-0.5,0.6-0.9,1.8-1.1c0.7-0.2,1.7-0.3,3.1-0.3c0.8,0,1.5,0,2.1,0.1
					c2.6,0.2,3.9,0.6,3.9,1.4C-401.1-404.8-401.3-404.6-401.6-404.5z M-380.1-407c0.2-0.8,1.9-1.1,5.2-1c3.3,0.1,4.8,0.6,4.5,1.5
					c-0.2,0.6-0.9,0.9-2.2,1c-1.4,0.1-3.4,0-5.8-0.5c-0.9-0.2-1.5-0.4-1.7-0.7C-380.1-406.9-380.1-407-380.1-407z M-347.7-421.9
					c1.4-0.1,2.7,0,3.7,0.2c1,0.2,1.5,0.5,1.6,0.8c0,0,0,0.1,0,0.2c0,0.6-0.4,0.9-1.1,1.2c-0.5,0.1-2,0.4-4.3,0.8l-4.2-0.2
					c-0.7-0.3-1.1-0.5-1.1-0.5c-0.2-0.1-0.2-0.4-0.2-0.8c0-0.4,0.4-0.7,1.2-1c0,0,0,0,0.1,0c0.2-0.1,0.4-0.2,0.7-0.2
					C-350.4-421.8-349.2-421.9-347.7-421.9z M-351.5-409.4c-0.1,0-0.2,0-0.2,0c-0.4,0-0.7,0-1.1,0c-0.1-0.1-0.2-0.1-0.3-0.1
					c-0.2,0-0.5-0.1-0.7-0.1c-1.2-0.2-2-0.6-2.2-1c0-0.4,0-0.6,0-0.6c0.2-0.7,1.6-1.1,4.2-1.2c0.2,0,0.4,0,0.6,0
					c2.3,0,3.4,0.4,3.2,1.4c-0.1,0.4-0.7,0.8-1.8,1.2C-350.5-409.6-351-409.5-351.5-409.4z M-362.2-423.5L-362.2-423.5
					c0.1,0.2,0,0.4-0.3,0.5c-0.9,0.3-3.2,0.5-6.8,0.4c-1.3,0-2.1-0.1-2.4-0.1c-0.5-0.1-0.8-0.3-0.8-0.7c0-0.3,0.6-0.6,1.7-0.8
					c1-0.2,2.2-0.3,3.6-0.3c1.4,0,2.6,0.1,3.5,0.3C-362.7-424.1-362.2-423.8-362.2-423.5z M-363.2-417.2c-0.8-0.1-1.3-0.3-1.5-0.6
					l-0.1-0.3c0.1-0.2,0.4-0.3,1-0.4c0.7-0.1,1.8-0.1,3.1,0.1c0.9,0,1.4,0.1,1.7,0.3c0.1,0.1,0.2,0.2,0.2,0.3
					c-0.1,0.1-0.6,0.3-1.6,0.5C-361.6-417.1-362.5-417.1-363.2-417.2z M-363.4-395.5C-363.5-395.5-363.5-395.5-363.4-395.5
					C-363.5-395.5-363.5-395.5-363.4-395.5C-363.5-395.5-363.5-395.5-363.4-395.5z M-355.2-395.2L-355.2-395.2L-355.2-395.2
					L-355.2-395.2z M-453.7-414.8c0.5-0.4,1.4-0.6,2.6-0.7h3.6c3.4,0.4,5.1,1,5.1,1.9c0,0.5-0.7,0.9-2,1.2c-1.1,0.2-2.2,0.4-3.5,0.4
					c-0.1,0-0.2,0.1-0.3,0.1c-0.3,0-0.5-0.1-0.7-0.1c-1.4,0-2.6-0.2-3.6-0.5c-1.2-0.3-1.8-0.7-1.8-1.2
					C-454.3-414.1-454.1-414.5-453.7-414.8z M-418.5-422.5c-2.6,0-3.9-0.4-3.9-1.1c0-0.6,1-0.9,2.9-0.8c1.9,0.1,2.8,0.4,2.8,1.1
					c0,0.2-0.1,0.4-0.3,0.5C-417.3-422.6-417.8-422.5-418.5-422.5z M-428.5-415.5h-1.4c-0.9-0.1-1.3-0.4-1.3-1.1
					c0-0.4,0.5-0.5,1.6-0.4c1.1,0.1,1.6,0.4,1.6,0.9C-428.1-415.8-428.2-415.6-428.5-415.5z M-432.7-411.4c-0.2-0.1-0.3-0.3-0.3-0.5
					c0-0.7,1-1.1,2.9-1.1c2,0.1,2.9,0.4,2.9,1.1c0,0.3-0.2,0.6-0.5,0.7c-0.4,0.2-1.2,0.3-2.3,0.3
					C-431.3-410.9-432.3-411.1-432.7-411.4z M-441.2-421.5c0.9-0.2,2-0.2,3.3-0.2c3.1,0,4.4,0.4,4.1,1.3c-0.1,0.2-0.7,0.4-1.8,0.5
					c0,0,0,0,0,0.1c-0.1,0.1-0.4,0.1-1,0.1c-0.2,0-0.5,0-0.8,0c-1.2,0-2.3,0-3.3-0.2c-1-0.2-1.7-0.3-2-0.5c-0.1-0.1-0.2-0.2-0.1-0.3
					C-442.8-421.1-442.2-421.3-441.2-421.5z M-422.5-404.2c0,0.4-0.3,0.8-0.8,1.1c-0.7,0.4-1.5,0.6-2.6,0.6c-1.3,0-2.7-0.2-4.2-0.5
					c-1.5-0.3-2.3-0.7-2.3-1c0-0.5,0.4-0.9,1.3-1.2c0.9-0.3,2-0.5,3.6-0.5c1.7,0,3.1,0.2,4,0.6
					C-422.8-404.8-422.5-404.5-422.5-404.2z"/>
			</g>
			<g transform="matrix(1,0,0,1,665.0020141601562,582.0499877929688)">
				<path class="st13" d="M-442.3-393c-0.5,1.9-0.8,3.7-1,5.4c-0.5,4.2-0.9,8.6-1.1,13.3c-11.6-2.3-20.3-5.2-26.1-8.9
					c-2.7-2.1-4.3-3.8-4.8-4.9c-0.6-1.1-0.9-2.1-0.9-2.9c-0.3-1.9-0.6-3.5-0.7-4.8c-0.4-1.9-0.6-3-0.6-3.5c0-1.1-0.1-1.9-0.1-2.2
					c0-0.2,0-0.3,0-0.4c0-0.3,0-0.7-0.1-1c-0.1-1.6-0.2-3-0.2-4.1c0-2,0-3.3,0.1-4c0-0.2,0.1-0.5,0.1-0.6c0.2-0.5,0.4-1,0.7-1.4
					c1.3-2,3.1-3.6,5.5-4.6c4.3-2.8,8.6-4.8,12.8-6.1c3-0.8,7.3-1.6,13-2.6c5.7-1,18.9-1.6,39.8-1.8c5.9-0.1,10.5-0.1,13.6-0.1
					c15.7,0.5,29.3,0.8,41,1.2c18.6,0.7,30.4,1.1,35.4,1.2c-0.1,0.5-0.3,1.1-0.7,1.7c-0.4,0.6-0.7,1.8-0.8,3.6
					c-0.1,1.1,0,2.1,0.4,2.8c0,0.1,0,0.1,0,0.1c0,0.1-0.1,1-0.1,2.7c-0.1,0.1-0.2,0.1-0.3,0.2c-0.2-2.3-0.4-3.8-0.7-4.3
					c-0.2-2.8,0.3-4.9,1.5-6.2c0.1-0.1,0.2-0.3,0.4-0.4c-0.1,0.1-0.2,0.1-0.3,0.2c0,0,0-0.1,0.1-0.1h-0.8c-0.1,0-0.2,0-0.4,0
					c-0.1,0-0.2,0-0.4,0h-10.4l-56.9-1.8c-3.5-0.2-5.4-0.2-5.6-0.3c-3.5-0.2-6.8-0.3-9.7-0.2c-0.9,0-1.7,0.1-2.5,0.1
					c-1-0.1-2.3-0.1-3.8-0.1c-4.6,0-10.4,0.2-17.4,0.5c-8.4,0.5-14.3,0.9-17.7,1.3c-3.6,0.5-6.6,0.9-9.1,1.4
					c-0.3,0.1-0.5,0.1-0.8,0.2c-1.2,0.2-2.5,0.6-3.9,1c-1.9,0.5-3.1,0.8-3.8,1c-2.1,0.6-5.3,2.2-9.6,4.8c-3.1,1.9-5.3,3.4-6.4,4.6
					c-0.4,0.5-0.6,1-0.8,1.5c0,0,0,0.7-0.1,1.9c0,0.4,0,0.7,0.1,1c0,1.6,0.6,3,1.7,4.2c1.1,0.9,2.3,1.8,3.5,2.6
					c3.7,2.6,7.8,4.7,12.3,6.1C-454-393.9-448.4-393-442.3-393z"/>
			</g>
			<g transform="matrix(1,0,0,1,671.8569946289062,567.75)">
				<path class="st14" d="M-386.1-376.8L-386.1-376.8l-2.8,0c-1.8-0.1-3.8-0.2-6.1-0.3c-2.2,0-4.5-0.2-6.8-0.4l-2.9,0
					c-2.3-0.1-4.3-0.3-6-0.6c-0.2,0-0.4-0.1-0.6-0.1c-1.7-0.1-3.3-0.2-4.8-0.6c-0.1,0-0.2-0.1-0.4-0.1c-1.9,0-3.8-0.1-5.8-0.2
					c-8.4-0.3-15.9-1.1-22.3-2.4c-4.6-0.8-8.7-1.8-12.3-3c-3.6-1.2-6.5-2.3-8.7-3.1c-3.2-1.1-4.9-1.9-5.3-2.3l-1.1-1.1
					c-1.9-1.6-2.6-3.1-2.3-4.4c0.1-0.4,0.3-0.9,0.6-1.4c0.4-0.7,0.8-1.4,1.3-2c6.6-7.2,21.1-11.2,43.6-12.1
					c26.7,0.2,48.4,0.3,65.1,0.3c1.8-0.1,3.6-0.1,5.4-0.1c4.7,0,9.4,0.3,13.9,1c1.7,0.2,3.3,0.5,4.8,0.7l4.3-0.1
					c2.5,0.1,4.2,0,5.2-0.2c0.3-0.1,0.7-0.2,1.1-0.3c0.7,0.2,1.4,0.3,2.1,0.4c-0.5,0.3-1.1,0.6-1.7,0.9c-2.2,1.2-3.4,1.8-3.7,1.8
					h-0.1c-0.7,0.4-1.5,0.8-2.3,1.3c-1.3,0.8-2.6,1.6-3.9,2.4c-1.6,1.3-3.1,2.7-4.6,4.1c-0.8,0.9-1.7,1.9-2.5,2.9c0,0,0,0,0,0
					c-1.6,1.5-4.2,3.5-7.8,6.2c-0.6,0.5-1.2,0.9-1.8,1.4v0c-0.3,0.2-0.6,0.4-0.8,0.6c-0.5,0.4-1,0.8-1.5,1.2c-1.6,1-3,1.9-4.1,2.7
					c-0.5,0.3-0.9,0.6-1.2,0.9c-0.7,0.4-1.3,0.9-1.9,1.3h0c-0.8,0.6-1.5,1.3-2.1,1.9c-0.3,0.3-0.7,0.6-1,0.9c0,0,0,0,0,0.1
					c-0.3,0.3-0.8,0.8-1.5,1.7c-0.1-0.1-0.2-0.1-0.3-0.1h-7.9v0.1c-2.9,0.1-5.1,0.2-6.6,0.4c-0.7-0.1-1.1-0.2-1.4-0.2H-386.1z
					 M-395.3-401.5c-2,0.4-3,0.8-3,1.3c0,0.7,0.2,1.1,0.8,1.3c0.1,0,0.2,0.1,0.4,0.1c0.7,0.2,1.9,0.4,3.6,0.4c3.9,0.2,7,0,9.4-0.4
					c0.6-0.1,1.1-0.2,1.5-0.3c1.9-0.4,2.9-1,3-1.6c0-0.7-0.9-1.1-2.9-1.4c-1.7-0.2-3.8-0.3-6.4-0.1
					C-391.4-402.1-393.5-401.9-395.3-401.5z M-402.8-406.7c0-0.1-0.1-0.2-0.4-0.4c-1.9-0.2-3.1-0.2-3.8-0.2c-0.6,0-0.9,0.2-1,0.4
					l0,0.3c0.2,0.2,0.6,0.3,1.3,0.4c0.8,0.1,1.7,0.1,2.6-0.1C-403.2-406.4-402.8-406.5-402.8-406.7z M-416.3-395.4l0.2-0.5
					c-0.3-0.3-1-0.6-2-0.9c-1.1-0.3-2.1-0.5-3.2-0.7c-2.9-0.2-4.5,0.4-4.5,2c0.5,0.8,1.3,1.2,2.5,1.2c2,0.1,3.7,0,5.1-0.3
					C-417.2-394.9-416.5-395.1-416.3-395.4z M-386-389.3c0,0,0,0.1,0,0.4c0.2,0.3,0.7,0.5,1.7,0.7c2.4,0.5,4.4,0.6,5.8,0.5
					c1.3-0.1,2.1-0.5,2.2-1c0.2-0.9-1.3-1.4-4.5-1.5C-384-390.4-385.8-390.1-386-389.3z M-407.5-386.8c0.3-0.1,0.5-0.4,0.5-0.7
					c0-0.8-1.3-1.3-3.9-1.4c-0.6-0.1-1.3-0.1-2.1-0.1c-1.3,0-2.4,0.1-3.1,0.3c-1.2,0.2-1.8,0.6-1.8,1.1c0,0.3,0.3,0.5,1,0.8
					c0.6,0.2,1.2,0.4,1.7,0.5h5.7C-408.4-386.4-407.8-386.6-407.5-386.8z M-353.6-404.2c-1.4,0-2.7,0.1-3.7,0.4
					c-0.3,0.1-0.5,0.2-0.7,0.2c0,0-0.1,0-0.1,0c-0.8,0.3-1.2,0.6-1.2,1c0,0.4,0.1,0.7,0.2,0.8c0,0,0.4,0.2,1.1,0.5l4.2,0.2
					c2.3-0.4,3.8-0.6,4.3-0.8c0.7-0.2,1.1-0.6,1.1-1.2c0-0.1,0-0.1,0-0.2c-0.1-0.3-0.7-0.6-1.6-0.8
					C-351-404.2-352.2-404.3-353.6-404.2z M-357.4-391.7c0.5-0.1,1.1-0.2,1.6-0.3c1.1-0.4,1.7-0.7,1.8-1.2c0.2-0.9-0.9-1.4-3.2-1.4
					c-0.2,0-0.4,0-0.6,0c-2.6,0.1-4,0.5-4.2,1.2c0,0,0,0.2,0,0.6c0.2,0.4,1,0.7,2.2,1c0.2,0,0.5,0.1,0.7,0.1c0.1,0,0.2,0.1,0.3,0.1
					c0.3,0,0.7,0,1.1,0C-357.6-391.7-357.5-391.7-357.4-391.7z M-368.1-405.8c0-0.3-0.5-0.6-1.6-0.8c-1-0.2-2.1-0.3-3.5-0.3
					c-1.4,0-2.6,0.1-3.6,0.3c-1.1,0.2-1.6,0.5-1.7,0.8c0,0.3,0.2,0.5,0.8,0.7c0.3,0,1.1,0.1,2.4,0.1c3.6,0.1,5.9,0,6.8-0.4
					C-368.1-405.4-368-405.6-368.1-405.8L-368.1-405.8z M-369.2-399.5c0.7,0.1,1.7,0.1,2.8-0.1c1-0.2,1.5-0.4,1.6-0.5
					c0-0.1,0-0.2-0.2-0.3c-0.3-0.2-0.9-0.3-1.7-0.3c-1.3-0.2-2.3-0.2-3.1-0.1c-0.6,0.1-0.9,0.2-1,0.4l0.1,0.3
					C-370.5-399.8-370-399.6-369.2-399.5z M-369.3-377.8C-369.4-377.8-369.4-377.8-369.3-377.8
					C-369.4-377.8-369.4-377.8-369.3-377.8C-369.4-377.8-369.4-377.8-369.3-377.8z M-438.6-393.7c0.5,0.3,1.4,0.5,2.8,0.5
					c1.1,0,1.9-0.1,2.3-0.3c0.3-0.2,0.5-0.4,0.5-0.7c0-0.6-1-1-2.9-1.1c-2,0-2.9,0.3-2.9,1.1C-438.9-394-438.8-393.8-438.6-393.7z
					 M-434.4-397.8c0.2-0.1,0.4-0.3,0.5-0.6c0-0.5-0.5-0.8-1.6-0.9c-1.1-0.1-1.6,0-1.6,0.4c0,0.6,0.4,1,1.3,1.1H-434.4z
					 M-424.4-404.8c0.7,0,1.2-0.1,1.5-0.3c0.2-0.2,0.3-0.3,0.3-0.5c0-0.6-0.9-1-2.8-1.1c-1.9-0.1-2.9,0.2-2.9,0.8
					C-428.3-405.2-427-404.8-424.4-404.8z M-459.6-397.1c-0.4,0.3-0.6,0.7-0.6,1.1c0,0.5,0.6,0.9,1.8,1.2c1,0.3,2.2,0.5,3.6,0.5
					c0.2,0,0.4,0.1,0.7,0.1c0.1,0,0.2-0.1,0.3-0.1c1.3,0,2.5-0.1,3.5-0.4c1.3-0.3,2-0.7,2-1.2c0-0.9-1.7-1.5-5.1-1.9h-3.6
					C-458.2-397.7-459.1-397.5-459.6-397.1z M-447.1-403.8c-1,0.2-1.6,0.4-1.7,0.7c0,0.1,0,0.2,0.1,0.3c0.3,0.2,1,0.3,2,0.5
					c1.1,0.2,2.2,0.2,3.3,0.2c0.3,0,0.5,0,0.8,0c0.6,0,0.9,0,1-0.1c0,0,0-0.1,0-0.1c1.1-0.1,1.7-0.3,1.8-0.5
					c0.3-0.9-1.1-1.3-4.1-1.3C-445-404-446.1-403.9-447.1-403.8z M-428.4-386.5c0-0.3-0.3-0.7-1-1c-0.9-0.4-2.2-0.6-4-0.6
					c-1.5,0-2.7,0.2-3.6,0.5c-0.9,0.3-1.3,0.7-1.3,1.2c0,0.3,0.8,0.7,2.3,1c1.5,0.3,2.9,0.5,4.2,0.5c1.1,0,2-0.2,2.6-0.6
					C-428.7-385.7-428.4-386-428.4-386.5z"/>
			</g>
			<g transform="matrix(1,0,0,1,631.7750244140625,623.530029296875)">
				<path class="st17" d="M-347.4-429.1c-0.4,6.5-0.8,12-1.1,16.4l-0.4,0l-8.9,0c-15.4,0.9-32.1,0.1-49.9-2.4
					c-1.2-0.2-2.3-0.4-3.4-0.6c0.2-4.6,0.6-9.1,1.1-13.3c0.2-1.7,0.5-3.5,1-5.4c0,0,3.2,0.3,9.7,1.1l-2-0.3c0.4,0,0.9,0.1,1.4,0.2
					c2.5,0.3,5.8,0.8,9.9,1.3c-0.4-0.1-0.8-0.1-1.1-0.2c2.5,0.3,5.1,0.6,7.9,1l4.4,0.2l0.2,0c0.5,0.1,1,0.1,1.6,0.1
					c5.6,1.1,14.4,1.7,26.6,1.8c0.8,0,1.5,0,2.2,0c-0.1,0.2-0.1,0.3,0,0.3c0,0,0.1-0.1,0.2-0.3
					C-347.9-429.2-347.7-429.1-347.4-429.1z"/>
			</g>
			<g transform="matrix(1,0,0,1,716.8590087890625,626.125)">
				<path class="st16" d="M-433.3-431.7c-0.1,0.2-0.2,0.3-0.2,0.3c-0.1,0,0-0.1,0-0.3C-433.4-431.7-433.4-431.7-433.3-431.7z
					 M-415.6-415.6c-0.3,0.4-0.5,0.8-0.7,1.1l-17.3-0.8c0.4-4.4,0.8-9.9,1.1-16.4c8.4,0,13.6-0.1,15.5-0.5h0c0.1,0,0.2-0.1,0.3-0.1
					c0.2,0.1,0.3,0.1,0.5,0.2c0.4,1.5,0.1,3.1-0.9,4.9c-1.1,1.9-1.1,3.7,0,5.3C-416-420.2-415.5-418.1-415.6-415.6z M-431.1-435.1
					L-431.1-435.1L-431.1-435.1C-431.1-435.1-431.1-435.1-431.1-435.1L-431.1-435.1z"/>
			</g>
			<g transform="matrix(1,0,0,1,756.5,602.4249877929688)">
				<path class="st18" d="M-445.7-412.2L-445.7-412.2L-445.7-412.2L-445.7-412.2z"/>
			</g>
		</g>
	</g>
</g>
</svg>
