<?xml version="1.0" encoding="utf-8"?>
<!-- Generator: Adobe Illustrator 27.0.0, SVG Export Plug-In . SVG Version: 6.00 Build 0)  -->
<svg version="1.1" id="Vrstva_1" xmlns="http://www.w3.org/2000/svg" xmlns:xlink="http://www.w3.org/1999/xlink" x="0px" y="0px"
	 viewBox="0 0 350 250" style="enable-background:new 0 0 350 250;" xml:space="preserve">
<style type="text/css">
	.st0{fill:#293377;}
	.st1{fill:#CCCBCB;}
	.st2{fill:#989898;}
	.st3{fill:#2764AD;}
	.st4{fill:#397CBF;}
	.st5{fill:#333333;}
	.st6{fill:#FFFFFF;}
	.st7{fill:#1F3C88;}
</style>
<g>
	<g transform="matrix(1.1369999647140503,0,0,1,496.29931640625,530.5969848632812)">
		<g transform="matrix(1,0,0,1,0,0)">
			<path class="st0" d="M-150.2-357.1l-262.8,0.8l21.1-61.2l223.7-1.5L-150.2-357.1z"/>
		</g>
	</g>
	
		<g transform="matrix(-0.8351526856422424,-0.7715497016906738,0.6785837411880493,-0.7345230579376221,-64.69000244140625,1079.233642578125)">
		<g transform="matrix(1,0,0,1,0,0)">
			<g transform="matrix(1,0,0,1,0,0)">
				<g transform="matrix(1,0,0,1,52.709999084472656,602.7969970703125)">
					<path d="M373,126c5.9-4.2,12.5-6.4,19.9-6.4c10.2,0,18.9,4,26.1,12c7.2,8.1,10.8,17.8,10.8,29.1c0,11.4-3.6,21.1-10.8,29.2
						c-7.2,8-15.9,12-26.1,12c-7.4,0-14.1-2.1-19.9-6.4c-2.2-1.6-4.3-3.5-6.2-5.7c-7.2-8.1-10.8-17.8-10.8-29.2
						c0-11.4,3.6-21.1,10.8-29.1C368.8,129.4,370.8,127.6,373,126z M392.3,135.6c-4.5,0-8.4,1.3-11.9,3.8c-1.3,1-2.5,2.1-3.7,3.4
						c-4.3,4.8-6.4,10.6-6.4,17.4c0,6.8,2.1,12.6,6.4,17.4c1.2,1.3,2.4,2.4,3.7,3.4c3.5,2.5,7.5,3.8,11.9,3.8
						c6.1,0,11.3-2.4,15.6-7.2c4.3-4.8,6.5-10.6,6.5-17.4c0-6.8-2.2-12.6-6.5-17.4C403.6,138,398.4,135.6,392.3,135.6z"/>
				</g>
				<g transform="matrix(1,0,0,1,51.23500061035156,601.6220092773438)">
					<path class="st1" d="M393.7,136.8c6.1,0,11.3,2.4,15.6,7.2c4.3,4.8,6.5,10.6,6.5,17.4c0,6.8-2.2,12.6-6.5,17.4
						c-4.3,4.8-9.5,7.2-15.6,7.2c-4.5,0-8.4-1.3-11.9-3.8c-1.3-1-2.5-2.1-3.7-3.4c-4.3-4.8-6.4-10.6-6.4-17.4
						c0-6.8,2.1-12.6,6.4-17.4c1.2-1.3,2.4-2.4,3.7-3.4C385.3,138.1,389.3,136.8,393.7,136.8z"/>
				</g>
			</g>
		</g>
		<g transform="matrix(1,0,0,1,0,0)">
			<g transform="matrix(1,0,0,1,0,0)">
				<g transform="matrix(1,0,0,1,50.88399887084961,600.7969970703125)">
					<path class="st2" d="M380.7,146.6c3.6-4.2,8-6.3,13.2-6.3c5.1,0,9.5,2.1,13.2,6.3c3.6,4.2,5.5,9.3,5.5,15.2
						c0,6-1.8,11-5.5,15.2c-3.6,4.2-8,6.3-13.2,6.3c-5.1,0-9.5-2.1-13.2-6.3c-3.6-4.2-5.4-9.3-5.4-15.2
						C375.3,155.9,377.1,150.8,380.7,146.6z M383.7,173.9c2.9,3.3,6.3,5,10.4,5c4.1,0,7.6-1.7,10.4-5c2.9-3.3,4.3-7.3,4.3-12.1
						c0-4.7-1.4-8.8-4.3-12.1c-2.9-3.3-6.3-5-10.4-5c-4.1,0-7.6,1.7-10.4,5c-2.9,3.3-4.3,7.3-4.3,12.1
						C379.3,166.6,380.8,170.6,383.7,173.9z"/>
				</g>
				<g transform="matrix(1,0,0,1,51.23500061035156,600.8980102539062)">
					<path class="st1" d="M383.3,173.8c-2.9-3.3-4.3-7.3-4.3-12.1c0-4.7,1.4-8.8,4.3-12.1c2.9-3.3,6.3-5,10.4-5
						c4.1,0,7.6,1.7,10.4,5c2.9,3.3,4.3,7.3,4.3,12.1c0,4.7-1.4,8.7-4.3,12.1c-2.9,3.3-6.3,5-10.4,5
						C389.6,178.8,386.2,177.2,383.3,173.8z"/>
				</g>
			</g>
		</g>
	</g>
	
		<g transform="matrix(-0.8351526856422424,-0.7715497016906738,0.6785837411880493,-0.7345230579376221,592.1830444335938,2093.35693359375)">
		<g transform="matrix(1,0,0,1,0,0)">
			<g transform="matrix(1,0,0,1,412.0589904785156,593.14697265625)">
				<g transform="matrix(1,0,0,1,0,0)">
					<g transform="matrix(1,0,0,1,412.0589904785156,593.14697265625)">
						<path d="M513.5-7.3c-1.3,1-2.5,2.1-3.7,3.4c-4.3,4.8-6.4,10.6-6.4,17.4c0,6.8,2.1,12.6,6.4,17.4c1.2,1.3,2.4,2.4,3.7,3.4
							c3.5,2.5,7.5,3.8,11.9,3.8c6.1,0,11.3-2.4,15.6-7.2c4.3-4.8,6.5-10.6,6.5-17.4c0-6.8-2.2-12.6-6.5-17.4
							c-4.3-4.8-9.5-7.2-15.6-7.2C521-11.1,517-9.8,513.5-7.3z M506.2-20.7c5.9-4.2,12.5-6.4,19.9-6.4c10.2,0,18.9,4,26.1,12
							c7.2,8.1,10.8,17.8,10.8,29.1c0,11.4-3.6,21.1-10.8,29.2c-7.2,8-15.9,12-26.1,12c-7.4,0-14.1-2.1-19.9-6.4
							c-2.2-1.6-4.3-3.5-6.2-5.7c-7.2-8.1-10.8-17.8-10.8-29.2c0-11.4,3.6-21.1,10.8-29.1C502-17.3,504-19.1,506.2-20.7z"/>
					</g>
					<g transform="matrix(1,0,0,1,410.5849914550781,591.9719848632812)">
						<path class="st1" d="M515-6.1c3.5-2.5,7.5-3.8,11.9-3.8c6.1,0,11.3,2.4,15.6,7.2c4.3,4.8,6.5,10.6,6.5,17.4
							c0,6.8-2.2,12.6-6.5,17.4c-4.3,4.8-9.5,7.2-15.6,7.2c-4.5,0-8.4-1.3-11.9-3.8c-1.3-1-2.5-2.1-3.7-3.4
							c-4.3-4.8-6.4-10.6-6.4-17.4c0-6.8,2.1-12.6,6.4-17.4C512.5-4,513.7-5.1,515-6.1z"/>
					</g>
				</g>
			</g>
			<g transform="matrix(1,0,0,1,410.2340087890625,591.1480102539062)">
				<g transform="matrix(1,0,0,1,0,0)">
					<g transform="matrix(1,0,0,1,410.2340087890625,591.1480102539062)">
						<path class="st2" d="M509.4,16.1c0-5.9,1.8-11,5.4-15.2c3.6-4.2,8-6.3,13.2-6.3s9.5,2.1,13.2,6.3c3.6,4.2,5.5,9.3,5.5,15.2
							c0,6-1.8,11-5.5,15.2c-3.6,4.2-8,6.3-13.2,6.3s-9.5-2.1-13.2-6.3C511.2,27.2,509.4,22.1,509.4,16.1z M513.5,16.2
							c0,4.7,1.4,8.7,4.3,12.1c2.9,3.3,6.3,5,10.4,5c4.1,0,7.6-1.7,10.4-5c2.9-3.3,4.3-7.3,4.3-12.1c0-4.7-1.4-8.8-4.3-12.1
							c-2.9-3.3-6.3-5-10.4-5c-4.1,0-7.6,1.7-10.4,5C514.9,7.5,513.5,11.5,513.5,16.2z"/>
					</g>
					<g transform="matrix(1,0,0,1,410.5849914550781,591.2470092773438)">
						<path class="st1" d="M513.1,16.1c0-4.7,1.4-8.8,4.3-12.1c2.9-3.3,6.3-5,10.4-5c4.1,0,7.6,1.7,10.4,5c2.9,3.3,4.3,7.3,4.3,12.1
							c0,4.7-1.4,8.7-4.3,12.1c-2.9,3.3-6.3,5-10.4,5c-4.1,0-7.6-1.7-10.4-5C514.6,24.8,513.1,20.8,513.1,16.1z"/>
					</g>
				</g>
			</g>
		</g>
	</g>
	<g transform="matrix(1.1369999647140503,0,0,1,240.40655517578125,-7)">
		<g transform="matrix(1,0,0,1,220.98399353027344,458.22698974609375)">
			<path class="st3" d="M-187.8-397.4c-0.7-0.6-1.9-0.2-3.6,1.3c-0.1,0.1-0.3,0.2-0.4,0.3c-0.1,0.6-0.5,1.5-1.1,2.9
				c-0.9,25.2,2.6,38.9,10.8,41.2c8.2,2.2,12.1,3.1,11.8,2.5v0c4.9,4.1,9.2,8.5,12.9,13.1l-1.1-1.7c16.6,21.2,25.3,41.5,25.9,60.7
				l-10.6,0.2l1.6,0.1c-1.9,0.2-5.1,0.1-9.5-0.4c0-0.9,0.1-1.9,0.1-2.8c0-0.1,0-0.1,0-0.2c0-11.6-3.5-21.5-10.6-29.7
				c-5.5-6.3-11.9-10.2-19.1-11.7c-2.1-0.4-4.3-0.6-6.5-0.6c-3.7,0-7.3,0.6-10.6,1.7c-5.6,1.9-10.6,5.4-15,10.6
				c-7.1,8.2-10.6,18.1-10.6,29.7c0,0.2,0,0.3,0,0.5c0,1,0,1.9,0.1,2.8c-3.2,0.2-5.5,0.2-6.8,0l-8.5,0v-0.2h-15v0l-14,0v0l-47.5-0.1
				c-2.7,0.3-5.9,0.1-9.7-0.5c0-0.1,0-0.1,0-0.2c0-11.6-3.5-21.5-10.6-29.7c-7.1-8.2-15.6-12.3-25.7-12.3c-10,0-18.6,4.1-25.7,12.3
				c-7.1,8.2-10.6,18.1-10.6,29.7c0,0.2,0,0.3,0,0.5c-2.5,0.6-4.8,0.8-7,0.7l0.6-0.1l-22.3-1c11.2-41.6,28.7-64.8,52.3-69.4
				c10.3-2.5,24.8-4,43.5-4.6c3.6,2.9,8.3,3.1,14,0.7c3-8.8,4.9-13.8,5.6-14.9c0.7-1.1,2-5.5,3.8-13.3c1.8-7.8,1.4-7.5-1.2,0.6
				c-2.7,8.2-4.4,9.7-5.2,4.6c-0.8-4.8-0.5-10.5,0.8-17.1c0.1,0.5,1.7-1.9,4.7-7.2c3.9-6.8,13.6-12.4,29.3-16.7
				c21.4-2.4,40-2.2,55.7,0.4c13,1.5,22.1,4.4,27.3,8.6C-191.1-402.2-188.5-399.3-187.8-397.4z M-170.6-347.9l-0.9,0.1
				C-171.5-347.8-171.2-347.8-170.6-347.9L-170.6-347.9z M-233.1-402.9c-4.2-0.5-8.3-0.8-12.4-0.8c-4.1,0-8.2,0.2-12.2,0.7
				c-4,0.4-8,1.1-11.9,2c-5.6,1.5-8.8,4.9-9.6,10.3c-0.7,2.4-1.3,4.9-1.7,7.3l-0.3,2.2c-0.3,2.3-0.5,4.6-0.4,7c0,0.1,0,0.1,0,0.2
				c0,0.2,0,0.5,0,0.7c0.1,4.3,0.7,8.7,1.8,13.1c0.7,5.3,4.6,8.7,11.6,10.2c14.6,2.3,28.9,2.4,43,0.3c10.1-0.5,15.9-5.4,17.3-14.5
				c0.4-2.4,0.6-4.8,0.7-7.2c0-0.5,0-1,0-1.5v-0.2c0-2.7-0.2-5.5-0.6-8.2c-0.1-0.4-0.1-0.8-0.2-1.3c-0.5-3.3-1.4-6.5-2.6-9.8l0.2,1
				c-2-5.4-5.4-8.5-10-9.5C-224.7-401.7-228.9-402.4-233.1-402.9z M-153.1-323.2c0.9-0.1,1.8-0.2,2.9-0.3l-2.9,0.2L-153.1-323.2z"/>
		</g>
		<g transform="matrix(1,0,0,1,408.510009765625,500.385986328125)">
			<g transform="matrix(1,0,0,1,0,0)">
				<path class="st4" d="M-405.4-360.7c5.4-9.1,12.9-14.7,22.4-16.9c9.6-2.3,18.4-0.5,26.6,5.4c4.5,3.3,8.1,7.2,10.7,11.9
					c-21.2-20.4-41.5-19.7-61,2.1C-406.3-359.1-405.9-359.9-405.4-360.7z"/>
			</g>
		</g>
		<g transform="matrix(1,0,0,1,96.56199645996094,527.1829833984375)">
			<g transform="matrix(1,0,0,1,0,0)">
				<path class="st4" d="M-237-400.8c10.6-3.6,20.4-3.1,29.2,1.4c8.8,4.5,14.2,11.7,16.1,21.6c1.1,5.5,0.9,11-0.6,16.4
					c-5-27.7-20.9-40.5-47.5-38.4C-238.8-400.1-237.9-400.5-237-400.8z"/>
			</g>
		</g>
		<g transform="matrix(1,0,0,1,0,0)">
			<g transform="matrix(1,0,0,1,0,0)">
				<g transform="matrix(1,0,0,1,280.010009765625,400.2229919433594)">
					<path d="M-290.4-344.9c3.8,0.5,7.7,1.1,11.6,1.8c1.5,0.3,2.9,0.6,4.3,1.1c0.2,0,0.3,0.1,0.5,0.1c4.8,1.1,8.1,3.3,9.9,6.4
						c1.9,3,3.1,7.1,3.5,12.2l0.3,2.3c0.4,2.5,0.5,4.9,0.4,7.3c0,0.1,0,0.1,0,0.2c0,0.2,0,0.5,0,0.7c-0.1,4.6-0.7,9.1-1.6,13.6
						c-1.4,5.7-6.4,9.3-14.9,10.8c-2.1,0.3-4.2,0.5-6.2,0.7l-27.1,0.1c1.2-0.1,2.3-0.1,3.4-0.2c-2.2,0-4.4,0-6.6,0
						c-5.9-0.1-11.8-0.5-17.7-1.2c-2.1-0.2-4.1-0.5-6.2-0.8c-8.5-1.6-13.4-5.4-14.8-11.2c-0.9-4.4-1.4-8.8-1.5-13.4
						c0-0.3,0-0.5,0-0.7c0-0.1,0-0.2,0-0.2c-0.1-2.4,0.1-4.9,0.5-7.3l0.4-2.3c0.5-2.6,1.1-5.2,2-7.7c0.1-0.5,0.2-1.1,0.4-1.6
						c1.4-4.7,5.2-7.8,11.3-9.2c2.7-0.5,5.4-1,8.2-1.4c2.1-0.3,4.1-0.5,6.2-0.7c1.2-0.1,2.4-0.2,3.6-0.3c1.8-0.1,3.7-0.2,5.5-0.3
						c0,0,0.1-0.1,0.1-0.1c1.8-0.1,3.7-0.1,5.5-0.1c4.9,0,9.9,0.3,15,0.8C-292.9-345.2-291.6-345.1-290.4-344.9z M-251.5-337.7
						c0.5-2.3,1.8-3,3.9-2.2c3.8,2.8,8.5,14,14,33.6c0.7,3.1,1.4,6.4,2,9.9c0.2,1.4,0.4,2.9,0.5,4.7l0.2,0.8
						c-9.9,2.1-15.9-0.6-18.1-8.3c-1.1-2.6-1.9-7.4-2.4-14.6c-0.5-7.1-0.8-12.4-0.8-15.6C-252.2-332.7-252-335.5-251.5-337.7z
						 M-367.3-339.5c0,0,0.1,0,0.1,0c0.9-0.6,1.9,0.1,3,2.2c1.1,2,2,5.2,2.6,9.6s0.2,10.3-1.2,17.9c-1.4,7.6-3,12.5-4.7,14.9
						c-1.7,2.4-4.4,4-8.3,4.7c-3.8,0.7-8.2-0.4-13.2-3.1c0,0,0-0.1,0-0.1c2.4-8.6,5-16.2,7.7-22.7c3-7.2,6.2-13.2,9.6-17.9
						C-370.2-336.2-368.8-337.9-367.3-339.5z"/>
				</g>
				<g transform="matrix(1,0,0,1,253.98399353027344,490.4219970703125)">
					<path class="st5" d="M-301.9-361.3c-1.5-0.5-2.2-1.2-2.2-2c0-0.8,0.7-1.5,2.2-2c1.5-0.5,3.3-0.8,5.4-0.8s3.9,0.3,5.4,0.8
						c1.5,0.6,2.3,1.2,2.3,2c0,0.8-0.8,1.5-2.3,2c-1.5,0.6-3.3,0.8-5.4,0.8S-300.4-360.8-301.9-361.3z"/>
				</g>
			</g>
		</g>
	</g>
	<g transform="matrix(1.1369999647140503,0,0,1,240.40704345703125,-7)">
		<g transform="matrix(1,0,0,1,0,0)">
			<g transform="matrix(1,0,0,1,513.2830200195312,578.8369750976562)">
				<path class="st1" d="M-418.3-405.9l-20.2,0c-0.5-1.4-1.7-3-3.8-4.9c3.7-1.1,10.2-1.3,19.5-0.6C-419.5-410-418-408.2-418.3-405.9
					z"/>
			</g>
			<g transform="matrix(1,0,0,1,515.1090087890625,594.1480102539062)">
				<path class="st2" d="M-440.3-421.3l20.2,0c1,5.7-1,8.5-5.8,8.3l-16.6,0.6C-440-415.3-439.2-418.3-440.3-421.3z"/>
			</g>
		</g>
	</g>
	<g transform="matrix(1.1369999647140503,0,0,1,240.4072265625,-7)">
		<g transform="matrix(1,0,0,1,0,0)">
			<g transform="matrix(1,0,0,1,0,0)">
				<g transform="matrix(1,0,0,1,-58.2400016784668,538.947021484375)">
					<path class="st3" d="M-142-393.3c2.8,0.5,5.2,1.4,7.4,2.6c3.8,2,5.7,4.4,5.7,7.2l-0.2,0l-10.6-0.2c0-2.7-0.3-5-0.9-6.9
						C-141-391.9-141.5-392.8-142-393.3z"/>
				</g>
				<g transform="matrix(1,0,0,1,-74.68399810791016,549.9349975585938)">
					<path class="st6" d="M-127.5-383.3L-127.5-383.3c-0.9-0.2-1.6-1.2-2.2-3.1c-0.7-2.1-1-4.7-0.9-7.6c0-0.3,0-0.6,0-0.8
						c0.1-2.6,0.5-4.9,1.3-6.8c0.1-0.4,0.3-0.8,0.5-1.1c0.5-0.9,0.9-1.5,1.5-1.8c0.2-0.1,0.4-0.2,0.7-0.2c0.4,0,0.8,0.2,1.1,0.5
						c0.5,0.5,1,1.4,1.4,2.6c0.6,1.9,0.9,4.2,0.9,6.9l-0.2,0c0,0.2,0,0.5,0,0.7c0,3-0.4,5.5-1.1,7.6c-0.5,1.5-1.1,2.5-1.8,2.9h0
						c-0.3,0.2-0.5,0.2-0.8,0.2C-127.3-383.3-127.4-383.3-127.5-383.3L-127.5-383.3z"/>
				</g>
				<g transform="matrix(1,0,0,1,-63.4900016784668,561.2039794921875)">
					<path class="st7" d="M-123.9-405.7c0,0.3,0,0.5,0,0.8c-0.3,3.1-2.8,5.8-7.4,8c-1.9,0.9-4,1.7-6.3,2.2h0h0
						c0.7-0.4,1.3-1.3,1.8-2.9c0.7-2.1,1.1-4.6,1.1-7.6c0-0.2,0-0.5,0-0.7l0.2,0L-123.9-405.7z M-138.7-394.6L-138.7-394.6
						C-138.7-394.5-138.8-394.5-138.7-394.6C-138.8-394.5-138.8-394.6-138.7-394.6L-138.7-394.6z M-139.9-393.7c-0.6,0-1.1,0-1.6,0
						c0,0,0.6-0.1,1.6-0.2c0,0.1,0.1,0.2,0.1,0.2C-139.9-393.7-139.9-393.7-139.9-393.7z"/>
				</g>
			</g>
		</g>
	</g>
	<g transform="matrix(1.1369999647140503,0,0,1,240.40673828125,-7)">
		<g transform="matrix(1,0,0,1,0,0)">
			<g transform="matrix(1,0,0,1,0,0)">
				<g transform="matrix(1,0,0,1,-59.54399871826172,578.656982421875)">
					<path class="st1" d="M-150.1-405.9c-0.4-2.2,1.5-4.1,5.8-5.5c11.9-0.7,20.2-0.4,25,0.7c-2.7,1.9-4.3,3.5-5,4.9L-150.1-405.9z"
						/>
				</g>
				<g transform="matrix(1,0,0,1,-62.084999084472656,594.0230102539062)">
					<path class="st2" d="M-147.6-421.3l25.8,0.1c-1.4,3-0.4,6,2.8,9l-21.2-0.7C-146.4-412.8-148.9-415.6-147.6-421.3z"/>
				</g>
			</g>
		</g>
	</g>
</g>
</svg>
