<?xml version="1.0" encoding="utf-8"?>
<!-- Generator: Adobe Illustrator 27.0.0, SVG Export Plug-In . SVG Version: 6.00 Build 0)  -->
<svg version="1.1" id="Vrstva_1" xmlns="http://www.w3.org/2000/svg" xmlns:xlink="http://www.w3.org/1999/xlink" x="0px" y="0px"
	 viewBox="0 0 350 250" style="enable-background:new 0 0 350 250;" xml:space="preserve">
<style type="text/css">
	.st0{fill:#009966;}
	.st1{fill:#00D08C;}
	.st2{fill:#CCCCCC;}
	.st3{fill:#333333;}
	.st4{fill:#666666;}
	.st5{fill:#FFCCCC;}
	.st6{fill:#333366;}
	.st7{fill:#212143;}
	.st8{fill:#FFFFFF;}
	.st9{fill:#FF9999;}
	.st10{fill:#663333;}
</style>
<g transform="matrix(1,0,0,1,-495,-55)">
	<g transform="matrix(1,0,0,1,964.52001953125,746.06201171875)">
		<g transform="matrix(1,0,0,1,0,0)">
			<path class="st0" d="M-228.9-580.6c-0.5,1-1,2-1.5,3c-0.1,0.2-0.2,0.4-0.2,0.6c0,0,0,0,0,0c1.1,1.4,2.9,2.5,5.2,3h4.6
				c0.2,0,0.6-0.1,1.2-0.2c0.6-0.1,1-0.1,1.3-0.1c0.6,0,1,0.2,1.2,0.7c0.1,0.2,0.1,0.5,0,0.7c0,0.5-0.3,1.8-0.9,3.9c0,0,0,0.1,0,0.1
				c0.7,0.3,1.6,0.8,2.6,1.3c3.9,2,5.9,3.1,5.9,3.4c0,0.2-1.3,2.5-3.8,7c-0.1,0.2-0.3,0.5-0.4,0.7c1.7,1,3.1,1.5,4.1,1.5
				c1.5,0,2.4-0.1,2.7-0.2c0.3-0.2,0.5-0.3,0.6-0.3c0.4,0,0.6,0.2,0.8,0.5c0.1,0.2,0.1,0.3,0.1,0.5c0,0.5-0.4,1.6-1.2,3.3
				c0.2,0.1,0.3,0.2,0.5,0.3c1.3,0.3,2.9,0.8,4.7,1.4c4.2,1.4,6.3,2.6,6.3,3.7c0,0.3-0.1,0.5-0.2,0.6c-0.1,0.1-0.4,0.1-0.9,0.1
				c-2,0.1-4.2,0.5-6.7,1c-0.6,0.1-1.1,0.3-1.6,0.6c0.8,0.3,1.4,0.6,2,0.9c0.5,0.3,0.9,0.5,1.1,0.6c0.6,0.1,3.5,0.2,8.8,0.2
				c0.6,0,1,0.2,1.2,0.5c0.1,0.2,0.1,0.3,0.1,0.5c-0.4,1.7-0.7,3.2-1.1,4.5c0.5,0.3,1.1,0.7,1.8,1.1c1.1,0.5,2.7,1.1,5,1.6
				c1.7,0.4,2.6,0.8,2.6,1.1c0,0.1,0,0.3-0.1,0.4c0,0,0,0,0,0.1c0,0.4-2.1,2.6-6.4,6.7c-0.2,0.2-0.3,0.3-0.5,0.5c0.5,0,1,0,1.5,0
				c1.3,0,3-0.1,5.3-0.4l3.4-0.4c0.5,0,0.8,0.6,0.9,1.7c0,0.6,0,1.1,0,1.7c0,0.6,0,1.1,0,1.6c0.1,0,0.3,0,0.4,0c0.6,0,1,0.3,1.1,0.8
				c0.1,0.3,0.1,0.6,0,0.9c-0.4,2.4-0.8,4.5-1.2,6.1h0c1.4-0.4,3.2-0.8,5.2-1.4c1.1-0.3,2.1-0.4,2.9-0.5c1.7-1.1,2.5-1.2,2.5-0.2
				c0,0.1,0,0.3,0,0.4c0-0.1,0.1-0.2,0.1-0.3c0.4,0.5,0.7,3.5,0.7,9.2c3.2-0.1,4.8,0.1,4.8,0.7c0,0.4-0.9,2.3-2.8,5.6
				c-0.2,0.3-0.3,0.5-0.5,0.8c1.8,0.7,3.3,1.4,4.7,2.2c2.2,1.2,3.3,2.1,3.3,2.8c0,0.4-1.9,2.7-5.7,6.8c-3.8,4.2-6.1,6.2-6.8,6.2
				c-0.3,0-1.8-0.7-4.4-2c-0.9-0.5-1.7-0.8-2.3-1.2c-0.2,0.1-0.3,0.3-0.5,0.4c-0.6,0.5-1.3,1-2,1.6c1.8,5.4,2.7,8.1,2.7,8.2
				c0,0.2,0,0.4-0.2,0.6c-0.2,0.2-0.4,0.4-0.7,0.4c-1.4,0-4.1-0.9-8.3-2.8c-0.6-0.3-1.1-0.5-1.6-0.7c-0.4,0.2-0.8,0.5-1.2,0.7
				c0.1,0.5,0.3,1.1,0.4,1.7c0.6,2.3,0.9,3.6,0.9,3.8c0,0.7-0.2,1.1-0.5,1.2c-0.3,0.1-1.1,0.3-2.5,0.3c-4.1,0.2-8.5,0.7-13.2,1.4
				c0.1,0.7,0.2,1.2,0.3,1.5c0.1,0.4,0.1,0.9,0.2,1.5c0.3,1.1,0.5,2.1,0.5,2.9c0,0.5,0,0.8-0.1,0.9c0,0.1-0.1,0.2-0.2,0.2
				c0,0.3,0,0.5,0,0.7c0,0.2,0,0.7,0,1.6c-0.1,0.7-0.4,1.1-1,1.1c-0.1,0-1.3-0.4-3.5-1.3c-0.5-0.2-1-0.4-1.6-0.6
				c-0.8-0.3-1.6-0.7-2.6-1c-0.6-0.2-1.1-0.4-1.6-0.6c0.9,1.7,1.9,3.5,2.8,5.4c0,0.1,0,0.3,0.1,0.5c-0.1,0.2-0.4,0.4-0.9,0.6
				c-1.5,0.4-5.2,0.6-11.1,0.6c-5.5,0-9.2-0.1-11.1-0.4c-0.3,0-0.5-0.1-0.8-0.1c-0.3,0.9-0.7,2.5-1.4,4.9c-0.9,2.8-1.9,4.2-2.8,4.2
				c-0.3,0-2.6-1.6-7-4.8c-3.1-2.2-5.5-4.2-7.2-5.8c-0.9,1.7-2,3.7-3.2,5.8c-2.4,4-3.9,6-4.4,6c-1.2,0-3.1-0.8-5.7-2.3
				c-3.3-1.3-8.1-3.4-14.6-6.6c-0.4,0.6-0.8,1.3-1.3,2c-1.2,1.9-1.8,2.9-1.9,2.9c-0.8,0-2.9-1-6.4-3c-1.1-0.6-2.1-1.2-2.9-1.8
				c-0.8,0.7-2.5,2.5-5.2,5.3c-2.8,2.8-4.7,4.1-5.6,4.1c-0.8,0-2.3-0.4-4.4-1.3c-2.4-1-4-1.7-4.8-2c-1.5-0.4-2.9-0.9-4.2-1.3
				c-2.4-0.9-3.6-1.6-3.6-2.2c0-0.6,1.2-1.5,3.7-2.9c0.2-0.1,0.5-0.3,0.7-0.4c-0.3-0.1-0.6-0.2-0.8-0.4c-0.7,0.2-1.6,0.4-2.9,0.6
				c-2.8,0.6-5.5,1.2-8,1.8l-0.6-0.1c-0.3,0-0.6,0-0.9,0c-0.9,0-1.5-1.3-1.8-4c-0.1-1.4-0.2-2.5-0.2-3.2c-2.5,1.8-6.4,4.3-11.5,7.7
				c-0.4,0-2.2-1.3-5.2-4c-2.8-2.5-4.9-4.2-6.3-5.2c-2.1,0.4-3.7,0.8-4.8,1.1c-6.3,2.2-9.5,3.2-9.6,3.2c-0.1,0-1.7-1.9-4.8-5.7
				c-1.1-1.3-2-2.4-2.7-3.3c-1.3,0.7-3.1,1.6-5.2,2.7c-2.7,1.4-4.1,2.1-4.1,2.1c-1.4-2.8-2.9-5.8-4.7-8.9c-0.9-1.7-1.8-3.1-2.6-4.4
				c-2.1,1.4-3.5,2.4-4.3,3c-0.4,0.3-1.9,1.5-4.5,3.8c-2.5,2.1-3.9,3.2-4.1,3.2c-0.3,0-2.2-2.8-5.5-8.4c-0.6-1-1.1-1.8-1.6-2.6
				c-2.3,0.4-3.9,0.6-4.9,0.6c-1.1,0.5-2.1,0.7-3,0.7c-1.1,0-2.9-1.8-5.4-5.3c-2.3-3.5-3.5-5.3-3.5-5.3c0-0.6,0.4-1,1.3-1.2
				c2.9-0.6,4.4-1,4.7-1.1c-1.7-0.5-2.9-0.9-3.8-1.2c-0.7-0.3-1.3-0.5-1.7-0.8c-0.3-0.1-0.4-0.2-0.5-0.5c-0.1-0.1-0.2-0.3-0.2-0.4
				c0-0.1,0-0.3,0.2-0.4c0.1-0.1,0.2-0.3,0.2-0.4c0-0.2,0.1-0.4,0.4-0.5c0.5-1,1.5-2.7,2.8-4.9c2.2-3.9,3.5-5.8,3.8-5.8
				c0,0,1.2,0.7,3.5,2.1c2.4,1.4,3.6,2.1,3.8,2.1c0.4,0,0.8-0.2,1.1-0.6c0-0.3,0-0.5,0-0.6v-5.1c-0.2-0.8-0.5-1.9-0.9-3.3
				c-0.5-1-1.2-2.5-2.2-4.5c0-0.7,0.8-0.8,2.3-0.3c0.8,0.3,1.6,0.6,2.6,1.1c1.9,0.6,5.2,1.1,9.6,1.6c0.2-3.4,0.4-5.7,0.6-6.9v-1.8
				c-0.2-2.4-0.3-4.1-0.3-5.3c0-0.9,1-1.5,2.9-1.9c0.8-0.2,1.8-0.3,3.2-0.5c0.4-0.9,1-2,1.9-3.2c1.3-1.9,2.8-3.9,4.5-5.8
				c0-0.1,0-0.2,0-0.2c0.1-0.1,0.3-0.2,0.4-0.3c0.3-0.4,0.7-0.7,1-1.1c1.5-1.6,3-3,4.4-4.2c1.2-1.2,1.8-1.9,1.8-1.9
				c-0.3-0.6-0.6-1.2-0.8-1.9c-0.6-1.3-0.9-2.3-0.9-2.8c0-0.7,2.2-1.9,6.7-3.4c1.6-0.6,2.9-1,3.9-1.2c-0.7-1-1.7-2.2-2.8-3.7
				c0-0.6,0.9-1.1,2.8-1.3c0.6-0.1,1.4-0.1,2.3-0.2c0.1,0,0.2-0.1,0.3-0.1c0.3-0.3,0.7-0.6,1-0.9c1.4-1.3,2.5-3,3.2-5.1
				c0.3-0.9,0.5-2,0.6-3.2c0-0.6,0.1-1.7,0.1-3.2c0-1.7,1.3-0.6,3.8,3.5c0.7,1.2,1.4,2.3,2,3.5c1.3-2.9,2.2-5.2,2.6-7
				c0.1-0.4,0.3-1.3,0.8-2.8c0.3-1.2,0.6-2.3,0.7-3.1c0.4-1.9,2.3-2.9,5.8-3.1c0.4,0,1.8,0,4.1,0c0.2,0,0.4,0,0.5,0
				c0.1,0,0.3-0.1,0.4-0.1c-0.9-0.9-2-2.2-3.4-3.7c0-0.4,0.2-0.7,0.6-0.9c0.2-0.1,0.7-0.2,1.5-0.3c1.9-0.2,3.4-0.9,4.6-2
				c0.5-0.5,0.9-1.1,1.4-1.8c0.1-0.2,0.4-0.8,1-1.9c0.5-0.9,0.9-2.2,1.4-3.8c0-0.2,0-0.3,0-0.5c0-0.2,0.1-0.4,0.2-0.5
				c0.9-1.2,1.5-1.8,1.8-2c0.2-0.1,0.5-0.1,0.7,0.3c0.4,0.5,0.7,0.9,1.1,1.1c0.7,0.4,1.8,0.5,3.1,0.3c0.8-0.1,1.5-0.2,2.1-0.2
				c-0.1-0.5-0.2-1-0.3-1.5c0-0.1-0.3-1.2-0.8-3.1c-0.3-1.3-0.5-2.3-0.5-3.1c0-0.3,0-0.4,0-0.4c0.1-0.1,0.3-0.2,0.6-0.3
				c0.6-0.1,2.8-0.3,6.6-0.5c0.2,0,0.4,0,0.5,0c-0.2-0.6-0.4-1.3-0.5-2.1c-1.1-5.1-1.7-7.7-1.7-7.7c0-0.7,0.4-1.1,1.2-1.1
				c1.2,0,2.5,0.1,4,0.4c0.4,0.1,0.8,0.1,1.2,0.2c0.1-0.2,0.2-0.4,0.3-0.6c0.8-1.6,1.3-2.6,1.6-3c0.2-0.3,0.4-0.8,0.6-1.7
				c0.3-0.7,0.7-1.1,1.4-1.1c3.7,0.2,6.4,0.4,8.1,0.6c1.7-2.8,2.9-5,3.5-6.8c0.1-0.3,0.2-0.9,0.3-1.6c0.1-0.9,0.1-1.5,0.2-1.7
				c0.3-1.3,1-1.8,2.2-1.5c0.5,1.2,1.3,2.5,2.5,4c1.3,1.5,2.1,2.3,2.6,2.3c0.5,0,1.7-0.6,3.5-1.9c0.9-0.6,1.8-1.3,2.7-1.9
				c0.5,0,0.8,0.2,0.9,0.6c0,0.2,0,0.4,0,0.7c0,0.1-0.1,0.9-0.4,2.1c-0.3,1.3-0.5,2.2-0.5,2.4c0,0.2-0.1,0.9-0.1,2.2
				c0,0.2-0.1,0.4-0.2,0.6c0.4,0,0.8,0.1,1.3,0.1l9.7,0.1c0.6,0,1.1,0.3,1.4,0.8c0.2,0.3,0.2,0.6,0.2,0.9c0,0.3-0.7,2.2-2,5.5
				c-0.1,0.3-0.2,0.6-0.3,0.8c0.1,0,0.3,0,0.4,0c7.5,0.4,11.9,0.9,13.4,1.3c0.7,0.2,1,0.4,1.1,0.8c0,0.2,0,0.6-0.1,1.1
				c0,0.9-0.1,2.1-0.2,3.5c1.7,0,3.2,0.1,4.4,0.4c1.5,0.3,2.2,0.8,2.2,1.5c0,0.4-0.6,1.9-1.9,4.3c1.3,0.3,2.7,0.5,4.3,0.5
				c1,0,1.9-0.1,2.7-0.3c0.4-0.1,0.7-0.2,1-0.3c0.3,0,0.6,1.6,1,4.7c0.1,0.5,0.1,1,0.2,1.5c1.5-0.6,2.5-1,2.8-1.2
				c1.3-0.7,2-0.6,2.3,0.2c0.1,0.4,0.2,1.1,0.1,1.9c0,0.9,0.1,2.1,0.4,3.7c0.1,0.8,0.3,2,0.5,3.5c0.3-0.1,2.1-0.5,5.3-1.3
				c3.7-0.8,7.2-1.2,10.4-1.2c0.9,0,1.5,0.2,1.8,0.5c0.1,0.2,0.2,0.4,0.2,0.6C-227.5-583.9-228-582.6-228.9-580.6z M-221.9-569.8
				c-0.2,0-0.3,0-0.5,0c0.2,0.1,0.3,0.1,0.5,0.2C-221.9-569.7-221.9-569.7-221.9-569.8z M-206.9-540.7c0,0,0.1,0.1,0.2,0.1
				c0,0,0.1,0,0.1,0c0,0,0.1,0,0.2,0c-0.1,0-0.1,0-0.2-0.1C-206.8-540.6-206.9-540.7-206.9-540.7z M-190.4-519.6
				c-0.2-0.1-0.3-0.1-0.5-0.2c0.1,0.1,0.1,0.1,0.2,0.2C-190.6-519.6-190.5-519.6-190.4-519.6z M-183.2-520.8c0.1,0,0.3,0,0.4,0
				c0-0.1,0-0.3-0.1-0.3C-183-521-183.1-520.9-183.2-520.8z M-177.5-451.8c0.8,0.1,3.9,0.5,9.2,1c-0.7,0.2-1.5,0.5-2.2,0.8
				c-4.6,1.7-8.6,3.6-12.1,5.8l-18.1-0.1c-3.3-0.3-6.2-0.5-8.7-0.7c1.7-1.5,3.5-3,5.2-4.5c0.7-0.6,1.7-1.2,2.9-2
				c0.6,0,1.3-0.1,2.1-0.1c2.5-0.1,3.9-0.2,4.2-0.3H-177.5z M-142.4-467.7c-0.8,1-1.5,1.9-2.1,2.8c-1.7,0.1-3.3,0.2-4.7,0.2
				c-3.8,0-7.9-0.3-12.3-1c-0.6-0.1-2.8-0.5-6.4-1.1c2.2-1,4.7-2.8,7.4-5.2h6.8c6.2,0,11.5-0.5,16-1.6
				C-139.4-471.5-141-469.5-142.4-467.7z M-204.6-459.7L-204.6-459.7c-0.1,0.1,0,0.1,0,0.2L-204.6-459.7z M-272.5-601.7
				c0-0.1,0-0.1,0-0.1c0,0,0,0-0.1,0C-272.5-601.8-272.5-601.7-272.5-601.7z M-248.1-591c-0.1,0-0.2,0.1-0.3,0.1c0.1,0,0.2,0,0.3,0
				C-248.1-590.9-248.1-591-248.1-591z M-259.5-595.7c-0.2,0-0.4-0.1-0.7-0.1c0.1,0,0.1,0.1,0.2,0.1H-259.5z M-308.5-615.9
				c0,0,0.1-0.1,0.1-0.1l-0.2,0C-308.6-616-308.6-615.9-308.5-615.9z M-336.7-591.3C-336.7-591.3-336.8-591.3-336.7-591.3
				c-0.1,0.1-0.1,0.2-0.2,0.2C-336.8-591.1-336.8-591.2-336.7-591.3z M-363.1-558.5C-363.1-558.5-363.1-558.5-363.1-558.5l-0.4-0.1
				c0,0.1,0.1,0.1,0.1,0.2C-363.3-558.4-363.2-558.5-363.1-558.5z M-374-553.9h1.1c0.1,0,0.1,0,0.2-0.1c0,0,0-0.1,0-0.1
				c-0.1,0-0.3,0.1-0.5,0.1L-374-553.9z M-353.5-459.8c0.6,0.4,1.3,1,2.2,1.7c-1-0.9-1.6-1.5-2-1.7
				C-353.4-459.8-353.5-459.8-353.5-459.8z M-447.7-448.2c-1.8-2.3-3-3.8-3.6-4.6c0.1,0,0.2,0,0.3,0c2.4,0,5.8-0.5,10.3-1.5
				c4.3-1,8.6-2.2,12.9-3.7c1.7-0.6,3.3-1.2,4.8-1.8c1.9,0.6,4,1.2,6.4,1.8c1.6,0.4,3.3,0.8,4.9,1.2c-1.6,0.9-3.4,2-5.3,3.2
				c-3.2,2.1-4.9,3.1-5,3.2c-4.3,1.9-7.6,3.3-10.1,4.3c-1.5,0.6-2.8,1.1-3.9,1.6c-3.3,1.1-5.4,1.7-6.1,1.7
				C-443-443-444.8-444.8-447.7-448.2z M-443.2-488c0.3,0.2,0.6,0.4,0.9,0.6h-0.9V-488z M-311.9-456.3c0.2,0,0.4,0,0.6,0.1
				c-0.1-0.1-0.1-0.1-0.2-0.2C-311.6-456.3-311.8-456.3-311.9-456.3z"/>
		</g>
	</g>
	<g transform="matrix(1,0,0,1,970.5330200195312,753.4630126953125)">
		<g transform="matrix(1,0,0,1,0,0)">
			<path class="st1" d="M-233.2-566.9c-0.5,0.1-1,0.4-1.5,0.7c-4.5,3.1-9.3,5.5-14.4,7.2l-2.3-8.8c2.9-0.7,6.5-2.2,10.6-4.5
				c1.7-1,3.2-1.9,4.6-2.9L-233.2-566.9z M-202.7-555.2c-2.1,1.2-4.1,2.7-6,4.5c-0.8,0.7-1.9,2-3.3,3.8c-0.8,1-1.4,1.8-1.8,2.5
				c-0.5,0.5-0.9,0.8-1.1,0.8c-0.6,0-1.9-0.6-3.9-1.8c-1.9-1.1-2.9-1.7-2.9-1.8c0-0.3,1-1.1,2.9-2.6c1.7-1.3,2.8-2.2,3.3-2.4
				c0.2-0.1,0.5-0.3,0.7-0.6c0.4-0.3,0.8-0.5,1-0.6c1.2-0.7,2-1.1,2.5-1.4c0.2-0.1,0.5-0.2,0.7-0.3c1,0.1,2,0.1,3.1,0.1h3.9
				C-203.3-555.2-203-555.2-202.7-555.2C-202.8-555.2-202.8-555.2-202.7-555.2z M-224.2-524.4c-0.1,0.5-0.7,0.9-1.6,1.2
				c-0.5,0.2-1.8,0.5-3.7,1c-1.1,0.4-2.3,0.7-3.5,1c-2.3,0.5-4.4,0.8-6.5,0.8c-0.5,0-0.9-0.1-1.1-0.4c-0.1-0.1-0.1-0.2-0.1-0.4
				c0-0.1,0.4-0.6,1.3-1.6c0.9-1.1,1.4-1.9,1.5-2.5c0.1-1.4,0.3-2.4,0.5-3c0.3-1,1-1.4,2.1-1c0.8-0.3,2.6-0.7,5.3-1.3
				c2.5-0.6,4-1.2,4.7-2c1.2-1.2,1.9-1.3,2.2-0.2c0.1,0.3,0.1,1.1,0.1,2.4c0,0.2-0.2,1.2-0.5,2.8
				C-223.8-525.9-224.1-524.9-224.2-524.4z M-187.6-528.3c-0.5,0.1-1,0.4-1.5,0.7c-4.5,3.1-9.3,5.5-14.4,7.2l-2.3-8.8
				c2.9-0.7,6.5-2.2,10.6-4.5c1.7-1,3.2-1.9,4.6-2.9L-187.6-528.3z M-230.3-513c0.5,1.1,1,2.1,1.6,3c0.4,0.7,0.9,1.3,1.3,1.9
				c-3.5,3.1-7.5,4.9-12.1,5.3c0-0.1,0-0.2-0.1-0.2c-1.7-2.6-3-5.3-4.1-8.2c4.9,0.1,9.2-0.4,12.9-1.6
				C-230.6-512.9-230.4-513-230.3-513z M-205.9-507.1c0,0.3-1.6,2.7-4.8,7.3c-3.3,4.7-5.2,7.1-5.7,7.1c-0.4,0-2.7-1.8-6.7-5.4
				c0-0.2,1.2-1.5,3.5-3.8c2.4-2.8,3.8-5.3,4.2-7.7C-209-508.3-205.9-507.5-205.9-507.1z M-172.7-510.3l-0.5,11.4
				c-3.9-2.8-8.8-3.7-14.4-2.5c-1.3,0.2-2.1,0.6-2.4,1l0.8-7.2c4.8-2.5,10.3-3.4,16.3-2.7C-172.9-510.3-172.8-510.3-172.7-510.3z
				 M-232.5-477.8c-0.9,1.1-1.6,2.1-2.1,2.9c-0.6,0.6-1,0.9-1.3,0.9c-0.7,0-2.2-0.7-4.5-2c-2.2-1.3-3.3-2-3.3-2.1
				c0-0.3,1.1-1.3,3.3-3c2-1.5,3.2-2.5,3.7-2.8c0.3-0.2,0.6-0.4,0.9-0.6c0.5-0.3,0.9-0.5,1.2-0.7c1.3-0.8,2.3-1.3,2.9-1.6
				c0.3-0.1,0.5-0.3,0.8-0.4c1.1,0.1,2.3,0.1,3.5,0.1h4.5c0.3,0,0.7-0.1,1-0.1c0,0,0,0,0,0.1c-2.4,1.4-4.7,3.1-6.8,5.1
				C-229.5-481.3-230.8-479.9-232.5-477.8z M-262.1-609.5l-0.5,11.4c-3.9-2.8-8.8-3.7-14.4-2.5c-1.3,0.2-2.1,0.6-2.4,1l0.8-7.2
				c4.8-2.5,10.3-3.4,16.3-2.7C-262.2-609.5-262.2-609.5-262.1-609.5z M-285.5-590.8c0.3,0.1,0.5,0.4,0.6,0.6c0,0-0.2,1-0.7,2.9
				c-0.5,2-0.8,3.1-0.8,3.4c0,0.2-0.2,1-0.7,2.3c-0.4,1.1-0.6,1.8-0.8,2.2c0,0.1-0.1,0.4-0.2,0.9c-0.1,0.6-0.2,1-0.3,1.4
				c-0.4,1.2-1.2,1.8-2.4,1.8c-1.1,0-2.2-0.1-3.3-0.2c-2.2-0.2-3.2-0.5-3.2-0.9c0.6-1.8,1.2-3.6,1.8-5.7c1.2-4,1.8-6.7,1.8-7.9
				c0-0.1-0.1-0.3-0.3-0.4c0.1-0.3,0.2-0.7,0.3-1.1c0.1,0,0.1,0,0.2,0c0.1,0,0.2,0,0.3-0.1c0.1-0.1,0.2-0.1,0.3-0.1
				c0,0,0.8,0.1,2.3,0.4C-288.7-591-287.1-590.9-285.5-590.8z M-244.6-591.6h4.5c0.3,0,0.7-0.1,1-0.1c0,0,0,0,0,0.1
				c-2.4,1.4-4.7,3.1-6.8,5.1c-0.9,0.8-2.1,2.3-3.8,4.3c-0.9,1.1-1.6,2.1-2.1,2.9c-0.6,0.6-1,0.9-1.3,0.9c-0.7,0-2.2-0.7-4.5-2
				c-2.2-1.3-3.3-2-3.3-2.1c0-0.3,1.1-1.3,3.3-3c2-1.5,3.2-2.5,3.7-2.8c0.3-0.2,0.6-0.4,0.9-0.6c0.5-0.3,0.9-0.5,1.2-0.7
				c1.3-0.8,2.3-1.3,2.9-1.6c0.3-0.1,0.5-0.3,0.8-0.4C-247-591.6-245.8-591.6-244.6-591.6z M-277.2-575.4
				C-277.2-575.4-277.2-575.4-277.2-575.4c0.2-0.1,0.4-0.1,0.6-0.1c1-0.2,2.3-0.3,3.7-0.3c3.7,0,6.8,0.5,9.3,1.5c0,0.1,0,0.2,0,0.4
				c-0.1,0.8,0,1.6,0.1,2.4c0,0.1,0,0.7,0.1,1.9c0,1.2,0,2.2,0,2.8c-2.5-0.7-4.6-1.1-6.4-1.4l-7,0c-0.2-0.3-0.4-0.7-0.5-1.2
				L-277.2-575.4C-277.3-575.4-277.2-575.4-277.2-575.4z M-311.4-612.7c4-2.1,8.5-2.8,13.5-2.2c0.1,0,0.1,0,0.2,0l-0.4,9.4
				c-3.3-2.4-7.3-3-12-2.1c-1,0.2-1.7,0.5-2,0.8L-311.4-612.7z M-344.7-575.6l4.6-0.1c-1.9,2.9-3.9,6.5-5.9,10.8
				c-0.8-0.5-1.7-0.9-2.6-1.3c-0.2-0.1-0.4-0.2-0.6-0.2c0.3-1.1,0.6-1.8,0.7-2c0.5-1.1,1.6-3.2,3.3-6.3
				C-345-574.9-344.8-575.3-344.7-575.6z M-327.1-593.2c0.7-0.4,1.7-0.7,3-0.7c4.5,0,8.7,0.2,12.8,0.6c-0.4,0.7-0.7,1.5-0.9,2.3
				c-0.4,1.2-0.5,2.6-0.5,4.2l-3.4-1.1l-11.6,0.2L-327.1-593.2z M-310.1-576.5c0.4,2.1,1.1,4.1,2.1,6.2c0.4,0.8,0.8,1.5,1.1,2.2
				c-5-0.1-9.8,1.2-14.2,3.9c-1.4,0.8-2.1,1.8-2.1,2.9l-2.2-8.6c4.2-4.2,9.3-6.3,15.4-6.4C-310.1-576.3-310.1-576.4-310.1-576.5z
				 M-308.3-547.8l-0.2,7.2c-0.5-0.2-0.9-0.4-1.5-0.6c-5.1-1.5-10.1-1.7-15.1-0.6c0-0.1,0.1-0.2,0.1-0.3c0.1-0.2,0.3-0.9,0.5-2.1
				c0.2-0.9,0.5-1.7,1-2.2c1.5-1.6,5.2-2.3,11.2-2.2C-311.1-548.4-309.7-548.2-308.3-547.8z M-297.8-558.8l2-0.2
				c3.9-1.6,7.4-3.7,10.4-6.5c0.6-0.4,1.2-0.9,1.8-1.3c0.3,0.5,0.7,0.9,1,1.4c1.2,1.6,2.2,2.9,3.1,4c-3.5,4-8.1,6.6-13.8,7.9
				L-297.8-558.8z M-295.1-543.3c0-0.2,0.8-0.7,2.3-1.5c1.6-0.8,3.3-1.5,5.1-2.1c3.2-1.2,5.4-1.7,6.5-1.5c-1.6,0.5-3.5,1.4-5.8,2.7
				c-2.4,1.4-4.6,2.9-6.4,4.4c-0.1,0.1-0.3,0.2-0.4,0.3c-0.1,0-0.3,0-0.4,0c-0.3,0-0.5-0.4-0.8-1.1
				C-295-543-295.1-543.3-295.1-543.3z M-319.2-527.1c0.1,0.1,0.1,0.1,0.2,0.2c0.5,0.5,1.3,1.4,2.5,2.7c1,1,2.8,2.6,5.3,4.7
				c2.2,1.8,3.3,2.7,3.3,2.8c0,0.2-0.7,0.8-2.1,1.9c-1.4,1.1-2.3,1.6-2.5,1.6c-0.1,0-0.2,0-0.4-0.1c-0.5-0.6-1.2-1.4-2-2.4
				c-2.4-2.9-3.9-4.7-4.5-5.4c-0.3-0.4-0.8-1.2-1.6-2.3c-0.1-0.1-0.2-0.2-0.3-0.4c0.2-0.7,0.4-1.1,0.4-1.2c0-0.1,0.5-0.7,1.4-1.8
				C-319.4-526.9-319.3-527-319.2-527.1z M-339.5-542.9c-0.1,0-0.1,0.1-0.2,0.2c-1.1,1-1.6,1.6-1.7,1.6c-0.5,0.4-1.2,1.2-2.4,2.4
				c-0.4-0.2-0.7-0.5-1.2-0.7c-4.5-2.8-7-4.5-7.3-5c-0.5-0.7-1.1-1.5-1.8-2.4c1.1-0.8,2.4-1.7,3.9-2.8c0.3-0.3,0.7-0.5,1-0.7
				C-346.6-547-343.4-544.5-339.5-542.9z M-335.4-535.6c1.4-0.3,2.3,0,2.7,0.9c0.1,0.3,0.4,0.9,0.8,1.8c0.2,0.6,0.4,1,0.5,1.2
				c-2.5,0.3-5,0.6-7.3,0.9h-1.1c-2.2,0.3-3.8,0.6-4.9,1c-0.6,0.1-1.2,0.2-1.7,0.4c0-0.1-0.1-0.1-0.1-0.2c-0.1-0.2-0.3-0.4-0.4-0.6
				c0.7-0.4,1.7-1,3-1.6c2.5-1.3,4.4-2.2,5.7-2.7C-336.6-535.2-335.6-535.5-335.4-535.6z M-339-517.4c1.2-1,2.5-2.2,4.1-3.5
				c1.1-1,2.1-1.8,3-2.6c0.5,2.2,1.5,4.2,3,6.1c2.6,3.3,5.4,6.4,8.5,9.2l1,0.5l-6.6,6.8c-1.4-1-2.6-2-3.8-3.2
				C-333.9-508.1-337-512.6-339-517.4z M-291.3-524.1l-0.5,1.5c-5.5,0-10.6-1-15.5-3c-2.1-0.9-3-1.5-2.8-1.8l1.4-5.9
				c5,2,10.8,2.7,17.6,2.3c0.1,0,0.2,0,0.3,0L-291.3-524.1z M-296.1-512.8c1.3-0.8,2.3-1.3,2.9-1.6c0.3-0.1,0.5-0.3,0.8-0.4
				c1.1,0.1,2.3,0.1,3.5,0.1h4.5c0.3,0,0.7-0.1,1-0.1c0,0,0,0,0,0.1c-2.4,1.4-4.7,3.1-6.8,5.1c-0.9,0.8-2.1,2.3-3.8,4.3
				c-0.9,1.1-1.6,2.1-2.1,2.9c-0.6,0.6-1,0.9-1.3,0.9c-0.7,0-2.2-0.7-4.5-2c-2.2-1.3-3.3-2-3.3-2.1c0-0.3,1.1-1.3,3.3-3
				c2-1.5,3.2-2.5,3.7-2.8c0.3-0.2,0.6-0.4,0.9-0.6C-296.8-512.4-296.4-512.7-296.1-512.8z M-260.9-540.2l-0.5,11.4
				c-3.9-2.8-8.8-3.7-14.4-2.5c-1.3,0.2-2.1,0.6-2.4,1l-0.1,0.8c-0.1-0.3-0.1-0.6,0.1-0.8l0.8-7.2c4.8-2.5,10.3-3.4,16.3-2.7
				C-261.1-540.2-261-540.2-260.9-540.2z M-362.9-555.2l3.9,3.2c-0.5,0.1-1,0.3-1.4,0.9c-2.2,2.9-4.7,6.1-7.4,9.6l-3.1-3.4
				c0-0.1,0-0.2,0.1-0.2C-368.7-549.2-366-552.5-362.9-555.2z M-355.9-565.6c-0.4,0.1-0.9,0.3-1.3,0.6c-3.8,2.6-7.8,4.6-12.1,6
				l-1.9-7.4c2.5-0.5,5.4-1.8,8.9-3.8c1.4-0.8,2.7-1.6,3.8-2.4L-355.9-565.6z M-399.1-515.6c0-1.2,0-1.8,0-1.9l0-10
				c0-0.1,0.4-0.4,1.2-0.8c0.9-0.5,1.8-0.9,2.7-1.2c1.1-0.4,2-0.6,2.6-0.5c-0.1,0.3-0.1,0.6-0.2,1v5.1c0.1,0.2,0.1,0.6,0.1,1
				c0,0.2,0,0.5-0.1,0.8c0,0,0,0.5-0.1,1.6c0,1.2,0,2.3,0.1,3.3c0.1,1.1,0.2,2,0.3,2.7c-0.3,0.2-0.7,0.2-1.2,0.2
				c-1.3-0.2-2.1-0.2-2.5-0.1c-0.3,0.1-0.7,0.2-1.2,0.5c-0.4,0.2-0.8,0.3-1,0.3C-398.8-513.7-399-514.4-399.1-515.6z M-264.4-510.3
				c1.7-1,3.2-1.9,4.6-2.9l3,8.4c-0.5,0.1-1,0.4-1.5,0.7c-4.5,3.1-9.3,5.5-14.4,7.2l-2.3-8.8C-272.1-506.4-268.6-507.9-264.4-510.3z
				 M-268.2-557.2c0.2-1.8,0.5-3,0.8-3.6c0.2,0.1,0.5,0.2,0.7,0.2c0.2,0.1,1.1,0.6,2.5,1.5l-0.1,5.5c0,0,0,0.5-0.1,1.4
				c0,0.2,0,0.4,0,0.6c-1.4-0.3-2.7-0.3-4.1-0.1C-268.4-553.7-268.3-555.5-268.2-557.2z M-253.8-546.8c0-0.4,0.8-0.9,2.4-1.6
				c1.7-0.7,3.2-1,4.5-1v-0.1h4.9c0.1,0,0.2,0.1,0.2,0.1c1.2,0.5,2.8,1,4.7,1.6c0.7,0.3,2,1,3.9,2c-1.7,0-3.6,0.1-5.8,0.5
				c-2.9,0.4-5.3,1.1-7.3,1.9c-2.1,0.8-3.1,1.6-3.3,2.5C-250-541.5-251.4-543.4-253.8-546.8z M-376.7-541.7c0.7,0.8,1.3,1.5,1.9,2
				c0,0.4-0.5,1-1.6,1.8c-0.5,0.4-1.2,0.9-1.8,1.4c-0.2,0.2-0.6,0.7-1.2,1.7c-0.7,0.9-1.2,1.4-1.6,1.4c-0.2-0.7-0.5-1.5-0.9-2.6
				c-1.1-3.3-1.8-5.5-2.2-6.7c-0.3-1.2-0.6-2.2-0.8-2.8c-0.2-0.6-0.3-1.1-0.4-1.6c0.3-0.2,0.5-0.4,0.9-0.7c1.2-0.9,2-1.4,2.4-1.6
				c1.4-0.8,2.2-0.9,2.4-0.1c0.1,0.4,0.2,1.1,0.2,2.2C-378.9-545.3-378-543.4-376.7-541.7z M-374-515.8c0.1-0.1,0.1-0.2,0.2-0.3
				c1.6-6.7,4-12.6,6.9-17.7l5.8,1.7c-0.7,1.1-1.2,2.2-1.6,3.5c-1.3,4.5-2.3,9.1-2.8,14c-0.7-0.1-1.5-0.2-2.3-0.3
				C-370-515.1-372.1-515.5-374-515.8z M-383.9-513.2l5.3,3.8c-0.5,0.5-1,1.1-1.6,1.8c-0.6,0.7-1.1,1.4-1.6,2.1
				c-3.5,2.5-5.7,6.1-6.7,10.7c-0.3-0.3-0.7-0.6-1.1-0.8c-0.4-0.3-0.9-0.7-1.3-1c-1.3-0.9-2.4-1.5-3.3-1.8l2.4-5.4
				c0.1-0.1,0.1-0.2,0.2-0.3c0.7-1.3,1.4-2.6,2.4-3.8C-387.7-509.9-386-511.6-383.9-513.2z M-350.5-509.5c1.5,1.6,3.2,3.2,5.2,4.7
				c1.1,0.9,2.1,1.6,2.9,2.1c0,0.2-0.8,1.1-2.4,2.7c-1.7,1.6-2.7,2.4-3,2.4c-0.2,0-0.7-0.6-1.6-1.7c-0.9-1.2-1.5-2.1-1.9-2.8
				c-0.5-0.9-0.8-1.7-1.1-2.2c-0.4-0.9-0.7-1.7-0.9-2.3c-0.1-0.2-0.5-1.9-1.4-5c0-0.1-0.1-0.3-0.1-0.4c0.9,0.6,1.8,1.1,2.6,1.5
				C-351.8-510.3-351.3-510-350.5-509.5z M-368.2-502.1c0.2,0.4,0.5,0.7,0.8,1.1c0.9,1.1,2.1,2.1,3.7,3c3.2,1.9,6.8,3.1,11,3.5
				l-1.8,7.1c-1.2-0.1-2.3-0.2-3.5-0.3c-6.8-0.8-11.8-3.6-15-8.5L-368.2-502.1z M-347.7-486c0.1-0.1,0.5-0.5,1.1-1.3
				c0.4-0.6,0.8-0.9,1.1-0.9c0.4-0.1,0.9,0.1,1.5,0.6c0.3,0.3,0.7,0.7,1.3,1.2c0.2,0.2,1.3,0.9,3.4,2.3c1.8,1.1,2.7,1.8,2.7,2.1
				c0,0.2-0.9,1.1-2.7,2.7c-1.6,1.5-3,2.6-4,3.4c-0.9,0.7-2.2,2-3.9,3.8c-1.3,1.5-2.1,2.2-2.3,2.2c-0.6,0-3.5-2.4-8.7-7.1
				c0-0.1,1.3-1.3,4-3.5C-351-483.2-348.8-485-347.7-486z M-405.1-490.9c-1.6,0.5-2.9,1-4.1,1.3c-2.2,0.7-3.6,1-4.1,1
				c-0.7,0-2.6-1.7-5.6-5.2c-2.9-3.5-4.4-5.2-4.4-5.2c0-0.3,0.1-0.4,0.3-0.6c0.5-0.3,1.5-0.3,3.1-0.1l4.1,0c0.8,0,1.6-0.1,2.4-0.1
				c0.5,0,1,0.1,1.5,0.2h8.9c0.1,0.2,0.2,0.4,0.4,0.7c0.3,0.5,0.6,0.9,1.1,1.3c0.2,0.3,0.9,1.1,2,2.4c1,1.1,1.5,1.7,1.5,1.8
				c0,0.6-0.6,1-1.8,1.3C-403.1-491.4-404.9-491-405.1-490.9z M-257.8-488c-0.3-0.5-0.6-1.1-1.1-1.8c-1.3-1.7-2.1-2.9-2.5-3.4
				c3.8-3.3,8.7-5.2,14.6-5.6l2.2,9.1c-0.8,0.1-1.6,0.2-2.5,0.2C-250.8-489.7-254.4-489.2-257.8-488z M-282.1-476.8
				c-1.1-1.2-2-2.3-2.7-3.1c0.1-0.2,0.2-0.3,0.4-0.5c0.4-0.6,0.9-1.2,1.4-1.8c0.1-0.1,0.3-0.5,0.5-1.1c0.3-0.6,0.6-1.1,0.9-1.4
				c0.8-1,1.6-0.8,2.3,0.7c0.5,0.5,1.2,1.2,2.2,2.2c0.9,0.9,1.8,1.7,2.7,2.4c1.9,1.5,3.8,2.5,5.7,3.1c0.5,0.1,1,0.3,1.6,0.4
				c0.4,0.1,0.5,0.3,0.5,0.5c0,0.1-0.2,0.9-0.7,2.2c-0.5,1.5-0.8,2.4-0.9,2.6c-0.1,0.3-0.2,1.2-0.2,2.6c-0.1,1.3-0.4,1.9-0.9,1.9
				c-5-3.7-8.8-6.7-11.7-9.2C-281.3-475.8-281.7-476.3-282.1-476.8z M-312.8-496.9c4.8,4.5,10.4,6.8,17,6.9c0.6,0,1.1,0,1.7,0
				c-0.3,2.2-1,4.1-2.1,5.7c-0.6,0.9-1,1.9-1.1,3.1c-5.4,0.4-10.2-0.8-14.3-3.4c-2.7-1.7-4.5-3.7-5.6-5.9L-312.8-496.9z M-307-474.6
				h3.7l0.5-0.1c0.5,0,0.8,0.1,0.9,0.4c0.1,0.1,0.1,0.3,0.1,0.4c0,0.1-0.3,0.8-0.8,1.9c-0.5,1.2-0.8,2-0.9,2.2
				c-0.1,0.3-0.3,1-0.6,2.2c-0.4,1.1-0.8,1.6-1.4,1.6c-0.7,0-3-0.9-7-2.8c-0.3-0.1-1.5-0.6-3.6-1.4c-1.2-0.4-2-0.9-2.3-1.4
				c0.6-0.4,1.3-1,2-1.9c0.6-0.8,1-1.5,1.3-2.3c0.3-0.7,0.7-1.1,1.3-1.2c0.5-0.1,1.1,0,1.9,0.4c0.5,0.2,1.2,0.5,2.3,1.1
				C-308.6-475-307.7-474.7-307-474.6z M-332-484.7c1.2-1,1.8-1.5,1.9-1.6c0.8-0.8,1.6-1,2.4-0.5c0.2,0.1,0.6,0.4,1.1,0.8
				c0.5,0.3,0.9,0.5,1.4,0.6c0.7,0.3,2.1,1.1,4.2,2.5c2.4,1.6,3.6,2.6,3.6,3.1c0,0.4-0.4,0.7-1.3,1.1c-1.4,0.6-2.3,1-2.5,1.2
				c-0.1,0.1-0.7,0.4-1.6,1.1c-1,0.6-1.6,1-1.9,1c-0.2,0-0.8-0.6-1.7-1.7c-1-1.2-1.6-2-1.9-2.3c-0.1-0.1-0.9-0.8-2.4-2
				c-1.3-1.1-2-1.7-2-2C-332.8-483.8-332.6-484.2-332-484.7z"/>
		</g>
	</g>
	<g transform="matrix(1,0,0,1,-60.25,171.25)">
		<g transform="matrix(1,0,0,1,0,0)">
			<g transform="matrix(1,0,0,1,0,0)">
				<g transform="matrix(1,0,0,1,1177.531005859375,503.74700927734375)">
					<path class="st2" d="M-378.1-489.1c-1.1,0.6-2.3,1-3.6,1.3c-1.3,0.3-2.6,0.3-3.8,0c-1.2-0.2-2.5-1.2-4.1-2.9
						c0.1-0.1,0.1-0.3,0.2-0.4l0.9-2.3c0.8-6.2,1.8-8.9,3-8c1.2,0.8,2.3,1.2,3.3,1c1-0.2,1.8-0.2,2.1,0.1c0.4,0.2,0.5,1,0.3,2.4
						c-0.2,1.4-0.1,2.8,0,4.5C-379.7-493.3-379.1-491.8-378.1-489.1z"/>
				</g>
				<g transform="matrix(1,0,0,1,1197.81396484375,537.7459716796875)">
					<path class="st3" d="M-409.9-524.8c1.6,1.7,3,2.7,4.1,2.9c1.2,0.3,2.4,0.3,3.8,0c1.3-0.2,2.5-0.7,3.6-1.3
						c0,0.2,0.3,0.9,1.1,2.1c0.6,0.9,1.2,1.8,1.9,2.5c0,0.3-0.1,0.7-0.5,1.2c-0.3,0.4-0.7,0.7-1.1,0.8l-0.6,0.1
						c0.2,0.2,0.4,0.4,0.6,0.6c0.4,0,0.9-0.2,1.5-0.5c0.5-0.3,0.8-0.8,0.6-1.5c0.5,0.5,1,1,1.5,1.5c0.1,0.5-0.1,0.9-0.4,1.3
						c-0.3,0.3-0.9,0.6-1.7,0.8c0.2,0.2,0.4,0.5,0.6,0.7c0,0,0,0,0.1,0c1.9-0.6,2.6-1.3,2-2.3c0.3,0.3,0.6,0.5,1,0.8l4.7,3.3
						c3.7,2,6.1,3.4,7.2,4.2c1.1,0.8,1.4,1.5,0.9,2.1c-0.5,0.6-0.9,0.9-1.4,1c-0.5,0.1-1.1,0.1-2,0c-0.8-0.1-5.5-1.1-13.9-3
						c-1.2-0.5-2.2-0.9-2.9-1.4c-0.5-0.4-1.1-0.9-1.8-1.5c-0.4-0.4-0.7-0.7-0.9-0.8c0,0,0,0,0,0.1c0,0.3-0.1,0.7-0.2,1.2
						c-0.1,0.4-0.1,0.7-0.2,0.7c0,0-1-0.2-2.9-0.5c-1.9-0.3-4.4-1-7.6-2l0-0.6c0-0.4,0.1-1.5,0.3-3.4
						C-412-517.8-411.2-520.9-409.9-524.8z M-396.6-519.4c0-0.3,0-0.4,0-0.5c-0.1-0.1-0.1-0.2-0.2-0.2c-0.1,0.4-0.5,0.7-1,1
						c-0.6,0.3-1.1,0.4-1.6,0.5c0.2,0.2,0.4,0.5,0.6,0.8c0.3,0,0.8-0.3,1.3-0.6C-396.9-518.9-396.6-519.2-396.6-519.4z"/>
				</g>
				<g transform="matrix(1,0,0,1,1197.1700439453125,532.27001953125)">
					<path class="st4" d="M-392.7-510.8c0.2,0.2,0.4,0.3,0.6,0.5c0.5,1-0.1,1.7-2,2.3c0,0-0.1,0-0.1,0c-0.2-0.2-0.4-0.5-0.6-0.7
						c0.8-0.2,1.4-0.5,1.7-0.8C-392.7-509.9-392.6-510.3-392.7-510.8z M-394.7-513c0.2,0.2,0.4,0.5,0.6,0.7c0.1,0.7-0.1,1.2-0.6,1.5
						c-0.6,0.3-1.1,0.5-1.5,0.5c-0.2-0.2-0.4-0.4-0.6-0.6l0.6-0.1c0.4-0.1,0.7-0.3,1.1-0.8C-394.8-512.2-394.7-512.6-394.7-513z
						 M-395.9-513.9c0,0.2-0.3,0.5-0.9,0.9c-0.6,0.4-1,0.6-1.3,0.6c-0.2-0.3-0.4-0.5-0.6-0.8c0.5-0.1,1-0.2,1.6-0.5
						c0.6-0.3,0.9-0.6,1-1c0,0.1,0.1,0.1,0.2,0.2C-395.9-514.4-395.9-514.2-395.9-513.9z"/>
				</g>
			</g>
		</g>
	</g>
	<g transform="matrix(1,0,0,1,1093.6180419921875,404.9949951171875)">
		<g transform="matrix(1,0,0,1,0,0)">
			<path class="st5" d="M-360.9-343.4c0,0,0.1,0.1,0.1,0.1c0.4,0.3,0.9,0.6,1.4,1c0,0.5-0.1,0.8-0.1,1c-0.1,0.7-0.5,1.1-1.1,1.1
				c-1.3-0.5-2.6-0.9-3.8-1.4c-2.6-0.9-4.1-1.4-4.5-1.4c-1.3,0-2.3,0.4-3.2,1.1c-0.1,0.3-0.2,0.6-0.2,1c0,0.9,0.3,1.6,1,2.1
				c0.3,0.2,0.6,0.4,0.9,0.5c1.2-0.6,2.5-1.1,3.8-1.6c3.9-1.3,5.9-1,5.9,1c0,0.4-0.3,0.8-0.9,1.2c-0.2,0.1-0.9,0.5-2.1,1.2
				c-2.3,1.3-3.9,2.7-4.8,4.2c-0.8,1.4-1.7,2.5-2.7,3.4c-1.7,1.6-3.6,2.5-5.5,2.5c-0.3,0-0.7,0-0.9-0.1c-1.3-0.2-2.3-1-3.1-2.5
				c0.3-0.2,0.6-0.6,0.7-1c0.2-0.4,0.2-1.2,0.2-2.4c0-0.3-0.1-1.5-0.3-3.6c-0.2-2.2-0.3-3.4-0.3-3.6c0,0,0-0.5,0-1.3
				c0.1-1,0.3-1.8,0.8-2.6c0.1-0.2,0.2-0.4,0.4-0.6c0.1-0.1,0.2-0.2,0.4-0.3c1.7-1.2,3.8-2.1,6.3-2.8c0.5,0,1-0.1,1.6-0.1
				c1.8,0,3.6,0.4,5.4,1.2C-364-345.4-362.5-344.5-360.9-343.4z"/>
		</g>
	</g>
	<g transform="matrix(1,0,0,1,-53.99993896484375,171.99996948242188)">
		<g transform="matrix(1,0,0,1,0,0)">
			<g transform="matrix(1,0,0,1,1111.04296875,431.2460021972656)">
				<path class="st6" d="M-369.4-429.2c-3.5-1.2-7.7-2.7-12.7-4.6c2.2-3.1,4.2-6.4,6.2-9.9c4.8-8.7,10.7-17.7,17.7-27.1
					c7-9.4,14-14.4,21.2-15c15.9-0.4,23.2,12.7,21.8,39.3c-1.1,15.7-2.3,24.3-3.4,26c-0.5,0.6-1.1,0.9-1.9,0.9c-0.4,0-0.8,0-1.1,0
					c0.7-4,0.9-8.1,0.7-12.4c-0.5-9-1.3-18-2.2-26.9c-0.4-4.2-2.2-7.8-5.2-10.8c-1.9-1.8-4.2-2.9-6.8-3.1c-2.2-0.2-4.3,0.2-6.2,1.2
					c-0.7,0.6-1.5,1.2-2.3,1.8c-3.4,2.4-6.5,5.4-9.2,8.8c-2.7,3.3-5.1,6.9-7.2,10.6c-2.1,3.8-4.2,7.6-6.2,11.6
					C-368-435.4-369-432.2-369.4-429.2z"/>
			</g>
			<g transform="matrix(1,0,0,1,1119.3389892578125,446.8999938964844)">
				<path class="st7" d="M-377.7-444.8c0.3-3,1.4-6.2,3.1-9.6c2-3.9,4.1-7.8,6.2-11.6c2.1-3.8,4.5-7.3,7.2-10.6
					c2.8-3.4,5.9-6.3,9.2-8.8c0.8-0.6,1.5-1.2,2.3-1.8c1.9-1,3.9-1.4,6.2-1.2c2.6,0.2,4.9,1.3,6.8,3.1c3,3,4.8,6.5,5.2,10.8
					c0.9,8.9,1.6,17.9,2.2,26.9c0.3,4.3,0,8.4-0.7,12.4c-1.8,0-3.4,0-4.7-0.1c-2.5-0.1-4.2-0.3-5.1-0.6c-0.1,0-0.2-0.1-0.3-0.1
					c0.1-10.4,0.2-16.4,0.3-17.8c0-0.6,0-1.6-0.1-3c-0.2-2.4-0.5-6.2-1-11.1c-0.8-7.9-2.2-12.1-4.1-12.6c-1.9-0.5-3.9,1.1-5.9,4.6
					c-1.3,3-6.3,14.4-15,34C-367-441.6-370.9-442.5-377.7-444.8z M-365.7-442C-365.1-443-365-443-365.7-442
					C-365.7-442.1-365.7-442-365.7-442z"/>
			</g>
		</g>
	</g>
	<g transform="matrix(1,0,0,1,1018.2320556640625,475.0360107421875)">
		<g transform="matrix(1,0,0,1,0,0)">
			<path d="M-337.5-351c-3.6,1.7-8,0.6-13.4-3.4c-5.3-4-5.6-6.9-0.8-8.8c25.1-7,40.7-21,47-42.2c2.2,3.1,4.9,5.4,8,6.9
				c-2.9,22.9-16.4,38.7-40.2,47.3C-337.2-351.1-337.3-351-337.5-351z"/>
		</g>
	</g>
	<g transform="matrix(1,0,0,1,-54,172)">
		<g transform="matrix(1,0,0,1,0,0)">
			<g transform="matrix(1,0,0,1,1276.010009765625,648.9240112304688)">
				<path class="st3" d="M-464.5-583.4c2.5,0.4,4.3,0.3,5.5-0.3c1.1-0.6,2.2-1.4,3.2-2.6c1-1.1,1.8-2.3,2.3-3.6
					c0.1,0.2,0.9,0.6,2.3,1.1c1.1,0.4,2.2,0.7,3.2,0.9c0.3,0.3,0.4,0.7,0.4,1.3c0,0.6-0.1,1.1-0.4,1.4l-0.5,0.5
					c0.3,0,0.6,0.1,0.9,0.2c0.4-0.3,0.7-0.8,1-1.5c0.3-0.6,0.1-1.2-0.4-1.7c0.7,0.1,1.5,0.2,2.2,0.3c0.4,0.4,0.5,0.8,0.5,1.3
					c-0.1,0.5-0.4,1.2-1,1.9c0.3,0,0.6,0.1,1,0.2c0,0,0,0,0.1,0c1.3-1.8,1.4-2.9,0.3-3.4c0.4,0,0.9,0.1,1.3,0.1l6.2-0.3
					c4.5-0.8,7.4-1.2,8.8-1.3c1.4,0,2.1,0.3,2.1,1.2c0,0.8-0.2,1.4-0.6,1.8c-0.4,0.4-1,0.8-1.7,1.4c-0.8,0.5-5.4,2.8-13.9,6.9
					c-1.3,0.4-2.4,0.7-3.3,0.8c-0.7,0-1.6,0-2.6-0.1c-0.6,0-1-0.1-1.3-0.1v0c0.2,0.3,0.4,0.7,0.7,1.1c0.2,0.4,0.3,0.7,0.4,0.7
					c0,0-1,0.6-2.8,1.6c-1.8,1-4.4,2.2-7.8,3.4l-0.3-0.5c-0.3-0.4-0.9-1.4-1.9-3.1C-462-576-463.2-579.2-464.5-583.4z M-449.8-586.5
					c0.3-0.7,0.3-1.1,0.2-1.4c-0.2-0.2-0.3-0.4-0.4-0.4c-0.1,0-0.2-0.1-0.3-0.1c0.1,0.4,0,1-0.3,1.6c-0.3,0.6-0.7,1.1-1.1,1.5
					c0.3,0.1,0.6,0.2,1,0.2C-450.4-585.3-450.1-585.8-449.8-586.5z"/>
			</g>
			<g transform="matrix(1,0,0,1,1270.2919921875,634.0479736328125)">
				<path class="st4" d="M-441.4-572.7c0.5,0.5,0.7,1.1,0.4,1.7c-0.3,0.6-0.6,1.1-1,1.5c-0.3-0.1-0.6-0.1-0.9-0.2l0.5-0.5
					c0.3-0.3,0.4-0.8,0.4-1.4c0-0.6-0.1-1-0.4-1.3C-442-572.9-441.7-572.8-441.4-572.7z M-439.1-572.5c0.3,0,0.6,0,0.8,0
					c1.1,0.5,1,1.6-0.3,3.4c0,0-0.1,0-0.1,0c-0.4-0.1-0.7-0.1-1-0.2c0.6-0.8,0.9-1.4,1-1.9C-438.6-571.6-438.8-572.1-439.1-572.5z
					 M-444.1-571.6c-0.3,0.7-0.5,1.2-0.8,1.4c-0.3-0.1-0.7-0.1-1-0.2c0.4-0.4,0.7-0.9,1.1-1.5c0.3-0.6,0.4-1.1,0.3-1.6
					c0.1,0,0.2,0.1,0.3,0.1c0.1,0,0.2,0.2,0.4,0.4C-443.8-572.7-443.9-572.3-444.1-571.6z"/>
			</g>
			<g transform="matrix(1,0,0,1,1237.551025390625,623.1669921875)">
				<path class="st2" d="M-426-557.6c-0.1-0.2-0.1-0.3-0.1-0.5l-0.7-2.5c-3.2-5.9-4-8.9-2.5-8.9c1.5-0.1,2.7-0.5,3.5-1.4
					c0.8-0.9,1.4-1.4,1.9-1.4c0.5,0,1.1,0.6,1.8,1.9c0.7,1.3,1.7,2.5,2.8,3.8c0.3,0.2,1.7,1.1,4.3,2.7c-0.5,1.3-1.3,2.5-2.3,3.6
					c-1,1.1-2.1,2-3.2,2.6C-421.8-557.3-423.6-557.2-426-557.6z"/>
			</g>
		</g>
	</g>
	<g transform="matrix(1,0,0,1,-54,172)">
		<g transform="matrix(1,0,0,1,0,0)">
			<g transform="matrix(1,0,0,1,1114.0789794921875,545.7379760742188)">
				<path class="st6" d="M-298.3-484.4c-0.2-0.4-0.4-0.8-0.7-1.2c-2-3.7-4.3-7.2-7-10.5c-2.9-3.6-6.1-7-9.7-9.9
					c-4.3-3.6-9-6.8-13.9-9.5c-4.4-2.4-8.9-4.3-13.6-5.6c-6.2-1.7-12.3-3.3-18.5-4.8c-5.5-1.3-11-2.7-16.4-4
					c-4.6-1.1-9.1-2.2-13.6-3.4c-3.7-1-7.1-2.5-10.4-4.4c-0.9-0.5-1.7-1.1-2.5-1.6c-0.5-1.2-0.9-2.4-1.2-3.6
					c-0.4-1.6-0.7-2.9-0.9-4.1c-0.8-6,1.8-8.5,7.8-7.6l1.8,0.3c0.4,0,1,0.1,1.8,0.1c0.9,0,1.8,0,2.5,0.1l2,0.3c0.2,0,0.3,0,0.4,0
					l2,0.4l0.2,0h0.1l6.5,1.3l0.4,0.2l7.1,1.5c7.4,1.4,15.9,4.2,25.7,8.3c10.2,4.3,17.4,8.4,21.6,12.1c3,2.7,5.9,5.4,8.6,8.2
					c2.3,2.4,4.7,5,7,7.9c2.6,3.1,7,8.8,13.1,17.2c1.8,2.4,3.3,4.5,4.5,6.3c-0.2,2-1.7,4-4.3,6.1
					C-298.2-484.5-298.3-484.4-298.3-484.4z"/>
			</g>
			<g transform="matrix(1,0,0,1,1111.4429931640625,567.0700073242188)">
				<path class="st7" d="M-402-560.7c0.8,0.6,1.6,1.1,2.5,1.6c3.3,1.9,6.8,3.4,10.4,4.4c4.4,1.2,9,2.3,13.6,3.4
					c5.4,1.3,10.8,2.6,16.4,4c6.2,1.5,12.3,3,18.5,4.8c4.7,1.3,9.3,3.2,13.6,5.6c5,2.8,9.6,5.9,13.9,9.5c3.6,3,6.9,6.3,9.7,9.9
					c2.6,3.3,5,6.8,7,10.5c0.2,0.4,0.4,0.8,0.7,1.2c-2.5,2-4.4,2.6-5.8,2c-1.4-0.7-2.7-1.7-4.1-3.2c-1.9-2.2-3.6-4-5-5.5
					c-5.9-6.2-12-11.6-18.3-16.1c-3.1-2.2-6.9-4.4-11.5-6.6c-2.4-1.2-6.1-2.8-11-4.7c-2.9-1.2-6.8-2.5-11.7-3.9
					c-5.4-1.6-13.3-3.7-23.7-6.3l-6.3-1.3l-0.2,0l-2.3-0.5c-2.2-0.9-4.2-3.4-6-7.6C-401.6-559.7-401.8-560.2-402-560.7z"/>
			</g>
		</g>
	</g>
	<g transform="matrix(1,0,0,1,-54,172)">
		<g transform="matrix(1,0,0,1,0,0)">
			<g transform="matrix(1,0,0,1,991.0419921875,402.22698974609375)">
				<path d="M-260.7-445.7l-2-4.1c0,0,0,0.1,0,0.1c0,0.5-0.4,1.8-1.1,3.9c1.4,2.1,2.2,3.6,2.6,4.5c0.1,0.3,0.2,0.6,0.2,0.7
					c0,0.3-0.1,0.4-0.3,0.5c-0.1,0-0.1,0-0.2,0c-0.3,0-1.2-1.4-2.8-4.2c-0.6,1.5-1.2,3.2-2.1,5.3c1.3,1.8,2.4,3.6,3.3,5.4
					c0.5-1.4,1-2.8,1.5-4.1c0,0.1,0,0.2,0,0.3c0,0.1,0,0.8,0,2.2c0,1.6,0.2,3,0.5,4.2c0.7,3,3.2,5.4,7.5,7.4c4,1.8,4.2,5.1,0.6,10.1
					c-3.7,5-8.2,9.1-13.5,12.3c-3.9,2.3-8.6,4-14,4.9c-2.5,0.1-4.5,0-5.9-0.3c-3.6-1.1-6.3-4.8-8.1-11c-1.9-6.2-3.1-11.9-3.7-17
					c-0.6-5.1-1-8.2-1.3-9.2c-0.3-1-0.5-1.9-0.8-2.8c0.2,0,0.5-0.1,0.7-0.1c0.1,0,0.1,0,0.2,0c0.8,0.8,1.7,1.6,2.5,2.4
					c0.2-0.7,0.5-1.8,0.9-3.2c0.3-0.9,0.5-1.6,0.7-2.3l-4-4.1c-0.5,1.9-1,3.9-1.4,5.8c-0.1-0.4-0.3-0.8-0.4-1.3
					c0-0.1-0.1-0.2-0.1-0.3c-2-6.5-3.6-12.1-4.8-16.7c-1.7-6.7,2.4-10.5,12.4-11.6l-0.1-0.1l0.1,0.1l0.1,0c-0.2-0.1-0.2-0.2-0.2-0.3
					c0,0,0.1,0,0.4,0.1c-0.8-2.6-0.6-4.9,0.6-7.1c1.5-2.7,4.8-3.2,9.9-1.3c1.2,0.4,2.3,0.8,3.3,1c0-0.1,0.1-0.1,0.2-0.2
					c0,0.1,0,0.1,0,0.2c3.3,0.8,5.8,0.6,7.4-0.6c4.3-0.8,6.3,0.9,6,5.1c-0.1,1.2-0.4,2.6-0.8,4.2c1.1,0.3,2.1,0.6,2.9,1.1
					c0.2,0.1,0.4,0.3,0.6,0.4c1.3,1,2.3,2.4,3,4c0.2,0.6,0.4,1.2,0.5,1.9c0.1,0.4,0.1,0.8,0.2,1.2c0,2.1-0.1,4.9-0.3,8.3
					c0,0.4-0.1,1-0.2,1.7c0,0.3-0.1,0.6-0.1,0.9c0,0.3-0.1,0.5-0.1,0.7c-0.1,0.2-0.1,0.3-0.2,0.5
					C-260.6-446-260.6-445.9-260.7-445.7z M-267.8-451.9c0.7,1.1,1.7,2.4,2.8,4.1c0.2,0.3,0.4,0.6,0.6,0.9c0.1-0.3,0.2-0.5,0.3-0.8
					c0.4-1.1,0.8-2,1.2-2.8l-2.7-5.5C-266.5-454.7-267.2-453.3-267.8-451.9z M-271-444.4c-0.5-1.1-0.9-2.1-1.4-3.2
					c-0.2,0.5-0.5,1.1-0.8,1.7c-0.3,0.7-0.6,1.4-0.9,1.9c0.5,0.5,0.9,1.1,1.4,1.7c0.4,0.4,0.8,0.9,1.2,1.5c0.3-1,0.7-1.9,1-2.8
					c0-0.1,0.1-0.1,0.1-0.2c1.1,1.2,2.1,2.5,3.1,3.8c0.4-0.9,0.7-1.7,1-2.4c0.1-0.2,0.4-1.2,1.1-3.1c-0.3-0.6-0.7-1.2-1-1.8
					c-0.9-1.5-1.6-2.8-2.1-3.9c-1,2.5-1.8,5-2.4,7.5C-270.7-443.8-270.8-444.1-271-444.4z M-273.3-449.4c-0.7-1.5-1.5-2.9-2.4-4.2
					c-1.1,1.5-2,3.1-2.8,4.7c0.4,0.5,0.9,1.1,1.4,1.7c0.6,0.6,1.2,1.2,1.9,1.9C-274.5-446.9-273.8-448.3-273.3-449.4z M-283.7-444.8
					c-0.3,0.9-0.6,1.7-0.9,2.4c0.5,0.6,1.1,1.2,1.6,1.8c1,1.2,1.9,2.2,2.7,3.1c0-0.1,0.1-0.3,0.1-0.4l0.1-1.4c0,0,0.1,0,0.1,0
					c0,0,0.1,0,0.1,0c0.1-0.5,0.2-1.1,0.3-1.6c0-0.1,0-0.1,0.1-0.2c0.6,0.8,1.1,1.6,1.7,2.4c0.4-1,0.8-2.1,1.3-3.4
					c0.2-0.5,0.4-1,0.6-1.5c-0.5-0.4-1.2-1.2-1.9-2.1c-0.5-0.6-0.9-1.2-1.2-1.8c-0.5,1.2-1,2.5-1.3,3.8c-0.6-0.5-1.1-1.1-1.5-2
					c-0.3-0.6-0.6-1.1-0.9-1.7C-283-446.6-283.3-445.8-283.7-444.8z M-276.5-436.9c1.1,1.5,2.2,3,3.3,4.4l0.8-4.8
					c0.2-0.6,0.4-1.3,0.6-1.9c-0.3-0.3-0.5-0.7-0.8-1.1c-0.7-0.8-1.3-1.7-1.9-2.4c-0.5,1.1-0.8,1.8-0.8,1.9
					C-275.8-439.3-276.2-438-276.5-436.9z M-286.6-451.1c-0.8,1.5-1.5,3-2.1,4.5c0.9,0.8,2,1.9,3.2,3.2c0.4-1.1,0.7-2,1-2.6
					c0.4-0.9,0.7-1.7,1.1-2.3c-0.9-1.4-1.9-2.7-2.9-3.9C-286.3-451.7-286.4-451.4-286.6-451.1z M-288.3-445.8
					c-0.2-0.2-0.3-0.4-0.5-0.6c0,0,0,0.1,0,0.1C-288.6-446.1-288.4-446-288.3-445.8z M-293.9-444.4c0.1-0.6,0.2-1.1,0.3-1.4
					c-1.2-1.9-2.6-3.6-4-5.1c0,0.4-0.1,0.8-0.2,1.2c-0.5,1.8-1,3.6-1.5,5.5c0.6,0.3,1.6,1,2.7,2.1c0.6,0.5,1.1,1,1.5,1.4
					c0.2-0.6,0.4-1.1,0.5-1.4C-294.3-442.7-294.1-443.5-293.9-444.4z M-291-441.4c-0.5-1-1.1-1.9-1.6-2.8c-0.2,0.5-0.3,1-0.5,1.6
					c-0.4,1.1-0.7,2.1-1,3c0.2,0.2,0.3,0.4,0.5,0.6c0.4,0.4,1.1,0.9,2.1,1.7c0.1-0.6,0.2-1.2,0.3-1.8c0.1-0.4,0.2-0.7,0.4-0.8
					c1.1,1,2.2,2,3.4,3c0.4-1.4,0.8-2.6,1.1-3.4c0.2-0.7,0.5-1.3,0.7-1.9c-1.2-1.4-2.3-2.7-3.1-3.7c-0.7,1.7-1.2,3.4-1.7,5.1
					C-290.8-441.1-290.9-441.3-291-441.4z M-294.4-438.8c-0.8,2.4-1.4,4.2-1.8,5.3c1.2,1.3,2.3,2.6,3.4,4.1c0.4-2.3,0.7-4.5,1.1-6.8
					c-0.7-0.7-1.5-1.5-2.4-2.4L-294.4-438.8z M-286.5-436.1c1,0.9,2,1.9,3,2.9c0.8,0.8,1.4,1.5,1.9,2.2c0.3-1.8,0.7-3.5,1-5.3
					c-1.2-1.3-2.5-2.8-3.9-4.4c-0.2-0.2-0.4-0.5-0.6-0.7c-0.4,1-0.6,1.7-0.7,1.9C-285.9-438.7-286.2-437.5-286.5-436.1z
					 M-279.6-394.3c0,0-0.1,0.1-0.1,0.1C-280.8-393.7-280.8-393.7-279.6-394.3z"/>
			</g>
			<g transform="matrix(1,0,0,1,985.5700073242188,385.32000732421875)">
				<path class="st4" d="M-255.9-423.2c-0.1,1.1-0.2,1.9-0.2,2.4c-0.6,1.3-1.1,2.7-1.5,4.1c-1-1.8-2.1-3.6-3.3-5.4
					c0.8-2.1,1.5-3.8,2.1-5.3c1.6,2.8,2.5,4.2,2.8,4.2C-256-423.2-255.9-423.2-255.9-423.2z M-255.7-424.4c-0.3-0.9-1.2-2.4-2.6-4.5
					c0.7-2,1.1-3.3,1.1-3.9c0,0,0-0.1,0-0.1l2,4.1c-0.1,0.4-0.1,0.9-0.2,1.7c-0.1,0.5-0.1,1.2-0.2,1.9c0,0.1,0,0.2,0,0.3
					C-255.7-424.7-255.7-424.6-255.7-424.4z M-295.3-421.1c0.4-2,0.9-3.9,1.4-5.8l4,4.1c-0.2,0.6-0.4,1.4-0.7,2.3
					c-0.4,1.4-0.7,2.5-0.9,3.2c-0.8-0.8-1.6-1.6-2.5-2.4c-0.1,0-0.1,0-0.2,0c-0.2,0-0.5,0.1-0.7,0.1c0-0.1-0.1-0.2-0.1-0.3
					C-295.1-420.3-295.2-420.7-295.3-421.1z M-271-420c0.3-1.1,0.7-2.4,1.1-3.9c0-0.1,0.3-0.8,0.8-1.9c0.6,0.8,1.2,1.6,1.9,2.4
					c0.3,0.4,0.6,0.7,0.8,1.1c-0.2,0.6-0.4,1.3-0.6,1.9l-0.8,4.8C-268.8-417-269.9-418.5-271-420z M-278.2-427.9
					c0.4-1,0.7-1.8,0.9-2.4c0.3,0.5,0.6,1.1,0.9,1.7c0.4,0.9,0.9,1.5,1.5,2c0.4-1.3,0.8-2.6,1.3-3.8c0.3,0.6,0.8,1.2,1.2,1.8
					c0.7,1,1.4,1.7,1.9,2.1c-0.2,0.5-0.4,0.9-0.6,1.5c-0.5,1.2-0.9,2.3-1.3,3.4c-0.6-0.8-1.1-1.6-1.7-2.4c-0.1,0.1-0.1,0.1-0.1,0.2
					c-0.1,0.5-0.2,1.1-0.3,1.6c0,0-0.1,0-0.1,0c0,0,0,0-0.1,0l-0.1,1.4c0,0.1,0,0.3-0.1,0.4c-0.8-0.9-1.7-1.9-2.7-3.1
					c-0.6-0.6-1.1-1.3-1.6-1.8C-278.8-426.2-278.5-427-278.2-427.9z M-267.8-432.5c-0.6,1-1.2,2.4-1.9,4.1c-0.6-0.7-1.3-1.4-1.9-1.9
					c-0.5-0.6-0.9-1.2-1.4-1.7c0.8-1.6,1.7-3.2,2.8-4.7C-269.3-435.3-268.5-433.9-267.8-432.5z M-265.5-427.5
					c0.2,0.4,0.3,0.6,0.5,0.9c0.5-2.5,1.3-5,2.4-7.5c0.6,1,1.3,2.3,2.1,3.9c0.4,0.6,0.7,1.2,1,1.8c-0.7,1.9-1,3-1.1,3.1
					c-0.3,0.7-0.6,1.4-1,2.4c-1-1.3-2-2.5-3.1-3.8c-0.1,0.1-0.1,0.1-0.1,0.2c-0.4,0.9-0.7,1.9-1,2.8c-0.4-0.6-0.9-1.1-1.2-1.5
					c-0.5-0.6-1-1.2-1.4-1.7c0.2-0.6,0.5-1.2,0.9-1.9c0.3-0.6,0.5-1.2,0.8-1.7C-266.4-429.6-265.9-428.6-265.5-427.5z M-262.3-435
					c0.6-1.4,1.3-2.8,2.1-4.2l2.7,5.5c-0.4,0.8-0.8,1.7-1.2,2.8c-0.1,0.3-0.2,0.6-0.3,0.8c-0.2-0.3-0.4-0.6-0.6-0.9
					C-260.7-432.6-261.6-434-262.3-435z M-281.1-434.2c0.2-0.3,0.3-0.7,0.3-1c1.1,1.1,2,2.4,2.9,3.9c-0.3,0.6-0.7,1.4-1.1,2.3
					c-0.3,0.7-0.6,1.5-1,2.6c-1.3-1.3-2.3-2.4-3.2-3.2C-282.6-431.2-281.9-432.7-281.1-434.2z M-282.8-428.9
					c-0.2-0.2-0.3-0.4-0.5-0.5c0,0,0-0.1,0-0.1C-283.1-429.3-282.9-429.1-282.8-428.9z M-288.4-427.5c-0.2,0.9-0.4,1.7-0.7,2.3
					c-0.1,0.3-0.3,0.7-0.5,1.4c-0.5-0.4-1-0.9-1.5-1.4c-1.2-1.1-2.1-1.8-2.7-2.1c0.5-1.8,1-3.7,1.5-5.5c0.1-0.4,0.2-0.8,0.2-1.2
					c1.4,1.5,2.8,3.2,4,5.1C-288.2-428.5-288.3-428.1-288.4-427.5z M-289-421.9l0.3,0.3c0.9,0.9,1.7,1.7,2.4,2.4
					c-0.4,2.3-0.7,4.5-1.1,6.8c-1.1-1.4-2.2-2.8-3.4-4.1C-290.4-417.7-289.8-419.5-289-421.9z M-285.5-424.5
					c0.1,0.1,0.2,0.3,0.4,0.6c0.5-1.7,1.1-3.4,1.7-5.1c0.9,1,1.9,2.2,3.1,3.7c-0.2,0.6-0.4,1.2-0.7,1.9c-0.3,0.9-0.7,2-1.1,3.4
					c-1.1-1-2.2-2-3.4-3c-0.2,0.2-0.3,0.4-0.4,0.8c-0.1,0.6-0.2,1.2-0.3,1.8c-0.9-0.8-1.6-1.3-2.1-1.7c-0.2-0.2-0.3-0.4-0.5-0.6
					c0.3-0.9,0.7-1.9,1-3c0.2-0.5,0.4-1.1,0.5-1.6C-286.6-426.5-286-425.5-285.5-424.5z M-281-419.2c0.3-1.5,0.6-2.6,0.9-3.4
					c0.1-0.2,0.3-0.9,0.7-1.9c0.2,0.2,0.4,0.5,0.6,0.7c1.4,1.6,2.7,3.1,3.9,4.4c-0.4,1.7-0.7,3.5-1,5.3c-0.5-0.7-1.2-1.4-1.9-2.2
					C-279-417.3-280-418.2-281-419.2z"/>
			</g>
		</g>
	</g>
	
		<g transform="matrix(0.9924275875091553,0.12283115088939667,-0.12283115088939667,0.9924275875091553,-18.1910400390625,30.17926025390625)">
		<g transform="matrix(1,0,0,1,0,0)">
			<g transform="matrix(1,0,0,1,0,0)">
				<g transform="matrix(1,0,0,1,1177.6319580078125,225.26499938964844)">
					<path class="st1" d="M-408.6-287.2L-408.6-287.2c-2.8,1.4-6.7,3.3-11.5,5.6c-4.9,2.4-8.3,4-10.3,5l-9.4,2
						c2.5-2.7,4.4-4.7,5.7-6c1.3-1.3,2.4-2.5,3.2-3.7c0.1-0.2,0.2-0.4,0.3-0.6c0.1,0,0.1-0.1,0.1-0.2c3.1-0.1,7.9-0.4,14.5-1
						c1-0.1,3.3-0.4,7-1L-408.6-287.2z M-409.8-287.2c-2.5,0-4.2,0.1-5.2,0.2c-4.5,0.5-10,1-16.5,1.4l-0.8-0.3
						c-1.8-0.8-5.2-1.9-10.3-3.4l11.3-1.8c2.4,0.4,5.1,0.8,8.2,1.2c3.1,0.5,8,1.3,14.8,2.5c0,0,0,0,0,0c0.2,0,0.3,0.1,0.5,0.1
						c-0.2,0-0.5,0-0.7,0l0,0c0,0-0.1,0-0.1,0c-0.1,0-0.1,0-0.2,0l0,0c-0.3,0-0.6,0-0.9,0c0,0,0,0,0,0c0,0,0.1,0,0.1,0
						C-409.5-287.3-409.6-287.3-409.8-287.2C-409.7-287.3-409.7-287.3-409.8-287.2z M-409.3-287.3
						C-409.5-287.3-409.5-287.3-409.3-287.3c0.1,0,0.3,0,0.7,0l0,0c-0.1,0-0.1,0-0.2,0C-409-287.3-409.2-287.3-409.3-287.3z"/>
				</g>
				<g transform="matrix(1,0,0,1,1189.8909912109375,217.2729949951172)">
					<path class="st0" d="M-422-279.2c0,0,0,0,0.1,0.1c0,0,0.1-0.1,0.2-0.1c0.3,0,0.6,0,0.9,0v0.1l-0.6,0.2c-3.7,0.6-6,0.9-7,1
						c-6.6,0.5-11.4,0.8-14.5,1l0.3-0.3l-1-0.3c6.5-0.4,11.9-0.9,16.5-1.4C-426.2-279.1-424.5-279.2-422-279.2z M-421.6-279.3
						c0.1,0,0.3,0,0.5,0c0.1,0,0.1,0,0.2,0l0,0C-421.3-279.3-421.5-279.3-421.6-279.3C-421.7-279.3-421.7-279.3-421.6-279.3z
						 M-420.8-279c-0.1,0-0.3,0-0.4,0.1c-0.1,0,0-0.1,0.3-0.2L-420.8-279z"/>
				</g>
			</g>
		</g>
	</g>
	<g transform="matrix(1,0,0,1,-54,172)">
		<g transform="matrix(1,0,0,1,0,0)">
			<g transform="matrix(1,0,0,1,0,0)">
				<g transform="matrix(1,0,0,1,993.3720092773438,279.29400634765625)">
					<path class="st5" d="M-271.1-356.7c-2.7,0.2-4.9-0.3-6.7-1.4c-2-1.2-2.4-0.8-1.1,1.4c1.3,2.1,3,3.3,5.4,3.4
						c1.4,0.1,2.2,0.1,2.4,0.1c0.4,0,0.8,0.1,1,0.1c0,0,0,0.2,0.1,0.5c0.1,0.3,0,0.9-0.2,1.6c-0.2,0.7-0.4,1.3-0.7,1.8
						c-0.3,0.5-0.9,1-1.7,1.6c-1.1,0.5-2.9,0.7-5.4,0.7c-2.2,0-4.4-0.7-6.4-2.2c-1.4-1-2.6-2.2-3.8-3.7c-0.4-0.5-0.8-1.1-1.2-1.7
						c-0.2,0-0.5,0-0.7,0c-3,0-5.2-1.6-6.4-4.7c-0.4-1-0.6-2-0.8-3.2l-0.1-1.4c0-0.7,0.5-1.1,1.6-1.4c0.7-0.1,1.4-0.1,2.2,0
						c-0.4-2.3-0.6-4.5-0.6-6.7c0-1,0.1-1.7,0.2-2.3c0.2-1,0.6-2,1.1-2.8c1.5-2.3,4.3-3.6,8.5-3.9h2.9v0.1c4.1,0.8,7.1,2.2,8.9,4.3
						c0.7,0.8,1.2,1.7,1.6,2.7c0.2,0.6,0.5,1.4,0.7,2.5c0.1,0.6,0,1.2-0.1,1.9c-0.1,0.7,0,1.1,0.5,1.4c0.5,0.3,1.2,0.7,2.1,1.3
						c0.9,0.6,1.8,1.2,2.6,1.9c0.8,0.7,1.4,1.4,2.1,2c0.6,0.6,0.9,1.2,0.9,1.9c0,0.5-0.1,1.1-0.3,1.6c-0.5,1-1.4,1.6-2.8,1.6
						c-0.8,0-1.7-0.3-2.9-0.9c-0.3-0.2-0.6-0.3-0.8-0.3c-0.4-0.1-0.7,0.4-0.9,1.5c0.1,0.7,0,1-0.5,0.9L-271.1-356.7z M-270.1-353.1
						C-270.1-353.1-270.1-353.1-270.1-353.1L-270.1-353.1L-270.1-353.1z M-294.9-362.3c0-0.3,0.1-0.5,0.1-0.6h0.1
						c0.2-0.2,0.4-0.2,0.6,0c0.2,0.2,0.4,0.5,0.7,0.9c0.2,0.4,0,0.6-0.7,0.8c-0.7,0.1-1,0.4-1,0.8s0.5,0.7,1.4,1
						c0.9,0.3,1.5,0.9,1.6,1.9c0,0.6-0.3,0.7-0.9,0.5c-0.6-0.2-0.9-0.2-0.9,0c0,0.1,0.1,0.2,0.2,0.4c0.1,0.1,0.3,0.2,0.5,0.3h1.5
						c0.4-0.1,0.6-0.2,0.7-0.5c0-0.1,0-0.3,0-0.7c0-0.4-0.3-0.9-0.9-1.3c-1-0.6-1.7-1.2-2.2-1.6l0.1-0.2c1-0.1,1.5-0.3,1.5-0.6
						c0-0.6-0.5-1.4-1.5-2.3c-1-1-1.6-1-1.6-0.1c0,0.8,0.2,1.5,0.5,2.1c0.1,0,0.2-0.1,0.2-0.2C-295-361.9-295-362.1-294.9-362.3z
						 M-275.8-371.6c0-0.5-0.3-0.9-0.7-1.1c-0.5-0.2-1.3-0.2-2.5,0.2c-1.2,0.4-2.2,0.9-3.1,1.7c-0.9,0.7-1.2,1.2-1.1,1.4
						c0,0,0,0,0-0.1c0.3-0.2,0.9-0.6,1.7-1.1c1-0.5,2-0.8,2.9-0.9c0.9-0.1,1.5-0.1,1.8-0.1C-276.3-371.6-276-371.6-275.8-371.6z
						 M-280.5-365.9c0,0-0.1,0-0.1,0.1l0.7,0.1c0.1,0,0.2,0.1,0.2,0.1c0.5,0.1,1.2,0.1,2.2,0c0.9-0.1,1.6-0.3,2.3-0.5
						c0.1-0.1,0.2-0.2,0.3-0.3c0.1-0.4,0.2-0.7,0.2-0.8l0-1c0-0.1-0.1-0.3-0.1-0.5c0-0.1,0.1-0.1,0.5-0.1c0.4,0,0.5-0.1,0.5-0.2
						c-0.1-0.1-0.3-0.2-0.6-0.2c-0.4,0-0.6-0.1-0.7-0.1c-0.1,0-0.2,0-0.3,0c-2.2,0.1-3.5,0.5-4.1,1.3c-0.1,0.2-0.3,0.4-0.4,0.5
						c-0.2,0.4-0.4,0.7-0.5,0.9c0,0.1-0.1,0.3-0.1,0.5C-280.6-365.9-280.6-365.9-280.5-365.9z M-275-368.5
						C-275-368.5-275-368.5-275-368.5C-275-368.6-275.1-368.6-275-368.5C-275.1-368.6-275-368.6-275-368.5z"/>
				</g>
				<g transform="matrix(1,0,0,1,1002.9219970703125,286.4079895019531)">
					<path class="st8" d="M-280.6-363.8c-0.2,0.1-0.2,0.6-0.2,1.5c0,0.9,0.1,1.6,0.1,2c-0.2,0-1,0-2.4-0.1c-2.3-0.1-4.1-1.3-5.4-3.4
						c-1.2-2.1-0.9-2.6,1.1-1.4C-285.5-364.1-283.3-363.6-280.6-363.8z M-284.6-375.6C-284.6-375.7-284.6-375.7-284.6-375.6
						c0.1-0.1,0.1-0.1,0.1-0.1c0.1,0.2,0.1,0.3,0.1,0.5l0,1c0,0.1-0.1,0.4-0.2,0.8c-0.1,0.1-0.2,0.2-0.3,0.3
						c-0.6,0.2-1.4,0.4-2.3,0.5c-1,0.1-1.7,0.1-2.2,0c-0.1,0-0.1-0.1-0.2-0.1l-0.7-0.1c0,0,0.1-0.1,0.1-0.1c0.5-0.5,0.9-1,1.1-1.5
						c0.2-0.4,0.5-0.7,0.9-0.8c0.4-0.1,0.6-0.2,0.7-0.2c0,0.1-0.1,0.3-0.1,0.4c0,0,0,0.3,0.1,0.8c0.2,0.5,0.6,0.8,1.3,0.8
						c0.7,0,1.1-0.4,1.2-1.1c0-0.1,0-0.2,0.1-0.3c0-0.2,0-0.4,0-0.6C-284.7-375.5-284.6-375.6-284.6-375.6L-284.6-375.6z"/>
				</g>
				<g transform="matrix(1,0,0,1,960.8699951171875,287.76300048828125)">
					<path class="st9" d="M-262.4-370.8c0,0.2,0,0.4,0,0.6c0,0.1-0.1,0.1-0.2,0.2c-0.3-0.6-0.5-1.3-0.5-2.1c0-0.9,0.5-0.9,1.6,0.1
						c1,1,1.5,1.7,1.5,2.3c0,0.4-0.5,0.6-1.5,0.6l-0.1,0.2c0.4,0.4,1.2,1,2.2,1.6c0.6,0.4,0.9,0.8,0.9,1.3c0,0.4,0,0.6,0,0.7
						c-0.1,0.3-0.3,0.5-0.7,0.5h-1.5c-0.2-0.1-0.4-0.2-0.5-0.3c-0.1-0.1-0.2-0.2-0.2-0.4c0-0.2,0.3-0.2,0.9,0
						c0.6,0.2,0.9,0.1,0.9-0.5c-0.2-0.9-0.7-1.6-1.6-1.9c-0.9-0.3-1.4-0.6-1.4-1c0-0.4,0.3-0.6,1-0.8c0.7-0.1,0.9-0.4,0.7-0.8
						c-0.2-0.4-0.4-0.7-0.7-0.9c-0.2-0.2-0.4-0.2-0.6,0h-0.1C-262.4-371.2-262.4-371-262.4-370.8z"/>
				</g>
				<g transform="matrix(1,0,0,1,996.4979858398438,266.0780029296875)">
					<path d="M-278.9-358.4c-0.2,0-0.5,0-0.8,0c-0.3,0-0.9,0-1.8,0.1c-0.9,0.1-1.9,0.4-2.9,0.9c-0.8,0.5-1.4,0.9-1.7,1.1
						c0,0,0,0,0,0.1c-0.1-0.2,0.2-0.7,1.1-1.4c0.9-0.7,1.9-1.3,3.1-1.7c1.2-0.4,2-0.4,2.5-0.2C-279.2-359.3-278.9-358.9-278.9-358.4
						z M-278-355.4c0,0-0.1,0-0.1,0.1c0,0,0-0.1,0-0.1c0,0,0,0.1,0,0.1v0c0,0.1-0.1,0.2-0.1,0.3c0,0.2,0,0.3,0,0.6
						c0,0.1-0.1,0.2-0.1,0.3c-0.1,0.7-0.5,1.1-1.2,1.1c-0.7,0-1.1-0.2-1.3-0.8c-0.1-0.5-0.1-0.8-0.1-0.8c0-0.1,0-0.3,0.1-0.4
						c-0.1,0-0.3,0-0.7,0.2c-0.4,0.1-0.7,0.4-0.9,0.8c-0.3,0.4-0.6,0.9-1.1,1.5c0,0-0.1,0-0.1,0c0-0.2,0.1-0.3,0.1-0.5
						c0.1-0.2,0.2-0.5,0.5-0.9c0.1-0.2,0.2-0.4,0.4-0.5c0.6-0.8,2-1.2,4.1-1.3c0.1,0,0.2,0,0.3,0c0.1,0,0.4,0,0.7,0
						c0.3,0,0.5,0.1,0.6,0.2c0,0.1-0.1,0.1-0.5,0.2C-277.9-355.5-278.1-355.5-278-355.4z"/>
				</g>
			</g>
		</g>
	</g>
	<g transform="matrix(1,0,0,1,930.1320190429688,431.8550109863281)">
		<g transform="matrix(1,0,0,1,0,0)">
			<path class="st10" d="M-285.8-348.6c-0.5-1.7-0.5-3.8,0.1-6.4c0.6-2.6,1.5-3.8,2.7-3.7c1.2,0.5,3,1.4,5.3,2.5
				c1.3,0.6,2,1.1,2.2,1.3c0.6,0.4,0.3,1-1,1.8c-1.3,0.7-1.6,2.7-0.9,6c0.7,3.3,0.9,5,0.6,5.2c-1.8,1.2-2.9,1.3-3.3,0.1
				c-0.4-1.2-0.8-2.1-1.1-2.7c-0.3-0.6-0.8-0.9-1.4-0.9c-0.6,0-1.2-0.1-1.7-0.3C-284.8-345.9-285.3-346.9-285.8-348.6z
				 M-269.7-362.8c3.2,1.2,5.1,2.2,5.9,3c0.8,0.8,1.2,2,1.1,3.6c-0.4-0.8-1.2-1.3-2.5-1.5c-0.9-0.1-3.2,0.6-6.9,2.3
				c-0.8,0.3-2,0.2-3.7-0.3c-0.8-0.4-1.8-0.8-2.9-1.4c-1.6-0.8-3-1.3-4.2-1.6c0-1.4,1.1-2.8,3.5-4.2c2.2-1.3,4.9-1.5,8-0.4
				c0.3,0.1,0.6,0.2,0.9,0.3C-270.1-363-269.9-362.9-269.7-362.8z"/>
		</g>
	</g>
	<g transform="matrix(1,0,0,1,-54,172.00003051757812)">
		<g transform="matrix(1,0,0,1,0,0)">
			<g transform="matrix(1,0,0,1,976.0440063476562,511.9590148925781)">
				<path class="st5" d="M-268.2-486.9c-0.1,0-0.1,0-0.2-0.1c-0.4-0.1-0.7-0.7-0.9-1.8c-0.1-1.2-0.2-2-0.3-2.3
					c-0.1-0.2-0.1-0.3-0.1-0.5c0,0,0,0,0-0.1c-0.5-2.8-1-4.3-1.5-4.5c-0.2-0.1-0.3-0.2-0.4-0.3c0,0.4-0.1,0.8-0.2,1.3
					c0,0.1-0.1,0.5-0.3,1.2c0,1.4-0.1,2.4-0.3,2.9c-0.1,0.4-0.3,0.6-0.4,0.7c-0.2,0.2-0.6,0.2-1,0c-0.7-0.3-1-1.7-0.7-4.4
					c0.1-0.8,0.2-1.6,0.3-2.1c0-0.2-0.1-0.5-0.1-0.7c-0.1-0.4-0.2-0.9-0.3-1.3c-0.9-0.5-1.8-1.3-2.7-2.3c-0.6-0.7-1.6-4.2-2.9-10.5
					c0.4-0.4,0.9-0.7,1.6-0.8c0-0.1,0-0.2,0.1-0.3c0.1-0.4,0.6-0.7,1.5-0.8c0.4,0.3,0.8,0.6,1.2,1c1.3,1,3.2,2.4,5.6,4.2
					c2,1.6,4.1,3.4,6.1,5.5l-0.1,0.2c0.2,0.8,0.6,1.5,1,2.3c0.3,0.5,0.6,1.1,1,1.6c0.1,0.1,0.8,0.8,2,2.1c0.7,0.8,1.1,1.4,0.9,1.8
					c-0.1,0.2-0.3,0.3-0.8,0.4c-0.5,0-1,0-1.5-0.2c0,0,0,0,0,0c-0.1,0-0.1-0.1-0.2-0.2c-0.1-0.1-0.2-0.2-0.3-0.2c-0.1,0-0.2,0-0.3,0
					c-0.3-0.9-0.5-1.8-0.7-2.5l-0.1,0l-0.1,0.1c-0.1,0.2,0.3,1.5,1,3.9c0.7,2.6,0.7,4.6,0.2,6.1c-0.1,0.2-0.2,0.3-0.5,0.5
					c-0.3,0.1-0.5,0.1-0.5,0.2c0,0,0,0.1,0,0.1c-0.2-0.2-0.5-0.7-0.7-1.5c-0.1-0.2-0.1-0.4-0.1-0.7c0,0.5-0.1,1-0.3,1.5
					c0.3-1.4,0.2-3.2-0.3-5.2c-0.7-2.3-1-3.5-0.9-3.6l0-0.1c-0.1,0-0.2,0-0.2,0.2c0,0.1,0.1,0.7,0.4,1.9c0.4,1.5,0.6,2.5,0.7,2.9
					c0.1,0.5,0.1,1.2,0.1,2.2c0,1.1-0.1,1.9-0.2,2.3c-0.1,0.2-0.3,0.4-0.6,0.5c-0.3,0.1-0.5,0.2-0.5,0.3c0,0,0,0,0,0
					c-0.3-0.2-0.5-0.7-0.6-1.3c0,0,0,0,0-0.1c-0.2-0.8-0.3-2-0.3-3.7c0-0.1,0-0.3-0.1-0.7c-0.2-0.3-0.3-0.8-0.5-1.3
					c0.1,0.8,0.1,1.3,0.1,1.5c0,0.7,0,1.3,0,2c0-1.2-0.1-1.8-0.1-1.9c0.1-0.7,0-1.7-0.4-3c-0.4-1.1-0.6-1.7-0.5-1.8c0,0,0,0,0,0
					c0,0,0-0.1-0.1-0.2l-0.1,0c0.1,0.6,0.3,1.4,0.5,2.4c0.2,0.9,0.2,1.7,0.2,2.3c0,0.2,0,0.9,0.1,2.1c0,1.2-0.1,2-0.2,2.4
					c0,0.1-0.2,0.2-0.4,0.3C-268-487-268.1-487-268.2-486.9L-268.2-486.9z M-263.5-501.2c-0.3-0.6-0.5-1.2-0.6-1.7
					c0,0,0.1,0.1,0.1,0.1c0.1,0.4,0.2,0.8,0.4,1.2C-263.6-501.5-263.6-501.4-263.5-501.2z"/>
			</g>
			<g transform="matrix(1,0,0,1,990.8740234375,525.051025390625)">
				<path class="st9" d="M-279-516L-279-516c0.1,0.5,0.3,1.1,0.6,1.7c0.5,0.9,1.3,1.9,2.4,3c0.9,0.9,1.5,1.6,1.7,2
					c0.5,0.6,0.6,1.2,0.5,1.6c-0.1,0.2-0.3,0.3-0.9,0.4c-0.6,0.1-1.1,0.1-1.6-0.1c0,0-0.1,0-0.1,0c-0.3-0.1-0.5-0.2-0.7-0.4h0
					c0.2,0.8,0.5,1.7,0.8,2.7c0.1,0.3,0.1,0.6,0.2,0.9c0.2,1.4,0.1,2.6-0.3,3.8c-0.3,0.7-0.6,1-1.1,0.9c-0.2-0.1-0.2-0.1-0.3-0.2
					c0,0,0,0,0-0.1c0,0,0-0.1,0-0.1c0,0,0.2-0.1,0.5-0.2c0.3-0.1,0.5-0.3,0.5-0.5c0.5-1.5,0.4-3.5-0.2-6.1c-0.8-2.4-1.1-3.7-1-3.9
					l0.1-0.1l0.1,0c0.2,0.8,0.4,1.6,0.7,2.5c0.1-0.1,0.1-0.1,0.3,0c0.1,0,0.2,0.1,0.3,0.2c0.1,0.1,0.1,0.2,0.2,0.2c0,0,0,0,0.1,0
					c0.5,0.2,1.1,0.3,1.5,0.2c0.4,0,0.7-0.2,0.8-0.4c0.1-0.4-0.2-1-0.9-1.8c-1.3-1.3-2-2-2-2.1c-0.4-0.5-0.7-1.1-1-1.6
					c-0.4-0.8-0.7-1.5-1-2.3L-279-516z M-283-500L-283-500c0-0.1,0.2-0.1,0.4-0.2c0.2-0.1,0.4-0.2,0.4-0.3c0.1-0.4,0.2-1.2,0.2-2.4
					c0-1.2,0-1.9-0.1-2.1c0-0.6-0.1-1.4-0.2-2.3c-0.2-1-0.4-1.9-0.5-2.4l0,0c0.1,0.1,0.1,0.2,0.1,0.2c0,0,0,0,0,0
					c0,0.1,0.1,0.7,0.5,1.8c0.3,1.3,0.5,2.3,0.4,3c0,0.1,0,0.7,0.1,1.9c0,0.1,0,0.1,0,0.2c0,1.2,0,2-0.1,2.3c0,0.1-0.1,0.2-0.3,0.4
					c-0.2,0.2-0.4,0.3-0.7,0.2C-282.9-499.8-282.9-499.9-283-500C-283-500-283-500-283-500z M-280.3-499.3
					C-280.3-499.3-280.3-499.3-280.3-499.3c0-0.1,0.2-0.2,0.5-0.3c0.3-0.1,0.5-0.3,0.6-0.5c0.2-0.4,0.2-1.2,0.2-2.3
					c0-1,0-1.7-0.1-2.2c-0.1-0.4-0.3-1.4-0.7-2.9c-0.3-1.2-0.4-1.9-0.4-1.9c0-0.1,0.1-0.2,0.2-0.2l0,0.1c-0.1,0.1,0.3,1.3,0.9,3.6
					c0.5,2.1,0.6,3.8,0.3,5.2c-0.1,0.4-0.2,0.7-0.3,1c0,0.1-0.2,0.3-0.4,0.4c-0.3,0.2-0.5,0.2-0.8,0.1
					C-280.2-499.1-280.3-499.2-280.3-499.3z"/>
			</g>
		</g>
	</g>
	<g transform="matrix(1,0,0,1,870.3740234375,589.9910278320312)">
		<g transform="matrix(1,0,0,1,0,0)">
			<path d="M-238.7-479.2c1.3-0.5,2.8-0.8,3.7-0.8c1.5,0,2.7,1,4,2.1c0.4,0.8,1.6,2.4,1.7,2.9c0.2,0.9,0.4,2.4,0.5,3.8
				c0.1,1.3-0.6,2.5-1.6,3.9c-0.8,1.2-2.3,3.5-4.8,6.7c-2.3,2.9-3.9,5.3-4.8,7.2c-1.5,2.9-2.2,5.7-2.2,8.6c0,2.7,0.3,4.8,0.8,6.1
				c0.5,1.1,1.9,3.5,4.4,7c1.8,2.7,3.8,4.9,6,6.5c1.5,1.1,4.8,3.1,9.9,5.9c0,0.1-0.5,0.8-1.4,2c-1,1.4-1.7,2.5-2.1,3
				c-0.4,0.9-0.8,1.7-1.2,2.4c-0.8,1.4-1.4,2.1-1.9,2.1c-0.8,0-2.8-1.1-6.2-3.4c-3.7-2.6-6-4.2-7-4.8c-1.8-1.1-3.6-2.5-5.3-4.2
				c-1.9-1.9-3.3-3.2-4.2-4.1c-1.8-1.7-3.5-4.3-5.1-7.8c-1.5-3.4-2.3-6.3-2.3-8.6c0-3.5,0.3-6.8,0.9-9.8c0.7-3.5,1.9-6.8,3.5-9.7
				c1-1.8,1.9-3.4,2.8-4.8c1.1-1.7,2.4-3.4,3.7-4.9c1.5-1.7,3.7-3.8,6.5-6.2C-239.7-478.3-239.2-478.8-238.7-479.2z"/>
		</g>
	</g>
</g>
</svg>
