<?xml version="1.0" encoding="utf-8"?>
<!-- Generator: Adobe Illustrator 27.0.0, SVG Export Plug-In . SVG Version: 6.00 Build 0)  -->
<svg version="1.1" id="Vrstva_1" xmlns="http://www.w3.org/2000/svg" xmlns:xlink="http://www.w3.org/1999/xlink" x="0px" y="0px"
	 viewBox="0 0 350 250" style="enable-background:new 0 0 350 250;" xml:space="preserve">
<style type="text/css">
	.st0{fill:#2F7555;}
	.st1{fill:#AADDC6;}
	.st2{fill:#8DD1B3;}
	.st3{fill-opacity:0;stroke:#666666;stroke-width:1.3622;stroke-linecap:round;stroke-linejoin:round;}
	.st4{fill:#FFCC00;}
	.st5{fill:#663300;}
	.st6{fill-opacity:0;stroke:#C69E00;stroke-width:1.3622;stroke-linecap:round;stroke-linejoin:round;}
	.st7{fill:#FF62B0;}
	.st8{fill:#FF99CC;}
	.st9{fill:#FFE3C8;}
	.st10{fill:#FFCC99;}
	.st11{fill:#F39725;}
	.st12{fill:#408CD9;}
	.st13{fill:#1D558D;}
</style>
<g transform="matrix(0.9961947202682495,0.08715574443340302,-0.08715574443340302,0.9961947202682495,47.91965866088867,-71.7921371459961)">
	<g transform="matrix(1,0,0,1,528.8079833984375,432.3269958496094)">
		<path class="st0" d="M-341.6-360.8l-74.4,17.6c-0.9,0.3-1.4,0.5-1.5,0.5c-0.1,0-0.2,0-0.3,0c-0.1,0-0.2,0-0.3-0.1
			c0.2,0.7,0.5,1.9,1,3.5l3.5,15.7l-4.8-19.6l32.5-9.1c1-0.3,2.6-0.7,4.7-1.2c11-2.5,21.3-4.8,30.9-6.8c4.1-0.8,6.9-1.4,8.5-1.7
			l0.1,0.3c0.1,0,0.3-0.1,0.4-0.1c0,0,0.1,0,0.2,0l0.1,0.3c-0.1,0-0.2,0-0.2,0.1C-341.3-360.9-341.4-360.9-341.6-360.8L-341.6-360.8
			L-341.6-360.8z M-381.6-188.2c0.5-0.2,1.1-0.4,1.9-0.5c3-0.7,4.5-1,4.5-1.1c3.8-0.9,6.6-1.5,8.4-1.9l26.7-6.2l0.2,0l33.4-7.9
			c0-0.1-0.1-0.2-0.1-0.3l-34.6-154.7c0.1,0,0.1,0,0.2,0l35.5,155.8l-34.3,8.9l-0.2,0.1l-40.6,9c1.3,0,1.7,0,1.1,0.1
			c-0.2,0-0.8,0.1-1.8,0.2L-381.6-188.2z M-419.2-342.7l0.3-0.1C-419.1-342.2-419.2-342.1-419.2-342.7z M-305.3-203.9
			c0,0-0.1,0-0.1,0c-0.3,0-0.3,0,0.1-0.2L-305.3-203.9z"/>
	</g>
	<g transform="matrix(1,0,0,1,528.9329833984375,427.9779968261719)">
		<path class="st1" d="M-341.3-356.4l34.6,154.7c0,0.1,0.1,0.2,0.1,0.3l-33.4,7.9l-0.2,0l-26.7,6.2c-1.9,0.4-4.7,1-8.4,1.9
			c0,0-1.5,0.4-4.5,1.1c-0.7,0.2-1.4,0.3-1.9,0.5c-0.2,0-0.3,0.1-0.4,0.2l-9.1-39.9c-3.1-13.2-6.2-26.5-9.3-39.7l-17.3-74.9
			c0.1,0,0.2,0,0.3,0c0.1,0,0.6-0.2,1.5-0.5l74.4-17.6c0,0,0,0-0.1,0.1c0,0-0.1,0-0.1,0L-341.3-356.4L-341.3-356.4z M-341.4-357.1
			c-0.2,0-0.3,0-0.4,0.1l-0.1-0.3l-0.5-4.5L-341.4-357.1z M-344-326.5c-0.3-0.9-1.1-1.6-2.2-2c-1.3-0.5-2.9-0.5-4.8,0
			c0,0-0.4,0.3-1.2,0.9c-0.6,0.8-0.8,1.8-0.5,3.1c0.5,2.4,2.2,3.3,4.9,2.7c1.6-0.4,2.7-1,3.4-2C-343.8-324.7-343.6-325.5-344-326.5z
			 M-351.8-336.5c0,0-0.6,0.2-1.9,0.6c-1.1,0.7-1.5,1.9-1.1,3.4c0.3,1.5,1.3,2.3,3,2.5c1,0.1,2,0.1,3.1-0.2c1.1-0.2,1.9-0.8,2.6-1.7
			c0.6-0.8,0.8-1.6,0.7-2.6c-0.2-1-0.7-1.6-1.7-2C-348.3-336.9-349.9-336.9-351.8-336.5z M-351.5-334.6c0.3-0.1,1-0.3,1.9-0.5
			c1.1-0.2,1.6,0.2,1.5,1.2c-0.1,1.1-0.5,1.7-1.2,1.9l-1.7,0.1c-1.1,0-1.8-0.4-1.9-1C-353-333.5-352.5-334.1-351.5-334.6z
			 M-350.1-342l-0.3,0.1c-1,0.2-3.1,0.6-6.4,1.2c-2.7,0.7-3.9,1.5-3.6,2.5c0.1,0.5,1.4,0.7,3.9,0.4c1.6-0.2,3-0.4,4.1-0.7
			c0.9-0.2,2-0.5,3.1-0.9c1.8-0.7,2.8-1.3,3-1.8c-0.4-1-1.7-2.3-3.8-3.9c-2.1-1.6-3.4-2.4-4-2.2l-0.7,0.4c-0.5,0.2-0.7,0.6-0.6,1.1
			c0,0.1,0.8,0.7,2.3,1.7C-351.4-343.1-350.5-342.4-350.1-342z M-350.4-326.4c0.9-0.3,1-0.4,0.4-0.3
			C-350-326.7-350.1-326.6-350.4-326.4z M-350.6-326.4c0.3-0.2,0.6-0.4,0.9-0.5c0.9-0.2,1.9,0.1,3,1c1.1,0.9,0.6,1.6-1.4,2.1
			c-0.6,0.1-1,0.2-1.2,0.2c-0.8-0.1-1.3-0.8-1.6-1.9C-351-325.8-350.9-326.1-350.6-326.4z M-314.6-207.7l-25-108l-62.3,14.4l25,108
			L-314.6-207.7z"/>
	</g>
	<g transform="matrix(1,0,0,1,534.9329833984375,431.4939880371094)">
		<path class="st2" d="M-356.1-345.5c-0.3-0.3-1.3-1.1-2.9-2.2c-1.5-1-2.3-1.6-2.3-1.7c-0.1-0.5,0.1-0.8,0.6-1.1l0.7-0.4
			c0.6-0.1,1.9,0.6,4,2.2c2.1,1.6,3.4,2.9,3.8,3.9c-0.2,0.5-1.2,1.1-3,1.8c-1.2,0.4-2.2,0.7-3.1,0.9c-1.1,0.3-2.5,0.5-4.1,0.7
			c-2.5,0.3-3.8,0.1-3.9-0.4c-0.2-1,1-1.8,3.6-2.5c3.2-0.6,5.4-1,6.4-1.2L-356.1-345.5z M-357.5-338.1c-1,0.5-1.5,1-1.3,1.7
			c0.2,0.6,0.8,1,1.9,1l1.7-0.1c0.7-0.1,1.1-0.8,1.2-1.9c0.1-1.1-0.4-1.5-1.5-1.2C-356.5-338.4-357.2-338.2-357.5-338.1z
			 M-357.8-340c1.9-0.5,3.5-0.4,4.6,0.1c1,0.4,1.5,1.1,1.7,2c0.1,0.9-0.1,1.8-0.7,2.6c-0.6,0.9-1.5,1.5-2.6,1.7
			c-1.1,0.2-2.1,0.3-3.1,0.2c-1.7-0.2-2.6-1-3-2.5c-0.4-1.6,0-2.7,1.1-3.4C-358.4-339.8-357.8-340-357.8-340z M-350-330
			c0.3,0.9,0.1,1.8-0.5,2.6c-0.7,1-1.9,1.6-3.4,2c-2.7,0.6-4.3-0.3-4.9-2.7c-0.3-1.3-0.1-2.3,0.5-3.1c0.7-0.6,1.1-0.9,1.2-0.9
			c1.9-0.4,3.5-0.4,4.8,0C-351.1-331.6-350.3-330.9-350-330z M-356.6-329.9c-0.3,0.3-0.4,0.6-0.3,0.9c0.2,1.1,0.8,1.7,1.6,1.9
			c0.2,0,0.6,0,1.2-0.2c2-0.5,2.5-1.2,1.4-2.1c-1.1-0.9-2.1-1.2-3-1C-356-330.3-356.3-330.2-356.6-329.9z M-320.6-211.3l-62.3,14.4
			l-25-108l62.3-14.4L-320.6-211.3z"/>
	</g>
</g>
<g transform="matrix(0.9961947202682495,0.08715574443340302,-0.08715574443340302,0.9961947202682495,47.91962814331055,-71.7921371459961)">
	<g transform="matrix(1,0,0,1,0,0)">
		<g transform="matrix(1,0,0,1,472.3080139160156,425.10198974609375)">
			<path class="st1" d="M-339.7-358.7l-1.3-4.3l1.8,4.5c-0.1,0-0.3,0.1-0.4,0.1L-339.7-358.7z M-411.1-326.4c0.1,0,0.2-0.1,0.4-0.1
				c0.1,0,0.5-0.3,1.4-0.7l70-30.5c0,0-0.1,0.1-0.1,0.1l0.5-0.2v0l61.5,146.1c0.1,0.1,0.1,0.2,0.2,0.4l-31.5,13.6l-0.2,0l-25.1,10.8
				c-1.8,0.7-4.5,1.9-8,3.4c0,0-1.5,0.6-4.3,1.8c-0.7,0.3-1.2,0.6-1.7,0.9c-0.2,0-0.3,0.1-0.4,0.2l-16-37.6
				c-5.4-12.5-10.8-25-16.2-37.5L-411.1-326.4z M-345.1-334.6c0.3-0.2,0.9-0.4,1.8-0.9c1-0.4,1.6-0.1,1.7,1c0.1,1.1-0.2,1.8-0.9,2
				l-1.6,0.3c-1.2,0.2-1.9,0-2.1-0.6C-346.4-333.3-346-334-345.1-334.6z M-347.5-335.5c-1,0.9-1.1,2.1-0.5,3.6
				c0.6,1.4,1.7,2,3.4,1.9c1-0.1,2-0.3,3-0.7c1-0.4,1.7-1.1,2.2-2.1c0.5-0.9,0.5-1.8,0.2-2.7c-0.3-0.9-1-1.5-2-1.7
				c-1.2-0.3-2.8,0-4.6,0.8C-345.8-336.3-346.3-336.1-347.5-335.5z M-343.8-339.8c1.6-1,2.5-1.7,2.6-2.2c-0.6-1-2-2-4.4-3.2
				c-2.3-1.2-3.8-1.8-4.4-1.5l-0.6,0.5c-0.4,0.3-0.5,0.7-0.4,1.2c0,0.1,0.9,0.5,2.6,1.3c1.8,0.8,2.9,1.3,3.3,1.6l-0.3,0.1
				c-0.9,0.4-2.9,1.1-6,2.2c-2.5,1.1-3.6,2.2-3.2,3.1c0.2,0.5,1.5,0.5,3.9-0.2c1.5-0.5,2.8-0.9,4-1.4
				C-345.9-338.7-344.9-339.2-343.8-339.8z M-342.2-327.2c0,0-0.1,0.1-0.4,0.4C-341.8-327.2-341.6-327.3-342.2-327.2z M-330-318.2
				l-58.8,25.2l43.7,101.9l58.7-25.2L-330-318.2z M-343.6-328.7c0,0-0.4,0.4-1,1.1c-0.5,0.9-0.5,2,0,3.2c1,2.2,2.8,2.8,5.3,1.8
				c1.5-0.7,2.5-1.5,3-2.6c0.5-0.9,0.6-1.8,0.1-2.7c-0.5-0.9-1.4-1.4-2.6-1.6C-340.2-329.7-341.8-329.4-343.6-328.7z M-342.8-326.7
				c0.2-0.3,0.5-0.5,0.8-0.6c0.9-0.3,1.9-0.1,3.1,0.5c1.2,0.7,0.9,1.4-1.1,2.2c-0.5,0.2-0.9,0.4-1.2,0.4c-0.8,0-1.4-0.5-1.8-1.6
				C-343.1-326.1-343-326.4-342.8-326.7z"/>
		</g>
		<g transform="matrix(1,0,0,1,472.4330139160156,429.22698974609375)">
			<path class="st0" d="M-339.9-362.8l0.1,0.3c0.1-0.1,0.3-0.1,0.4-0.1c0.1,0,0.1-0.1,0.2-0.1l0.1,0.2c-0.1,0-0.1,0.1-0.2,0.2
				c0,0.1-0.1,0.1-0.2,0.2l0,0l-0.1,0l-70,30.5c-0.8,0.5-1.3,0.7-1.4,0.7c-0.1,0-0.3,0.1-0.4,0.1c-0.1,0-0.2,0-0.3,0
				c0.3,0.6,0.8,1.7,1.6,3.3l6.2,14.8l-8.1-18.4l30.3-14.7c1-0.5,2.4-1.2,4.4-2c10.4-4.5,20.1-8.5,29.2-12.2
				C-344.1-361.2-341.4-362.3-339.9-362.8z M-348.3-185c0.4-0.3,1-0.6,1.7-0.9c2.8-1.2,4.2-1.8,4.3-1.8c3.5-1.5,6.2-2.6,8-3.4
				l25.1-10.8l0.2,0l31.5-13.6c0-0.2-0.1-0.3-0.2-0.4L-339.1-362c0.1,0,0.2,0,0.3,0l62.5,147l-32.2,14.8l-0.2,0.1l-38.3,16.1
				c1.3-0.3,1.7-0.3,1.2-0.1c-0.2,0-0.8,0.2-1.7,0.5L-348.3-185z M-275.9-214c0,0-0.1,0-0.1,0c-0.3,0.1-0.2,0,0.1-0.2L-275.9-214z
				 M-412.4-330.5c0,0.6-0.1,0.6-0.3,0.1L-412.4-330.5z"/>
		</g>
		<g transform="matrix(1,0,0,1,482.1579895019531,429.3389892578125)">
			<path class="st2" d="M-353.6-344c-1.1,0.6-2.1,1.1-2.9,1.5c-1.1,0.4-2.4,0.9-4,1.4c-2.4,0.7-3.7,0.8-3.9,0.2
				c-0.4-0.9,0.6-1.9,3.2-3.1c3.1-1.1,5.1-1.9,6-2.2l0.3-0.1c-0.4-0.3-1.5-0.8-3.3-1.6c-1.7-0.7-2.5-1.1-2.6-1.3
				c-0.2-0.4,0-0.8,0.4-1.2l0.6-0.5c0.6-0.2,2,0.3,4.4,1.5c2.4,1.2,3.8,2.2,4.4,3.2C-351.1-345.7-352-345-353.6-344z M-357.3-339.7
				c1.1-0.6,1.7-0.9,1.7-0.9c1.8-0.8,3.3-1.1,4.6-0.8c1,0.2,1.7,0.8,2,1.7c0.3,0.9,0.2,1.7-0.2,2.7c-0.5,1-1.2,1.7-2.2,2.1
				c-1,0.4-2.1,0.6-3,0.7c-1.7,0.1-2.8-0.6-3.4-1.9C-358.5-337.6-358.3-338.8-357.3-339.7z M-354.9-338.8c-0.9,0.7-1.3,1.3-1,1.9
				c0.2,0.6,0.9,0.8,2.1,0.6l1.6-0.3c0.7-0.3,1-1,0.9-2c-0.1-1.1-0.7-1.4-1.7-1C-354-339.3-354.6-339-354.9-338.8z M-352.6-331
				c-0.2,0.4-0.3,0.7-0.2,1c0.5,1,1.1,1.6,1.8,1.6c0.2,0,0.6-0.2,1.2-0.4c2-0.8,2.3-1.6,1.1-2.2c-1.2-0.7-2.3-0.8-3.1-0.5
				C-352.1-331.5-352.4-331.3-352.6-331z M-353.4-332.9c1.8-0.7,3.4-1,4.8-0.8c1.2,0.2,2,0.7,2.6,1.6c0.5,0.8,0.4,1.7-0.1,2.7
				c-0.5,1.1-1.6,1.9-3,2.6c-2.5,1.1-4.3,0.5-5.3-1.8c-0.5-1.2-0.4-2.2,0-3.2C-353.8-332.6-353.5-332.9-353.4-332.9z M-339.8-322.4
				l43.7,101.9l-58.7,25.2l-43.7-101.9L-339.8-322.4z"/>
		</g>
	</g>
</g>
<g transform="matrix(0.9961947202682495,0.08715574443340302,-0.08715574443340302,0.9961947202682495,460.641845703125,390.4991455078125)">
	<g transform="matrix(1,0,0,1,0,0)">
		<path class="st3" d="M-337.6-285l2.8,13.5c0.5,3.1-0.1,4.9-1.8,5.3c-2,0.3-3.4-1-4.2-3.8l-3.7-17.4c-0.2-1.3-0.1-2.5,0.4-3.6
			c0.5-1.2,1.4-2,2.5-2.2c1.1-0.2,2.2,0.1,3.2,1c0.9,0.8,1.5,1.8,1.8,3.1l6.7,32c0.3,1.4,0.4,2.6,0.2,3.6c-0.2,1-0.5,1.7-0.9,2.1
			c-0.4,0.4-0.8,0.7-1.3,0.9c-0.5,0.2-1.3,0.3-2.5,0.3c-1.1,0-2-0.3-2.7-0.7c-0.2-0.2-0.4-0.4-0.6-0.6c-0.7-0.9-1.1-1.7-1.5-2.6
			c-0.1-0.3-0.2-0.6-0.3-1l-5.9-28.3"/>
	</g>
</g>
<g transform="matrix(0.9961947202682495,0.08715574443340302,-0.08715574443340302,0.9961947202682495,502.4391174316406,469.88311767578125)">
	<g transform="matrix(1,0,0,1,0,0)">
		<path class="st4" d="M-368.1-364.5c2.6-1.6,5.3-2,8.3-1.3c2.9,0.7,5.2,2.3,6.7,4.8c1.5,2.5,1.9,5.2,1.2,8.1
			c-0.7,2.9-2.4,5.1-5,6.7c-2.6,1.6-5.3,2-8.2,1.3c-2.9-0.7-5.1-2.2-6.7-4.8c-1.5-2.5-1.9-5.3-1.2-8.2
			C-372.4-360.7-370.7-363-368.1-364.5c-2.6,1.6-4.2,3.8-5,6.7c-0.7,2.9-0.4,5.6,1.2,8.2c1.5,2.5,3.8,4.1,6.7,4.8
			c2.9,0.7,5.7,0.3,8.2-1.3c2.6-1.6,4.3-3.8,5-6.7c0.8-2.9,0.4-5.6-1.2-8.1c-1.5-2.5-3.7-4.2-6.7-4.8
			C-362.8-366.5-365.5-366.1-368.1-364.5z M-366.5-357.7c-0.5-0.1-0.9,0-1.3,0.2c-0.4,0.2-0.7,0.6-0.8,1c-0.1,0.5,0,0.9,0.2,1.3
			c0.2,0.4,0.6,0.6,1,0.7c0.5,0.1,1,0.1,1.4-0.1c0.4-0.2,0.6-0.6,0.7-1.1c0.1-0.4,0-0.8-0.2-1.2
			C-365.7-357.3-366.1-357.5-366.5-357.7z M-371-369.2c3.9-2.4,8.1-3,12.5-2c4.4,1,7.8,3.5,10.1,7.3c2.3,3.8,2.9,7.9,1.7,12.3
			c-1.1,4.4-3.7,7.8-7.6,10.1c-3.9,2.4-8,3-12.4,2c-4.4-1-7.7-3.5-10-7.3c-2.3-3.8-2.9-7.9-1.8-12.3
			C-377.5-363.5-375-366.9-371-369.2z M-362.1-350.4c0.1-0.5,0-0.9-0.2-1.3c-0.2-0.4-0.6-0.6-1-0.8c-0.5-0.1-0.9,0-1.3,0.2
			c-0.4,0.2-0.7,0.6-0.8,1c-0.1,0.5,0,0.9,0.2,1.3c0.2,0.4,0.6,0.6,1.1,0.8c0.5,0.1,0.9,0.1,1.3-0.2
			C-362.5-349.6-362.2-349.9-362.1-350.4z M-357.8-355.8c-0.5-0.1-0.9,0-1.3,0.2c-0.4,0.2-0.7,0.6-0.8,1.1c-0.1,0.5,0,0.9,0.2,1.3
			c0.2,0.4,0.6,0.6,1.1,0.8c0.4,0.1,0.9,0,1.3-0.2c0.4-0.2,0.6-0.6,0.8-1.1c0.1-0.5,0-0.9-0.2-1.3
			C-357-355.4-357.4-355.6-357.8-355.8z M-361-361c-0.5-0.1-0.9,0-1.3,0.2c-0.4,0.2-0.7,0.6-0.8,1.1c-0.1,0.5,0,0.9,0.2,1.3
			c0.2,0.4,0.6,0.6,1,0.7c0.5,0.1,0.9,0.1,1.3-0.2c0.4-0.2,0.6-0.6,0.7-1.1c0.1-0.4,0.1-0.8-0.2-1.2
			C-360.2-360.6-360.5-360.9-361-361z"/>
	</g>
</g>
<g transform="matrix(0.9961947202682495,0.08715574443340302,-0.08715574443340302,0.9961947202682495,502.4391174316406,469.88311767578125)">
	<g transform="matrix(1,0,0,1,0,0)">
		<path class="st5" d="M-366.5-357.7c0.5,0.1,0.8,0.4,1,0.8c0.2,0.4,0.3,0.8,0.2,1.2c-0.1,0.5-0.3,0.9-0.7,1.1
			c-0.4,0.2-0.9,0.3-1.4,0.1c-0.4-0.1-0.8-0.4-1-0.7c-0.2-0.4-0.3-0.8-0.2-1.3c0.1-0.5,0.4-0.8,0.8-1
			C-367.4-357.7-367-357.8-366.5-357.7z M-361-361c0.5,0.1,0.8,0.4,1.1,0.8c0.2,0.4,0.3,0.8,0.2,1.2c-0.1,0.5-0.3,0.9-0.7,1.1
			c-0.4,0.2-0.9,0.3-1.3,0.2c-0.4-0.1-0.8-0.4-1-0.7c-0.2-0.4-0.3-0.8-0.2-1.3c0.1-0.5,0.4-0.8,0.8-1.1
			C-361.9-361-361.5-361.1-361-361z M-357.8-355.8c0.5,0.1,0.8,0.4,1.1,0.8c0.2,0.4,0.3,0.8,0.2,1.3c-0.1,0.5-0.4,0.8-0.8,1.1
			c-0.4,0.2-0.8,0.3-1.3,0.2c-0.5-0.1-0.8-0.4-1.1-0.8c-0.2-0.4-0.3-0.8-0.2-1.3c0.1-0.5,0.4-0.8,0.8-1.1
			C-358.7-355.8-358.3-355.9-357.8-355.8z M-362.1-350.4c-0.1,0.5-0.4,0.8-0.8,1.1c-0.4,0.2-0.8,0.3-1.3,0.2
			c-0.5-0.1-0.8-0.4-1.1-0.8c-0.2-0.4-0.3-0.8-0.2-1.3c0.1-0.5,0.4-0.8,0.8-1c0.4-0.2,0.8-0.3,1.3-0.2c0.5,0.1,0.8,0.4,1,0.8
			C-362.1-351.3-362-350.8-362.1-350.4z"/>
	</g>
</g>
<g transform="matrix(0.9961947202682495,0.08715574443340302,-0.08715574443340302,0.9961947202682495,496.194580078125,381.4182434082031)">
	<g transform="matrix(1,0,0,1,0,0)">
		<path class="st6" d="M-354.2-276.9c2.6-1.6,5.3-2,8.3-1.3s5.2,2.3,6.7,4.8c1.5,2.5,1.9,5.2,1.2,8.1c-0.7,2.9-2.4,5.1-5,6.7
			c-2.6,1.6-5.3,2-8.2,1.3c-2.9-0.7-5.1-2.2-6.7-4.8c-1.5-2.5-1.9-5.3-1.2-8.2C-358.4-273.1-356.8-275.4-354.2-276.9z"/>
	</g>
</g>
<g transform="matrix(-0.07020135968923569,-0.484945148229599,0.6136040687561035,-0.08882620930671692,323.96905517578125,689.5559692382812)">
	<g transform="matrix(1,0,0,1,536.0089721679688,415.4049987792969)">
		<path class="st7" d="M755.1-449.2c3.3-2.7,3.5-5.6,0.6-8.4c-2.9-2.9-2.9-5.3,0.1-7.3c2.4-1.6,3-3.3,1.7-5.1
			c-0.3-0.5-0.7-0.9-1.2-1.3c-2.6-2.3-2.8-4.1-0.6-5.5c2.3-1.4,3.5-3.1,3.5-5c0.1-1.9-0.9-4-3.2-6.3l5.6-3.2
			c3.4,1.8,4.6,4.3,3.4,7.5c-1.1,3.2-0.7,5.8,1.3,7.7l0.1-0.1c0,0.1,0,0.2-0.1,0.4c0,0,0,0.1,0,0.1c1.7,1.7,2.7,3.5,3.2,5.3
			c0.8,3.1,0,6.4-2.7,9.8c-0.1,0.2-0.2,0.4-0.3,0.5c-0.5,0.9-0.7,1.9-0.4,3c0.1,0.1,0.1,0.2,0.2,0.4c0.2,0.6,0.6,1.2,1.1,1.8
			c3.8,8.4,2.2,11.7-4.8,9.8L755.1-449.2z M655.8-452.5l-5.7,3c-3.4-1.9-4.4-4.5-3.1-7.6c1.3-3.2,0.9-5.8-1-7.8l-0.1,0.1
			c0-0.1,0.1-0.2,0.1-0.4c0,0,0-0.1,0-0.1c-1.6-1.8-2.6-3.6-3-5.4c-0.7-3.1,0.3-6.4,3-9.7c0.1-0.2,0.3-0.3,0.4-0.5
			c0.5-0.9,0.7-1.9,0.5-3c-0.1-0.1-0.1-0.2-0.1-0.4c-0.2-0.6-0.5-1.2-1-1.8c-3.4-8.6-1.7-11.8,5.2-9.6l7.3,4.3
			c-3.5,2.6-3.8,5.4-0.9,8.4c2.8,3,2.7,5.4-0.4,7.3c-2.5,1.5-3.1,3.2-1.9,5c0.3,0.5,0.6,0.9,1.1,1.4c2.5,2.4,2.6,4.2,0.4,5.5
			c-2.3,1.3-3.6,3-3.7,4.9C652.7-457,653.7-454.9,655.8-452.5z"/>
	</g>
	<g transform="matrix(1,0,0,1,535.5900268554688,415.75299072265625)">
		<path class="st8" d="M656.3-452.9c-2.2-2.3-3.2-4.5-3-6.4c0.2-1.9,1.4-3.5,3.7-4.9c2.3-1.3,2.1-3.2-0.4-5.5
			c-0.5-0.5-0.9-0.9-1.1-1.4c-1.2-1.8-0.5-3.5,1.9-5c3-1.9,3.2-4.3,0.4-7.3c-2.8-3-2.5-5.8,0.9-8.4l6.5,3.7l21.3,16.9l1.6,0.9
			c-4.7,2.7-11.1,6.3-19.1,10.8c-1.7,1-3.5,2-5.3,3c-0.1,0-0.3-0.1-0.4-0.1C661.4-455.5,659-454.3,656.3-452.9z M755.6-449.5
			l-6.7-3.5l-22-16l-1.7-0.9c4.6-2.9,10.9-6.7,18.7-11.6c1.7-1,3.4-2.1,5.2-3.2c0.1,0,0.3,0.1,0.4,0.1c2-1.1,4.3-2.4,7-3.9
			c2.3,2.2,3.3,4.3,3.2,6.3c-0.1,1.9-1.3,3.6-3.5,5c-2.2,1.4-2,3.2,0.6,5.5c0.5,0.4,0.9,0.9,1.2,1.3c1.2,1.8,0.6,3.5-1.7,5.1
			c-3,2-3,4.4-0.1,7.3C759.1-455.1,758.9-452.3,755.6-449.5z"/>
	</g>
</g>
<g transform="matrix(-0.07020135968923569,-0.484945148229599,0.6136040687561035,-0.08882620930671692,323.96905517578125,689.5559692382812)">
	<g transform="matrix(1,0,0,1,0,0)">
		<g transform="matrix(1,0,0,1,536.3259887695312,418.2030029296875)">
			<path class="st8" d="M731.2-473.6c-0.4-0.8-1.2-1.4-2.2-1.8c-1-0.4-2.1-0.4-3.1,0c-1,0.3-1.8,0.9-2.2,1.8c-0.4,0.8-0.4,1.7,0,2.5
				c0.4,0.8,1.2,1.4,2.2,1.8c1,0.4,2.1,0.4,3.1,0c1-0.3,1.8-0.9,2.2-1.8C731.6-471.9,731.6-472.7,731.2-473.6z M736.1-471.4
				c0,5.8-2.9,10.8-8.7,14.9c-5.8,4.1-12.9,6.2-21.1,6.2c-8.2,0-15.3-2.1-21.1-6.2c-5.8-4.1-8.8-9.1-8.8-14.9
				c0-5.8,2.9-10.8,8.8-14.9c5.8-4.1,12.8-6.2,21.1-6.2c8.2,0,15.2,2.1,21.1,6.2C733.2-482.2,736.1-477.3,736.1-471.4z M694.9-466.3
				c-1-0.4-2.1-0.4-3.1,0c-1,0.3-1.8,0.9-2.2,1.8c-0.4,0.8-0.4,1.7,0,2.5c0.4,0.8,1.2,1.4,2.2,1.8c1,0.4,2.1,0.4,3.1,0
				c1-0.3,1.8-0.9,2.2-1.8c0.4-0.8,0.4-1.7,0-2.5C696.7-465.3,695.9-465.9,694.9-466.3z M692.5-477.4c0.4-0.8,0.4-1.7,0-2.5
				c-0.4-0.8-1.2-1.4-2.2-1.8c-1-0.4-2.1-0.4-3.1,0c-1,0.3-1.8,0.9-2.2,1.8c-0.4,0.8-0.4,1.7,0,2.5c0.4,0.8,1.2,1.4,2.2,1.8
				c1,0.4,2.1,0.4,3.1,0C691.3-476,692.1-476.6,692.5-477.4z M717.7-461.3c-0.4-0.8-1.2-1.4-2.2-1.8c-1-0.4-2.1-0.4-3.1,0
				c-1,0.3-1.8,0.9-2.2,1.8c-0.4,0.8-0.4,1.7,0,2.5c0.4,0.8,1.2,1.4,2.2,1.8c1,0.4,2.1,0.4,3.1,0c1-0.3,1.8-0.9,2.2-1.8
				C718.1-459.6,718.1-460.4,717.7-461.3z M707.7-478.6c-1-0.4-2.1-0.4-3.1,0c-1,0.3-1.8,0.9-2.2,1.8c-0.4,0.8-0.4,1.7,0,2.5
				c0.4,0.8,1.2,1.4,2.2,1.8c1,0.4,2.1,0.4,3.1,0c1-0.3,1.8-0.9,2.2-1.8c0.4-0.8,0.4-1.7,0-2.5C709.5-477.6,708.7-478.2,707.7-478.6
				z M723.4-486.2c-0.4-0.8-1.2-1.4-2.2-1.8c-1-0.4-2.1-0.4-3.1,0c-1,0.3-1.8,0.9-2.2,1.8c-0.4,0.8-0.4,1.7,0,2.5
				c0.4,0.8,1.2,1.4,2.2,1.8c1,0.4,2.1,0.4,3.1,0c1-0.3,1.8-0.9,2.2-1.8C723.8-484.6,723.8-485.4,723.4-486.2z"/>
		</g>
		<g transform="matrix(1,0,0,1,538.9949951171875,416.6029968261719)">
			<path class="st7" d="M728.5-472c0.4,0.8,0.4,1.7,0,2.5c-0.4,0.8-1.1,1.4-2.2,1.8c-1,0.3-2.1,0.3-3.1,0c-1-0.3-1.7-0.9-2.2-1.8
				c-0.4-0.8-0.4-1.7,0-2.5c0.5-0.8,1.2-1.4,2.2-1.8c1-0.3,2.1-0.3,3.1,0C727.4-473.4,728.1-472.8,728.5-472z M720.7-484.6
				c0.4,0.8,0.4,1.7,0,2.5c-0.4,0.8-1.1,1.4-2.2,1.8c-1,0.3-2.1,0.3-3.1,0c-1-0.3-1.7-0.9-2.2-1.8c-0.4-0.8-0.4-1.7,0-2.5
				c0.5-0.8,1.2-1.4,2.2-1.8c1-0.3,2.1-0.3,3.1,0C719.6-486.1,720.3-485.5,720.7-484.6z M705.1-477c1,0.4,1.7,1,2.2,1.8
				c0.4,0.8,0.4,1.7,0,2.5c-0.4,0.8-1.1,1.4-2.2,1.8c-1,0.3-2.1,0.3-3.1,0c-1-0.3-1.7-0.9-2.2-1.8c-0.4-0.8-0.4-1.7,0-2.5
				c0.5-0.8,1.2-1.4,2.2-1.8C703-477.4,704-477.3,705.1-477z M715-459.7c0.4,0.8,0.4,1.7,0,2.5c-0.4,0.8-1.1,1.4-2.2,1.8
				c-1,0.3-2.1,0.3-3.1,0c-1-0.3-1.7-0.9-2.2-1.8c-0.4-0.8-0.4-1.7,0-2.5c0.5-0.8,1.2-1.4,2.2-1.8c1-0.3,2.1-0.3,3.1,0
				C713.9-461.1,714.6-460.5,715-459.7z M689.8-475.8c-0.4,0.8-1.1,1.4-2.2,1.8c-1,0.3-2.1,0.3-3.1,0c-1-0.3-1.7-0.9-2.2-1.8
				c-0.4-0.8-0.4-1.7,0-2.5c0.5-0.8,1.2-1.4,2.2-1.8c1-0.3,2.1-0.3,3.1,0c1,0.4,1.7,1,2.2,1.8C690.2-477.5,690.2-476.6,689.8-475.8z
				 M692.2-464.7c1,0.4,1.7,1,2.2,1.8c0.4,0.8,0.4,1.7,0,2.5c-0.4,0.8-1.1,1.4-2.2,1.8c-1,0.3-2.1,0.3-3.1,0c-1-0.3-1.7-0.9-2.2-1.8
				c-0.4-0.8-0.4-1.7,0-2.5c0.5-0.8,1.2-1.4,2.2-1.8C690.2-465,691.2-465,692.2-464.7z"/>
		</g>
	</g>
</g>
<g transform="matrix(0.6031134724617004,0.23697710037231445,-0.23697710037231445,0.6031134724617004,581.3045654296875,386.9129638671875)">
	<g transform="matrix(1,0,0,1,0,0)">
		<path class="st9" d="M-687.3-245h28.6v27.6l-28.6,0V-245z"/>
	</g>
</g>
<g transform="matrix(0.6031134724617004,0.23697710037231445,-0.23697710037231445,0.6031134724617004,516.05908203125,421.6937255859375)">
	<g transform="matrix(1,0,0,1,0,0)">
		<path class="st10" d="M-584.6-304.2v33.4c-8.7,8.2-18.2,8.2-28.6,0v-33.4H-584.6z M-584.6-331.7h-28.6v-30.6
			c8.6-8.9,18.2-8.9,28.6,0V-331.7z"/>
	</g>
</g>
<g transform="matrix(0.9961947202682495,0.08715574443340302,-0.08715574443340302,0.9961947202682495,47.919620513916016,-71.79207611083984)">
	<g transform="matrix(1,0,0,1,503.3080139160156,527.60302734375)">
		<path class="st11" d="M-357.3-239.1c0.2,0.2,0.3,0.3,0.5,0.5c0.1,0,0.1,0.1,0.1,0.2c0.1,0.1,0.1,0.2,0.1,0.4
			c0,0.2-0.1,0.3-0.2,0.5c-0.1,0.1-0.3,0.2-0.5,0.2c-0.2,0-0.3-0.1-0.5-0.2c0,0,0,0-0.1-0.1c-0.2-0.2-0.4-0.4-0.6-0.7l0,0
			c0,0,0,0,0,0l0,0c-0.1-0.1-0.2-0.3-0.3-0.4c-0.1-0.1-0.2-0.3-0.2-0.5c0-0.2,0.1-0.3,0.2-0.5c0.1-0.1,0.3-0.2,0.5-0.2
			c0.2,0,0.3,0.1,0.5,0.2c0.1,0.1,0.2,0.3,0.3,0.4l0,0C-357.4-239.2-357.4-239.2-357.3-239.1z M-351.5-240.6
			c0.1-0.1,0.3-0.2,0.5-0.2c0.2,0,0.3,0.1,0.5,0.2c0.1,0.1,0.2,0.3,0.2,0.5c0,0.2-0.1,0.3-0.2,0.5c-0.6,0.7-1.2,1.3-1.8,2h0
			c-0.3,0.3-0.6,0.7-0.9,1c-0.1,0.1-0.3,0.2-0.5,0.2c-0.2,0-0.4,0-0.5-0.2c-0.1-0.1-0.2-0.3-0.2-0.5c0-0.2,0-0.4,0.2-0.5
			c0.3-0.4,0.6-0.7,1-1.1h0C-352.7-239.3-352.1-240-351.5-240.6z M-331.8-256.3c0.1,0.2,0.1,0.3,0.1,0.5c0,0.2-0.1,0.3-0.3,0.4
			c-1.1,0.7-2.2,1.5-3.4,2.3c-0.2,0.1-0.3,0.1-0.5,0.1c-0.2,0-0.3-0.1-0.4-0.3c-0.1-0.2-0.1-0.3-0.1-0.5c0-0.2,0.1-0.3,0.3-0.4
			c1.1-0.8,2.2-1.6,3.4-2.3c0.2-0.1,0.3-0.1,0.5-0.1C-332.1-256.5-331.9-256.4-331.8-256.3z M-345.6-246.4c0.1-0.1,0.3-0.2,0.5-0.2
			c0.2,0,0.3,0.1,0.5,0.2c0.1,0.1,0.2,0.3,0.2,0.5c0,0.2-0.1,0.3-0.2,0.5c-1,0.9-2,1.8-2.9,2.8c-0.1,0.1-0.3,0.2-0.5,0.2
			c-0.2,0-0.3-0.1-0.5-0.2c-0.1-0.1-0.2-0.3-0.2-0.5c0-0.2,0.1-0.3,0.2-0.5C-347.6-244.5-346.6-245.5-345.6-246.4z M-342.8-248.6
			c0-0.2,0.1-0.4,0.2-0.5c1.1-0.9,2.1-1.7,3.2-2.6c0.2-0.1,0.3-0.2,0.5-0.2c0.2,0,0.3,0.1,0.4,0.3c0.1,0.2,0.2,0.3,0.2,0.5
			c0,0.2-0.1,0.3-0.3,0.4c-1.1,0.8-2.1,1.7-3.2,2.6c-0.1,0.1-0.3,0.2-0.5,0.2c-0.2,0-0.3-0.1-0.5-0.2
			C-342.8-248.3-342.8-248.4-342.8-248.6z M-348.8-257.9c0.1,0.2,0.1,0.3,0,0.5c-0.5,1.3-1,2.5-1.6,3.8c-0.1,0.2-0.2,0.3-0.4,0.3
			c-0.2,0.1-0.3,0.1-0.5,0c-0.2-0.1-0.3-0.2-0.4-0.4c-0.1-0.2-0.1-0.4,0-0.5c0.6-1.2,1.1-2.5,1.5-3.7c0.1-0.2,0.2-0.3,0.4-0.4
			c0.2-0.1,0.3-0.1,0.5,0C-349-258.2-348.9-258.1-348.8-257.9z M-346.3-265.3c-0.3,1.3-0.7,2.7-1.1,4c-0.1,0.2-0.2,0.3-0.3,0.4
			c-0.2,0.1-0.3,0.1-0.5,0.1c-0.2-0.1-0.3-0.2-0.4-0.3c-0.1-0.2-0.1-0.3-0.1-0.5c0.4-1.3,0.8-2.6,1.1-4c0.1-0.2,0.2-0.3,0.3-0.4
			c0.2-0.1,0.3-0.1,0.5-0.1c0.2,0.1,0.3,0.2,0.4,0.3C-346.3-265.7-346.2-265.5-346.3-265.3z M-345.5-274.3c0.2,0,0.3,0.1,0.5,0.3
			c0.1,0.1,0.2,0.3,0.2,0.5c-0.1,1.4-0.3,2.8-0.6,4.1c0,0.2-0.1,0.3-0.3,0.4c-0.2,0.1-0.3,0.1-0.5,0.1c-0.2,0-0.3-0.1-0.4-0.3
			c-0.1-0.2-0.1-0.3-0.1-0.5c0.2-1.3,0.4-2.7,0.6-4c0-0.2,0.1-0.3,0.3-0.5C-345.8-274.3-345.7-274.3-345.5-274.3z M-353.4-250.4
			c0.1-0.2,0.2-0.3,0.4-0.3c0.2-0.1,0.4,0,0.5,0c0.2,0.1,0.3,0.2,0.3,0.4c0.1,0.2,0,0.4,0,0.5c-0.5,1-1,2-1.6,3
			c-0.1,0.2-0.2,0.3-0.4,0.3c-0.1,0-0.2,0-0.3,0c-0.1,0-0.2,0-0.3,0c-0.2-0.1-0.3-0.2-0.4-0.3c-0.6-1-1.1-2-1.6-3
			c-0.1-0.2-0.1-0.3,0-0.5c0.1-0.2,0.2-0.3,0.3-0.4c0.2-0.1,0.3-0.1,0.5,0c0.2,0.1,0.3,0.2,0.4,0.3c0.3,0.7,0.7,1.4,1.1,2.1
			C-354.1-249-353.8-249.7-353.4-250.4z M-364.5-245.8c0.2,0,0.4,0,0.5,0.2c1,0.9,2,1.9,3,2.9c0.1,0.1,0.2,0.3,0.2,0.5
			c0,0.2-0.1,0.3-0.2,0.5c-0.1,0.1-0.3,0.2-0.5,0.2c-0.2,0-0.3-0.1-0.5-0.2c-1-1-2-1.9-3-2.8c-0.1-0.1-0.2-0.3-0.2-0.5
			c0-0.2,0-0.4,0.2-0.5C-364.8-245.7-364.7-245.8-364.5-245.8z M-358.9-257.9c0.5,1.2,1,2.5,1.5,3.7c0.1,0.2,0.1,0.4,0,0.5
			c-0.1,0.2-0.2,0.3-0.4,0.4c-0.2,0.1-0.3,0.1-0.5,0c-0.2-0.1-0.3-0.2-0.4-0.3c-0.6-1.3-1.1-2.5-1.6-3.8c-0.1-0.2-0.1-0.3,0-0.5
			c0.1-0.2,0.2-0.3,0.4-0.4c0.2-0.1,0.3-0.1,0.5,0C-359.1-258.2-359-258.1-358.9-257.9z M-370.8-251.1c0.2,0,0.4,0,0.5,0.2
			c1.1,0.8,2.1,1.7,3.2,2.6c0.1,0.1,0.2,0.3,0.2,0.5c0,0.2,0,0.4-0.2,0.5c-0.1,0.1-0.3,0.2-0.5,0.2c-0.2,0-0.4,0-0.5-0.2
			c-1-0.9-2.1-1.7-3.2-2.6c-0.1-0.1-0.2-0.3-0.3-0.4c0-0.2,0-0.4,0.2-0.5C-371.1-251-371-251.1-370.8-251.1z M-376.9-255.8
			c1.1,0.8,2.2,1.5,3.4,2.4c0.2,0.1,0.2,0.3,0.3,0.4c0,0.2,0,0.4-0.1,0.5c-0.1,0.2-0.3,0.2-0.4,0.3c-0.2,0-0.4,0-0.5-0.1
			c-1.1-0.8-2.2-1.6-3.3-2.3c-0.2-0.1-0.3-0.2-0.3-0.4c0-0.2,0-0.4,0.1-0.5c0.1-0.2,0.2-0.3,0.4-0.3
			C-377.2-256-377.1-255.9-376.9-255.8z M-362.7-265.4c0-0.2,0-0.4,0.1-0.5c0.1-0.2,0.2-0.3,0.4-0.3c0.2,0,0.4,0,0.5,0.1
			c0.2,0.1,0.3,0.2,0.3,0.4c0.3,1.3,0.7,2.6,1.1,3.9c0.1,0.2,0,0.3,0,0.5c-0.1,0.2-0.2,0.3-0.4,0.3c-0.2,0.1-0.3,0-0.5,0
			c-0.2-0.1-0.3-0.2-0.3-0.4C-362-262.7-362.4-264.1-362.7-265.4z M-364-274.1c0.1-0.1,0.3-0.2,0.5-0.3c0.2,0,0.3,0,0.5,0.2
			c0.1,0.1,0.2,0.3,0.3,0.5c0.1,1.3,0.3,2.7,0.6,4c0,0.2,0,0.4-0.1,0.5c-0.1,0.2-0.3,0.2-0.4,0.3c-0.2,0-0.4,0-0.5-0.1
			c-0.2-0.1-0.2-0.3-0.3-0.4c-0.3-1.4-0.5-2.8-0.6-4.1C-364.2-273.8-364.1-273.9-364-274.1z M-364.4-281.8c0-0.2,0.1-0.3,0.2-0.5
			c0.1-0.1,0.3-0.2,0.5-0.2c0.2,0,0.3,0.1,0.5,0.2c0.1,0.1,0.2,0.3,0.2,0.5c0,1.4,0,2.7,0,4.1c0,0.2-0.1,0.3-0.2,0.5
			c-0.1,0.1-0.3,0.2-0.5,0.2c-0.2,0-0.3-0.1-0.5-0.2c-0.1-0.1-0.2-0.3-0.2-0.5C-364.5-279.1-364.5-280.5-364.4-281.8z M-363.6-290.1
			c0-0.2,0.1-0.3,0.3-0.4c0.2-0.1,0.3-0.1,0.5-0.1c0.2,0,0.3,0.1,0.4,0.3c0.1,0.2,0.1,0.3,0.1,0.5c-0.2,1.3-0.4,2.7-0.5,4
			c0,0.2-0.1,0.3-0.3,0.5c-0.1,0.1-0.3,0.2-0.5,0.2c-0.2,0-0.3-0.1-0.5-0.3c-0.1-0.1-0.2-0.3-0.2-0.5
			C-364-287.4-363.8-288.7-363.6-290.1z M-360.4-298.2c0.1,0.2,0.1,0.3,0.1,0.5c-0.4,1.3-0.8,2.6-1.1,3.9c0,0.2-0.1,0.3-0.3,0.4
			c-0.2,0.1-0.3,0.1-0.5,0.1c-0.2,0-0.3-0.1-0.4-0.3c-0.1-0.2-0.1-0.3-0.1-0.5c0.3-1.3,0.7-2.7,1.1-4c0.1-0.2,0.2-0.3,0.3-0.4
			c0.2-0.1,0.3-0.1,0.5-0.1C-360.7-298.5-360.5-298.4-360.4-298.2z M-358.8-305.8c0.1-0.2,0.2-0.3,0.4-0.3c0.2-0.1,0.3-0.1,0.5,0
			c0.2,0.1,0.3,0.2,0.4,0.4c0.1,0.2,0.1,0.4,0,0.5c-0.6,1.2-1.1,2.5-1.5,3.7c-0.1,0.2-0.2,0.3-0.4,0.4c-0.2,0.1-0.3,0.1-0.5,0
			c-0.2-0.1-0.3-0.2-0.4-0.4c-0.1-0.2-0.1-0.3,0-0.5C-359.9-303.3-359.3-304.6-358.8-305.8z M-345.7-282.3c0.1-0.1,0.3-0.2,0.5-0.2
			c0.2,0,0.3,0.1,0.5,0.2c0.1,0.1,0.2,0.3,0.2,0.5c0,1.4,0,2.7,0,4.1c0,0.2-0.1,0.3-0.2,0.5c-0.1,0.1-0.3,0.2-0.5,0.2
			c-0.2,0-0.3-0.1-0.5-0.2c-0.1-0.1-0.2-0.3-0.2-0.5c0-1.4,0-2.7,0-4.1C-345.9-282-345.9-282.1-345.7-282.3z M-345.7-290.5
			c0.2,0.1,0.2,0.3,0.3,0.4c0.2,1.4,0.4,2.7,0.6,4.1c0,0.2,0,0.4-0.2,0.5c-0.1,0.1-0.3,0.2-0.5,0.3c-0.2,0-0.4,0-0.5-0.2
			c-0.1-0.1-0.2-0.3-0.3-0.5c-0.1-1.3-0.3-2.7-0.5-4c0-0.2,0-0.4,0.1-0.5c0.1-0.2,0.3-0.2,0.4-0.3
			C-346-290.6-345.8-290.6-345.7-290.5z M-347.6-298.5c0.2,0.1,0.3,0.2,0.3,0.4c0.4,1.3,0.8,2.7,1.1,4c0,0.2,0,0.4-0.1,0.5
			c-0.1,0.2-0.2,0.3-0.4,0.3c-0.2,0-0.4,0-0.5-0.1c-0.2-0.1-0.3-0.2-0.3-0.4c-0.3-1.3-0.7-2.6-1.1-3.9c-0.1-0.2,0-0.4,0.1-0.5
			c0.1-0.2,0.2-0.3,0.4-0.3C-348-298.6-347.8-298.6-347.6-298.5z M-351.5-305.3c-0.1-0.2-0.1-0.4,0-0.5c0.1-0.2,0.2-0.3,0.4-0.4
			c0.2-0.1,0.4-0.1,0.5,0c0.2,0.1,0.3,0.2,0.4,0.4c0.5,1.3,1.1,2.5,1.5,3.8c0.1,0.2,0.1,0.3,0,0.5c-0.1,0.2-0.2,0.3-0.4,0.4
			c-0.2,0.1-0.3,0.1-0.5,0c-0.2-0.1-0.3-0.2-0.4-0.4C-350.4-302.8-350.9-304-351.5-305.3z M-380.6-256.8c-0.2,0-0.4,0-0.5-0.1
			c-1.2-0.7-2.3-1.4-3.5-2.1c-0.2-0.1-0.3-0.2-0.3-0.4c0-0.2,0-0.3,0.1-0.5c0.1-0.2,0.2-0.3,0.4-0.3c0.2,0,0.3,0,0.5,0.1
			c1.2,0.7,2.4,1.4,3.5,2.1c0.2,0.1,0.3,0.2,0.3,0.4c0,0.2,0,0.4-0.1,0.5C-380.2-257-380.4-256.9-380.6-256.8z M-395-265.7
			c0.2,0.1,0.3,0.2,0.4,0.4c0.1,0.2,0.1,0.4,0,0.5c-0.1,0.2-0.2,0.3-0.4,0.4c-0.2,0.1-0.4,0.1-0.5,0c-1.2-0.5-2.5-1.1-3.7-1.5
			c-0.2-0.1-0.3-0.2-0.4-0.4c-0.1-0.2-0.1-0.3,0-0.5c0.1-0.2,0.2-0.3,0.4-0.4c0.2-0.1,0.3-0.1,0.5,0
			C-397.6-266.8-396.3-266.3-395-265.7z M-405.5-269.6L-405.5-269.6c0.9,0.3,1.9,0.6,2.8,0.9c0.2,0.1,0.3,0.2,0.4,0.3
			c0.1,0.2,0.1,0.3,0,0.5c-0.1,0.2-0.2,0.3-0.3,0.4c-0.2,0.1-0.3,0.1-0.5,0c-0.9-0.3-1.9-0.6-2.8-0.9h0c-0.4-0.1-0.8-0.2-1.1-0.3
			c-0.2-0.1-0.3-0.2-0.4-0.3c-0.1-0.2-0.1-0.3-0.1-0.5c0-0.2,0.2-0.3,0.3-0.4c0.2-0.1,0.3-0.1,0.5-0.1
			C-406.4-269.8-406-269.7-405.5-269.6z M-387.2-261.8c0.1,0.2,0,0.3-0.1,0.5c-0.1,0.2-0.2,0.3-0.4,0.3c-0.2,0.1-0.3,0-0.5,0
			c-1.2-0.6-2.5-1.2-3.7-1.8c-0.2-0.1-0.3-0.2-0.4-0.4c-0.1-0.2,0-0.3,0-0.5c0.1-0.2,0.2-0.3,0.4-0.4c0.2-0.1,0.3,0,0.5,0
			c1.3,0.6,2.5,1.2,3.7,1.8C-387.3-262.1-387.2-261.9-387.2-261.8z M-412.3-271.4L-412.3-271.4c0.2,0,0.4,0.1,0.6,0.1h0
			c0.3,0.1,0.5,0.1,0.8,0.2c0.2,0.1,0.3,0.2,0.4,0.3c0.1,0.2,0.1,0.3,0.1,0.5c0,0.2-0.2,0.3-0.3,0.4c-0.2,0.1-0.3,0.1-0.5,0.1
			c-0.3-0.1-0.5-0.1-0.8-0.2c-0.2,0-0.4-0.1-0.6-0.1c-0.9-0.2-1.8-0.4-2.6-0.6c-0.2,0-0.3-0.1-0.4-0.3c-0.1-0.2-0.1-0.3-0.1-0.5
			c0-0.2,0.1-0.3,0.3-0.4c0.2-0.1,0.3-0.1,0.5-0.1C-414.1-271.8-413.2-271.6-412.3-271.4z M-424.1-278c0-0.2,0.1-0.3,0.2-0.5
			c0.1-0.1,0.3-0.2,0.5-0.2c0.2,0,0.3,0.1,0.5,0.2c0.1,0.1,0.2,0.3,0.2,0.5l-0.2,4.1c0,0.1,0,0.3-0.1,0.4c1.1,0.2,2.2,0.3,3.3,0.5h0
			c0.2,0,0.5,0.1,0.7,0.1c0.2,0,0.3,0.1,0.4,0.3c0.1,0.2,0.1,0.3,0.1,0.5c0,0.2-0.1,0.3-0.3,0.4c-0.2,0.1-0.3,0.1-0.5,0.1
			c-0.2,0-0.5-0.1-0.7-0.1c-1.1-0.2-2.2-0.3-3.3-0.5c-0.2,0-0.3-0.1-0.4-0.3c-0.1-0.2-0.2-0.3-0.1-0.5c0-0.1,0.1-0.2,0.1-0.3
			c-0.1,0-0.2-0.1-0.3-0.2c-0.1-0.1-0.2-0.3-0.2-0.5L-424.1-278z M-423-286.8c0.2,0,0.3,0.1,0.5,0.2c0.1,0.1,0.2,0.3,0.2,0.5
			l-0.2,4.1c0,0.2-0.1,0.3-0.2,0.5c-0.1,0.1-0.3,0.2-0.5,0.2c-0.2,0-0.3-0.1-0.5-0.2c-0.1-0.1-0.2-0.3-0.2-0.5l0.2-4.1
			c0-0.2,0.1-0.3,0.2-0.5C-423.4-286.8-423.2-286.8-423-286.8z M-423.3-294.3c0-0.2,0.1-0.3,0.2-0.5c0.1-0.1,0.3-0.2,0.5-0.2
			c0.2,0,0.3,0.1,0.5,0.2c0.1,0.1,0.2,0.3,0.2,0.5l-0.2,4.1c0,0.2-0.1,0.3-0.2,0.5c-0.1,0.1-0.3,0.2-0.5,0.2c-0.2,0-0.3-0.1-0.5-0.2
			c-0.1-0.1-0.2-0.3-0.2-0.5L-423.3-294.3z M-421.7-302.9c0.1,0.1,0.2,0.3,0.2,0.5l-0.2,4.1c0,0.2-0.1,0.3-0.2,0.5
			c-0.1,0.1-0.3,0.2-0.5,0.2c-0.2,0-0.3-0.1-0.5-0.2c-0.1-0.1-0.2-0.3-0.2-0.5l0.2-4.1c0-0.2,0.1-0.3,0.2-0.5
			c0.1-0.1,0.3-0.2,0.5-0.2C-421.9-303.1-421.8-303.1-421.7-302.9z M-421.7-311.3c0.2,0,0.3,0.1,0.5,0.2c0.1,0.1,0.2,0.3,0.2,0.5
			l-0.2,4.1c0,0.2-0.1,0.3-0.2,0.5c-0.1,0.1-0.3,0.2-0.5,0.2c-0.2,0-0.3-0.1-0.5-0.2c-0.1-0.1-0.2-0.3-0.2-0.5l0.2-4.1
			c0-0.2,0.1-0.3,0.2-0.5C-422-311.3-421.8-311.3-421.7-311.3z M-421.2-327.5c0.1-0.1,0.3-0.2,0.5-0.2c0.2,0,0.3,0.1,0.5,0.2
			c0.1,0.1,0.2,0.3,0.2,0.5l-0.2,4.1c0,0.2-0.1,0.3-0.2,0.5c-0.1,0.1-0.3,0.2-0.5,0.2c-0.2,0-0.3-0.1-0.5-0.2
			c-0.1-0.1-0.2-0.3-0.2-0.5l0.2-4.1C-421.4-327.2-421.3-327.4-421.2-327.5z M-421.9-314.3c-0.1-0.1-0.2-0.3-0.2-0.5l0.2-4.1
			c0-0.2,0.1-0.3,0.2-0.5c0.1-0.1,0.3-0.2,0.5-0.2c0.2,0,0.3,0.1,0.5,0.2c0.1,0.1,0.2,0.3,0.2,0.5l-0.2,4.1c0,0.2-0.1,0.3-0.2,0.5
			c-0.1,0.1-0.3,0.2-0.5,0.2C-421.6-314-421.8-314.1-421.9-314.3z M-420.7-335.7c0.1-0.1,0.3-0.2,0.5-0.2c0.2,0,0.3,0.1,0.5,0.2
			c0.1,0.1,0.2,0.3,0.2,0.5l-0.2,4.1c0,0.2-0.1,0.3-0.2,0.5c-0.1,0.1-0.3,0.2-0.5,0.2c-0.2,0-0.3-0.1-0.5-0.2
			c-0.1-0.1-0.2-0.3-0.2-0.5l0.2-4.1C-420.9-335.4-420.9-335.5-420.7-335.7z M-420.5-343.4c0-0.2,0.1-0.3,0.2-0.5
			c0.1-0.1,0.3-0.2,0.5-0.2c0.2,0,0.3,0.1,0.5,0.2c0.1,0.1,0.2,0.3,0.2,0.5l-0.2,4.1c0,0.2-0.1,0.3-0.2,0.5
			c-0.1,0.1-0.3,0.2-0.5,0.2c-0.2,0-0.3-0.1-0.5-0.2c-0.1-0.1-0.2-0.3-0.2-0.5L-420.5-343.4z M-420-351.5c0-0.2,0.1-0.3,0.2-0.5
			c0.1-0.1,0.3-0.2,0.5-0.2c0.2,0,0.3,0.1,0.5,0.2c0.1,0.1,0.2,0.3,0.2,0.5l-0.2,4.1c0,0.2-0.1,0.3-0.2,0.5
			c-0.1,0.1-0.3,0.2-0.5,0.2c-0.2,0-0.3-0.1-0.5-0.2c-0.1-0.1-0.2-0.3-0.2-0.5L-420-351.5z M-419.3-360.2c0.1-0.1,0.3-0.2,0.5-0.2
			c0.2,0,0.3,0.1,0.5,0.2c0.1,0.1,0.2,0.3,0.2,0.5l-0.2,4.1c0,0.2-0.1,0.3-0.2,0.5c-0.1,0.1-0.3,0.2-0.5,0.2c-0.2,0-0.3-0.1-0.5-0.2
			c-0.1-0.1-0.2-0.3-0.2-0.5l0.2-4.1C-419.5-359.9-419.4-360.1-419.3-360.2z M-417.8-368.3c0.1,0.1,0.2,0.3,0.2,0.5l-0.2,4.1
			c0,0.2-0.1,0.3-0.2,0.5c-0.1,0.1-0.3,0.2-0.5,0.2c-0.2,0-0.3-0.1-0.5-0.2c-0.1-0.1-0.2-0.3-0.2-0.5l0.2-4.1c0-0.2,0.1-0.3,0.2-0.5
			c0.1-0.1,0.3-0.2,0.5-0.2C-418.1-368.5-418-368.4-417.8-368.3z M-415.7-370c0.2,0,0.4,0,0.5,0.1c1.2,0.7,2.3,1.5,3.5,2.2
			c0.2,0.1,0.3,0.2,0.3,0.4c0,0.2,0,0.4-0.1,0.5c-0.1,0.2-0.2,0.3-0.4,0.3c-0.2,0-0.4,0-0.5-0.1c-1.1-0.7-2.3-1.5-3.4-2.2
			c-0.2-0.1-0.3-0.2-0.3-0.4c0-0.2,0-0.4,0.1-0.5C-416-369.8-415.9-369.9-415.7-370z M-413.9-372.6c0.2,0,0.3,0.1,0.5,0.2
			c0.1,0.1,0.2,0.3,0.2,0.5c0,0.2-0.1,0.3-0.2,0.5c-0.1,0.1-0.3,0.2-0.5,0.2h-4.1c-0.2,0-0.3-0.1-0.5-0.2c-0.1-0.1-0.2-0.3-0.2-0.5
			c0-0.2,0.1-0.3,0.2-0.5c0.1-0.1,0.3-0.2,0.5-0.2H-413.9z M-389.4-350.1c-0.1-0.1-0.2-0.3-0.3-0.5c0-0.2,0-0.3,0.2-0.5
			c0.1-0.1,0.3-0.2,0.5-0.3c0.2,0,0.3,0,0.5,0.2c1.1,0.9,2.1,1.7,3.2,2.6c0.1,0.1,0.2,0.3,0.3,0.5c0,0.2,0,0.4-0.2,0.5
			c-0.1,0.1-0.3,0.2-0.5,0.3c-0.2,0-0.4,0-0.5-0.2C-387.3-348.4-388.3-349.2-389.4-350.1z M-398.6-357.3c-0.2,0-0.4,0-0.5-0.1
			c-1.1-0.8-2.2-1.6-3.3-2.3c-0.2-0.1-0.2-0.3-0.3-0.4c0-0.2,0-0.4,0.1-0.5c0.1-0.2,0.3-0.2,0.4-0.3c0.2,0,0.4,0,0.5,0.1
			c1.1,0.8,2.2,1.6,3.3,2.4c0.1,0.1,0.2,0.3,0.3,0.4c0,0.2,0,0.4-0.1,0.5C-398.2-357.4-398.4-357.3-398.6-357.3z M-395.8-355
			c-0.2-0.1-0.2-0.3-0.3-0.4c0-0.2,0-0.4,0.1-0.5c0.1-0.2,0.3-0.2,0.4-0.3c0.2,0,0.4,0,0.5,0.1c1.1,0.8,2.2,1.6,3.2,2.5
			c0.2,0.1,0.2,0.3,0.3,0.5c0,0.2,0,0.3-0.1,0.5c-0.1,0.2-0.3,0.2-0.5,0.3c-0.2,0-0.3,0-0.5-0.1C-393.6-353.4-394.7-354.2-395.8-355
			z M-404.9-363.2c0.2,0.1,0.3,0.2,0.3,0.4c0,0.2,0,0.4-0.1,0.5c-0.1,0.2-0.2,0.3-0.4,0.3c-0.2,0-0.4,0-0.5-0.1
			c-1.1-0.7-2.2-1.5-3.4-2.2c-0.2-0.1-0.3-0.2-0.3-0.4c0-0.2,0-0.4,0.1-0.5c0.1-0.2,0.2-0.3,0.4-0.3c0.2,0,0.4,0,0.5,0.1
			C-407.2-364.7-406.1-363.9-404.9-363.2z M-405.2-371.5c-0.1,0.1-0.3,0.2-0.5,0.2h-4.1c-0.2,0-0.3-0.1-0.5-0.2
			c-0.1-0.1-0.2-0.3-0.2-0.5c0-0.2,0.1-0.3,0.2-0.5c0.1-0.1,0.3-0.2,0.5-0.2h4.1c0.2,0,0.3,0.1,0.5,0.2c0.1,0.1,0.2,0.3,0.2,0.5
			C-405-371.7-405.1-371.6-405.2-371.5z M-397-371.5c-0.1,0.1-0.3,0.2-0.5,0.2h-4.1c-0.2,0-0.3-0.1-0.5-0.2
			c-0.1-0.1-0.2-0.3-0.2-0.5c0-0.2,0.1-0.3,0.2-0.5c0.1-0.1,0.3-0.2,0.5-0.2h4.1c0.2,0,0.3,0.1,0.5,0.2c0.1,0.1,0.2,0.3,0.2,0.5
			C-396.8-371.7-396.9-371.6-397-371.5z M-393.4-371.3c-0.2,0-0.3-0.1-0.5-0.2c-0.1-0.1-0.2-0.3-0.2-0.5c0-0.2,0.1-0.3,0.2-0.5
			c0.1-0.1,0.3-0.2,0.5-0.2h4.1c0.2,0,0.3,0.1,0.5,0.2c0.1,0.1,0.2,0.3,0.2,0.5c0,0.2-0.1,0.3-0.2,0.5c-0.1,0.1-0.3,0.2-0.5,0.2
			H-393.4z M-385.7-372.4c0.1-0.1,0.3-0.2,0.5-0.2h4.1c0.2,0,0.3,0.1,0.5,0.2c0.1,0.1,0.2,0.3,0.2,0.5c0,0.2-0.1,0.3-0.2,0.5
			c-0.1,0.1-0.3,0.2-0.5,0.2h-4.1c-0.2,0-0.3-0.1-0.5-0.2c-0.1-0.1-0.2-0.3-0.2-0.5C-385.9-372.1-385.9-372.3-385.7-372.4z
			 M-347.9-322c0,0.2,0,0.4-0.1,0.5c-0.8,1.1-1.6,2.2-2.3,3.3c-0.1,0.2-0.2,0.3-0.4,0.3c-0.2,0-0.4,0-0.5-0.1
			c-0.2-0.1-0.3-0.2-0.3-0.4c0-0.2,0-0.4,0.1-0.5c0.8-1.1,1.5-2.2,2.4-3.4c0.1-0.2,0.3-0.2,0.4-0.3c0.2,0,0.4,0,0.5,0.1
			C-348-322.3-347.9-322.2-347.9-322z M-343.5-329c0.2,0,0.4,0,0.5,0.2c0.1,0.1,0.2,0.3,0.2,0.5c0,0.2,0,0.4-0.2,0.5
			c-0.9,1-1.7,2.1-2.6,3.2c-0.1,0.1-0.3,0.2-0.4,0.3c-0.2,0-0.4,0-0.5-0.2c-0.1-0.1-0.2-0.3-0.3-0.4c0-0.2,0-0.4,0.2-0.5
			c0.8-1.1,1.7-2.1,2.6-3.2C-343.9-328.9-343.7-329-343.5-329z M-337.3-334.4c0,0.2-0.1,0.4-0.2,0.5c-0.9,1-1.9,2-2.8,3
			c-0.1,0.1-0.3,0.2-0.5,0.2c-0.2,0-0.4,0-0.5-0.2c-0.1-0.1-0.2-0.3-0.2-0.5c0-0.2,0-0.4,0.2-0.5c0.9-1,1.9-2,2.8-3
			c0.1-0.1,0.3-0.2,0.5-0.2c0.2,0,0.4,0.1,0.5,0.2C-337.4-334.7-337.3-334.6-337.3-334.4z M-331.7-340.6c0.1,0.1,0.2,0.3,0.2,0.5
			c0,0.2-0.1,0.3-0.2,0.5c-1,0.9-2,1.9-2.9,2.8c-0.1,0.1-0.3,0.2-0.5,0.2c-0.2,0-0.3-0.1-0.5-0.2c-0.1-0.1-0.2-0.3-0.2-0.5
			c0-0.2,0.1-0.3,0.2-0.5c1-1,1.9-1.9,2.9-2.8c0.1-0.1,0.3-0.2,0.5-0.2C-332-340.8-331.8-340.7-331.7-340.6z M-356.3-314.4
			c-0.1-0.2-0.1-0.3-0.1-0.5c0-0.2,0.1-0.3,0.3-0.4c0.2-0.1,0.3-0.1,0.5-0.1c0.2,0,0.3,0.1,0.4,0.3c0.2,0.4,0.5,0.7,0.7,1.1
			c0.3-0.5,0.6-1,0.9-1.4c0.1-0.2,0.2-0.3,0.4-0.3c0.2,0,0.4,0,0.5,0.1c0.2,0.1,0.3,0.2,0.3,0.4c0,0.2,0,0.4-0.1,0.5
			c-0.4,0.7-0.8,1.4-1.2,2.1c0.6,1.1,1.2,2.2,1.8,3.3c0.1,0.2,0.1,0.3,0,0.5c-0.1,0.2-0.2,0.3-0.3,0.4c-0.2,0.1-0.3,0.1-0.5,0.1
			c-0.2-0.1-0.3-0.2-0.4-0.3c-0.4-0.8-0.9-1.6-1.3-2.5c-0.5,0.8-0.9,1.6-1.3,2.5c-0.1,0.2-0.2,0.3-0.4,0.3c-0.2,0.1-0.4,0-0.5,0
			c-0.2-0.1-0.3-0.2-0.3-0.4c-0.1-0.2,0-0.4,0-0.5c0.5-1.1,1.1-2.2,1.7-3.2C-355.6-313.3-356-313.8-356.3-314.4z M-361-321.7
			c0-0.2,0.1-0.3,0.3-0.4c0.1-0.1,0.3-0.1,0.5-0.1c0.2,0,0.3,0.1,0.4,0.3c0.8,1.1,1.6,2.3,2.4,3.4c0.1,0.2,0.1,0.3,0.1,0.5
			c0,0.2-0.1,0.3-0.3,0.4c-0.2,0.1-0.3,0.1-0.5,0.1c-0.2,0-0.3-0.1-0.4-0.3c-0.7-1.1-1.5-2.3-2.3-3.4
			C-361-321.4-361-321.5-361-321.7z M-370.8-334.8c0.2,0,0.3,0.1,0.5,0.2c1,1,1.9,2,2.8,3c0.1,0.1,0.2,0.3,0.2,0.5
			c0,0.2-0.1,0.3-0.2,0.5c-0.1,0.1-0.3,0.2-0.5,0.2c-0.2,0-0.3-0.1-0.5-0.2c-0.9-1-1.8-2-2.8-3c-0.1-0.1-0.2-0.3-0.2-0.5
			c0-0.2,0.1-0.3,0.2-0.5C-371.2-334.7-371-334.8-370.8-334.8z M-379.1-343.2c0.1,0.1,0.2,0.3,0.2,0.5c0,0.2,0,0.4-0.2,0.5
			c-0.1,0.1-0.3,0.2-0.5,0.2c-0.2,0-0.4,0-0.5-0.2c-1-0.9-2-1.8-3-2.7c-0.1-0.1-0.2-0.3-0.2-0.5c0-0.2,0-0.4,0.2-0.5
			c0.1-0.1,0.3-0.2,0.5-0.2c0.2,0,0.4,0,0.5,0.2C-381.2-345-380.1-344.1-379.1-343.2z M-373.2-337.5c0.1,0.1,0.2,0.3,0.2,0.5
			c0,0.2-0.1,0.3-0.2,0.5c-0.1,0.1-0.3,0.2-0.5,0.2c-0.2,0-0.3-0.1-0.5-0.2c-1-0.9-1.9-1.9-2.9-2.8c-0.1-0.1-0.2-0.3-0.2-0.5
			c0-0.2,0.1-0.4,0.2-0.5c0.1-0.1,0.3-0.2,0.5-0.2c0.2,0,0.4,0.1,0.5,0.2C-375.1-339.4-374.2-338.5-373.2-337.5z M-365.8-328.6
			c0.1-0.1,0.3-0.2,0.5-0.2c0.2,0,0.3,0.1,0.5,0.2c0.9,1.1,1.7,2.1,2.6,3.2c0.1,0.2,0.2,0.3,0.2,0.5c0,0.2-0.1,0.3-0.3,0.4
			c-0.2,0.1-0.3,0.2-0.5,0.2c-0.2,0-0.3-0.1-0.4-0.3c-0.8-1.1-1.7-2.1-2.6-3.2c-0.1-0.1-0.2-0.3-0.2-0.5
			C-366-328.3-365.9-328.4-365.8-328.6z M-372.5-371.5c-0.1,0.1-0.3,0.2-0.5,0.2h-4.1c-0.2,0-0.3-0.1-0.5-0.2
			c-0.1-0.1-0.2-0.3-0.2-0.5c0-0.2,0.1-0.3,0.2-0.5c0.1-0.1,0.3-0.2,0.5-0.2h4.1c0.2,0,0.3,0.1,0.5,0.2c0.1,0.1,0.2,0.3,0.2,0.5
			C-372.3-371.7-372.4-371.6-372.5-371.5z M-364.3-372.4c0.1,0.1,0.2,0.3,0.2,0.5c0,0.2-0.1,0.3-0.2,0.5c-0.1,0.1-0.3,0.2-0.5,0.2
			h-4.1c-0.2,0-0.3-0.1-0.5-0.2c-0.1-0.1-0.2-0.3-0.2-0.5c0-0.2,0.1-0.3,0.2-0.5c0.1-0.1,0.3-0.2,0.5-0.2l4.1,0
			C-364.6-372.6-364.5-372.5-364.3-372.4z M-356.2-371.5c-0.1,0.1-0.3,0.2-0.5,0.2h-4.1c-0.2,0-0.3-0.1-0.5-0.2
			c-0.1-0.1-0.2-0.3-0.2-0.5c0-0.2,0.1-0.3,0.2-0.5c0.1-0.1,0.3-0.2,0.5-0.2h4.1c0.2,0,0.3,0.1,0.5,0.2c0.1,0.1,0.2,0.3,0.2,0.5
			C-356-371.7-356-371.6-356.2-371.5z M-326.6-346c0.1-0.1,0.3-0.2,0.5-0.2c0.2,0,0.3,0.1,0.5,0.2c0.1,0.1,0.2,0.3,0.2,0.5
			c0,0.2-0.1,0.4-0.2,0.5c-1,0.9-2.1,1.8-3,2.6c-0.1,0.1-0.3,0.2-0.5,0.2c-0.2,0-0.3-0.1-0.5-0.2c-0.1-0.1-0.2-0.3-0.2-0.5
			c0-0.2,0.1-0.3,0.2-0.5C-328.7-344.3-327.6-345.1-326.6-346z M-348.5-372.6c0.2,0,0.3,0.1,0.5,0.2c0.1,0.1,0.2,0.3,0.2,0.5
			c0,0.2-0.1,0.3-0.2,0.5c-0.1,0.1-0.3,0.2-0.5,0.2h-4.1c-0.2,0-0.3-0.1-0.5-0.2c-0.1-0.1-0.2-0.3-0.2-0.5c0-0.2,0.1-0.3,0.2-0.5
			c0.1-0.1,0.3-0.2,0.5-0.2H-348.5z M-344.4-371.3c-0.2,0-0.3-0.1-0.5-0.2c-0.1-0.1-0.2-0.3-0.2-0.5c0-0.2,0.1-0.3,0.2-0.5
			c0.1-0.1,0.3-0.2,0.5-0.2h4.1c0.2,0,0.3,0.1,0.5,0.2c0.1,0.1,0.2,0.3,0.2,0.5c0,0.2-0.1,0.3-0.2,0.5c-0.1,0.1-0.3,0.2-0.5,0.2
			H-344.4z M-331.4-371.8c0,0.2-0.1,0.3-0.2,0.5c-0.1,0.1-0.3,0.2-0.5,0.2l-4.1-0.1c-0.2,0-0.3-0.1-0.5-0.2
			c-0.1-0.1-0.2-0.3-0.2-0.5c0-0.2,0.1-0.3,0.2-0.5c0.1-0.1,0.3-0.2,0.5-0.2l4.1,0.1c0.2,0,0.3,0.1,0.5,0.2
			C-331.5-372.2-331.4-372-331.4-371.8z M-287.1-273.5c0.2,0,0.4,0,0.5,0.1c0.2,0.1,0.2,0.3,0.3,0.4c0,0.2,0,0.4-0.1,0.5
			c-0.1,0.2-0.3,0.2-0.4,0.3c-1.3,0.2-2.7,0.4-4,0.7c-0.2,0-0.4,0-0.5-0.1c-0.2-0.1-0.2-0.3-0.3-0.4c0-0.2,0-0.4,0.1-0.5
			c0.1-0.2,0.3-0.2,0.4-0.3C-289.8-273-288.5-273.3-287.1-273.5z M-324.8-260.5c0.1,0.2,0.1,0.3,0.1,0.5c-0.1,0.2-0.2,0.3-0.3,0.4
			c-1.2,0.7-2.3,1.3-3.5,2c-0.2,0.1-0.3,0.1-0.5,0.1c-0.2,0-0.3-0.1-0.4-0.3c-0.1-0.2-0.1-0.3-0.1-0.5c0-0.2,0.1-0.3,0.3-0.4
			c1.2-0.7,2.3-1.4,3.5-2.1c0.2-0.1,0.3-0.1,0.5-0.1C-325.1-260.7-324.9-260.6-324.8-260.5z M-321.5-261.4c-0.2,0.1-0.3,0.1-0.5,0
			c-0.2-0.1-0.3-0.2-0.4-0.3c-0.1-0.2-0.1-0.3,0-0.5c0.1-0.2,0.2-0.3,0.3-0.4c1.2-0.6,2.4-1.2,3.7-1.8c0.2-0.1,0.3-0.1,0.5,0
			c0.2,0.1,0.3,0.2,0.4,0.4c0.1,0.2,0.1,0.3,0,0.5c-0.1,0.2-0.2,0.3-0.4,0.4C-319.1-262.6-320.3-262-321.5-261.4z M-310-266.6
			c-0.1,0.2-0.2,0.3-0.4,0.4c-1.3,0.5-2.5,1-3.8,1.5c-0.2,0.1-0.4,0.1-0.5,0c-0.2-0.1-0.3-0.2-0.4-0.4c-0.1-0.2-0.1-0.4,0-0.5
			c0.1-0.2,0.2-0.3,0.4-0.4c1.3-0.5,2.5-1,3.8-1.5c0.2-0.1,0.3-0.1,0.5,0c0.2,0.1,0.3,0.2,0.4,0.4C-309.9-267-309.9-266.8-310-266.6
			z M-303.1-270c0.2-0.1,0.3,0,0.5,0.1c0.2,0.1,0.3,0.2,0.3,0.4c0.1,0.2,0,0.3-0.1,0.5c-0.1,0.2-0.2,0.3-0.4,0.3
			c-1.3,0.4-2.6,0.8-3.9,1.2c-0.2,0.1-0.3,0-0.5-0.1c-0.2-0.1-0.3-0.2-0.3-0.4c-0.1-0.2,0-0.3,0.1-0.5c0.1-0.2,0.2-0.3,0.4-0.3
			C-305.7-269.3-304.4-269.7-303.1-270z M-298.8-269.8c-0.2,0-0.4,0-0.5-0.1c-0.2-0.1-0.3-0.2-0.3-0.4c0-0.2,0-0.4,0.1-0.5
			c0.1-0.2,0.2-0.3,0.4-0.3c1.3-0.3,2.6-0.6,4-0.9c0.2,0,0.4,0,0.5,0.1c0.2,0.1,0.3,0.2,0.3,0.4c0,0.2,0,0.4-0.1,0.5
			c-0.1,0.2-0.2,0.3-0.4,0.3C-296.2-270.4-297.5-270.1-298.8-269.8z M-285.3-278.4c0.1-0.1,0.3-0.2,0.5-0.2c0.2,0,0.4,0,0.5,0.2
			c0.1,0.1,0.2,0.3,0.2,0.5l0.2,4.1c0,0.2,0,0.4-0.2,0.5c-0.1,0.1-0.3,0.2-0.5,0.2c-0.2,0-0.4,0-0.5-0.2c-0.1-0.1-0.2-0.3-0.2-0.5
			l-0.2-4.1C-285.5-278.1-285.4-278.3-285.3-278.4z M-285.2-286.8c0.2,0,0.4,0,0.5,0.2c0.1,0.1,0.2,0.3,0.2,0.5l0.2,4.1
			c0,0.2,0,0.4-0.2,0.5c-0.1,0.1-0.3,0.2-0.5,0.2c-0.2,0-0.4,0-0.5-0.2c-0.1-0.1-0.2-0.3-0.2-0.5l-0.2-4.1c0-0.2,0-0.4,0.2-0.5
			C-285.6-286.7-285.4-286.8-285.2-286.8z M-286.3-294.3c0-0.2,0-0.4,0.2-0.5c0.1-0.1,0.3-0.2,0.5-0.2c0.2,0,0.4,0,0.5,0.2
			c0.1,0.1,0.2,0.3,0.2,0.5l0.2,4.1c0,0.2,0,0.4-0.2,0.5c-0.1,0.1-0.3,0.2-0.5,0.2c-0.2,0-0.4,0-0.5-0.2c-0.1-0.1-0.2-0.3-0.2-0.5
			L-286.3-294.3z M-286.5-302.9c0.1-0.1,0.3-0.2,0.5-0.2c0.2,0,0.4,0,0.5,0.2c0.1,0.1,0.2,0.3,0.2,0.5l0.2,4.1c0,0.2,0,0.4-0.2,0.5
			c-0.1,0.1-0.3,0.2-0.5,0.2c-0.2,0-0.4,0-0.5-0.2c-0.1-0.1-0.2-0.3-0.2-0.5l-0.2-4.1C-286.7-302.6-286.7-302.8-286.5-302.9z
			 M-287.2-310.6c0-0.2,0-0.4,0.2-0.5c0.1-0.1,0.3-0.2,0.5-0.2c0.2,0,0.4,0,0.5,0.2c0.1,0.1,0.2,0.3,0.2,0.5l0.2,4.1
			c0,0.2,0,0.4-0.2,0.5c-0.1,0.1-0.3,0.2-0.5,0.2c-0.2,0-0.4,0-0.5-0.2c-0.1-0.1-0.2-0.3-0.2-0.5L-287.2-310.6z M-286.5-319.3
			c0.1,0.1,0.2,0.3,0.2,0.5l0.2,4.1c0,0.2,0,0.4-0.2,0.5c-0.1,0.1-0.3,0.2-0.5,0.2c-0.2,0-0.4,0-0.5-0.2c-0.1-0.1-0.2-0.3-0.2-0.5
			l-0.2-4.1c0-0.2,0-0.4,0.2-0.5c0.1-0.1,0.3-0.2,0.5-0.2C-286.8-319.5-286.7-319.4-286.5-319.3z M-287-327.5
			c0.1,0.1,0.2,0.3,0.2,0.5l0.2,4.1c0,0.2,0,0.4-0.2,0.5c-0.1,0.1-0.3,0.2-0.5,0.2c-0.2,0-0.4,0-0.5-0.2c-0.1-0.1-0.2-0.3-0.2-0.5
			l-0.2-4.1c0-0.2,0-0.4,0.2-0.5c0.1-0.1,0.3-0.2,0.5-0.2C-287.3-327.7-287.1-327.6-287-327.5z M-288.4-335.6
			c0.1-0.1,0.3-0.2,0.5-0.2c0.2,0,0.4,0,0.5,0.2c0.1,0.1,0.2,0.3,0.2,0.5l0.2,4.1c0,0.2,0,0.4-0.2,0.5c-0.1,0.1-0.3,0.2-0.5,0.2
			c-0.2,0-0.4,0-0.5-0.2c-0.1-0.1-0.2-0.3-0.2-0.5l-0.2-4.1C-288.6-335.3-288.6-335.5-288.4-335.6z M-289.1-343.3
			c0-0.2,0-0.4,0.2-0.5c0.1-0.1,0.3-0.2,0.5-0.2c0.2,0,0.4,0,0.5,0.2c0.1,0.1,0.2,0.3,0.2,0.5l0.2,4.1c0,0.2,0,0.4-0.2,0.5
			c-0.1,0.1-0.3,0.2-0.5,0.2c-0.2,0-0.4,0-0.5-0.2c-0.1-0.1-0.2-0.3-0.2-0.5L-289.1-343.3z M-306.3-360.2c0,0.2-0.1,0.3-0.3,0.4
			c-1.1,0.8-2.2,1.5-3.3,2.3c-0.2,0.1-0.3,0.1-0.5,0.1c-0.2,0-0.3-0.1-0.4-0.3c-0.1-0.2-0.1-0.3-0.1-0.5c0-0.2,0.1-0.3,0.3-0.4
			c1.1-0.8,2.2-1.5,3.3-2.3c0.2-0.1,0.3-0.1,0.5-0.1c0.2,0,0.3,0.1,0.4,0.3C-306.3-360.6-306.3-360.4-306.3-360.2z M-320.4-351.2
			c0.2-0.1,0.3-0.2,0.5-0.2c0.2,0,0.3,0.1,0.4,0.3c0.1,0.2,0.2,0.3,0.2,0.5c0,0.2-0.1,0.3-0.3,0.4c-1.1,0.8-2.1,1.7-3.1,2.6
			c-0.1,0.1-0.3,0.2-0.5,0.2c-0.2,0-0.4-0.1-0.5-0.2c-0.1-0.1-0.2-0.3-0.2-0.5c0-0.2,0.1-0.4,0.2-0.5
			C-322.5-349.5-321.4-350.3-320.4-351.2z M-313.9-356.2c0.2-0.1,0.3-0.2,0.5-0.1c0.2,0,0.3,0.1,0.4,0.3c0.1,0.2,0.2,0.3,0.1,0.5
			c0,0.2-0.1,0.3-0.3,0.4c-1.1,0.8-2.1,1.6-3.2,2.5c-0.2,0.1-0.3,0.2-0.5,0.1c-0.2,0-0.3-0.1-0.4-0.3c-0.1-0.2-0.2-0.3-0.2-0.5
			c0-0.2,0.1-0.3,0.3-0.4C-316.1-354.5-315-355.3-313.9-356.2z M-323.9-372.5c0.2,0,0.3,0.1,0.5,0.2c0.1,0.1,0.2,0.3,0.2,0.5
			c0,0.2-0.1,0.3-0.2,0.5c-0.1,0.1-0.3,0.2-0.5,0.2l-4.1-0.1c-0.2,0-0.3-0.1-0.5-0.2c-0.1-0.1-0.2-0.3-0.2-0.5
			c0-0.2,0.1-0.3,0.2-0.5c0.1-0.1,0.3-0.2,0.5-0.2L-323.9-372.5z M-315.3-371.2c-0.1,0.1-0.3,0.2-0.5,0.2l-4.1-0.1
			c-0.2,0-0.3-0.1-0.5-0.2c-0.1-0.1-0.2-0.3-0.2-0.5c0-0.2,0.1-0.3,0.2-0.5c0.1-0.1,0.3-0.2,0.5-0.2l4.1,0.1c0.2,0,0.3,0.1,0.5,0.2
			c0.1,0.1,0.2,0.3,0.2,0.5C-315.1-371.5-315.2-371.4-315.3-371.2z M-304-363.2c1.1-0.7,2.2-1.5,3.4-2.2c0.2-0.1,0.3-0.1,0.5-0.1
			c0.2,0,0.3,0.1,0.4,0.3c0.1,0.2,0.1,0.3,0.1,0.5c0,0.2-0.1,0.3-0.3,0.4c-1.1,0.7-2.3,1.5-3.4,2.2c-0.2,0.1-0.3,0.1-0.5,0.1
			c-0.2,0-0.3-0.1-0.4-0.3c-0.1-0.2-0.1-0.3-0.1-0.5C-304.3-363-304.2-363.1-304-363.2z M-307.1-372.1c0.1,0.1,0.2,0.3,0.2,0.5
			c0,0.2-0.1,0.3-0.2,0.5c-0.1,0.1-0.3,0.2-0.5,0.2l-4.1-0.1c-0.2,0-0.3-0.1-0.5-0.2c-0.1-0.1-0.2-0.3-0.2-0.5
			c0-0.2,0.1-0.3,0.2-0.5c0.1-0.1,0.3-0.2,0.5-0.2l4.1,0.1C-307.4-372.3-307.2-372.3-307.1-372.1z M-303.5-371
			c-0.2,0-0.3-0.1-0.5-0.2c-0.1-0.1-0.2-0.3-0.2-0.5c0-0.2,0.1-0.3,0.2-0.5c0.1-0.1,0.3-0.2,0.5-0.2l4.1,0.1c0.2,0,0.3,0.1,0.5,0.2
			c0.1,0.1,0.2,0.3,0.2,0.5c0,0.2-0.1,0.3-0.2,0.5c-0.1,0.1-0.3,0.2-0.5,0.2L-303.5-371z M-289.6-351.5c0-0.2,0-0.4,0.2-0.5
			c0.1-0.1,0.3-0.2,0.5-0.2c0.2,0,0.4,0,0.5,0.2c0.1,0.1,0.2,0.3,0.2,0.5l0.2,4.1c0,0.2,0,0.4-0.2,0.5c-0.1,0.1-0.3,0.2-0.5,0.2
			c-0.2,0-0.4,0-0.5-0.2c-0.1-0.1-0.2-0.3-0.2-0.5L-289.6-351.5z M-289.9-360.1c0.1-0.1,0.3-0.2,0.5-0.2c0.2,0,0.4,0,0.5,0.2
			c0.1,0.1,0.2,0.3,0.2,0.5l0.2,4.1c0,0.2,0,0.4-0.2,0.5c-0.1,0.1-0.3,0.2-0.5,0.2c-0.2,0-0.4,0-0.5-0.2c-0.1-0.1-0.2-0.3-0.2-0.5
			l-0.2-4.1C-290-359.8-290-360-289.9-360.1z M-290.3-368.3c0.1-0.1,0.3-0.2,0.5-0.2c0.2,0,0.4,0,0.5,0.2c0.1,0.1,0.2,0.3,0.2,0.5
			l0.2,4.1c0,0.2,0,0.4-0.2,0.5c-0.1,0.1-0.3,0.2-0.5,0.2c-0.2,0-0.4,0-0.5-0.2c-0.1-0.1-0.2-0.3-0.2-0.5l-0.2-4.1
			C-290.5-368-290.5-368.2-290.3-368.3z M-292.8-369.2c0,0.2-0.1,0.3-0.3,0.4c-1.2,0.7-2.3,1.4-3.4,2.2c-0.2,0.1-0.3,0.1-0.5,0.1
			c-0.2,0-0.3-0.1-0.4-0.3c-0.1-0.2-0.1-0.3-0.1-0.5c0-0.2,0.1-0.3,0.3-0.4c1.1-0.7,2.3-1.5,3.4-2.2c0.2-0.1,0.3-0.1,0.5-0.1
			c0.2,0,0.3,0.1,0.4,0.3C-292.8-369.5-292.8-369.3-292.8-369.2z M-291.2-372.2c0.2,0,0.3,0.1,0.5,0.2c0.1,0.1,0.2,0.3,0.2,0.5
			c0,0.2-0.1,0.3-0.2,0.5c-0.1,0.1-0.3,0.2-0.5,0.2l-4.1-0.1c-0.2,0-0.3-0.1-0.5-0.2c-0.1-0.1-0.2-0.3-0.2-0.5
			c0-0.2,0.1-0.3,0.2-0.5c0.1-0.1,0.3-0.2,0.5-0.2L-291.2-372.2z"/>
	</g>
	<g transform="matrix(1,0,0,1,0,0)">
		<g transform="matrix(1,0,0,1,0,0)">
			<g transform="matrix(1,0,0,1,502.8580017089844,535.6019897460938)">
				<path class="st12" d="M-279.5-387.1l6.7,113.1c-29.7,3.7-54.4,16.4-74,37.9c-2.5,2.8-5,5.7-7.4,8.8l-0.4,0.2v-0.4
					c-20.6-26.4-47.4-41.7-80.5-45.8l6.7-113.7L-279.5-387.1z M-353.3-239.9l0,0.1L-353.3-239.9L-353.3-239.9L-353.3-239.9z
					 M-354.7-239L-354.7-239L-354.7-239L-354.7-239L-354.7-239z"/>
			</g>
			<g transform="matrix(1,0,0,1,502.8580017089844,634.8770141601562)">
				<path class="st13" d="M-353.3-339.2L-353.3-339.2L-353.3-339.2l0,0.1L-353.3-339.2z M-354.7-338.3L-354.7-338.3L-354.7-338.3
					L-354.7-338.3L-354.7-338.3z"/>
			</g>
		</g>
	</g>
</g>
<g transform="matrix(0.9961947202682495,0.08715574443340302,-0.08715574443340302,0.9961947202682495,502.5580139160156,497.8739929199219)">
	<g transform="matrix(1,0,0,1,0,0)">
		<path class="st11" d="M-351.5-241.9c0.2-0.2,0.4-0.3,0.7-0.3c0.3,0,0.5,0.1,0.7,0.3c0.2,0.2,0.3,0.4,0.3,0.7
			c0,0.3-0.1,0.5-0.3,0.7c-0.6,0.7-1.2,1.3-1.8,2l0,0c-0.3,0.3-0.6,0.7-0.9,1c-0.2,0.2-0.4,0.3-0.7,0.3c-0.1,0-0.3,0-0.4-0.1
			c0,0,0.1,0.1,0.1,0.2c0.2,0.2,0.3,0.4,0.3,0.6c0,0.3,0,0.5-0.2,0.7c-0.2,0.2-0.4,0.4-0.7,0.4c-0.3,0-0.5,0-0.7-0.2
			c-0.2-0.1-0.3-0.3-0.4-0.5c-0.8-0.9-1.6-1.7-2.3-2.5c0,0-0.1-0.1-0.1-0.1c-0.2-0.2-0.4-0.4-0.6-0.6l0,0c0,0,0,0,0,0l0,0
			c-0.1-0.1-0.2-0.2-0.3-0.4c-0.2-0.2-0.3-0.5-0.2-0.7c0-0.3,0.2-0.5,0.4-0.7c0.2-0.2,0.5-0.3,0.7-0.2c0.3,0,0.5,0.2,0.7,0.4
			c0.1,0.1,0.2,0.3,0.3,0.4c0.2,0.2,0.4,0.4,0.6,0.6c0,0,0.1,0.1,0.1,0.2c0.6,0.6,1.2,1.2,1.7,1.9c0-0.1,0-0.1,0-0.2
			c0-0.3,0.1-0.5,0.3-0.7c0.3-0.4,0.6-0.7,1-1.1l0,0C-352.7-240.6-352.1-241.2-351.5-241.9z M-331.3-257.5c0.2,0.2,0.2,0.5,0.2,0.8
			c-0.1,0.3-0.2,0.5-0.4,0.6c-1.1,0.7-2.2,1.5-3.3,2.3c-0.2,0.2-0.5,0.2-0.8,0.2c-0.3,0-0.5-0.2-0.7-0.4c-0.2-0.2-0.2-0.5-0.2-0.8
			c0-0.3,0.2-0.5,0.4-0.7c1.1-0.8,2.3-1.6,3.4-2.3c0.2-0.2,0.5-0.2,0.8-0.2C-331.6-257.9-331.4-257.7-331.3-257.5z M-348.6-244.8
			c1-1,2-1.9,3-2.8c0.2-0.2,0.5-0.3,0.7-0.3c0.3,0,0.5,0.1,0.7,0.3c0.2,0.2,0.3,0.5,0.3,0.7c0,0.3-0.1,0.5-0.3,0.7
			c-1,0.9-2,1.8-2.9,2.8c-0.2,0.2-0.4,0.3-0.7,0.3c-0.3,0-0.5-0.1-0.7-0.3c-0.2-0.2-0.3-0.4-0.3-0.7
			C-348.9-244.4-348.8-244.6-348.6-244.8z M-348.3-259.1c0.1,0.3,0.1,0.5,0,0.8c-0.5,1.3-1,2.5-1.6,3.8c-0.1,0.3-0.3,0.4-0.6,0.5
			c-0.3,0.1-0.5,0.1-0.8,0c-0.3-0.1-0.4-0.3-0.5-0.6c-0.1-0.3-0.1-0.5,0-0.8c0.6-1.2,1.1-2.5,1.5-3.7c0.1-0.3,0.3-0.5,0.5-0.6
			c0.3-0.1,0.5-0.1,0.8,0C-348.6-259.5-348.4-259.3-348.3-259.1z M-339.4-253c0.2-0.2,0.5-0.3,0.7-0.2c0.3,0,0.5,0.2,0.7,0.4
			c0.2,0.2,0.3,0.5,0.2,0.7c0,0.3-0.2,0.5-0.4,0.7c-1.1,0.8-2.1,1.7-3.1,2.6c-0.2,0.2-0.5,0.3-0.7,0.2c-0.3,0-0.5-0.1-0.7-0.4
			c-0.2-0.2-0.3-0.5-0.2-0.7c0-0.3,0.1-0.5,0.4-0.7C-341.5-251.2-340.4-252.1-339.4-253z M-345.8-267c0.1,0.2,0.2,0.5,0.1,0.8
			c-0.3,1.3-0.7,2.7-1.1,4c-0.1,0.3-0.2,0.5-0.5,0.6c-0.2,0.1-0.5,0.2-0.8,0.1c-0.3-0.1-0.5-0.2-0.6-0.5c-0.1-0.3-0.2-0.5-0.1-0.8
			c0.4-1.3,0.8-2.6,1.1-3.9c0.1-0.3,0.2-0.5,0.5-0.6c0.2-0.1,0.5-0.2,0.8-0.1C-346.2-267.4-346-267.3-345.8-267z M-344.5-275.3
			c0.2,0.2,0.3,0.5,0.2,0.7c-0.1,1.4-0.3,2.8-0.6,4.2c-0.1,0.3-0.2,0.5-0.4,0.6c-0.2,0.2-0.5,0.2-0.8,0.2c-0.3-0.1-0.5-0.2-0.6-0.4
			c-0.2-0.2-0.2-0.5-0.2-0.8c0.2-1.3,0.4-2.7,0.6-4c0-0.3,0.2-0.5,0.4-0.7c0.2-0.2,0.5-0.3,0.7-0.2
			C-344.9-275.6-344.7-275.5-344.5-275.3z M-354.2-250.1c0.3-0.5,0.5-1,0.8-1.5c0.1-0.3,0.3-0.4,0.6-0.5c0.3-0.1,0.5-0.1,0.8,0.1
			c0.3,0.1,0.4,0.3,0.5,0.6c0.1,0.3,0.1,0.5-0.1,0.8c-0.5,1-1,2-1.6,3c-0.1,0.2-0.3,0.4-0.6,0.5c-0.1,0-0.3,0.1-0.4,0
			c-0.1,0-0.3,0-0.4,0c-0.3-0.1-0.5-0.2-0.6-0.5c-0.6-1-1.1-2-1.6-3c-0.1-0.3-0.1-0.5-0.1-0.8c0.1-0.3,0.3-0.5,0.5-0.6
			c0.3-0.1,0.5-0.1,0.8-0.1c0.3,0.1,0.5,0.3,0.6,0.5C-354.8-251.1-354.5-250.6-354.2-250.1z M-364.3-247.2c0.3,0,0.5,0.1,0.7,0.3
			c1,0.9,2.1,1.9,3.1,2.9c0.2,0.2,0.3,0.4,0.3,0.7c0,0.3-0.1,0.5-0.3,0.7c-0.2,0.2-0.4,0.3-0.7,0.3c-0.3,0-0.5-0.1-0.7-0.3
			c-1-1-2-1.9-3-2.8c-0.2-0.2-0.3-0.4-0.3-0.7c0-0.3,0.1-0.5,0.3-0.7C-364.8-247.1-364.5-247.2-364.3-247.2z M-358.4-259
			c0.5,1.2,1,2.5,1.5,3.7c0.1,0.3,0.1,0.5,0,0.8c-0.1,0.3-0.3,0.5-0.5,0.6c-0.3,0.1-0.5,0.1-0.8,0c-0.3-0.1-0.5-0.3-0.6-0.5
			c-0.6-1.3-1.1-2.5-1.6-3.8c-0.1-0.3-0.1-0.5,0-0.8c0.1-0.3,0.3-0.4,0.6-0.5c0.3-0.1,0.5-0.1,0.8,0
			C-358.6-259.5-358.5-259.3-358.4-259z M-366.6-249.7c0.2,0.2,0.3,0.4,0.4,0.7c0,0.3-0.1,0.5-0.2,0.7c-0.2,0.2-0.4,0.3-0.7,0.4
			c-0.3,0-0.5-0.1-0.7-0.2c-1-0.9-2.1-1.7-3.1-2.6c-0.2-0.2-0.4-0.4-0.4-0.7c0-0.3,0-0.5,0.2-0.7c0.2-0.2,0.4-0.4,0.7-0.4
			c0.3,0,0.5,0,0.7,0.2C-368.8-251.4-367.7-250.6-366.6-249.7z M-376.5-257.1c1.1,0.8,2.2,1.6,3.4,2.4c0.2,0.2,0.4,0.4,0.4,0.7
			c0,0.3,0,0.5-0.2,0.7c-0.2,0.2-0.4,0.4-0.7,0.4c-0.3,0-0.5,0-0.8-0.2c-1.1-0.8-2.2-1.6-3.3-2.3c-0.2-0.2-0.4-0.4-0.4-0.6
			c-0.1-0.3,0-0.5,0.2-0.8c0.2-0.2,0.4-0.4,0.6-0.4C-377-257.3-376.7-257.3-376.5-257.1z M-361.3-267.4c0.2,0.1,0.4,0.4,0.5,0.6
			c0.3,1.3,0.7,2.6,1.1,3.9c0.1,0.3,0.1,0.5-0.1,0.8c-0.1,0.3-0.3,0.4-0.6,0.5c-0.3,0.1-0.5,0.1-0.8-0.1c-0.3-0.1-0.4-0.3-0.5-0.6
			c-0.4-1.4-0.8-2.7-1.1-4.1c-0.1-0.3,0-0.5,0.1-0.8c0.1-0.2,0.4-0.4,0.6-0.5C-361.8-267.6-361.5-267.6-361.3-267.4z M-363.3-275.7
			c0.3,0,0.5,0.1,0.7,0.2c0.2,0.2,0.3,0.4,0.4,0.7c0.1,1.3,0.3,2.7,0.6,4c0,0.3,0,0.5-0.2,0.8c-0.2,0.2-0.4,0.4-0.6,0.4
			c-0.3,0-0.5,0-0.8-0.2c-0.2-0.2-0.4-0.4-0.4-0.6c-0.3-1.4-0.5-2.8-0.6-4.2c0-0.3,0.1-0.5,0.2-0.7
			C-363.8-275.5-363.6-275.7-363.3-275.7z M-364.5-282.9c0-0.3,0.1-0.5,0.3-0.7c0.2-0.2,0.5-0.3,0.7-0.3c0.3,0,0.5,0.1,0.7,0.3
			c0.2,0.2,0.3,0.5,0.3,0.7c0,1.3,0,2.7,0,4c0,0.3-0.1,0.5-0.3,0.7c-0.2,0.2-0.4,0.3-0.7,0.3c-0.3,0-0.5-0.1-0.7-0.3
			c-0.2-0.2-0.3-0.4-0.3-0.7C-364.6-280.1-364.6-281.5-364.5-282.9z M-363.7-291.2c0-0.3,0.2-0.5,0.4-0.7c0.2-0.2,0.5-0.2,0.8-0.2
			c0.3,0,0.5,0.2,0.7,0.4c0.2,0.2,0.2,0.5,0.2,0.8c-0.2,1.3-0.4,2.7-0.5,4c0,0.3-0.2,0.5-0.4,0.7c-0.2,0.2-0.5,0.3-0.7,0.2
			c-0.3,0-0.5-0.2-0.7-0.4c-0.2-0.2-0.3-0.5-0.2-0.7C-364.1-288.4-363.9-289.8-363.7-291.2z M-362.9-295.2c0.3-1.3,0.7-2.7,1.1-4
			c0.1-0.3,0.2-0.5,0.5-0.6c0.3-0.1,0.5-0.2,0.8-0.1c0.3,0.1,0.5,0.2,0.6,0.5c0.1,0.3,0.2,0.5,0.1,0.8c-0.4,1.3-0.8,2.6-1.1,3.9
			c-0.1,0.3-0.2,0.5-0.5,0.6c-0.2,0.1-0.5,0.2-0.8,0.1c-0.3-0.1-0.5-0.2-0.6-0.5C-362.9-294.7-362.9-294.9-362.9-295.2z M-357-306.9
			c0.1,0.3,0.1,0.5,0,0.8c-0.6,1.2-1.1,2.5-1.5,3.7c-0.1,0.3-0.3,0.5-0.5,0.6c-0.3,0.1-0.5,0.1-0.8,0c-0.3-0.1-0.5-0.3-0.6-0.5
			c-0.1-0.3-0.1-0.5,0-0.8c0.5-1.3,1-2.5,1.6-3.8c0.1-0.3,0.3-0.4,0.6-0.5c0.3-0.1,0.5-0.1,0.8,0
			C-357.2-307.4-357.1-307.2-357-306.9z M-346-282.8c0-0.3,0.1-0.5,0.3-0.7c0.2-0.2,0.4-0.3,0.7-0.3c0.3,0,0.5,0.1,0.7,0.3
			c0.2,0.2,0.3,0.4,0.3,0.7c0,1.4,0,2.8,0,4.2c0,0.3-0.1,0.5-0.3,0.7c-0.2,0.2-0.5,0.3-0.7,0.3c-0.3,0-0.5-0.1-0.7-0.3
			c-0.2-0.2-0.3-0.5-0.3-0.7C-346-280.1-346-281.4-346-282.8z M-344.8-291.1c0.2,1.4,0.4,2.7,0.6,4.1c0,0.3-0.1,0.5-0.2,0.7
			c-0.2,0.2-0.4,0.3-0.7,0.4c-0.3,0-0.5-0.1-0.7-0.2c-0.2-0.2-0.3-0.4-0.4-0.7c-0.1-1.3-0.3-2.7-0.5-4c0-0.3,0-0.5,0.2-0.8
			c0.2-0.2,0.4-0.4,0.7-0.4c0.3,0,0.5,0,0.8,0.2C-345-291.6-344.9-291.4-344.8-291.1z M-348-299.9c0.3-0.1,0.5-0.1,0.8,0.1
			c0.2,0.1,0.4,0.3,0.5,0.6c0.4,1.3,0.8,2.7,1.1,4c0.1,0.3,0,0.5-0.1,0.8c-0.1,0.2-0.4,0.4-0.6,0.5c-0.3,0.1-0.5,0-0.8-0.1
			c-0.2-0.1-0.4-0.4-0.5-0.6c-0.3-1.3-0.7-2.6-1.1-3.9c-0.1-0.3-0.1-0.5,0.1-0.8C-348.5-299.6-348.3-299.8-348-299.9z M-351.5-306.1
			c-0.1-0.3-0.1-0.5,0-0.8c0.1-0.3,0.3-0.4,0.5-0.6c0.3-0.1,0.5-0.1,0.8,0c0.3,0.1,0.4,0.3,0.6,0.5c0.6,1.3,1.1,2.5,1.5,3.8
			c0.1,0.3,0.1,0.5,0,0.8c-0.1,0.3-0.3,0.4-0.6,0.5c-0.3,0.1-0.5,0.1-0.8,0c-0.3-0.1-0.4-0.3-0.5-0.6
			C-350.5-303.7-351-304.9-351.5-306.1z M-394.7-267.1c0.3,0.1,0.4,0.3,0.5,0.6c0.1,0.3,0.1,0.5,0,0.8c-0.1,0.3-0.3,0.4-0.6,0.5
			c-0.3,0.1-0.5,0.1-0.8,0c-1.2-0.5-2.5-1-3.7-1.5c-0.3-0.1-0.5-0.3-0.6-0.5c-0.1-0.3-0.1-0.5,0-0.8c0.1-0.3,0.3-0.5,0.5-0.6
			c0.3-0.1,0.5-0.1,0.8,0C-397.2-268.1-395.9-267.6-394.7-267.1z M-384.3-261.6c0.3-0.1,0.5,0,0.8,0.1c1.2,0.7,2.4,1.4,3.5,2.1
			c0.2,0.2,0.4,0.4,0.4,0.6c0.1,0.3,0,0.5-0.1,0.8c-0.2,0.2-0.4,0.4-0.6,0.4c-0.3,0.1-0.5,0-0.8-0.1c-1.1-0.7-2.3-1.4-3.5-2.1
			c-0.2-0.1-0.4-0.3-0.5-0.6c-0.1-0.3,0-0.5,0.1-0.8C-384.7-261.4-384.5-261.5-384.3-261.6z M-391.7-263.5c-0.2-0.1-0.4-0.3-0.5-0.6
			c-0.1-0.3-0.1-0.5,0-0.8c0.1-0.3,0.3-0.4,0.6-0.5c0.3-0.1,0.5-0.1,0.8,0c1.3,0.6,2.5,1.2,3.7,1.9c0.2,0.1,0.4,0.3,0.5,0.6
			c0.1,0.3,0.1,0.5-0.1,0.8c-0.1,0.2-0.3,0.4-0.6,0.5c-0.3,0.1-0.5,0.1-0.8-0.1C-389.3-262.3-390.5-262.9-391.7-263.5z
			 M-407.5-269.8c-0.1-0.2-0.2-0.5-0.1-0.8c0.1-0.3,0.2-0.5,0.5-0.6c0.2-0.1,0.5-0.2,0.8-0.1c0.4,0.1,0.8,0.2,1.2,0.4h0
			c1,0.3,1.9,0.6,2.8,0.9c0.3,0.1,0.5,0.3,0.6,0.5c0.1,0.2,0.1,0.5,0.1,0.8c-0.1,0.3-0.3,0.5-0.5,0.6c-0.2,0.1-0.5,0.1-0.8,0.1
			c-0.9-0.3-1.9-0.6-2.8-0.9h0c-0.4-0.1-0.7-0.2-1.1-0.3C-407.2-269.4-407.4-269.5-407.5-269.8z M-411.9-270.6
			c-0.2-0.1-0.4-0.1-0.6-0.2h0c-0.9-0.2-1.8-0.4-2.6-0.6c-0.3-0.1-0.5-0.2-0.6-0.4c-0.2-0.2-0.2-0.5-0.2-0.8
			c0.1-0.3,0.2-0.5,0.4-0.6c0.2-0.2,0.5-0.2,0.8-0.2c0.9,0.2,1.8,0.4,2.7,0.6h0c0.2,0,0.4,0.1,0.5,0.1c0,0,0,0,0,0
			c0.3,0.1,0.5,0.1,0.8,0.2c0.3,0.1,0.5,0.2,0.6,0.5c0.1,0.2,0.2,0.5,0.1,0.8c-0.1,0.3-0.2,0.5-0.5,0.6c-0.2,0.1-0.5,0.2-0.8,0.1
			C-411.4-270.5-411.7-270.6-411.9-270.6L-411.9-270.6z M-424.2-279c0-0.3,0.1-0.5,0.3-0.7c0.2-0.2,0.5-0.3,0.7-0.3
			c0.3,0,0.5,0.1,0.7,0.3c0.2,0.2,0.3,0.5,0.3,0.7l-0.2,4.1c0,0,0,0,0,0.1c1,0.1,1.9,0.3,2.9,0.4h0c0.2,0,0.5,0.1,0.7,0.1
			c0.3,0.1,0.5,0.2,0.6,0.4c0.2,0.2,0.2,0.5,0.2,0.8c-0.1,0.3-0.2,0.5-0.4,0.6c-0.2,0.2-0.5,0.2-0.8,0.2c-0.2,0-0.5-0.1-0.7-0.1
			c-1.1-0.2-2.2-0.4-3.3-0.5c-0.3,0-0.5-0.2-0.7-0.4c-0.2-0.2-0.2-0.5-0.2-0.7c0,0,0-0.1,0-0.1c0,0-0.1-0.1-0.1-0.1
			c-0.2-0.2-0.3-0.5-0.3-0.7L-424.2-279z M-422.1-287.8c0.2,0.2,0.3,0.5,0.3,0.7l-0.2,4.1c0,0.3-0.1,0.5-0.3,0.7
			c-0.2,0.2-0.5,0.3-0.7,0.3c-0.3,0-0.5-0.1-0.7-0.3c-0.2-0.2-0.3-0.5-0.3-0.7l0.2-4.1c0-0.3,0.1-0.5,0.3-0.7
			c0.2-0.2,0.5-0.3,0.7-0.3C-422.5-288.1-422.3-288-422.1-287.8z M-423.1-296.1c0.2-0.2,0.5-0.3,0.7-0.3c0.3,0,0.5,0.1,0.7,0.3
			c0.2,0.2,0.3,0.5,0.3,0.7l-0.2,4.1c0,0.3-0.1,0.5-0.3,0.7c-0.2,0.2-0.5,0.3-0.7,0.3c-0.3,0-0.5-0.1-0.7-0.3
			c-0.2-0.2-0.3-0.5-0.3-0.7l0.2-4.1C-423.4-295.6-423.3-295.9-423.1-296.1z M-423-303.5c0-0.3,0.1-0.5,0.3-0.7
			c0.2-0.2,0.5-0.3,0.7-0.3c0.3,0,0.5,0.1,0.7,0.3c0.2,0.2,0.3,0.5,0.3,0.7l-0.2,4.1c0,0.3-0.1,0.5-0.3,0.7
			c-0.2,0.2-0.5,0.3-0.7,0.3c-0.3,0-0.5-0.1-0.7-0.3c-0.2-0.2-0.3-0.5-0.3-0.7L-423-303.5z M-421.5-328.1c0-0.3,0.1-0.5,0.3-0.7
			c0.2-0.2,0.5-0.3,0.7-0.3c0.3,0,0.5,0.1,0.7,0.3c0.2,0.2,0.3,0.5,0.3,0.7l-0.2,4.1c0,0.3-0.1,0.5-0.3,0.7
			c-0.2,0.2-0.5,0.3-0.7,0.3c-0.3,0-0.5-0.1-0.7-0.3c-0.2-0.2-0.3-0.5-0.3-0.7L-421.5-328.1z M-422.1-312.4c0.2-0.2,0.5-0.3,0.7-0.3
			c0.3,0,0.5,0.1,0.7,0.3c0.2,0.2,0.3,0.5,0.3,0.7l-0.2,4.1c0,0.3-0.1,0.5-0.3,0.7c-0.2,0.2-0.5,0.3-0.7,0.3c-0.3,0-0.5-0.1-0.7-0.3
			c-0.2-0.2-0.3-0.5-0.3-0.7l0.2-4.1C-422.5-312-422.3-312.2-422.1-312.4z M-421.2-314.7c-0.3,0-0.5-0.1-0.7-0.3
			c-0.2-0.2-0.3-0.5-0.3-0.7l0.2-4.1c0-0.3,0.1-0.5,0.3-0.7c0.2-0.2,0.5-0.3,0.7-0.3c0.3,0,0.5,0.1,0.7,0.3c0.2,0.2,0.3,0.5,0.3,0.7
			l-0.2,4.1c0,0.3-0.1,0.5-0.3,0.7C-420.7-314.8-421-314.7-421.2-314.7z M-420.7-336.9c0.2-0.2,0.5-0.3,0.7-0.3
			c0.3,0,0.5,0.1,0.7,0.3c0.2,0.2,0.3,0.5,0.3,0.7l-0.2,4.1c0,0.3-0.1,0.5-0.3,0.7c-0.2,0.2-0.5,0.3-0.7,0.3c-0.3,0-0.5-0.1-0.7-0.3
			c-0.2-0.2-0.3-0.5-0.3-0.7l0.2-4.1C-421-336.5-420.9-336.7-420.7-336.9z M-418.8-345c0.2,0.2,0.3,0.5,0.3,0.7l-0.2,4.1
			c0,0.3-0.1,0.5-0.3,0.7c-0.2,0.2-0.5,0.3-0.7,0.3c-0.3,0-0.5-0.1-0.7-0.3c-0.2-0.2-0.3-0.5-0.3-0.7l0.2-4.1c0-0.3,0.1-0.5,0.3-0.7
			c0.2-0.2,0.5-0.3,0.7-0.3C-419.2-345.4-419-345.2-418.8-345z M-420.1-352.6c0-0.3,0.1-0.5,0.3-0.7c0.2-0.2,0.5-0.3,0.7-0.3
			c0.3,0,0.5,0.1,0.7,0.3c0.2,0.2,0.3,0.5,0.3,0.7l-0.2,4.1c0,0.3-0.1,0.5-0.3,0.7c-0.2,0.2-0.5,0.3-0.7,0.3c-0.3,0-0.5-0.1-0.7-0.3
			c-0.2-0.2-0.3-0.5-0.3-0.7L-420.1-352.6z M-419.3-361.4c0.2-0.2,0.5-0.3,0.7-0.3c0.3,0,0.5,0.1,0.7,0.3c0.2,0.2,0.3,0.5,0.3,0.7
			l-0.2,4.1c0,0.3-0.1,0.5-0.3,0.7c-0.2,0.2-0.5,0.3-0.7,0.3c-0.3,0-0.5-0.1-0.7-0.3c-0.2-0.2-0.3-0.5-0.3-0.7l0.2-4.1
			C-419.6-361-419.5-361.3-419.3-361.4z M-417.4-369.5c0.2,0.2,0.3,0.5,0.3,0.7l-0.2,4.1c0,0.3-0.1,0.5-0.3,0.7
			c-0.2,0.2-0.5,0.3-0.7,0.3c-0.3,0-0.5-0.1-0.7-0.3c-0.2-0.2-0.3-0.5-0.3-0.7l0.2-4.1c0-0.3,0.1-0.5,0.3-0.7
			c0.2-0.2,0.5-0.3,0.7-0.3C-417.8-369.9-417.6-369.8-417.4-369.5z M-415.5-371.3c0.3-0.1,0.5,0,0.8,0.1c1.2,0.7,2.3,1.5,3.4,2.2
			c0.2,0.2,0.4,0.4,0.5,0.6c0.1,0.3,0,0.5-0.2,0.8c-0.1,0.2-0.4,0.4-0.6,0.5c-0.3,0.1-0.5,0-0.8-0.1c-1.1-0.7-2.3-1.5-3.4-2.2
			c-0.2-0.2-0.4-0.4-0.4-0.6c-0.1-0.3,0-0.5,0.1-0.8C-416-371.1-415.8-371.3-415.5-371.3z M-413.6-374c0.3,0,0.5,0.1,0.7,0.3
			c0.2,0.2,0.3,0.4,0.3,0.7c0,0.3-0.1,0.5-0.3,0.7c-0.2,0.2-0.4,0.3-0.7,0.3h-4.1c-0.3,0-0.5-0.1-0.7-0.3c-0.2-0.2-0.3-0.4-0.3-0.7
			c0-0.3,0.1-0.5,0.3-0.7c0.2-0.2,0.4-0.3,0.7-0.3H-413.6z M-389.4-350.8c-0.2-0.2-0.3-0.4-0.4-0.7c0-0.3,0-0.5,0.2-0.7
			c0.2-0.2,0.4-0.3,0.7-0.4c0.3,0,0.5,0,0.7,0.2c1.1,0.9,2.1,1.7,3.2,2.6c0.2,0.2,0.3,0.4,0.4,0.7c0,0.3-0.1,0.5-0.2,0.7
			c-0.2,0.2-0.4,0.3-0.7,0.4c-0.3,0-0.5-0.1-0.7-0.2C-387.3-349.1-388.3-350-389.4-350.8z M-398.3-358c-0.3,0-0.5,0-0.7-0.2
			c-1.1-0.8-2.2-1.6-3.3-2.3c-0.2-0.2-0.4-0.4-0.4-0.6c0-0.3,0-0.5,0.2-0.8c0.2-0.2,0.4-0.4,0.6-0.4c0.3,0,0.5,0,0.8,0.2
			c1.1,0.8,2.2,1.6,3.3,2.4c0.2,0.2,0.4,0.4,0.4,0.7c0,0.3,0,0.5-0.2,0.7C-397.8-358.2-398-358-398.3-358z M-395.8-355.8
			c-0.2-0.2-0.4-0.4-0.4-0.7c0-0.3,0-0.5,0.2-0.7c0.2-0.2,0.4-0.4,0.7-0.4c0.3,0,0.5,0,0.7,0.2c1.1,0.8,2.2,1.6,3.2,2.5
			c0.2,0.2,0.4,0.4,0.4,0.7c0,0.3,0,0.5-0.2,0.7c-0.2,0.2-0.4,0.4-0.7,0.4c-0.3,0-0.5,0-0.7-0.2C-393.6-354.2-394.7-355-395.8-355.8
			z M-404.5-364.5c0.2,0.2,0.4,0.4,0.4,0.6c0.1,0.3,0,0.5-0.2,0.8c-0.2,0.2-0.4,0.4-0.6,0.4c-0.3,0.1-0.5,0-0.8-0.2
			c-1.1-0.7-2.2-1.5-3.4-2.2c-0.2-0.2-0.4-0.4-0.4-0.6c-0.1-0.3,0-0.5,0.2-0.8c0.2-0.2,0.4-0.4,0.6-0.4c0.3-0.1,0.5,0,0.8,0.2
			C-406.7-366-405.6-365.3-404.5-364.5z M-404.7-372.2c-0.2,0.2-0.4,0.3-0.7,0.3h-4.1c-0.3,0-0.5-0.1-0.7-0.3
			c-0.2-0.2-0.3-0.4-0.3-0.7c0-0.3,0.1-0.5,0.3-0.7c0.2-0.2,0.4-0.3,0.7-0.3h4.1c0.3,0,0.5,0.1,0.7,0.3c0.2,0.2,0.3,0.4,0.3,0.7
			C-404.4-372.7-404.5-372.4-404.7-372.2z M-396.6-372.2c-0.2,0.2-0.4,0.3-0.7,0.3h-4.1c-0.3,0-0.5-0.1-0.7-0.3
			c-0.2-0.2-0.3-0.4-0.3-0.7c0-0.3,0.1-0.5,0.3-0.7c0.2-0.2,0.4-0.3,0.7-0.3h4.1c0.3,0,0.5,0.1,0.7,0.3c0.2,0.2,0.3,0.4,0.3,0.7
			C-396.3-372.7-396.4-372.4-396.6-372.2z M-388.4-373.7c0.2,0.2,0.3,0.4,0.3,0.7c0,0.3-0.1,0.5-0.3,0.7c-0.2,0.2-0.4,0.3-0.7,0.3
			l-4.1,0c-0.3,0-0.5-0.1-0.7-0.3c-0.2-0.2-0.3-0.4-0.3-0.7c0-0.3,0.1-0.5,0.3-0.7c0.2-0.2,0.4-0.3,0.7-0.3h4.1
			C-388.8-374-388.6-373.9-388.4-373.7z M-385.7-372.2c-0.2-0.2-0.3-0.4-0.3-0.7c0-0.3,0.1-0.5,0.3-0.7c0.2-0.2,0.4-0.3,0.7-0.3h4.1
			c0.3,0,0.5,0.1,0.7,0.3c0.2,0.2,0.3,0.4,0.3,0.7c0,0.3-0.1,0.5-0.3,0.7c-0.2,0.2-0.4,0.3-0.7,0.3h-4.1
			C-385.3-371.9-385.5-372-385.7-372.2z M-349.1-323.5c0.2-0.2,0.4-0.4,0.7-0.4c0.3,0,0.5,0,0.7,0.2c0.2,0.2,0.4,0.4,0.4,0.7
			c0,0.3,0,0.5-0.2,0.8c-0.8,1.1-1.6,2.2-2.3,3.3c-0.2,0.2-0.4,0.4-0.6,0.4c-0.3,0.1-0.5,0-0.8-0.2c-0.2-0.2-0.4-0.4-0.4-0.6
			c-0.1-0.3,0-0.5,0.2-0.8C-350.7-321.3-350-322.4-349.1-323.5z M-342.6-330.1c0.2,0.2,0.3,0.4,0.4,0.7c0,0.3-0.1,0.5-0.2,0.7
			c-0.9,1-1.7,2.1-2.6,3.1c-0.2,0.2-0.4,0.4-0.7,0.4c-0.3,0-0.5,0-0.7-0.2c-0.2-0.2-0.4-0.4-0.4-0.7c0-0.3,0-0.5,0.2-0.7
			c0.8-1.1,1.7-2.1,2.6-3.2c0.2-0.2,0.4-0.3,0.7-0.4C-343-330.4-342.8-330.3-342.6-330.1z M-336.7-335.4c0,0.3-0.1,0.5-0.3,0.7
			c-0.9,1-1.9,2-2.8,3c-0.2,0.2-0.4,0.3-0.7,0.3c-0.3,0-0.5-0.1-0.7-0.3c-0.2-0.2-0.3-0.4-0.3-0.7c0-0.3,0.1-0.5,0.3-0.7
			c0.9-1,1.9-2,2.8-3c0.2-0.2,0.4-0.3,0.7-0.3c0.3,0,0.5,0.1,0.7,0.3C-336.8-335.9-336.7-335.7-336.7-335.4z M-331.2-341.8
			c0.2,0.2,0.3,0.5,0.3,0.7c0,0.3-0.1,0.5-0.3,0.7c-1,0.9-2,1.9-2.9,2.8c-0.2,0.2-0.4,0.3-0.7,0.3c-0.3,0-0.5-0.1-0.7-0.3
			c-0.2-0.2-0.3-0.4-0.3-0.7c0-0.3,0.1-0.5,0.3-0.7c1-1,1.9-1.9,2.9-2.9c0.2-0.2,0.5-0.3,0.7-0.3
			C-331.6-342.2-331.4-342.1-331.2-341.8z M-353.1-317.1c0.3-0.1,0.5,0,0.8,0.1c0.2,0.1,0.4,0.4,0.5,0.6c0.1,0.3,0,0.5-0.1,0.8
			c-0.4,0.6-0.8,1.3-1.1,1.9c0.6,1,1.1,2.1,1.7,3.1c0.1,0.3,0.2,0.5,0.1,0.8c-0.1,0.3-0.2,0.5-0.5,0.6c-0.3,0.1-0.5,0.2-0.8,0.1
			c-0.3-0.1-0.5-0.2-0.6-0.5c-0.3-0.6-0.7-1.3-1-1.9c-0.3,0.6-0.7,1.3-1,1.9c-0.1,0.3-0.3,0.4-0.6,0.5c-0.3,0.1-0.5,0.1-0.8-0.1
			c-0.3-0.1-0.4-0.3-0.5-0.6c-0.1-0.3-0.1-0.5,0.1-0.8c0.5-1,1.1-2.1,1.7-3.1c-0.3-0.5-0.6-1.1-1-1.6c-0.1-0.2-0.2-0.5-0.1-0.8
			c0.1-0.3,0.2-0.5,0.5-0.6c0.2-0.1,0.5-0.2,0.8-0.1c0.3,0.1,0.5,0.2,0.6,0.5c0.1,0.2,0.3,0.4,0.4,0.6c0.2-0.3,0.4-0.6,0.6-1
			C-353.6-316.9-353.3-317.1-353.1-317.1z M-359.9-323.6c0.3,0,0.5,0.2,0.7,0.4c0.8,1.1,1.6,2.3,2.4,3.4c0.2,0.2,0.2,0.5,0.2,0.8
			c-0.1,0.3-0.2,0.5-0.4,0.6c-0.2,0.2-0.5,0.2-0.8,0.2c-0.3-0.1-0.5-0.2-0.6-0.4c-0.7-1.1-1.5-2.2-2.3-3.4c-0.2-0.2-0.2-0.5-0.2-0.8
			c0-0.3,0.2-0.5,0.4-0.7C-360.5-323.6-360.2-323.7-359.9-323.6z M-370.6-336.1c0.3,0,0.5,0.1,0.7,0.3c1,1,1.9,2,2.8,3
			c0.2,0.2,0.3,0.5,0.3,0.7c0,0.3-0.1,0.5-0.3,0.7c-0.2,0.2-0.5,0.3-0.7,0.3c-0.3,0-0.5-0.1-0.7-0.3c-0.9-1-1.8-2-2.8-3
			c-0.2-0.2-0.3-0.4-0.3-0.7c0-0.3,0.1-0.5,0.3-0.7C-371.1-336-370.8-336.1-370.6-336.1z M-378.7-344.4c0.2,0.2,0.3,0.4,0.3,0.7
			c0,0.3-0.1,0.5-0.3,0.7c-0.2,0.2-0.4,0.3-0.7,0.3c-0.3,0-0.5-0.1-0.7-0.3c-1-0.9-2-1.8-3-2.7c-0.2-0.2-0.3-0.4-0.4-0.7
			c0-0.3,0.1-0.5,0.3-0.7c0.2-0.2,0.4-0.3,0.7-0.4c0.3,0,0.5,0.1,0.7,0.3C-380.7-346.2-379.7-345.3-378.7-344.4z M-372.7-338.8
			c0.2,0.2,0.3,0.4,0.3,0.7c0,0.3-0.1,0.5-0.3,0.7c-0.2,0.2-0.4,0.3-0.7,0.3c-0.3,0-0.5-0.1-0.7-0.3c-0.9-0.9-1.9-1.9-2.9-2.8
			c-0.2-0.2-0.3-0.4-0.3-0.7c0-0.3,0.1-0.5,0.3-0.7c0.2-0.2,0.4-0.3,0.7-0.3c0.3,0,0.5,0.1,0.7,0.3
			C-374.7-340.7-373.7-339.7-372.7-338.8z M-365.8-329.8c0.2-0.2,0.5-0.3,0.7-0.2c0.3,0,0.5,0.2,0.7,0.4c0.9,1.1,1.8,2.1,2.6,3.2
			c0.2,0.2,0.3,0.5,0.2,0.7c0,0.3-0.2,0.5-0.4,0.7c-0.2,0.2-0.5,0.3-0.7,0.2c-0.3,0-0.5-0.2-0.7-0.4c-0.8-1.1-1.7-2.1-2.6-3.2
			c-0.2-0.2-0.3-0.5-0.2-0.7C-366.1-329.4-366-329.7-365.8-329.8z M-371.7-373c0,0.3-0.1,0.5-0.3,0.7c-0.2,0.2-0.4,0.3-0.7,0.3h-4.1
			c-0.3,0-0.5-0.1-0.7-0.3c-0.2-0.2-0.3-0.4-0.3-0.7c0-0.3,0.1-0.5,0.3-0.7c0.2-0.2,0.4-0.3,0.7-0.3h4.1c0.3,0,0.5,0.1,0.7,0.3
			C-371.8-373.5-371.7-373.2-371.7-373z M-363.9-373.7c0.2,0.2,0.3,0.4,0.3,0.7c0,0.3-0.1,0.5-0.3,0.7c-0.2,0.2-0.4,0.3-0.7,0.3
			h-4.1c-0.3,0-0.5-0.1-0.7-0.3c-0.2-0.2-0.3-0.4-0.3-0.7c0-0.3,0.1-0.5,0.3-0.7c0.2-0.2,0.4-0.3,0.7-0.3h4.1
			C-364.3-374-364.1-373.9-363.9-373.7z M-355.7-372.2c-0.2,0.2-0.4,0.3-0.7,0.3h-4.1c-0.3,0-0.5-0.1-0.7-0.3
			c-0.2-0.2-0.3-0.4-0.3-0.7c0-0.3,0.1-0.5,0.3-0.7c0.2-0.2,0.4-0.3,0.7-0.3h4.1c0.3,0,0.5,0.1,0.7,0.3c0.2,0.2,0.3,0.4,0.3,0.7
			C-355.4-372.7-355.5-372.4-355.7-372.2z M-326.6-347.3c0.2-0.2,0.5-0.3,0.7-0.2c0.3,0,0.5,0.1,0.7,0.4c0.2,0.2,0.3,0.5,0.2,0.7
			c0,0.3-0.1,0.5-0.4,0.7c-1,0.9-2.1,1.8-3,2.6c-0.2,0.2-0.5,0.3-0.7,0.3c-0.3,0-0.5-0.1-0.7-0.3c-0.2-0.2-0.3-0.5-0.3-0.7
			c0-0.3,0.1-0.5,0.3-0.7C-328.6-345.5-327.6-346.4-326.6-347.3z M-348.2-374c0.3,0,0.5,0.1,0.7,0.3c0.2,0.2,0.3,0.4,0.3,0.7
			c0,0.3-0.1,0.5-0.3,0.7c-0.2,0.2-0.4,0.3-0.7,0.3h-4.1c-0.3,0-0.5-0.1-0.7-0.3c-0.2-0.2-0.3-0.4-0.3-0.7c0-0.3,0.1-0.5,0.3-0.7
			c0.2-0.2,0.4-0.3,0.7-0.3H-348.2z M-344.2-374h4.1c0.3,0,0.5,0.1,0.7,0.3c0.2,0.2,0.3,0.4,0.3,0.7c0,0.3-0.1,0.5-0.3,0.7
			c-0.2,0.2-0.4,0.3-0.7,0.3h-4.1c-0.3,0-0.5-0.1-0.7-0.3c-0.2-0.2-0.3-0.4-0.3-0.7c0-0.3,0.1-0.5,0.3-0.7
			C-344.7-373.9-344.4-374-344.2-374z M-330.9-372.9c0,0.3-0.1,0.5-0.3,0.7c-0.2,0.2-0.4,0.3-0.7,0.3l-4.1-0.1
			c-0.3,0-0.5-0.1-0.7-0.3c-0.2-0.2-0.3-0.4-0.3-0.7c0-0.3,0.1-0.5,0.3-0.7c0.2-0.2,0.4-0.3,0.7-0.3l4.1,0.1c0.3,0,0.5,0.1,0.7,0.3
			C-331-373.4-330.9-373.2-330.9-372.9z M-287-274.8c0.3,0,0.5,0,0.7,0.2c0.2,0.2,0.4,0.4,0.4,0.7c0,0.3,0,0.5-0.2,0.7
			c-0.2,0.2-0.4,0.4-0.7,0.4c-1.3,0.2-2.6,0.4-4,0.7c-0.3,0-0.5,0-0.8-0.2c-0.2-0.2-0.4-0.4-0.4-0.6c0-0.3,0-0.5,0.2-0.8
			c0.2-0.2,0.4-0.4,0.6-0.4C-289.6-274.4-288.3-274.6-287-274.8z M-324.3-261.6c0.1,0.2,0.2,0.5,0.1,0.8c-0.1,0.3-0.2,0.5-0.5,0.6
			c-1.2,0.7-2.3,1.3-3.5,2c-0.2,0.1-0.5,0.2-0.8,0.1c-0.3-0.1-0.5-0.2-0.6-0.5c-0.1-0.2-0.2-0.5-0.1-0.8c0.1-0.3,0.2-0.5,0.5-0.6
			c1.2-0.7,2.3-1.4,3.5-2.1c0.2-0.1,0.5-0.2,0.8-0.1C-324.6-262.1-324.4-261.9-324.3-261.6z M-322-264c1.2-0.6,2.4-1.2,3.7-1.8
			c0.3-0.1,0.5-0.1,0.8,0c0.3,0.1,0.4,0.3,0.6,0.5c0.1,0.3,0.1,0.5,0,0.8c-0.1,0.3-0.3,0.4-0.5,0.6c-1.2,0.6-2.4,1.1-3.6,1.8
			c-0.3,0.1-0.5,0.2-0.8,0.1c-0.3-0.1-0.5-0.3-0.6-0.5c-0.1-0.3-0.2-0.5-0.1-0.8C-322.5-263.6-322.3-263.8-322-264z M-309.5-267.5
			c-0.1,0.3-0.3,0.4-0.6,0.5c-1.3,0.5-2.5,1-3.8,1.5c-0.3,0.1-0.5,0.1-0.8,0c-0.3-0.1-0.5-0.3-0.6-0.6c-0.1-0.3-0.1-0.5,0-0.8
			c0.1-0.3,0.3-0.5,0.6-0.6c1.3-0.5,2.5-1,3.8-1.5c0.3-0.1,0.5-0.1,0.8,0c0.3,0.1,0.4,0.3,0.5,0.6
			C-309.3-268-309.4-267.8-309.5-267.5z M-302.9-271.4c0.3-0.1,0.5-0.1,0.8,0.1c0.2,0.1,0.4,0.3,0.5,0.6c0.1,0.3,0.1,0.5-0.1,0.8
			c-0.1,0.2-0.3,0.4-0.6,0.5c-1.3,0.4-2.6,0.8-3.9,1.2c-0.3,0.1-0.5,0.1-0.8-0.1c-0.2-0.1-0.4-0.3-0.5-0.6c-0.1-0.3-0.1-0.5,0.1-0.8
			c0.1-0.2,0.3-0.4,0.6-0.5C-305.6-270.6-304.2-271-302.9-271.4z M-298.5-270.4c-0.3,0.1-0.5,0-0.8-0.1c-0.2-0.1-0.4-0.4-0.5-0.6
			c-0.1-0.3,0-0.5,0.1-0.8s0.4-0.4,0.6-0.5c1.3-0.3,2.6-0.6,4-0.9c0.3-0.1,0.5,0,0.8,0.2c0.2,0.1,0.4,0.4,0.5,0.6
			c0.1,0.3,0,0.5-0.2,0.8c-0.1,0.2-0.4,0.4-0.6,0.5C-295.9-271.1-297.2-270.8-298.5-270.4z M-285.5-278.9c0-0.3,0.1-0.5,0.3-0.7
			c0.2-0.2,0.4-0.3,0.7-0.3c0.3,0,0.5,0.1,0.7,0.3c0.2,0.2,0.3,0.4,0.3,0.7l0.2,4.1c0,0.3-0.1,0.5-0.3,0.7c-0.2,0.2-0.4,0.3-0.7,0.3
			c-0.3,0-0.5-0.1-0.7-0.3c-0.2-0.2-0.3-0.4-0.3-0.7L-285.5-278.9z M-284.2-287.9c0.2,0.2,0.3,0.4,0.3,0.7l0.2,4.1
			c0,0.3-0.1,0.5-0.3,0.7c-0.2,0.2-0.4,0.3-0.7,0.3c-0.3,0-0.5-0.1-0.7-0.3c-0.2-0.2-0.3-0.4-0.3-0.7l-0.2-4.1
			c0-0.3,0.1-0.5,0.3-0.7c0.2-0.2,0.4-0.3,0.7-0.3C-284.7-288.2-284.5-288.1-284.2-287.9z M-286.1-296c0.2-0.2,0.4-0.3,0.7-0.3
			c0.3,0,0.5,0.1,0.7,0.3c0.2,0.2,0.3,0.4,0.3,0.7l0.2,4.1c0,0.3-0.1,0.5-0.3,0.7c-0.2,0.2-0.4,0.3-0.7,0.3c-0.3,0-0.5-0.1-0.7-0.3
			c-0.2-0.2-0.3-0.4-0.3-0.7l-0.2-4.1C-286.4-295.5-286.3-295.8-286.1-296z M-285.1-304.2c0.2,0.2,0.3,0.4,0.3,0.7l0.2,4.1
			c0,0.3-0.1,0.5-0.3,0.7c-0.2,0.2-0.4,0.3-0.7,0.3c-0.3,0-0.5-0.1-0.7-0.3c-0.2-0.2-0.3-0.4-0.3-0.7l-0.2-4.1
			c0-0.3,0.1-0.5,0.3-0.7c0.2-0.2,0.4-0.3,0.7-0.3C-285.6-304.5-285.3-304.4-285.1-304.2z M-287-312.3c0.2-0.2,0.4-0.3,0.7-0.3
			c0.3,0,0.5,0.1,0.7,0.3c0.2,0.2,0.3,0.4,0.3,0.7l0.2,4.1c0,0.3-0.1,0.5-0.3,0.7c-0.2,0.2-0.4,0.3-0.7,0.3c-0.3,0-0.5-0.1-0.7-0.3
			c-0.2-0.2-0.3-0.4-0.3-0.7l-0.2-4.1C-287.3-311.9-287.2-312.1-287-312.3z M-287.5-320.5c0.2-0.2,0.4-0.3,0.7-0.3
			c0.3,0,0.5,0.1,0.7,0.3c0.2,0.2,0.3,0.4,0.3,0.7l0.2,4.1c0,0.3-0.1,0.5-0.3,0.7c-0.2,0.2-0.4,0.3-0.7,0.3c-0.3,0-0.5-0.1-0.7-0.3
			c-0.2-0.2-0.3-0.4-0.3-0.7l-0.2-4.1C-287.8-320.1-287.7-320.3-287.5-320.5z M-286.5-328.8c0.2,0.2,0.3,0.4,0.3,0.7l0.2,4.1
			c0,0.3-0.1,0.5-0.3,0.7c-0.2,0.2-0.4,0.3-0.7,0.3c-0.3,0-0.5-0.1-0.7-0.3c-0.2-0.2-0.3-0.4-0.3-0.7l-0.2-4.1
			c0-0.3,0.1-0.5,0.3-0.7c0.2-0.2,0.4-0.3,0.7-0.3C-287-329-286.7-328.9-286.5-328.8z M-288.4-336.9c0.2-0.2,0.4-0.3,0.7-0.3
			c0.3,0,0.5,0.1,0.7,0.3c0.2,0.2,0.3,0.4,0.3,0.7l0.2,4.1c0,0.3-0.1,0.5-0.3,0.7c-0.2,0.2-0.4,0.3-0.7,0.3c-0.3,0-0.5-0.1-0.7-0.3
			c-0.2-0.2-0.3-0.4-0.3-0.7l-0.2-4.1C-288.7-336.4-288.6-336.6-288.4-336.9z M-289.2-344.3c0-0.3,0.1-0.5,0.3-0.7
			c0.2-0.2,0.4-0.3,0.7-0.3c0.3,0,0.5,0.1,0.7,0.3c0.2,0.2,0.3,0.4,0.3,0.7l0.2,4.1c0,0.3-0.1,0.5-0.3,0.7c-0.2,0.2-0.4,0.3-0.7,0.3
			c-0.3,0-0.5-0.1-0.7-0.3c-0.2-0.2-0.3-0.4-0.3-0.7L-289.2-344.3z M-318.9-352.3c0.2,0.2,0.3,0.5,0.2,0.7c0,0.3-0.2,0.5-0.4,0.7
			c-1.1,0.8-2.1,1.7-3.1,2.5c-0.2,0.2-0.5,0.3-0.7,0.2c-0.3,0-0.5-0.1-0.7-0.4c-0.2-0.2-0.3-0.5-0.2-0.7c0-0.3,0.1-0.5,0.4-0.7
			c1-0.9,2.1-1.7,3.2-2.6c0.2-0.2,0.5-0.3,0.7-0.2C-319.3-352.7-319.1-352.5-318.9-352.3z M-317.5-354.3c0-0.3,0.2-0.5,0.4-0.7
			c1.1-0.8,2.1-1.6,3.2-2.5c0.2-0.2,0.5-0.2,0.7-0.2c0.3,0,0.5,0.2,0.7,0.4c0.2,0.2,0.2,0.5,0.2,0.7c0,0.3-0.2,0.5-0.4,0.7
			c-1.1,0.8-2.1,1.6-3.2,2.4c-0.2,0.2-0.5,0.3-0.7,0.2c-0.3,0-0.5-0.2-0.7-0.4C-317.5-353.8-317.6-354-317.5-354.3z M-310.9-358.4
			c-0.2-0.2-0.2-0.5-0.2-0.8c0-0.3,0.2-0.5,0.4-0.7c1.1-0.8,2.2-1.5,3.3-2.3c0.2-0.2,0.5-0.2,0.8-0.2c0.3,0.1,0.5,0.2,0.6,0.4
			c0.2,0.2,0.2,0.5,0.2,0.8c-0.1,0.3-0.2,0.5-0.4,0.6c-1.1,0.8-2.2,1.5-3.3,2.3c-0.2,0.2-0.5,0.2-0.8,0.2
			C-310.5-358.1-310.7-358.2-310.9-358.4z M-323.7-373.8c0.3,0,0.5,0.1,0.7,0.3c0.2,0.2,0.3,0.4,0.3,0.7c0,0.3-0.1,0.5-0.3,0.7
			c-0.2,0.2-0.4,0.3-0.7,0.3l-4.1-0.1c-0.3,0-0.5-0.1-0.7-0.3c-0.2-0.2-0.3-0.4-0.3-0.7c0-0.3,0.1-0.5,0.3-0.7
			c0.2-0.2,0.4-0.3,0.7-0.3L-323.7-373.8z M-314.8-372c-0.2,0.2-0.4,0.3-0.7,0.3l-4.1-0.1c-0.3,0-0.5-0.1-0.7-0.3
			c-0.2-0.2-0.3-0.4-0.3-0.7c0-0.3,0.1-0.5,0.3-0.7c0.2-0.2,0.4-0.3,0.7-0.3l4.1,0.1c0.3,0,0.5,0.1,0.7,0.3c0.2,0.2,0.3,0.4,0.3,0.7
			C-314.5-372.5-314.6-372.2-314.8-372z M-304.2-363.1c-0.2-0.2-0.2-0.5-0.2-0.8c0.1-0.3,0.2-0.5,0.4-0.6c1.1-0.7,2.2-1.5,3.4-2.2
			c0.2-0.2,0.5-0.2,0.8-0.2c0.3,0.1,0.5,0.2,0.6,0.4c0.2,0.2,0.2,0.5,0.2,0.8c-0.1,0.3-0.2,0.5-0.4,0.6c-1.1,0.7-2.2,1.5-3.4,2.2
			c-0.2,0.2-0.5,0.2-0.8,0.2C-303.9-362.7-304.1-362.9-304.2-363.1z M-306.6-373.4c0.2,0.2,0.3,0.4,0.3,0.7c0,0.3-0.1,0.5-0.3,0.7
			c-0.2,0.2-0.4,0.3-0.7,0.3l-4.1-0.1c-0.3,0-0.5-0.1-0.7-0.3c-0.2-0.2-0.3-0.4-0.3-0.7c0-0.3,0.1-0.5,0.3-0.7
			c0.2-0.2,0.4-0.3,0.7-0.3l4.1,0.1C-307.1-373.7-306.8-373.6-306.6-373.4z M-299.2-371.6l-4.1-0.1c-0.3,0-0.5-0.1-0.7-0.3
			c-0.2-0.2-0.3-0.4-0.3-0.7c0-0.3,0.1-0.5,0.3-0.7c0.2-0.2,0.4-0.3,0.7-0.3l4.1,0.1c0.3,0,0.5,0.1,0.7,0.3c0.2,0.2,0.3,0.4,0.3,0.7
			c0,0.3-0.1,0.5-0.3,0.7C-298.7-371.7-298.9-371.6-299.2-371.6z M-289.7-352.5c0-0.3,0.1-0.5,0.3-0.7c0.2-0.2,0.4-0.3,0.7-0.3
			c0.3,0,0.5,0.1,0.7,0.3c0.2,0.2,0.3,0.4,0.3,0.7l0.2,4.1c0,0.3-0.1,0.5-0.3,0.7c-0.2,0.2-0.4,0.3-0.7,0.3c-0.3,0-0.5-0.1-0.7-0.3
			c-0.2-0.2-0.3-0.4-0.3-0.7L-289.7-352.5z M-288.1-360.7l0.2,4.1c0,0.3-0.1,0.5-0.3,0.7c-0.2,0.2-0.4,0.3-0.7,0.3
			c-0.3,0-0.5-0.1-0.7-0.3c-0.2-0.2-0.3-0.4-0.3-0.7l-0.2-4.1c0-0.3,0.1-0.5,0.3-0.7c0.2-0.2,0.4-0.3,0.7-0.3c0.3,0,0.5,0.1,0.7,0.3
			C-288.2-361.3-288.1-361-288.1-360.7z M-290.4-364.7l-0.2-4.1c0-0.3,0.1-0.5,0.3-0.7c0.2-0.2,0.4-0.3,0.7-0.3
			c0.3,0,0.5,0.1,0.7,0.3c0.2,0.2,0.3,0.4,0.3,0.7l0.2,4.1c0,0.3-0.1,0.5-0.3,0.7c-0.2,0.2-0.4,0.3-0.7,0.3c-0.3,0-0.5-0.1-0.7-0.3
			C-290.3-364.2-290.4-364.5-290.4-364.7z M-293.8-371.2c0.2-0.1,0.5-0.2,0.8-0.1c0.3,0.1,0.5,0.2,0.6,0.4c0.1,0.2,0.2,0.5,0.1,0.8
			c-0.1,0.3-0.2,0.5-0.4,0.6c-1.2,0.7-2.3,1.4-3.4,2.2c-0.2,0.2-0.5,0.2-0.8,0.2c-0.3-0.1-0.5-0.2-0.6-0.4c-0.2-0.2-0.2-0.5-0.2-0.8
			c0.1-0.3,0.2-0.5,0.4-0.6C-296.1-369.7-294.9-370.5-293.8-371.2z M-295.8-373.3c0.2-0.2,0.4-0.3,0.7-0.3l4.1,0.1
			c0.3,0,0.5,0.1,0.7,0.3c0.2,0.2,0.3,0.4,0.3,0.7c0,0.3-0.1,0.5-0.3,0.7c-0.2,0.2-0.4,0.3-0.7,0.3l-4.1-0.1c-0.3,0-0.5-0.1-0.7-0.3
			c-0.2-0.2-0.3-0.4-0.3-0.7C-296.1-372.9-296-373.1-295.8-373.3z"/>
	</g>
</g>
</svg>
