<?xml version="1.0" encoding="utf-8"?>
<!-- Generator: Adobe Illustrator 27.0.0, SVG Export Plug-In . SVG Version: 6.00 Build 0)  -->
<svg version="1.1" id="Vrstva_1" xmlns="http://www.w3.org/2000/svg" xmlns:xlink="http://www.w3.org/1999/xlink" x="0px" y="0px"
	 viewBox="0 0 350 250" style="enable-background:new 0 0 350 250;" xml:space="preserve">
<style type="text/css">
	.st0{fill:#CFCFCE;}
	.st1{fill:#FFFFFF;}
	.st2{fill:#C1DFDF;}
	.st3{fill:#99CCCC;}
	.st4{fill:#CB3617;}
	.st5{fill:#676767;}
	.st6{fill:#054845;}
	.st7{fill-opacity:0;stroke:#F29569;stroke-width:1.6778;stroke-linecap:round;stroke-linejoin:round;stroke-miterlimit:2.88;}
	.st8{fill:#3C3C3B;}
	.st9{fill:#868686;}
	.st10{fill:#1D1D1B;}
	.st11{fill:#D1AE78;}
	.st12{fill-opacity:0;stroke:#3C3C3B;stroke-width:3.2869;stroke-miterlimit:13.4;}
	.st13{fill:#D9D9D9;}
</style>
<g>
	<g transform="matrix(0.7200000286102295,0,0,0.7200000286102295,458.2161560058594,350.3315124511719)">
		<g transform="matrix(1,0,0,1,0,0)">
			<path class="st0" d="M-335-404.7l0.2-74.2l13.2,0l-0.1,74.1L-335-404.7z"/>
		</g>
	</g>
	<g transform="matrix(0.7200000286102295,0,0,0.7200000286102295,443.4561462402344,350.3315124511719)">
		<g transform="matrix(1,0,0,1,0,0)">
			<path class="st1" d="M-314.5-404.7l-12,0.1l0.2-74.3l12,0L-314.5-404.7z"/>
		</g>
	</g>
	<g transform="matrix(0.7200000286102295,0,0,0.7200000286102295,106.79998779296875,140.79998779296875)">
		<g transform="matrix(1,0,0,1,0,0)">
			<g transform="matrix(1,0,0,1,560.8779907226562,726.4409790039062)">
				<path class="st2" d="M-484-635c35.2,0.6,229.1,0.5,255.5,0c-0.1,13.9-0.2,40.4-0.3,51.6c-18.9,0.9-241.5,0.6-255,0
					C-483.7-602.3-484.2-621.1-484-635z"/>
			</g>
			<g transform="matrix(1,0,0,1,560.8779907226562,577.8670043945312)">
				<path class="st3" d="M-228.5-486.1c-14.8,0.4-234.3,0.8-255.5,0c0.3-12.6-0.3-115.8,0-131.9c25.8,0,231.6-1,255.4,0
					C-228.2-597.4-228.5-497.5-228.5-486.1z"/>
			</g>
		</g>
	</g>
	<g transform="matrix(0.7200000286102295,0,0,0.7200000286102295,106.79998779296875,140.79998779296875)">
		<g transform="matrix(1,0,0,1,561.9030151367188,386.5159912109375)">
			<g transform="matrix(1,0,0,1,0,0)">
				<path class="st4" d="M-485-426c0.5-0.9,64.2-104.5,64.9-105.1c0.6-0.2,134.2-0.2,135.1,0c0.3,0.3,56.5,104.1,56.8,104.7
					C-230.4-427.1-483.3-426.6-485-426z"/>
			</g>
		</g>
	</g>
	<g transform="matrix(0.7200000286102295,0,0,0.7200000286102295,106.79998779296875,140.79998779296875)">
		<g transform="matrix(1,0,0,1,0,0)">
			<g transform="matrix(1,0,0,1,456.1780090332031,598.7160034179688)">
				<path class="st1" d="M-287.4-589.8c0,0.5-0.3,59.6-0.2,60.3c-0.4,0-57.8-0.7-58-0.7c-0.1-0.5,0.8-59.9,0.9-60.2
					C-344.5-590.5-287.6-589.8-287.4-589.8z"/>
			</g>
			<g transform="matrix(1,0,0,1,454.4530029296875,599.4169921875)">
				<path class="st5" d="M-337.3-585.5c0.1,0,17.8,0.2,17.8,0.2s-0.2,21.8-0.2,22c-0.2,0-17.9-0.2-17.9-0.2
					S-337.3-585.3-337.3-585.5z M-294.3-559.2c0,0-0.2,23.8-0.2,24.2c-0.2,0-19.8-0.3-19.8-0.3s0.2-23.9,0.2-24.1
					C-314-559.4-294.3-559.2-294.3-559.2z M-313.9-585.3c0,0,19.6,0.2,19.8,0.2c0,0.3-0.2,22-0.2,22s-19.7-0.2-19.8-0.2
					C-314.1-563.6-313.9-585.3-313.9-585.3z M-319.7-559.5c0,0-0.2,23.7-0.2,24.1c-0.1,0-17.8-0.2-17.8-0.2s0.2-23.8,0.2-24.1
					C-337.4-559.7-319.7-559.5-319.7-559.5z"/>
			</g>
		</g>
	</g>
	<g transform="matrix(0.7200000286102295,0,0,0.7200000286102295,106.79998779296875,140.79998779296875)">
		<g transform="matrix(1,0,0,1,0,0)">
			<g transform="matrix(1,0,0,1,683.8779907226562,593.8410034179688)">
				<path class="st1" d="M-374-530.9c-0.3,0.1-57.9-0.2-57.9-0.2s0-54-0.1-54.6c0.3,0,57.8,1.1,57.8,1.1S-373.9-531.9-374-530.9z"/>
			</g>
			<g transform="matrix(1,0,0,1,682.2529907226562,593.4409790039062)">
				<path class="st5" d="M-380.6-579.7c0,0.2-0.1,18.4-0.1,18.4s-19.5-0.1-19.7-0.2c0-0.2,0.1-18.4,0.1-18.4
					S-380.7-579.7-380.6-579.7z M-380.8-558.1c0,0.3-0.1,22-0.1,22s-19.4-0.1-19.6-0.1c0-0.3,0.1-22,0.1-22
					S-380.9-558.1-380.8-558.1z M-405.9-579.9c0,0.2-0.1,18.5-0.1,18.5s-17.8-0.1-17.9-0.1c0-0.3,0.1-18.5,0.1-18.5
					S-406-580-405.9-579.9z M-406-558.3c0,0.2-0.1,22.1-0.1,22.1s-17.7-0.1-17.9-0.1c0-0.4,0.1-22.1,0.1-22.1
					S-406.2-558.3-406-558.3z"/>
			</g>
		</g>
	</g>
	<g transform="matrix(0.7200000286102295,0,0,0.7200000286102295,515.690185546875,646.1075439453125)">
		<g transform="matrix(1,0,0,1,0,0)">
			<path class="st6" d="M-337.9-557.8l-42.1,0c0,0-0.1-82.1-0.2-82.9c0.5,0,41.7,0,42.4,0C-337.8-640.2-337.9-557.8-337.9-557.8z"/>
		</g>
	</g>
	<g transform="matrix(0.7200000286102295,0,0,0.7200000286102295,512.4321899414062,418.93023681640625)">
		<g transform="matrix(1,0,0,1,0,0)">
			<path class="st7" d="M-412.8-511.8c0.6-0.1,114.1-2.2,115.1-2 M-438.2-468.3c0.9-0.3,162.4-0.8,163.8-0.4 M-452.9-443.8
				c1.2-0.4,189.4-0.3,191.3,0.2 M-422.4-491.1c0.8-0.2,135.8-1.7,137.1-1.4"/>
		</g>
	</g>
	<g transform="matrix(0.7200000286102295,0,0,0.7200000286102295,433.97015380859375,507.2555236816406)">
		<g transform="matrix(1,0,0,1,0,0)">
			<path class="st2" d="M-280.3-510.6c-0.7,0-70.6,0.1-70.9,0.2c0.3-0.4,33.9-31.1,33.9-31.1S-280.7-510.9-280.3-510.6z"/>
		</g>
	</g>
	<g transform="matrix(0.7200000286102295,0,0,0.7200000286102295,598.4541625976562,507.2555236816406)">
		<g transform="matrix(1,0,0,1,0,0)">
			<path class="st2" d="M-367.2-510.4c-0.7-0.1-70.5-0.2-70.9-0.2c0.4-0.3,34-30.9,34-30.9S-367.6-510.8-367.2-510.4z"/>
		</g>
	</g>
	<g transform="matrix(0.7200000286102295,0,0,0.7200000286102295,516.41015625,579.6515502929688)">
		<g transform="matrix(1,0,0,1,0,0)">
			<path class="st2" d="M-377.4-570c0.3,0,35.7,0,36.1,0c0,0.1,0,11.6,0,11.8c-0.2,0.1-35.9,0-36.1,0
				C-377.4-558.3-377.4-569.9-377.4-570z"/>
		</g>
	</g>
	<g transform="matrix(1.340000033378601,0,0,1.340000033378601,180.79937744140625,670.3151245117188)">
		<g transform="matrix(1,0,0,1,0,0)">
			<path class="st8" d="M-94.4-326.8H-99v-4.9h4.6V-326.8z"/>
		</g>
	</g>
	<g transform="matrix(1.340000033378601,0,0,1.340000033378601,184.6894073486328,670.266845703125)">
		<g transform="matrix(1,0,0,1,0,0)">
			<path class="st8" d="M-96.3-325.1h-3.1v-8.2h3.1V-325.1z"/>
		</g>
	</g>
	<g transform="matrix(1.340000033378601,0,0,1.340000033378601,160.3885040283203,519.96923828125)">
		<g transform="matrix(1,0,0,1,0,0)">
			<path class="st9" d="M-88.7-223.6h-4.2v-124.5h4.2V-223.6z"/>
		</g>
	</g>
	<g transform="matrix(1.340000033378601,0,0,1.340000033378601,160.65115356445312,553.7083129882812)">
		<g transform="matrix(1,0,0,1,0,0)">
			<path class="st10" d="M-82.7-233.3h-16.4v-124.5h16.4V-233.3z"/>
		</g>
	</g>
	<g transform="matrix(1.340000033378601,0,0,1.340000033378601,159.60325622558594,376.0867004394531)">
		<g transform="matrix(1,0,0,1,0,0)">
			<path class="st11" d="M-66.7-252.4c-0.6-0.9-1.5-1.4-2.6-1.4c-1.8,0-2.3,3.5-8.4,3.3c-3.4-0.1-7.1-1.2-9-1.4
				c-6.4-0.5-8.2,0.1-16.2,1c-4.6,0.5-8.4-2.9-8.9-2.9c-1.1,0-2.1,0.6-2.7,1.4c-1.4,1.5-2.4,4.7-2.4,8.3c0,5.1,2,9.3,4.4,9.3
				c0.1,0,0.1,0,0.2,0c0.2,0,0.3,0.1,0.5,0.1c0.4,0,3.9-2.9,7.4-3.2c7.5-0.6,19.3,0,26.3-0.1c7.7-0.1,7.1,3.3,8.8,3.3
				c0.2,0,0.3,0,0.5-0.1c0.1,0,0.1,0,0.2,0c2.4,0,4.4-4.2,4.4-9.3C-64.3-247.8-65.3-250.9-66.7-252.4z"/>
		</g>
	</g>
	<g transform="matrix(1.340000033378601,0,0,1.340000033378601,161.01829528808594,687.9093017578125)">
		<g transform="matrix(1,0,0,1,0,0)">
			<path class="st8" d="M-80.4-331.6h-21.2v-5.4h21.2V-331.6z"/>
		</g>
	</g>
	<g transform="matrix(1.340000033378601,0,0,1.340000033378601,270.4427185058594,628.5673828125)">
		<g transform="matrix(1,0,0,1,0,0)">
			<path class="st12" d="M-161.8-298.1c0,0,7.1,1,20.6-0.2c13-1.2,7.3-16.7,19.6-28.5c9.5-9.1,26.9-9.8,38.3-9.8"/>
		</g>
	</g>
	<g transform="matrix(1.340000033378601,0,0,1.340000033378601,358.7781982421875,586.113525390625)">
		<g transform="matrix(1,0,0,1,0,0)">
			<path class="st13" d="M-146.2-302.6l-4-0.7v-3.4l4.2-0.6L-146.2-302.6z"/>
		</g>
	</g>
	<g transform="matrix(1.340000033378601,0,0,1.340000033378601,152.24533081054688,551.0578002929688)">
		<g transform="matrix(1,0,0,1,0,0)">
			<path class="st1" d="M-89.4-351.9c0,0-1.4,114.2,0.2,114.7c1.6,0.5,2.5-73,2.1-86.8s-1.1-28.5-1.1-28.5L-89.4-351.9z"/>
		</g>
	</g>
</g>
</svg>
