<?xml version="1.0" encoding="utf-8"?>
<!-- Generator: Adobe Illustrator 27.0.0, SVG Export Plug-In . SVG Version: 6.00 Build 0)  -->
<svg version="1.1" id="Vrstva_1" xmlns="http://www.w3.org/2000/svg" xmlns:xlink="http://www.w3.org/1999/xlink" x="0px" y="0px"
	 width="350px" height="127px" viewBox="0 0 350 127" style="enable-background:new 0 0 350 127;" xml:space="preserve">
<style type="text/css">
	.st0{fill:#CCCBCB;}
	.st1{fill:#FFFFFF;}
	.st2{fill:#D5D4D4;}
	.st3{fill:#787878;}
	.st4{fill:#D4D4D4;}
	.st5{fill:#F39719;}
	.st6{fill:#5B5B5B;}
</style>
<g>
	<g transform="matrix(1,0,0,1,189.50601196289062,0)">
		<g transform="matrix(1,0,0,1,312.6629943847656,499.52301025390625)">
			<path class="st0" d="M-234.4-472.3c4.1-6.5,13.9-9.9,29.6-10.4l40.6,0.2c5.3,1.3,8.1,4.6,8.4,9.8v75c0.5,8.4-2.9,12.8-10.2,13.1
				h-46.1c-3.9,0.1-8.9-1.3-15.2-4.3l2.9,1.1c-5.3-3.3-8.5-5.5-9.6-6.6h-0.5v-3.4l0,0v-1.3l0,0L-234.4-472.3z"/>
		</g>
		<g transform="matrix(1,0,0,1,295.9949951171875,495.72601318359375)">
			<g transform="matrix(1,0,0,1,0,0)">
				<path class="st1" d="M-219.2-462.8c0.3-6.7,3.8-10.6,10.5-11.5l47.1,0.2c6.1,1.2,9.1,4.4,9,9.7l-1.1,66c0.2,6.3-2.7,9.5-8.5,9.5
					l-47.4-0.2c-7.2,1-10.6-2.8-10.2-11.4L-219.2-462.8z"/>
			</g>
		</g>
	</g>
	<g transform="matrix(1,0,0,1,689.5059814453125,500)">
		<g transform="matrix(1,0,0,1,-206.375,-2.75)">
			<path class="st2" d="M-158.4-467.2v69.7c0,0.5-0.4,0.9-0.9,0.9h-51.1c-0.5,0-0.9-0.4-0.9-0.9v-69.7c0-0.5,0.4-0.9,0.9-0.9h51.1
				C-158.9-468.2-158.4-467.8-158.4-467.2z"/>
		</g>
	</g>
	<g transform="matrix(1,0,0,1,689.5059814453125,500)">
		<g transform="matrix(1,0,0,1,-206.375,-2.75)">
			<path class="st1" d="M-159.9-465.9v67c0,0.5-0.4,0.9-0.9,0.9H-209c-0.5,0-0.9-0.4-0.9-0.9v-67c0-0.5,0.4-0.9,0.9-0.9h48.1
				C-160.3-466.8-159.9-466.4-159.9-465.9z"/>
		</g>
	</g>
	<g transform="matrix(1,0,0,1,479.1719970703125,491.7929992675781)">
		<g transform="matrix(1,0,0,1,0,0)">
			<path class="st0" d="M-182.8-446.7c4.7,0,8.7,1.7,12,5c3.3,3.4,4.9,7.4,4.9,12.2c0,4.8-1.6,8.8-4.9,12.2c-3.3,3.4-7.3,5-12,5
				s-8.7-1.7-12-5c-3.3-3.4-4.9-7.4-4.9-12.2c0-4.8,1.6-8.8,4.9-12.2C-191.5-445-187.5-446.7-182.8-446.7z"/>
		</g>
	</g>
	<g transform="matrix(1,0,0,1,475.0169982910156,490.5)">
		<g transform="matrix(1,0,0,1,0,0)">
			<path class="st1" d="M-171.2-438.3c2.6,2.6,3.9,5.8,3.9,9.6c0,3.7-1.3,6.9-3.9,9.6c-2.6,2.6-5.7,4-9.4,4s-6.8-1.3-9.4-4
				c-2.6-2.6-3.9-5.8-3.9-9.6c0-3.7,1.3-6.9,3.9-9.6c2.6-2.6,5.7-4,9.4-4S-173.8-441-171.2-438.3z"/>
		</g>
	</g>
	<g transform="matrix(1,0,0,1,474.5370178222656,490.2040100097656)">
		<g transform="matrix(1,0,0,1,0,0)">
			<path class="st3" d="M-172.1-437c2.3,2.3,3.4,5.1,3.4,8.4s-1.1,6.1-3.4,8.4c-2.3,2.3-5,3.5-8.2,3.5s-6-1.2-8.3-3.5
				s-3.4-5.1-3.4-8.4s1.1-6.1,3.4-8.4c2.3-2.3,5-3.5,8.3-3.5C-177.1-440.5-174.3-439.3-172.1-437z"/>
		</g>
	</g>
	<g transform="matrix(1,0,0,1,189.50601196289062,0)">
		<g transform="matrix(1,0,0,1,312.6629943847656,499.52301025390625)">
			<path class="st0" d="M-321.7-472.3c4.1-6.5,13.9-9.9,29.6-10.4l40.6,0.2c5.3,1.3,8.1,4.6,8.4,9.8v75c0.5,8.4-2.9,12.8-10.2,13.1
				h-46.1c-3.9,0.1-8.9-1.3-15.2-4.3l2.9,1.1c-5.3-3.3-8.5-5.5-9.6-6.6h-0.5v-3.4l0,0v-1.3l0,0L-321.7-472.3z"/>
		</g>
		<g transform="matrix(1,0,0,1,295.9949951171875,495.72601318359375)">
			<g transform="matrix(1,0,0,1,0,0)">
				<path class="st1" d="M-306.6-462.8c0.3-6.7,3.8-10.6,10.5-11.5l47.1,0.2c6.1,1.2,9.1,4.4,9,9.7l-1.1,66c0.2,6.3-2.7,9.5-8.5,9.5
					l-47.4-0.2c-7.2,1-10.6-2.8-10.2-11.4L-306.6-462.8z"/>
			</g>
		</g>
	</g>
	<g transform="matrix(1,0,0,1,689.5059814453125,500)">
		<g transform="matrix(1,0,0,1,-206.375,-2.75)">
			<path class="st2" d="M-245.8-467.2v69.7c0,0.5-0.4,0.9-0.9,0.9h-51.1c-0.5,0-0.9-0.4-0.9-0.9v-69.7c0-0.5,0.4-0.9,0.9-0.9h51.1
				C-246.2-468.2-245.8-467.8-245.8-467.2z"/>
		</g>
	</g>
	<g transform="matrix(1,0,0,1,689.5059814453125,500)">
		<g transform="matrix(1,0,0,1,-206.375,-2.75)">
			<path class="st1" d="M-247.3-465.9v67c0,0.5-0.4,0.9-0.9,0.9h-48.1c-0.5,0-0.9-0.4-0.9-0.9v-67c0-0.5,0.4-0.9,0.9-0.9h48.1
				C-247.7-466.8-247.3-466.4-247.3-465.9z"/>
		</g>
	</g>
	<g transform="matrix(1,0,0,1,499.5060119628906,500)">
		<g transform="matrix(1,0,0,1,0,0)">
			<g transform="matrix(1,0,0,1,0,0)">
				<path class="st0" d="M-278.1-449.8c3.3,3.4,5,7.4,5,12.2c0,4.8-1.7,8.8-5,12.2c-3.3,3.4-7.3,5-12,5s-8.7-1.7-12-5
					c-3.3-3.4-5-7.4-5-12.2c0-4.8,1.7-8.8,5-12.2c3.3-3.4,7.3-5,12-5S-281.4-453.2-278.1-449.8z"/>
			</g>
		</g>
		<g transform="matrix(1,0,0,1,0,0)">
			<g transform="matrix(1,0,0,1,0,0)">
				<path class="st1" d="M-292-451.8c3.7,0,6.8,1.3,9.4,4c2.6,2.6,3.9,5.8,3.9,9.6c0,3.7-1.3,6.9-3.9,9.6c-2.6,2.6-5.7,4-9.4,4
					c-3.7,0-6.8-1.3-9.4-4c-2.6-2.6-3.9-5.8-3.9-9.6c0-3.7,1.3-6.9,3.9-9.6S-295.7-451.8-292-451.8z"/>
			</g>
		</g>
		<g transform="matrix(1,0,0,1,0,0)">
			<g transform="matrix(1,0,0,1,0,0)">
				<path class="st4" d="M-292.2-450.3c3.2,0,6,1.2,8.2,3.5c2.3,2.3,3.4,5.1,3.4,8.4s-1.1,6.1-3.4,8.4s-5,3.5-8.2,3.5
					s-6-1.2-8.3-3.5s-3.4-5.1-3.4-8.4s1.1-6.1,3.4-8.4C-298.2-449.1-295.5-450.3-292.2-450.3z"/>
			</g>
		</g>
	</g>
	<g transform="matrix(1,0,0,1,-0.444000244140625,100)">
		<g transform="matrix(1,0,0,1,189.50601196289062,0)">
			<g transform="matrix(1,0,0,1,312.6629943847656,499.52301025390625)">
				<path class="st0" d="M-408.7-572.3c4.1-6.5,13.9-9.9,29.6-10.4l40.6,0.2c5.3,1.3,8.1,4.6,8.4,9.8v75c0.5,8.4-2.9,12.8-10.2,13.1
					h-46.1c-3.9,0.1-8.9-1.3-15.2-4.3l2.9,1.1c-5.3-3.3-8.5-5.5-9.6-6.6h-0.5v-3.4l0,0v-1.3l0,0L-408.7-572.3z"/>
			</g>
			<g transform="matrix(1,0,0,1,295.9949951171875,495.72601318359375)">
				<g transform="matrix(1,0,0,1,0,0)">
					<path class="st1" d="M-393.5-562.8c0.3-6.7,3.8-10.6,10.5-11.5l47.1,0.2c6.1,1.2,9.1,4.4,9,9.7l-1.1,66
						c0.2,6.3-2.7,9.5-8.5,9.5l-47.4-0.2c-7.2,1-10.6-2.8-10.2-11.4L-393.5-562.8z"/>
				</g>
			</g>
		</g>
		<g transform="matrix(1,0,0,1,689.5059814453125,500)">
			<g transform="matrix(1,0,0,1,-206.375,-2.75)">
				<path class="st2" d="M-332.8-567.2v69.7c0,0.5-0.4,0.9-0.9,0.9h-51.1c-0.5,0-0.9-0.4-0.9-0.9v-69.7c0-0.5,0.4-0.9,0.9-0.9h51.1
					C-333.2-568.2-332.8-567.8-332.8-567.2z"/>
			</g>
		</g>
		<g transform="matrix(1,0,0,1,695.5050048828125,501.8330078125)">
			<g transform="matrix(1,0,0,1,-206.375,-2.75)">
				<path class="st1" d="M-337.5-566.8v67c0,0.5-0.4,0.9-0.9,0.9h-48.1c-0.5,0-0.9-0.4-0.9-0.9v-67c0-0.5,0.4-0.9,0.9-0.9h48.1
					C-337.9-567.8-337.5-567.4-337.5-566.8z"/>
			</g>
		</g>
		<g transform="matrix(1,0,0,1,505.5050048828125,501.8330078125)">
			<g transform="matrix(1,0,0,1,0,0)">
				<g transform="matrix(1,0,0,1,0,0)">
					<path class="st0" d="M-368.3-550.8c3.3,3.4,5,7.4,5,12.2c0,4.8-1.7,8.8-5,12.2c-3.3,3.4-7.3,5-12,5s-8.7-1.7-12-5
						c-3.3-3.4-5-7.4-5-12.2s1.7-8.8,5-12.2s7.3-5,12-5C-375.6-555.9-371.6-554.2-368.3-550.8z"/>
				</g>
			</g>
			<g transform="matrix(1,0,0,1,0,0)">
				<g transform="matrix(1,0,0,1,0,0)">
					<path class="st1" d="M-382.2-552.8c3.7,0,6.8,1.3,9.4,4c2.6,2.6,3.9,5.8,3.9,9.6c0,3.7-1.3,6.9-3.9,9.6c-2.6,2.6-5.7,4-9.4,4
						c-3.7,0-6.8-1.3-9.4-4c-2.6-2.6-3.9-5.8-3.9-9.6c0-3.7,1.3-6.9,3.9-9.6C-389-551.4-385.8-552.8-382.2-552.8z"/>
				</g>
			</g>
			<g transform="matrix(1,0,0,1,0,0)">
				<g transform="matrix(1,0,0,1,0,0)">
					<path class="st5" d="M-382.4-551.3c3.2,0,6,1.2,8.2,3.5c2.3,2.3,3.4,5.1,3.4,8.4s-1.1,6.1-3.4,8.4s-5,3.5-8.2,3.5
						s-6-1.2-8.3-3.5s-3.4-5.1-3.4-8.4s1.1-6.1,3.4-8.4C-388.4-550.1-385.6-551.3-382.4-551.3z"/>
				</g>
			</g>
		</g>
		<g transform="matrix(1,0,0,1,693.5050048828125,501.8330078125)">
			<g transform="matrix(1,0,0,1,-212.375,-8.75)">
				<path class="st5" d="M-358.2-544.8c8.1,0,14.7,6.6,14.7,14.7c0,8.1-6.6,14.7-14.7,14.7s-14.7-6.6-14.7-14.7
					C-372.9-538.3-366.3-544.8-358.2-544.8z"/>
			</g>
		</g>
	</g>
	<g transform="matrix(1,0,0,1,189.50601196289062,0)">
		<g transform="matrix(1,0,0,1,312.6629943847656,499.52301025390625)">
			<path class="st0" d="M-496.5-472.3c4.1-6.5,13.9-9.9,29.6-10.4l40.6,0.2c5.3,1.3,8.1,4.6,8.4,9.8v75c0.5,8.4-2.9,12.8-10.2,13.1
				h-46.1c-3.9,0.1-8.9-1.3-15.2-4.3l2.9,1.1c-5.3-3.3-8.5-5.5-9.6-6.6h-0.5v-3.4l0,0v-1.3l0,0L-496.5-472.3z"/>
		</g>
		<g transform="matrix(1,0,0,1,295.9949951171875,495.72601318359375)">
			<g transform="matrix(1,0,0,1,0,0)">
				<path class="st1" d="M-481.3-462.8c0.3-6.7,3.8-10.6,10.5-11.5l47.1,0.2c6.1,1.2,9.1,4.4,9,9.7l-1.1,66c0.2,6.3-2.7,9.5-8.5,9.5
					l-47.4-0.2c-7.2,1-10.6-2.8-10.2-11.4L-481.3-462.8z"/>
			</g>
		</g>
	</g>
	<g transform="matrix(1,0,0,1,689.5059814453125,500)">
		<g transform="matrix(1,0,0,1,-206.375,-2.75)">
			<path class="st2" d="M-420.6-467.2v69.7c0,0.5-0.4,0.9-0.9,0.9h-51.1c-0.5,0-0.9-0.4-0.9-0.9v-69.7c0-0.5,0.4-0.9,0.9-0.9h51.1
				C-421-468.2-420.6-467.8-420.6-467.2z"/>
		</g>
	</g>
	<g transform="matrix(1,0,0,1,689.5059814453125,500)">
		<g transform="matrix(1,0,0,1,-206.375,-2.75)">
			<path class="st1" d="M-422.1-465.9v67c0,0.5-0.4,0.9-0.9,0.9h-48.1c-0.5,0-0.9-0.4-0.9-0.9v-67c0-0.5,0.4-0.9,0.9-0.9h48.1
				C-422.5-466.8-422.1-466.4-422.1-465.9z"/>
		</g>
	</g>
	<g transform="matrix(1,0,0,1,189.50601196289062,0)">
		<g transform="matrix(1,0,0,1,290.8659973144531,491.6440124511719)">
			<g transform="matrix(1,0,0,1,0,0)">
				<path class="st0" d="M-433.6-441.6c3.3,3.4,5,7.4,5,12.2s-1.7,8.8-5,12.2c-3.3,3.4-7.3,5-12,5s-8.7-1.7-12-5
					c-3.3-3.4-5-7.4-5-12.2s1.7-8.8,5-12.2c3.3-3.4,7.3-5,12-5S-436.9-444.9-433.6-441.6z"/>
			</g>
		</g>
		<g transform="matrix(1,0,0,1,286.67401123046875,490.739990234375)">
			<g transform="matrix(1,0,0,1,0,0)">
				<path class="st1" d="M-433.9-438.4c2.6,2.6,3.9,5.8,3.9,9.6c0,3.7-1.3,6.9-3.9,9.6c-2.6,2.6-5.7,4-9.4,4c-3.7,0-6.8-1.3-9.4-4
					c-2.6-2.6-3.9-5.8-3.9-9.6c0-3.7,1.3-6.9,3.9-9.6c2.6-2.6,5.7-4,9.4-4C-439.7-442.4-436.5-441.1-433.9-438.4z"/>
			</g>
		</g>
		<g transform="matrix(1,0,0,1,286.489013671875,490.27899169921875)">
			<g transform="matrix(1,0,0,1,0,0)">
				<path class="st6" d="M-435-437c2.3,2.3,3.4,5.1,3.4,8.4s-1.1,6.1-3.4,8.4s-5,3.5-8.2,3.5s-6-1.2-8.3-3.5s-3.4-5.1-3.4-8.4
					s1.1-6.1,3.4-8.4s5-3.5,8.3-3.5C-440-440.5-437.3-439.4-435-437z"/>
			</g>
		</g>
	</g>
</g>
</svg>
